M48
; DRILL file {KiCad (5.1.9-0-10_14)} date Wednesday, March 17, 2021 at 04:44:52 PM
; FORMAT={-:-/ absolute / inch / decimal}
; #@! TF.CreationDate,2021-03-17T16:44:52+08:00
; #@! TF.GenerationSoftware,Kicad,Pcbnew,(5.1.9-0-10_14)
; #@! TF.FileFunction,Plated,1,2,PTH
FMAT,2
INCH
T1C0.0157
T2C0.0315
%
G90
G05
T1
X3.9783Y-4.4114
X4.0571Y-3.9764
X4.0945Y-4.1949
X4.1083Y-4.0787
X4.1102Y-4.2717
X4.1358Y-4.1496
X4.1358Y-4.1949
X4.1575Y-4.2717
X4.1752Y-4.1496
X4.1752Y-4.1949
X4.2087Y-4.0591
X4.2087Y-4.0945
X4.3197Y-4.3732
X4.3287Y-4.1732
X4.3898Y-4.376
X4.4582Y-4.3732
X4.4606Y-3.9764
X4.5039Y-4.1535
X4.5039Y-4.1949
X4.5271Y-4.3732
X4.5315Y-3.9764
X4.5571Y-4.1535
X4.5571Y-4.1949
X4.5925Y-4.374
X4.5945Y-4.3189
X4.5965Y-3.9764
X4.6494Y-4.2707
X4.6656Y-3.9764
X4.6994Y-4.2707
X4.7018Y-4.0758
X4.7067Y-4.1969
X4.7303Y-4.4469
X4.7323Y-4.1654
X4.749Y-4.0758
X4.7717Y-4.1654
X4.7992Y-4.2717
X4.8002Y-4.4457
T2
X3.9449Y-4.0551
X3.9449Y-4.1339
X3.9449Y-4.2126
X3.9449Y-4.2913
X4.9134Y-4.0551
X4.9134Y-4.1339
X4.9134Y-4.2126
X4.9134Y-4.2913
X4.9134Y-4.3701
T0
M30
