%TF.GenerationSoftware,KiCad,Pcbnew,(5.1.6-0-10_14)*%
%TF.CreationDate,2021-01-13T21:17:16+08:00*%
%TF.ProjectId,Zeeuss,5a656575-7373-42e6-9b69-6361645f7063,rev?*%
%TF.SameCoordinates,Original*%
%TF.FileFunction,Paste,Top*%
%TF.FilePolarity,Positive*%
%FSLAX46Y46*%
G04 Gerber Fmt 4.6, Leading zero omitted, Abs format (unit mm)*
G04 Created by KiCad (PCBNEW (5.1.6-0-10_14)) date 2021-01-13 21:17:16*
%MOMM*%
%LPD*%
G01*
G04 APERTURE LIST*
%ADD10R,1.700000X0.900000*%
%ADD11R,2.700000X2.200000*%
G04 APERTURE END LIST*
%TO.C,REF\u002A\u002A*%
G36*
G01*
X119750000Y-111500000D02*
X118750000Y-111500000D01*
G75*
G02*
X118500000Y-111250000I0J250000D01*
G01*
X118500000Y-110750000D01*
G75*
G02*
X118750000Y-110500000I250000J0D01*
G01*
X119750000Y-110500000D01*
G75*
G02*
X120000000Y-110750000I0J-250000D01*
G01*
X120000000Y-111250000D01*
G75*
G02*
X119750000Y-111500000I-250000J0D01*
G01*
G37*
%TD*%
%TO.C,REF\u002A\u002A*%
G36*
G01*
X119750000Y-117500000D02*
X118750000Y-117500000D01*
G75*
G02*
X118500000Y-117250000I0J250000D01*
G01*
X118500000Y-116750000D01*
G75*
G02*
X118750000Y-116500000I250000J0D01*
G01*
X119750000Y-116500000D01*
G75*
G02*
X120000000Y-116750000I0J-250000D01*
G01*
X120000000Y-117250000D01*
G75*
G02*
X119750000Y-117500000I-250000J0D01*
G01*
G37*
%TD*%
%TO.C,REF\u002A\u002A*%
G36*
G01*
X119750000Y-116000000D02*
X118750000Y-116000000D01*
G75*
G02*
X118500000Y-115750000I0J250000D01*
G01*
X118500000Y-115250000D01*
G75*
G02*
X118750000Y-115000000I250000J0D01*
G01*
X119750000Y-115000000D01*
G75*
G02*
X120000000Y-115250000I0J-250000D01*
G01*
X120000000Y-115750000D01*
G75*
G02*
X119750000Y-116000000I-250000J0D01*
G01*
G37*
%TD*%
%TO.C,REF\u002A\u002A*%
G36*
G01*
X119750000Y-114500000D02*
X118750000Y-114500000D01*
G75*
G02*
X118500000Y-114250000I0J250000D01*
G01*
X118500000Y-113750000D01*
G75*
G02*
X118750000Y-113500000I250000J0D01*
G01*
X119750000Y-113500000D01*
G75*
G02*
X120000000Y-113750000I0J-250000D01*
G01*
X120000000Y-114250000D01*
G75*
G02*
X119750000Y-114500000I-250000J0D01*
G01*
G37*
%TD*%
%TO.C,REF\u002A\u002A*%
G36*
G01*
X119750000Y-113000000D02*
X118750000Y-113000000D01*
G75*
G02*
X118500000Y-112750000I0J250000D01*
G01*
X118500000Y-112250000D01*
G75*
G02*
X118750000Y-112000000I250000J0D01*
G01*
X119750000Y-112000000D01*
G75*
G02*
X120000000Y-112250000I0J-250000D01*
G01*
X120000000Y-112750000D01*
G75*
G02*
X119750000Y-113000000I-250000J0D01*
G01*
G37*
%TD*%
%TO.C,C12*%
G36*
G01*
X117037500Y-109300000D02*
X116562500Y-109300000D01*
G75*
G02*
X116325000Y-109062500I0J237500D01*
G01*
X116325000Y-108487500D01*
G75*
G02*
X116562500Y-108250000I237500J0D01*
G01*
X117037500Y-108250000D01*
G75*
G02*
X117275000Y-108487500I0J-237500D01*
G01*
X117275000Y-109062500D01*
G75*
G02*
X117037500Y-109300000I-237500J0D01*
G01*
G37*
G36*
G01*
X117037500Y-111050000D02*
X116562500Y-111050000D01*
G75*
G02*
X116325000Y-110812500I0J237500D01*
G01*
X116325000Y-110237500D01*
G75*
G02*
X116562500Y-110000000I237500J0D01*
G01*
X117037500Y-110000000D01*
G75*
G02*
X117275000Y-110237500I0J-237500D01*
G01*
X117275000Y-110812500D01*
G75*
G02*
X117037500Y-111050000I-237500J0D01*
G01*
G37*
%TD*%
%TO.C,C11*%
G36*
G01*
X113625000Y-111504170D02*
X113625000Y-111979170D01*
G75*
G02*
X113387500Y-112216670I-237500J0D01*
G01*
X112812500Y-112216670D01*
G75*
G02*
X112575000Y-111979170I0J237500D01*
G01*
X112575000Y-111504170D01*
G75*
G02*
X112812500Y-111266670I237500J0D01*
G01*
X113387500Y-111266670D01*
G75*
G02*
X113625000Y-111504170I0J-237500D01*
G01*
G37*
G36*
G01*
X115375000Y-111504170D02*
X115375000Y-111979170D01*
G75*
G02*
X115137500Y-112216670I-237500J0D01*
G01*
X114562500Y-112216670D01*
G75*
G02*
X114325000Y-111979170I0J237500D01*
G01*
X114325000Y-111504170D01*
G75*
G02*
X114562500Y-111266670I237500J0D01*
G01*
X115137500Y-111266670D01*
G75*
G02*
X115375000Y-111504170I0J-237500D01*
G01*
G37*
%TD*%
%TO.C,C10*%
G36*
G01*
X115162500Y-114800000D02*
X115637500Y-114800000D01*
G75*
G02*
X115875000Y-115037500I0J-237500D01*
G01*
X115875000Y-115612500D01*
G75*
G02*
X115637500Y-115850000I-237500J0D01*
G01*
X115162500Y-115850000D01*
G75*
G02*
X114925000Y-115612500I0J237500D01*
G01*
X114925000Y-115037500D01*
G75*
G02*
X115162500Y-114800000I237500J0D01*
G01*
G37*
G36*
G01*
X115162500Y-113050000D02*
X115637500Y-113050000D01*
G75*
G02*
X115875000Y-113287500I0J-237500D01*
G01*
X115875000Y-113862500D01*
G75*
G02*
X115637500Y-114100000I-237500J0D01*
G01*
X115162500Y-114100000D01*
G75*
G02*
X114925000Y-113862500I0J237500D01*
G01*
X114925000Y-113287500D01*
G75*
G02*
X115162500Y-113050000I237500J0D01*
G01*
G37*
%TD*%
%TO.C,C5*%
G36*
G01*
X113625000Y-109812500D02*
X113625000Y-110287500D01*
G75*
G02*
X113387500Y-110525000I-237500J0D01*
G01*
X112812500Y-110525000D01*
G75*
G02*
X112575000Y-110287500I0J237500D01*
G01*
X112575000Y-109812500D01*
G75*
G02*
X112812500Y-109575000I237500J0D01*
G01*
X113387500Y-109575000D01*
G75*
G02*
X113625000Y-109812500I0J-237500D01*
G01*
G37*
G36*
G01*
X115375000Y-109812500D02*
X115375000Y-110287500D01*
G75*
G02*
X115137500Y-110525000I-237500J0D01*
G01*
X114562500Y-110525000D01*
G75*
G02*
X114325000Y-110287500I0J237500D01*
G01*
X114325000Y-109812500D01*
G75*
G02*
X114562500Y-109575000I237500J0D01*
G01*
X115137500Y-109575000D01*
G75*
G02*
X115375000Y-109812500I0J-237500D01*
G01*
G37*
%TD*%
%TO.C,C2*%
G36*
G01*
X116912500Y-114800000D02*
X117387500Y-114800000D01*
G75*
G02*
X117625000Y-115037500I0J-237500D01*
G01*
X117625000Y-115612500D01*
G75*
G02*
X117387500Y-115850000I-237500J0D01*
G01*
X116912500Y-115850000D01*
G75*
G02*
X116675000Y-115612500I0J237500D01*
G01*
X116675000Y-115037500D01*
G75*
G02*
X116912500Y-114800000I237500J0D01*
G01*
G37*
G36*
G01*
X116912500Y-113050000D02*
X117387500Y-113050000D01*
G75*
G02*
X117625000Y-113287500I0J-237500D01*
G01*
X117625000Y-113862500D01*
G75*
G02*
X117387500Y-114100000I-237500J0D01*
G01*
X116912500Y-114100000D01*
G75*
G02*
X116675000Y-113862500I0J237500D01*
G01*
X116675000Y-113287500D01*
G75*
G02*
X116912500Y-113050000I237500J0D01*
G01*
G37*
%TD*%
%TO.C,C1*%
G36*
G01*
X118275000Y-107179166D02*
X118275000Y-106704166D01*
G75*
G02*
X118512500Y-106466666I237500J0D01*
G01*
X119087500Y-106466666D01*
G75*
G02*
X119325000Y-106704166I0J-237500D01*
G01*
X119325000Y-107179166D01*
G75*
G02*
X119087500Y-107416666I-237500J0D01*
G01*
X118512500Y-107416666D01*
G75*
G02*
X118275000Y-107179166I0J237500D01*
G01*
G37*
G36*
G01*
X116525000Y-107179166D02*
X116525000Y-106704166D01*
G75*
G02*
X116762500Y-106466666I237500J0D01*
G01*
X117337500Y-106466666D01*
G75*
G02*
X117575000Y-106704166I0J-237500D01*
G01*
X117575000Y-107179166D01*
G75*
G02*
X117337500Y-107416666I-237500J0D01*
G01*
X116762500Y-107416666D01*
G75*
G02*
X116525000Y-107179166I0J237500D01*
G01*
G37*
%TD*%
%TO.C,U2*%
G36*
G01*
X107360000Y-116425000D02*
X107360000Y-115675000D01*
G75*
G02*
X107590000Y-115445000I230000J0D01*
G01*
X108050000Y-115445000D01*
G75*
G02*
X108280000Y-115675000I0J-230000D01*
G01*
X108280000Y-116425000D01*
G75*
G02*
X108050000Y-116655000I-230000J0D01*
G01*
X107590000Y-116655000D01*
G75*
G02*
X107360000Y-116425000I0J230000D01*
G01*
G37*
G36*
G01*
X107360000Y-114925000D02*
X107360000Y-114175000D01*
G75*
G02*
X107590000Y-113945000I230000J0D01*
G01*
X108050000Y-113945000D01*
G75*
G02*
X108280000Y-114175000I0J-230000D01*
G01*
X108280000Y-114925000D01*
G75*
G02*
X108050000Y-115155000I-230000J0D01*
G01*
X107590000Y-115155000D01*
G75*
G02*
X107360000Y-114925000I0J230000D01*
G01*
G37*
G36*
G01*
X106220000Y-116425000D02*
X106220000Y-115675000D01*
G75*
G02*
X106450000Y-115445000I230000J0D01*
G01*
X106910000Y-115445000D01*
G75*
G02*
X107140000Y-115675000I0J-230000D01*
G01*
X107140000Y-116425000D01*
G75*
G02*
X106910000Y-116655000I-230000J0D01*
G01*
X106450000Y-116655000D01*
G75*
G02*
X106220000Y-116425000I0J230000D01*
G01*
G37*
G36*
G01*
X106220000Y-114925000D02*
X106220000Y-114175000D01*
G75*
G02*
X106450000Y-113945000I230000J0D01*
G01*
X106910000Y-113945000D01*
G75*
G02*
X107140000Y-114175000I0J-230000D01*
G01*
X107140000Y-114925000D01*
G75*
G02*
X106910000Y-115155000I-230000J0D01*
G01*
X106450000Y-115155000D01*
G75*
G02*
X106220000Y-114925000I0J230000D01*
G01*
G37*
G36*
G01*
X108750000Y-113545000D02*
X108750000Y-113245000D01*
G75*
G02*
X108900000Y-113095000I150000J0D01*
G01*
X110550000Y-113095000D01*
G75*
G02*
X110700000Y-113245000I0J-150000D01*
G01*
X110700000Y-113545000D01*
G75*
G02*
X110550000Y-113695000I-150000J0D01*
G01*
X108900000Y-113695000D01*
G75*
G02*
X108750000Y-113545000I0J150000D01*
G01*
G37*
G36*
G01*
X108750000Y-114815000D02*
X108750000Y-114515000D01*
G75*
G02*
X108900000Y-114365000I150000J0D01*
G01*
X110550000Y-114365000D01*
G75*
G02*
X110700000Y-114515000I0J-150000D01*
G01*
X110700000Y-114815000D01*
G75*
G02*
X110550000Y-114965000I-150000J0D01*
G01*
X108900000Y-114965000D01*
G75*
G02*
X108750000Y-114815000I0J150000D01*
G01*
G37*
G36*
G01*
X108750000Y-116085000D02*
X108750000Y-115785000D01*
G75*
G02*
X108900000Y-115635000I150000J0D01*
G01*
X110550000Y-115635000D01*
G75*
G02*
X110700000Y-115785000I0J-150000D01*
G01*
X110700000Y-116085000D01*
G75*
G02*
X110550000Y-116235000I-150000J0D01*
G01*
X108900000Y-116235000D01*
G75*
G02*
X108750000Y-116085000I0J150000D01*
G01*
G37*
G36*
G01*
X108750000Y-117355000D02*
X108750000Y-117055000D01*
G75*
G02*
X108900000Y-116905000I150000J0D01*
G01*
X110550000Y-116905000D01*
G75*
G02*
X110700000Y-117055000I0J-150000D01*
G01*
X110700000Y-117355000D01*
G75*
G02*
X110550000Y-117505000I-150000J0D01*
G01*
X108900000Y-117505000D01*
G75*
G02*
X108750000Y-117355000I0J150000D01*
G01*
G37*
G36*
G01*
X103800000Y-117355000D02*
X103800000Y-117055000D01*
G75*
G02*
X103950000Y-116905000I150000J0D01*
G01*
X105600000Y-116905000D01*
G75*
G02*
X105750000Y-117055000I0J-150000D01*
G01*
X105750000Y-117355000D01*
G75*
G02*
X105600000Y-117505000I-150000J0D01*
G01*
X103950000Y-117505000D01*
G75*
G02*
X103800000Y-117355000I0J150000D01*
G01*
G37*
G36*
G01*
X103800000Y-116085000D02*
X103800000Y-115785000D01*
G75*
G02*
X103950000Y-115635000I150000J0D01*
G01*
X105600000Y-115635000D01*
G75*
G02*
X105750000Y-115785000I0J-150000D01*
G01*
X105750000Y-116085000D01*
G75*
G02*
X105600000Y-116235000I-150000J0D01*
G01*
X103950000Y-116235000D01*
G75*
G02*
X103800000Y-116085000I0J150000D01*
G01*
G37*
G36*
G01*
X103800000Y-114815000D02*
X103800000Y-114515000D01*
G75*
G02*
X103950000Y-114365000I150000J0D01*
G01*
X105600000Y-114365000D01*
G75*
G02*
X105750000Y-114515000I0J-150000D01*
G01*
X105750000Y-114815000D01*
G75*
G02*
X105600000Y-114965000I-150000J0D01*
G01*
X103950000Y-114965000D01*
G75*
G02*
X103800000Y-114815000I0J150000D01*
G01*
G37*
G36*
G01*
X103800000Y-113545000D02*
X103800000Y-113245000D01*
G75*
G02*
X103950000Y-113095000I150000J0D01*
G01*
X105600000Y-113095000D01*
G75*
G02*
X105750000Y-113245000I0J-150000D01*
G01*
X105750000Y-113545000D01*
G75*
G02*
X105600000Y-113695000I-150000J0D01*
G01*
X103950000Y-113695000D01*
G75*
G02*
X103800000Y-113545000I0J150000D01*
G01*
G37*
%TD*%
%TO.C,U1*%
G36*
G01*
X111985000Y-101552500D02*
X111985000Y-102397500D01*
G75*
G02*
X111742500Y-102640000I-242500J0D01*
G01*
X111257500Y-102640000D01*
G75*
G02*
X111015000Y-102397500I0J242500D01*
G01*
X111015000Y-101552500D01*
G75*
G02*
X111257500Y-101310000I242500J0D01*
G01*
X111742500Y-101310000D01*
G75*
G02*
X111985000Y-101552500I0J-242500D01*
G01*
G37*
G36*
G01*
X111985000Y-103202500D02*
X111985000Y-104047500D01*
G75*
G02*
X111742500Y-104290000I-242500J0D01*
G01*
X111257500Y-104290000D01*
G75*
G02*
X111015000Y-104047500I0J242500D01*
G01*
X111015000Y-103202500D01*
G75*
G02*
X111257500Y-102960000I242500J0D01*
G01*
X111742500Y-102960000D01*
G75*
G02*
X111985000Y-103202500I0J-242500D01*
G01*
G37*
G36*
G01*
X113185000Y-101552500D02*
X113185000Y-102397500D01*
G75*
G02*
X112942500Y-102640000I-242500J0D01*
G01*
X112457500Y-102640000D01*
G75*
G02*
X112215000Y-102397500I0J242500D01*
G01*
X112215000Y-101552500D01*
G75*
G02*
X112457500Y-101310000I242500J0D01*
G01*
X112942500Y-101310000D01*
G75*
G02*
X113185000Y-101552500I0J-242500D01*
G01*
G37*
G36*
G01*
X113185000Y-103202500D02*
X113185000Y-104047500D01*
G75*
G02*
X112942500Y-104290000I-242500J0D01*
G01*
X112457500Y-104290000D01*
G75*
G02*
X112215000Y-104047500I0J242500D01*
G01*
X112215000Y-103202500D01*
G75*
G02*
X112457500Y-102960000I242500J0D01*
G01*
X112942500Y-102960000D01*
G75*
G02*
X113185000Y-103202500I0J-242500D01*
G01*
G37*
G36*
G01*
X110600000Y-104555000D02*
X110600000Y-104855000D01*
G75*
G02*
X110450000Y-105005000I-150000J0D01*
G01*
X108800000Y-105005000D01*
G75*
G02*
X108650000Y-104855000I0J150000D01*
G01*
X108650000Y-104555000D01*
G75*
G02*
X108800000Y-104405000I150000J0D01*
G01*
X110450000Y-104405000D01*
G75*
G02*
X110600000Y-104555000I0J-150000D01*
G01*
G37*
G36*
G01*
X110600000Y-103285000D02*
X110600000Y-103585000D01*
G75*
G02*
X110450000Y-103735000I-150000J0D01*
G01*
X108800000Y-103735000D01*
G75*
G02*
X108650000Y-103585000I0J150000D01*
G01*
X108650000Y-103285000D01*
G75*
G02*
X108800000Y-103135000I150000J0D01*
G01*
X110450000Y-103135000D01*
G75*
G02*
X110600000Y-103285000I0J-150000D01*
G01*
G37*
G36*
G01*
X110600000Y-102015000D02*
X110600000Y-102315000D01*
G75*
G02*
X110450000Y-102465000I-150000J0D01*
G01*
X108800000Y-102465000D01*
G75*
G02*
X108650000Y-102315000I0J150000D01*
G01*
X108650000Y-102015000D01*
G75*
G02*
X108800000Y-101865000I150000J0D01*
G01*
X110450000Y-101865000D01*
G75*
G02*
X110600000Y-102015000I0J-150000D01*
G01*
G37*
G36*
G01*
X110600000Y-100745000D02*
X110600000Y-101045000D01*
G75*
G02*
X110450000Y-101195000I-150000J0D01*
G01*
X108800000Y-101195000D01*
G75*
G02*
X108650000Y-101045000I0J150000D01*
G01*
X108650000Y-100745000D01*
G75*
G02*
X108800000Y-100595000I150000J0D01*
G01*
X110450000Y-100595000D01*
G75*
G02*
X110600000Y-100745000I0J-150000D01*
G01*
G37*
G36*
G01*
X115550000Y-100745000D02*
X115550000Y-101045000D01*
G75*
G02*
X115400000Y-101195000I-150000J0D01*
G01*
X113750000Y-101195000D01*
G75*
G02*
X113600000Y-101045000I0J150000D01*
G01*
X113600000Y-100745000D01*
G75*
G02*
X113750000Y-100595000I150000J0D01*
G01*
X115400000Y-100595000D01*
G75*
G02*
X115550000Y-100745000I0J-150000D01*
G01*
G37*
G36*
G01*
X115550000Y-102015000D02*
X115550000Y-102315000D01*
G75*
G02*
X115400000Y-102465000I-150000J0D01*
G01*
X113750000Y-102465000D01*
G75*
G02*
X113600000Y-102315000I0J150000D01*
G01*
X113600000Y-102015000D01*
G75*
G02*
X113750000Y-101865000I150000J0D01*
G01*
X115400000Y-101865000D01*
G75*
G02*
X115550000Y-102015000I0J-150000D01*
G01*
G37*
G36*
G01*
X115550000Y-103285000D02*
X115550000Y-103585000D01*
G75*
G02*
X115400000Y-103735000I-150000J0D01*
G01*
X113750000Y-103735000D01*
G75*
G02*
X113600000Y-103585000I0J150000D01*
G01*
X113600000Y-103285000D01*
G75*
G02*
X113750000Y-103135000I150000J0D01*
G01*
X115400000Y-103135000D01*
G75*
G02*
X115550000Y-103285000I0J-150000D01*
G01*
G37*
G36*
G01*
X115550000Y-104555000D02*
X115550000Y-104855000D01*
G75*
G02*
X115400000Y-105005000I-150000J0D01*
G01*
X113750000Y-105005000D01*
G75*
G02*
X113600000Y-104855000I0J150000D01*
G01*
X113600000Y-104555000D01*
G75*
G02*
X113750000Y-104405000I150000J0D01*
G01*
X115400000Y-104405000D01*
G75*
G02*
X115550000Y-104555000I0J-150000D01*
G01*
G37*
%TD*%
D10*
%TO.C,SW1*%
X112750000Y-116950000D03*
X112750000Y-113550000D03*
%TD*%
%TO.C,R10*%
G36*
G01*
X116512500Y-102400000D02*
X116987500Y-102400000D01*
G75*
G02*
X117225000Y-102637500I0J-237500D01*
G01*
X117225000Y-103212500D01*
G75*
G02*
X116987500Y-103450000I-237500J0D01*
G01*
X116512500Y-103450000D01*
G75*
G02*
X116275000Y-103212500I0J237500D01*
G01*
X116275000Y-102637500D01*
G75*
G02*
X116512500Y-102400000I237500J0D01*
G01*
G37*
G36*
G01*
X116512500Y-100650000D02*
X116987500Y-100650000D01*
G75*
G02*
X117225000Y-100887500I0J-237500D01*
G01*
X117225000Y-101462500D01*
G75*
G02*
X116987500Y-101700000I-237500J0D01*
G01*
X116512500Y-101700000D01*
G75*
G02*
X116275000Y-101462500I0J237500D01*
G01*
X116275000Y-100887500D01*
G75*
G02*
X116512500Y-100650000I237500J0D01*
G01*
G37*
%TD*%
%TO.C,R9*%
G36*
G01*
X118275000Y-105487500D02*
X118275000Y-105012500D01*
G75*
G02*
X118512500Y-104775000I237500J0D01*
G01*
X119087500Y-104775000D01*
G75*
G02*
X119325000Y-105012500I0J-237500D01*
G01*
X119325000Y-105487500D01*
G75*
G02*
X119087500Y-105725000I-237500J0D01*
G01*
X118512500Y-105725000D01*
G75*
G02*
X118275000Y-105487500I0J237500D01*
G01*
G37*
G36*
G01*
X116525000Y-105487500D02*
X116525000Y-105012500D01*
G75*
G02*
X116762500Y-104775000I237500J0D01*
G01*
X117337500Y-104775000D01*
G75*
G02*
X117575000Y-105012500I0J-237500D01*
G01*
X117575000Y-105487500D01*
G75*
G02*
X117337500Y-105725000I-237500J0D01*
G01*
X116762500Y-105725000D01*
G75*
G02*
X116525000Y-105487500I0J237500D01*
G01*
G37*
%TD*%
%TO.C,R5*%
G36*
G01*
X102362500Y-109700000D02*
X102837500Y-109700000D01*
G75*
G02*
X103075000Y-109937500I0J-237500D01*
G01*
X103075000Y-110512500D01*
G75*
G02*
X102837500Y-110750000I-237500J0D01*
G01*
X102362500Y-110750000D01*
G75*
G02*
X102125000Y-110512500I0J237500D01*
G01*
X102125000Y-109937500D01*
G75*
G02*
X102362500Y-109700000I237500J0D01*
G01*
G37*
G36*
G01*
X102362500Y-107950000D02*
X102837500Y-107950000D01*
G75*
G02*
X103075000Y-108187500I0J-237500D01*
G01*
X103075000Y-108762500D01*
G75*
G02*
X102837500Y-109000000I-237500J0D01*
G01*
X102362500Y-109000000D01*
G75*
G02*
X102125000Y-108762500I0J237500D01*
G01*
X102125000Y-108187500D01*
G75*
G02*
X102362500Y-107950000I237500J0D01*
G01*
G37*
%TD*%
%TO.C,R3*%
G36*
G01*
X110825000Y-111937500D02*
X110825000Y-111462500D01*
G75*
G02*
X111062500Y-111225000I237500J0D01*
G01*
X111637500Y-111225000D01*
G75*
G02*
X111875000Y-111462500I0J-237500D01*
G01*
X111875000Y-111937500D01*
G75*
G02*
X111637500Y-112175000I-237500J0D01*
G01*
X111062500Y-112175000D01*
G75*
G02*
X110825000Y-111937500I0J237500D01*
G01*
G37*
G36*
G01*
X109075000Y-111937500D02*
X109075000Y-111462500D01*
G75*
G02*
X109312500Y-111225000I237500J0D01*
G01*
X109887500Y-111225000D01*
G75*
G02*
X110125000Y-111462500I0J-237500D01*
G01*
X110125000Y-111937500D01*
G75*
G02*
X109887500Y-112175000I-237500J0D01*
G01*
X109312500Y-112175000D01*
G75*
G02*
X109075000Y-111937500I0J237500D01*
G01*
G37*
%TD*%
%TO.C,R1*%
G36*
G01*
X106237500Y-110525000D02*
X105762500Y-110525000D01*
G75*
G02*
X105525000Y-110287500I0J237500D01*
G01*
X105525000Y-109712500D01*
G75*
G02*
X105762500Y-109475000I237500J0D01*
G01*
X106237500Y-109475000D01*
G75*
G02*
X106475000Y-109712500I0J-237500D01*
G01*
X106475000Y-110287500D01*
G75*
G02*
X106237500Y-110525000I-237500J0D01*
G01*
G37*
G36*
G01*
X106237500Y-112275000D02*
X105762500Y-112275000D01*
G75*
G02*
X105525000Y-112037500I0J237500D01*
G01*
X105525000Y-111462500D01*
G75*
G02*
X105762500Y-111225000I237500J0D01*
G01*
X106237500Y-111225000D01*
G75*
G02*
X106475000Y-111462500I0J-237500D01*
G01*
X106475000Y-112037500D01*
G75*
G02*
X106237500Y-112275000I-237500J0D01*
G01*
G37*
%TD*%
D11*
%TO.C,L2*%
X101650000Y-103850000D03*
X106750000Y-103850000D03*
%TD*%
%TO.C,D4*%
G36*
G01*
X101322500Y-116493749D02*
X101322500Y-117006249D01*
G75*
G02*
X101103750Y-117224999I-218750J0D01*
G01*
X100666250Y-117224999D01*
G75*
G02*
X100447500Y-117006249I0J218750D01*
G01*
X100447500Y-116493749D01*
G75*
G02*
X100666250Y-116274999I218750J0D01*
G01*
X101103750Y-116274999D01*
G75*
G02*
X101322500Y-116493749I0J-218750D01*
G01*
G37*
G36*
G01*
X102897500Y-116493749D02*
X102897500Y-117006249D01*
G75*
G02*
X102678750Y-117224999I-218750J0D01*
G01*
X102241250Y-117224999D01*
G75*
G02*
X102022500Y-117006249I0J218750D01*
G01*
X102022500Y-116493749D01*
G75*
G02*
X102241250Y-116274999I218750J0D01*
G01*
X102678750Y-116274999D01*
G75*
G02*
X102897500Y-116493749I0J-218750D01*
G01*
G37*
%TD*%
%TO.C,D3*%
G36*
G01*
X101322500Y-114910416D02*
X101322500Y-115422916D01*
G75*
G02*
X101103750Y-115641666I-218750J0D01*
G01*
X100666250Y-115641666D01*
G75*
G02*
X100447500Y-115422916I0J218750D01*
G01*
X100447500Y-114910416D01*
G75*
G02*
X100666250Y-114691666I218750J0D01*
G01*
X101103750Y-114691666D01*
G75*
G02*
X101322500Y-114910416I0J-218750D01*
G01*
G37*
G36*
G01*
X102897500Y-114910416D02*
X102897500Y-115422916D01*
G75*
G02*
X102678750Y-115641666I-218750J0D01*
G01*
X102241250Y-115641666D01*
G75*
G02*
X102022500Y-115422916I0J218750D01*
G01*
X102022500Y-114910416D01*
G75*
G02*
X102241250Y-114691666I218750J0D01*
G01*
X102678750Y-114691666D01*
G75*
G02*
X102897500Y-114910416I0J-218750D01*
G01*
G37*
%TD*%
%TO.C,D2*%
G36*
G01*
X102062500Y-113839583D02*
X102062500Y-113327083D01*
G75*
G02*
X102281250Y-113108333I218750J0D01*
G01*
X102718750Y-113108333D01*
G75*
G02*
X102937500Y-113327083I0J-218750D01*
G01*
X102937500Y-113839583D01*
G75*
G02*
X102718750Y-114058333I-218750J0D01*
G01*
X102281250Y-114058333D01*
G75*
G02*
X102062500Y-113839583I0J218750D01*
G01*
G37*
G36*
G01*
X100487500Y-113839583D02*
X100487500Y-113327083D01*
G75*
G02*
X100706250Y-113108333I218750J0D01*
G01*
X101143750Y-113108333D01*
G75*
G02*
X101362500Y-113327083I0J-218750D01*
G01*
X101362500Y-113839583D01*
G75*
G02*
X101143750Y-114058333I-218750J0D01*
G01*
X100706250Y-114058333D01*
G75*
G02*
X100487500Y-113839583I0J218750D01*
G01*
G37*
%TD*%
%TO.C,D1*%
G36*
G01*
X102062500Y-112256250D02*
X102062500Y-111743750D01*
G75*
G02*
X102281250Y-111525000I218750J0D01*
G01*
X102718750Y-111525000D01*
G75*
G02*
X102937500Y-111743750I0J-218750D01*
G01*
X102937500Y-112256250D01*
G75*
G02*
X102718750Y-112475000I-218750J0D01*
G01*
X102281250Y-112475000D01*
G75*
G02*
X102062500Y-112256250I0J218750D01*
G01*
G37*
G36*
G01*
X100487500Y-112256250D02*
X100487500Y-111743750D01*
G75*
G02*
X100706250Y-111525000I218750J0D01*
G01*
X101143750Y-111525000D01*
G75*
G02*
X101362500Y-111743750I0J-218750D01*
G01*
X101362500Y-112256250D01*
G75*
G02*
X101143750Y-112475000I-218750J0D01*
G01*
X100706250Y-112475000D01*
G75*
G02*
X100487500Y-112256250I0J218750D01*
G01*
G37*
%TD*%
%TO.C,C23*%
G36*
G01*
X118262500Y-102400000D02*
X118737500Y-102400000D01*
G75*
G02*
X118975000Y-102637500I0J-237500D01*
G01*
X118975000Y-103212500D01*
G75*
G02*
X118737500Y-103450000I-237500J0D01*
G01*
X118262500Y-103450000D01*
G75*
G02*
X118025000Y-103212500I0J237500D01*
G01*
X118025000Y-102637500D01*
G75*
G02*
X118262500Y-102400000I237500J0D01*
G01*
G37*
G36*
G01*
X118262500Y-100650000D02*
X118737500Y-100650000D01*
G75*
G02*
X118975000Y-100887500I0J-237500D01*
G01*
X118975000Y-101462500D01*
G75*
G02*
X118737500Y-101700000I-237500J0D01*
G01*
X118262500Y-101700000D01*
G75*
G02*
X118025000Y-101462500I0J237500D01*
G01*
X118025000Y-100887500D01*
G75*
G02*
X118262500Y-100650000I237500J0D01*
G01*
G37*
%TD*%
%TO.C,C22*%
G36*
G01*
X107100000Y-108587500D02*
X107100000Y-108112500D01*
G75*
G02*
X107337500Y-107875000I237500J0D01*
G01*
X107912500Y-107875000D01*
G75*
G02*
X108150000Y-108112500I0J-237500D01*
G01*
X108150000Y-108587500D01*
G75*
G02*
X107912500Y-108825000I-237500J0D01*
G01*
X107337500Y-108825000D01*
G75*
G02*
X107100000Y-108587500I0J237500D01*
G01*
G37*
G36*
G01*
X105350000Y-108587500D02*
X105350000Y-108112500D01*
G75*
G02*
X105587500Y-107875000I237500J0D01*
G01*
X106162500Y-107875000D01*
G75*
G02*
X106400000Y-108112500I0J-237500D01*
G01*
X106400000Y-108587500D01*
G75*
G02*
X106162500Y-108825000I-237500J0D01*
G01*
X105587500Y-108825000D01*
G75*
G02*
X105350000Y-108587500I0J237500D01*
G01*
G37*
%TD*%
%TO.C,C17*%
G36*
G01*
X100662500Y-109675000D02*
X101137500Y-109675000D01*
G75*
G02*
X101375000Y-109912500I0J-237500D01*
G01*
X101375000Y-110487500D01*
G75*
G02*
X101137500Y-110725000I-237500J0D01*
G01*
X100662500Y-110725000D01*
G75*
G02*
X100425000Y-110487500I0J237500D01*
G01*
X100425000Y-109912500D01*
G75*
G02*
X100662500Y-109675000I237500J0D01*
G01*
G37*
G36*
G01*
X100662500Y-107925000D02*
X101137500Y-107925000D01*
G75*
G02*
X101375000Y-108162500I0J-237500D01*
G01*
X101375000Y-108737500D01*
G75*
G02*
X101137500Y-108975000I-237500J0D01*
G01*
X100662500Y-108975000D01*
G75*
G02*
X100425000Y-108737500I0J237500D01*
G01*
X100425000Y-108162500D01*
G75*
G02*
X100662500Y-107925000I237500J0D01*
G01*
G37*
%TD*%
%TO.C,C15*%
G36*
G01*
X110850000Y-110287500D02*
X110850000Y-109812500D01*
G75*
G02*
X111087500Y-109575000I237500J0D01*
G01*
X111662500Y-109575000D01*
G75*
G02*
X111900000Y-109812500I0J-237500D01*
G01*
X111900000Y-110287500D01*
G75*
G02*
X111662500Y-110525000I-237500J0D01*
G01*
X111087500Y-110525000D01*
G75*
G02*
X110850000Y-110287500I0J237500D01*
G01*
G37*
G36*
G01*
X109100000Y-110287500D02*
X109100000Y-109812500D01*
G75*
G02*
X109337500Y-109575000I237500J0D01*
G01*
X109912500Y-109575000D01*
G75*
G02*
X110150000Y-109812500I0J-237500D01*
G01*
X110150000Y-110287500D01*
G75*
G02*
X109912500Y-110525000I-237500J0D01*
G01*
X109337500Y-110525000D01*
G75*
G02*
X109100000Y-110287500I0J237500D01*
G01*
G37*
%TD*%
%TO.C,C9*%
G36*
G01*
X114225000Y-108637500D02*
X114225000Y-108162500D01*
G75*
G02*
X114462500Y-107925000I237500J0D01*
G01*
X115037500Y-107925000D01*
G75*
G02*
X115275000Y-108162500I0J-237500D01*
G01*
X115275000Y-108637500D01*
G75*
G02*
X115037500Y-108875000I-237500J0D01*
G01*
X114462500Y-108875000D01*
G75*
G02*
X114225000Y-108637500I0J237500D01*
G01*
G37*
G36*
G01*
X112475000Y-108637500D02*
X112475000Y-108162500D01*
G75*
G02*
X112712500Y-107925000I237500J0D01*
G01*
X113287500Y-107925000D01*
G75*
G02*
X113525000Y-108162500I0J-237500D01*
G01*
X113525000Y-108637500D01*
G75*
G02*
X113287500Y-108875000I-237500J0D01*
G01*
X112712500Y-108875000D01*
G75*
G02*
X112475000Y-108637500I0J237500D01*
G01*
G37*
%TD*%
%TO.C,C8*%
G36*
G01*
X104537500Y-110525000D02*
X104062500Y-110525000D01*
G75*
G02*
X103825000Y-110287500I0J237500D01*
G01*
X103825000Y-109712500D01*
G75*
G02*
X104062500Y-109475000I237500J0D01*
G01*
X104537500Y-109475000D01*
G75*
G02*
X104775000Y-109712500I0J-237500D01*
G01*
X104775000Y-110287500D01*
G75*
G02*
X104537500Y-110525000I-237500J0D01*
G01*
G37*
G36*
G01*
X104537500Y-112275000D02*
X104062500Y-112275000D01*
G75*
G02*
X103825000Y-112037500I0J237500D01*
G01*
X103825000Y-111462500D01*
G75*
G02*
X104062500Y-111225000I237500J0D01*
G01*
X104537500Y-111225000D01*
G75*
G02*
X104775000Y-111462500I0J-237500D01*
G01*
X104775000Y-112037500D01*
G75*
G02*
X104537500Y-112275000I-237500J0D01*
G01*
G37*
%TD*%
%TO.C,C7*%
G36*
G01*
X110025000Y-108175000D02*
X110025000Y-108650000D01*
G75*
G02*
X109787500Y-108887500I-237500J0D01*
G01*
X109212500Y-108887500D01*
G75*
G02*
X108975000Y-108650000I0J237500D01*
G01*
X108975000Y-108175000D01*
G75*
G02*
X109212500Y-107937500I237500J0D01*
G01*
X109787500Y-107937500D01*
G75*
G02*
X110025000Y-108175000I0J-237500D01*
G01*
G37*
G36*
G01*
X111775000Y-108175000D02*
X111775000Y-108650000D01*
G75*
G02*
X111537500Y-108887500I-237500J0D01*
G01*
X110962500Y-108887500D01*
G75*
G02*
X110725000Y-108650000I0J237500D01*
G01*
X110725000Y-108175000D01*
G75*
G02*
X110962500Y-107937500I237500J0D01*
G01*
X111537500Y-107937500D01*
G75*
G02*
X111775000Y-108175000I0J-237500D01*
G01*
G37*
%TD*%
%TO.C,C6*%
G36*
G01*
X107462500Y-111225000D02*
X107937500Y-111225000D01*
G75*
G02*
X108175000Y-111462500I0J-237500D01*
G01*
X108175000Y-112037500D01*
G75*
G02*
X107937500Y-112275000I-237500J0D01*
G01*
X107462500Y-112275000D01*
G75*
G02*
X107225000Y-112037500I0J237500D01*
G01*
X107225000Y-111462500D01*
G75*
G02*
X107462500Y-111225000I237500J0D01*
G01*
G37*
G36*
G01*
X107462500Y-109475000D02*
X107937500Y-109475000D01*
G75*
G02*
X108175000Y-109712500I0J-237500D01*
G01*
X108175000Y-110287500D01*
G75*
G02*
X107937500Y-110525000I-237500J0D01*
G01*
X107462500Y-110525000D01*
G75*
G02*
X107225000Y-110287500I0J237500D01*
G01*
X107225000Y-109712500D01*
G75*
G02*
X107462500Y-109475000I237500J0D01*
G01*
G37*
%TD*%
%TO.C,C4*%
G36*
G01*
X114200000Y-106837500D02*
X114200000Y-106362500D01*
G75*
G02*
X114437500Y-106125000I237500J0D01*
G01*
X115012500Y-106125000D01*
G75*
G02*
X115250000Y-106362500I0J-237500D01*
G01*
X115250000Y-106837500D01*
G75*
G02*
X115012500Y-107075000I-237500J0D01*
G01*
X114437500Y-107075000D01*
G75*
G02*
X114200000Y-106837500I0J237500D01*
G01*
G37*
G36*
G01*
X112450000Y-106837500D02*
X112450000Y-106362500D01*
G75*
G02*
X112687500Y-106125000I237500J0D01*
G01*
X113262500Y-106125000D01*
G75*
G02*
X113500000Y-106362500I0J-237500D01*
G01*
X113500000Y-106837500D01*
G75*
G02*
X113262500Y-107075000I-237500J0D01*
G01*
X112687500Y-107075000D01*
G75*
G02*
X112450000Y-106837500I0J237500D01*
G01*
G37*
%TD*%
%TO.C,C3*%
G36*
G01*
X110025000Y-106387500D02*
X110025000Y-106862500D01*
G75*
G02*
X109787500Y-107100000I-237500J0D01*
G01*
X109212500Y-107100000D01*
G75*
G02*
X108975000Y-106862500I0J237500D01*
G01*
X108975000Y-106387500D01*
G75*
G02*
X109212500Y-106150000I237500J0D01*
G01*
X109787500Y-106150000D01*
G75*
G02*
X110025000Y-106387500I0J-237500D01*
G01*
G37*
G36*
G01*
X111775000Y-106387500D02*
X111775000Y-106862500D01*
G75*
G02*
X111537500Y-107100000I-237500J0D01*
G01*
X110962500Y-107100000D01*
G75*
G02*
X110725000Y-106862500I0J237500D01*
G01*
X110725000Y-106387500D01*
G75*
G02*
X110962500Y-106150000I237500J0D01*
G01*
X111537500Y-106150000D01*
G75*
G02*
X111775000Y-106387500I0J-237500D01*
G01*
G37*
%TD*%
M02*
