%TF.GenerationSoftware,KiCad,Pcbnew,(5.1.6-0-10_14)*%
%TF.CreationDate,2021-01-13T21:17:16+08:00*%
%TF.ProjectId,Zeeuss,5a656575-7373-42e6-9b69-6361645f7063,rev?*%
%TF.SameCoordinates,Original*%
%TF.FileFunction,Legend,Top*%
%TF.FilePolarity,Positive*%
%FSLAX46Y46*%
G04 Gerber Fmt 4.6, Leading zero omitted, Abs format (unit mm)*
G04 Created by KiCad (PCBNEW (5.1.6-0-10_14)) date 2021-01-13 21:17:16*
%MOMM*%
%LPD*%
G01*
G04 APERTURE LIST*
%ADD10C,0.100000*%
%ADD11C,0.120000*%
G04 APERTURE END LIST*
D10*
X115900000Y-113380952D02*
X115880952Y-113428571D01*
X115880952Y-113500000D01*
X115900000Y-113571428D01*
X115938095Y-113619047D01*
X115976190Y-113642857D01*
X116052380Y-113666666D01*
X116109523Y-113666666D01*
X116185714Y-113642857D01*
X116223809Y-113619047D01*
X116261904Y-113571428D01*
X116280952Y-113500000D01*
X116280952Y-113452380D01*
X116261904Y-113380952D01*
X116242857Y-113357142D01*
X116109523Y-113357142D01*
X116109523Y-113452380D01*
X116280952Y-113142857D02*
X115880952Y-113142857D01*
X116280952Y-112857142D01*
X115880952Y-112857142D01*
X116280952Y-112619047D02*
X115880952Y-112619047D01*
X115880952Y-112500000D01*
X115900000Y-112428571D01*
X115938095Y-112380952D01*
X115976190Y-112357142D01*
X116052380Y-112333333D01*
X116109523Y-112333333D01*
X116185714Y-112357142D01*
X116223809Y-112380952D01*
X116261904Y-112428571D01*
X116280952Y-112500000D01*
X116280952Y-112619047D01*
X115880952Y-111116666D02*
X116280952Y-110950000D01*
X115880952Y-110783333D01*
X116071428Y-110450000D02*
X116090476Y-110378571D01*
X116109523Y-110354761D01*
X116147619Y-110330952D01*
X116204761Y-110330952D01*
X116242857Y-110354761D01*
X116261904Y-110378571D01*
X116280952Y-110426190D01*
X116280952Y-110616666D01*
X115880952Y-110616666D01*
X115880952Y-110450000D01*
X115900000Y-110402380D01*
X115919047Y-110378571D01*
X115957142Y-110354761D01*
X115995238Y-110354761D01*
X116033333Y-110378571D01*
X116052380Y-110402380D01*
X116071428Y-110450000D01*
X116071428Y-110616666D01*
X115880952Y-110116666D02*
X116204761Y-110116666D01*
X116242857Y-110092857D01*
X116261904Y-110069047D01*
X116280952Y-110021428D01*
X116280952Y-109926190D01*
X116261904Y-109878571D01*
X116242857Y-109854761D01*
X116204761Y-109830952D01*
X115880952Y-109830952D01*
X116261904Y-109616666D02*
X116280952Y-109545238D01*
X116280952Y-109426190D01*
X116261904Y-109378571D01*
X116242857Y-109354761D01*
X116204761Y-109330952D01*
X116166666Y-109330952D01*
X116128571Y-109354761D01*
X116109523Y-109378571D01*
X116090476Y-109426190D01*
X116071428Y-109521428D01*
X116052380Y-109569047D01*
X116033333Y-109592857D01*
X115995238Y-109616666D01*
X115957142Y-109616666D01*
X115919047Y-109592857D01*
X115900000Y-109569047D01*
X115880952Y-109521428D01*
X115880952Y-109402380D01*
X115900000Y-109330952D01*
X116071428Y-107959523D02*
X116090476Y-107888095D01*
X116109523Y-107864285D01*
X116147619Y-107840476D01*
X116204761Y-107840476D01*
X116242857Y-107864285D01*
X116261904Y-107888095D01*
X116280952Y-107935714D01*
X116280952Y-108126190D01*
X115880952Y-108126190D01*
X115880952Y-107959523D01*
X115900000Y-107911904D01*
X115919047Y-107888095D01*
X115957142Y-107864285D01*
X115995238Y-107864285D01*
X116033333Y-107888095D01*
X116052380Y-107911904D01*
X116071428Y-107959523D01*
X116071428Y-108126190D01*
X116166666Y-107650000D02*
X116166666Y-107411904D01*
X116280952Y-107697619D02*
X115880952Y-107530952D01*
X116280952Y-107364285D01*
X115880952Y-107269047D02*
X115880952Y-106983333D01*
X116280952Y-107126190D02*
X115880952Y-107126190D01*
X115880952Y-106888095D02*
X115880952Y-106602380D01*
X116280952Y-106745238D02*
X115880952Y-106745238D01*
X115880952Y-105788095D02*
X115880952Y-105478571D01*
X116033333Y-105645238D01*
X116033333Y-105573809D01*
X116052380Y-105526190D01*
X116071428Y-105502380D01*
X116109523Y-105478571D01*
X116204761Y-105478571D01*
X116242857Y-105502380D01*
X116261904Y-105526190D01*
X116280952Y-105573809D01*
X116280952Y-105716666D01*
X116261904Y-105764285D01*
X116242857Y-105788095D01*
X116242857Y-105264285D02*
X116261904Y-105240476D01*
X116280952Y-105264285D01*
X116261904Y-105288095D01*
X116242857Y-105264285D01*
X116280952Y-105264285D01*
X115880952Y-105073809D02*
X115880952Y-104764285D01*
X116033333Y-104930952D01*
X116033333Y-104859523D01*
X116052380Y-104811904D01*
X116071428Y-104788095D01*
X116109523Y-104764285D01*
X116204761Y-104764285D01*
X116242857Y-104788095D01*
X116261904Y-104811904D01*
X116280952Y-104859523D01*
X116280952Y-105002380D01*
X116261904Y-105050000D01*
X116242857Y-105073809D01*
X115880952Y-104621428D02*
X116280952Y-104454761D01*
X115880952Y-104288095D01*
D11*
%TO.C,C12*%
X116290000Y-109821267D02*
X116290000Y-109478733D01*
X117310000Y-109821267D02*
X117310000Y-109478733D01*
%TO.C,C11*%
X114146267Y-112251670D02*
X113803733Y-112251670D01*
X114146267Y-111231670D02*
X113803733Y-111231670D01*
%TO.C,C10*%
X115910000Y-114278733D02*
X115910000Y-114621267D01*
X114890000Y-114278733D02*
X114890000Y-114621267D01*
%TO.C,C5*%
X114146267Y-110560000D02*
X113803733Y-110560000D01*
X114146267Y-109540000D02*
X113803733Y-109540000D01*
%TO.C,C2*%
X117660000Y-114278733D02*
X117660000Y-114621267D01*
X116640000Y-114278733D02*
X116640000Y-114621267D01*
%TO.C,C1*%
X117753733Y-106431666D02*
X118096267Y-106431666D01*
X117753733Y-107451666D02*
X118096267Y-107451666D01*
%TO.C,U2*%
X107250000Y-117860000D02*
X109200000Y-117860000D01*
X107250000Y-117860000D02*
X105300000Y-117860000D01*
X107250000Y-112740000D02*
X109200000Y-112740000D01*
X107250000Y-112740000D02*
X103800000Y-112740000D01*
%TO.C,U1*%
X112100000Y-100240000D02*
X110150000Y-100240000D01*
X112100000Y-100240000D02*
X114050000Y-100240000D01*
X112100000Y-105360000D02*
X110150000Y-105360000D01*
X112100000Y-105360000D02*
X115550000Y-105360000D01*
%TO.C,SW1*%
X111650000Y-113600000D02*
X111350000Y-113600000D01*
X111350000Y-113600000D02*
X111350000Y-116900000D01*
X111350000Y-116900000D02*
X111650000Y-116900000D01*
X113850000Y-113600000D02*
X114150000Y-113600000D01*
X114150000Y-113600000D02*
X114150000Y-116900000D01*
X114150000Y-116900000D02*
X113850000Y-116900000D01*
%TO.C,R10*%
X117260000Y-101878733D02*
X117260000Y-102221267D01*
X116240000Y-101878733D02*
X116240000Y-102221267D01*
%TO.C,R9*%
X117753733Y-104740000D02*
X118096267Y-104740000D01*
X117753733Y-105760000D02*
X118096267Y-105760000D01*
%TO.C,R5*%
X103110000Y-109178733D02*
X103110000Y-109521267D01*
X102090000Y-109178733D02*
X102090000Y-109521267D01*
%TO.C,R3*%
X110303733Y-111190000D02*
X110646267Y-111190000D01*
X110303733Y-112210000D02*
X110646267Y-112210000D01*
%TO.C,R1*%
X105490000Y-111046267D02*
X105490000Y-110703733D01*
X106510000Y-111046267D02*
X106510000Y-110703733D01*
%TO.C,L2*%
X107750000Y-102350000D02*
X107750000Y-100300000D01*
X107750000Y-100300000D02*
X100650000Y-100300000D01*
X100650000Y-100300000D02*
X100650000Y-102350000D01*
X107750000Y-105350000D02*
X107750000Y-107400000D01*
X107750000Y-107400000D02*
X100650000Y-107400000D01*
X100650000Y-107400000D02*
X100650000Y-105350000D01*
%TO.C,D4*%
X100872500Y-117484999D02*
X103157500Y-117484999D01*
X103157500Y-117484999D02*
X103157500Y-116014999D01*
X103157500Y-116014999D02*
X100872500Y-116014999D01*
%TO.C,D3*%
X100872500Y-115901666D02*
X103157500Y-115901666D01*
X103157500Y-115901666D02*
X103157500Y-114431666D01*
X103157500Y-114431666D02*
X100872500Y-114431666D01*
%TO.C,D2*%
X102512500Y-112848333D02*
X100227500Y-112848333D01*
X100227500Y-112848333D02*
X100227500Y-114318333D01*
X100227500Y-114318333D02*
X102512500Y-114318333D01*
%TO.C,D1*%
X102512500Y-111265000D02*
X100227500Y-111265000D01*
X100227500Y-111265000D02*
X100227500Y-112735000D01*
X100227500Y-112735000D02*
X102512500Y-112735000D01*
%TO.C,C23*%
X119010000Y-101878733D02*
X119010000Y-102221267D01*
X117990000Y-101878733D02*
X117990000Y-102221267D01*
%TO.C,C22*%
X106578733Y-107840000D02*
X106921267Y-107840000D01*
X106578733Y-108860000D02*
X106921267Y-108860000D01*
%TO.C,C17*%
X101410000Y-109153733D02*
X101410000Y-109496267D01*
X100390000Y-109153733D02*
X100390000Y-109496267D01*
%TO.C,C15*%
X110328733Y-109540000D02*
X110671267Y-109540000D01*
X110328733Y-110560000D02*
X110671267Y-110560000D01*
%TO.C,C9*%
X113703733Y-107890000D02*
X114046267Y-107890000D01*
X113703733Y-108910000D02*
X114046267Y-108910000D01*
%TO.C,C8*%
X103790000Y-111046267D02*
X103790000Y-110703733D01*
X104810000Y-111046267D02*
X104810000Y-110703733D01*
%TO.C,C7*%
X110546267Y-108922500D02*
X110203733Y-108922500D01*
X110546267Y-107902500D02*
X110203733Y-107902500D01*
%TO.C,C6*%
X108210000Y-110703733D02*
X108210000Y-111046267D01*
X107190000Y-110703733D02*
X107190000Y-111046267D01*
%TO.C,C4*%
X113678733Y-106090000D02*
X114021267Y-106090000D01*
X113678733Y-107110000D02*
X114021267Y-107110000D01*
%TO.C,C3*%
X110546267Y-107135000D02*
X110203733Y-107135000D01*
X110546267Y-106115000D02*
X110203733Y-106115000D01*
%TO.C,C12*%
D10*
X116245239Y-108810714D02*
X116269048Y-108839285D01*
X116292858Y-108925000D01*
X116292858Y-108982142D01*
X116269048Y-109067857D01*
X116221429Y-109125000D01*
X116173810Y-109153571D01*
X116078572Y-109182142D01*
X116007144Y-109182142D01*
X115911906Y-109153571D01*
X115864287Y-109125000D01*
X115816668Y-109067857D01*
X115792858Y-108982142D01*
X115792858Y-108925000D01*
X115816668Y-108839285D01*
X115840477Y-108810714D01*
X116292858Y-108239285D02*
X116292858Y-108582142D01*
X116292858Y-108410714D02*
X115792858Y-108410714D01*
X115864287Y-108467857D01*
X115911906Y-108525000D01*
X115935715Y-108582142D01*
X115840477Y-108010714D02*
X115816668Y-107982142D01*
X115792858Y-107925000D01*
X115792858Y-107782142D01*
X115816668Y-107725000D01*
X115840477Y-107696428D01*
X115888096Y-107667857D01*
X115935715Y-107667857D01*
X116007144Y-107696428D01*
X116292858Y-108039285D01*
X116292858Y-107667857D01*
%TO.C,C11*%
X112314285Y-112578571D02*
X112285714Y-112602380D01*
X112200000Y-112626190D01*
X112142857Y-112626190D01*
X112057142Y-112602380D01*
X112000000Y-112554761D01*
X111971428Y-112507142D01*
X111942857Y-112411904D01*
X111942857Y-112340476D01*
X111971428Y-112245238D01*
X112000000Y-112197619D01*
X112057142Y-112150000D01*
X112142857Y-112126190D01*
X112200000Y-112126190D01*
X112285714Y-112150000D01*
X112314285Y-112173809D01*
X112885714Y-112626190D02*
X112542857Y-112626190D01*
X112714285Y-112626190D02*
X112714285Y-112126190D01*
X112657142Y-112197619D01*
X112600000Y-112245238D01*
X112542857Y-112269047D01*
X113457142Y-112626190D02*
X113114285Y-112626190D01*
X113285714Y-112626190D02*
X113285714Y-112126190D01*
X113228571Y-112197619D01*
X113171428Y-112245238D01*
X113114285Y-112269047D01*
%TO.C,C10*%
X116345235Y-116110714D02*
X116369044Y-116139285D01*
X116392854Y-116225000D01*
X116392854Y-116282142D01*
X116369044Y-116367857D01*
X116321425Y-116425000D01*
X116273806Y-116453571D01*
X116178568Y-116482142D01*
X116107140Y-116482142D01*
X116011902Y-116453571D01*
X115964283Y-116425000D01*
X115916664Y-116367857D01*
X115892854Y-116282142D01*
X115892854Y-116225000D01*
X115916664Y-116139285D01*
X115940473Y-116110714D01*
X116392854Y-115539285D02*
X116392854Y-115882142D01*
X116392854Y-115710714D02*
X115892854Y-115710714D01*
X115964283Y-115767857D01*
X116011902Y-115825000D01*
X116035711Y-115882142D01*
X115892854Y-115167857D02*
X115892854Y-115110714D01*
X115916664Y-115053571D01*
X115940473Y-115025000D01*
X115988092Y-114996428D01*
X116083330Y-114967857D01*
X116202378Y-114967857D01*
X116297616Y-114996428D01*
X116345235Y-115025000D01*
X116369044Y-115053571D01*
X116392854Y-115110714D01*
X116392854Y-115167857D01*
X116369044Y-115225000D01*
X116345235Y-115253571D01*
X116297616Y-115282142D01*
X116202378Y-115310714D01*
X116083330Y-115310714D01*
X115988092Y-115282142D01*
X115940473Y-115253571D01*
X115916664Y-115225000D01*
X115892854Y-115167857D01*
%TO.C,C5*%
X112400000Y-110878571D02*
X112371428Y-110902380D01*
X112285714Y-110926190D01*
X112228571Y-110926190D01*
X112142857Y-110902380D01*
X112085714Y-110854761D01*
X112057142Y-110807142D01*
X112028571Y-110711904D01*
X112028571Y-110640476D01*
X112057142Y-110545238D01*
X112085714Y-110497619D01*
X112142857Y-110450000D01*
X112228571Y-110426190D01*
X112285714Y-110426190D01*
X112371428Y-110450000D01*
X112400000Y-110473809D01*
X112942857Y-110426190D02*
X112657142Y-110426190D01*
X112628571Y-110664285D01*
X112657142Y-110640476D01*
X112714285Y-110616666D01*
X112857142Y-110616666D01*
X112914285Y-110640476D01*
X112942857Y-110664285D01*
X112971428Y-110711904D01*
X112971428Y-110830952D01*
X112942857Y-110878571D01*
X112914285Y-110902380D01*
X112857142Y-110926190D01*
X112714285Y-110926190D01*
X112657142Y-110902380D01*
X112628571Y-110878571D01*
%TO.C,C2*%
X118003569Y-116025000D02*
X118027378Y-116053571D01*
X118051188Y-116139285D01*
X118051188Y-116196428D01*
X118027378Y-116282142D01*
X117979759Y-116339285D01*
X117932140Y-116367857D01*
X117836902Y-116396428D01*
X117765474Y-116396428D01*
X117670236Y-116367857D01*
X117622617Y-116339285D01*
X117574998Y-116282142D01*
X117551188Y-116196428D01*
X117551188Y-116139285D01*
X117574998Y-116053571D01*
X117598807Y-116025000D01*
X117598807Y-115796428D02*
X117574998Y-115767857D01*
X117551188Y-115710714D01*
X117551188Y-115567857D01*
X117574998Y-115510714D01*
X117598807Y-115482142D01*
X117646426Y-115453571D01*
X117694045Y-115453571D01*
X117765474Y-115482142D01*
X118051188Y-115825000D01*
X118051188Y-115453571D01*
%TO.C,C1*%
X119350000Y-106428571D02*
X119321428Y-106452380D01*
X119235714Y-106476190D01*
X119178571Y-106476190D01*
X119092857Y-106452380D01*
X119035714Y-106404761D01*
X119007142Y-106357142D01*
X118978571Y-106261904D01*
X118978571Y-106190476D01*
X119007142Y-106095238D01*
X119035714Y-106047619D01*
X119092857Y-106000000D01*
X119178571Y-105976190D01*
X119235714Y-105976190D01*
X119321428Y-106000000D01*
X119350000Y-106023809D01*
X119921428Y-106476190D02*
X119578571Y-106476190D01*
X119750000Y-106476190D02*
X119750000Y-105976190D01*
X119692857Y-106047619D01*
X119635714Y-106095238D01*
X119578571Y-106119047D01*
%TO.C,U2*%
X106692857Y-113076190D02*
X106692857Y-113480952D01*
X106721428Y-113528571D01*
X106750000Y-113552380D01*
X106807142Y-113576190D01*
X106921428Y-113576190D01*
X106978571Y-113552380D01*
X107007142Y-113528571D01*
X107035714Y-113480952D01*
X107035714Y-113076190D01*
X107292857Y-113123809D02*
X107321428Y-113100000D01*
X107378571Y-113076190D01*
X107521428Y-113076190D01*
X107578571Y-113100000D01*
X107607142Y-113123809D01*
X107635714Y-113171428D01*
X107635714Y-113219047D01*
X107607142Y-113290476D01*
X107264285Y-113576190D01*
X107635714Y-113576190D01*
%TO.C,U1*%
X111592857Y-104726190D02*
X111592857Y-105130952D01*
X111621428Y-105178571D01*
X111650000Y-105202380D01*
X111707142Y-105226190D01*
X111821428Y-105226190D01*
X111878571Y-105202380D01*
X111907142Y-105178571D01*
X111935714Y-105130952D01*
X111935714Y-104726190D01*
X112535714Y-105226190D02*
X112192857Y-105226190D01*
X112364285Y-105226190D02*
X112364285Y-104726190D01*
X112307142Y-104797619D01*
X112250000Y-104845238D01*
X112192857Y-104869047D01*
%TO.C,SW1*%
X112902380Y-116000000D02*
X112926190Y-115914285D01*
X112926190Y-115771428D01*
X112902380Y-115714285D01*
X112878571Y-115685714D01*
X112830952Y-115657142D01*
X112783333Y-115657142D01*
X112735714Y-115685714D01*
X112711904Y-115714285D01*
X112688095Y-115771428D01*
X112664285Y-115885714D01*
X112640476Y-115942857D01*
X112616666Y-115971428D01*
X112569047Y-116000000D01*
X112521428Y-116000000D01*
X112473809Y-115971428D01*
X112450000Y-115942857D01*
X112426190Y-115885714D01*
X112426190Y-115742857D01*
X112450000Y-115657142D01*
X112426190Y-115457142D02*
X112926190Y-115314285D01*
X112569047Y-115200000D01*
X112926190Y-115085714D01*
X112426190Y-114942857D01*
X112926190Y-114400000D02*
X112926190Y-114742857D01*
X112926190Y-114571428D02*
X112426190Y-114571428D01*
X112497619Y-114628571D01*
X112545238Y-114685714D01*
X112569047Y-114742857D01*
%TO.C,R10*%
X116464285Y-100576190D02*
X116264285Y-100338095D01*
X116121428Y-100576190D02*
X116121428Y-100076190D01*
X116350000Y-100076190D01*
X116407142Y-100100000D01*
X116435714Y-100123809D01*
X116464285Y-100171428D01*
X116464285Y-100242857D01*
X116435714Y-100290476D01*
X116407142Y-100314285D01*
X116350000Y-100338095D01*
X116121428Y-100338095D01*
X117035714Y-100576190D02*
X116692857Y-100576190D01*
X116864285Y-100576190D02*
X116864285Y-100076190D01*
X116807142Y-100147619D01*
X116750000Y-100195238D01*
X116692857Y-100219047D01*
X117407142Y-100076190D02*
X117464285Y-100076190D01*
X117521428Y-100100000D01*
X117550000Y-100123809D01*
X117578571Y-100171428D01*
X117607142Y-100266666D01*
X117607142Y-100385714D01*
X117578571Y-100480952D01*
X117550000Y-100528571D01*
X117521428Y-100552380D01*
X117464285Y-100576190D01*
X117407142Y-100576190D01*
X117350000Y-100552380D01*
X117321428Y-100528571D01*
X117292857Y-100480952D01*
X117264285Y-100385714D01*
X117264285Y-100266666D01*
X117292857Y-100171428D01*
X117321428Y-100123809D01*
X117350000Y-100100000D01*
X117407142Y-100076190D01*
%TO.C,R9*%
X119350000Y-104726190D02*
X119150000Y-104488095D01*
X119007142Y-104726190D02*
X119007142Y-104226190D01*
X119235714Y-104226190D01*
X119292857Y-104250000D01*
X119321428Y-104273809D01*
X119350000Y-104321428D01*
X119350000Y-104392857D01*
X119321428Y-104440476D01*
X119292857Y-104464285D01*
X119235714Y-104488095D01*
X119007142Y-104488095D01*
X119635714Y-104726190D02*
X119750000Y-104726190D01*
X119807142Y-104702380D01*
X119835714Y-104678571D01*
X119892857Y-104607142D01*
X119921428Y-104511904D01*
X119921428Y-104321428D01*
X119892857Y-104273809D01*
X119864285Y-104250000D01*
X119807142Y-104226190D01*
X119692857Y-104226190D01*
X119635714Y-104250000D01*
X119607142Y-104273809D01*
X119578571Y-104321428D01*
X119578571Y-104440476D01*
X119607142Y-104488095D01*
X119635714Y-104511904D01*
X119692857Y-104535714D01*
X119807142Y-104535714D01*
X119864285Y-104511904D01*
X119892857Y-104488095D01*
X119921428Y-104440476D01*
%TO.C,R5*%
X103550000Y-108226190D02*
X103350000Y-107988095D01*
X103207142Y-108226190D02*
X103207142Y-107726190D01*
X103435714Y-107726190D01*
X103492857Y-107750000D01*
X103521428Y-107773809D01*
X103550000Y-107821428D01*
X103550000Y-107892857D01*
X103521428Y-107940476D01*
X103492857Y-107964285D01*
X103435714Y-107988095D01*
X103207142Y-107988095D01*
X104092857Y-107726190D02*
X103807142Y-107726190D01*
X103778571Y-107964285D01*
X103807142Y-107940476D01*
X103864285Y-107916666D01*
X104007142Y-107916666D01*
X104064285Y-107940476D01*
X104092857Y-107964285D01*
X104121428Y-108011904D01*
X104121428Y-108130952D01*
X104092857Y-108178571D01*
X104064285Y-108202380D01*
X104007142Y-108226190D01*
X103864285Y-108226190D01*
X103807142Y-108202380D01*
X103778571Y-108178571D01*
%TO.C,R3*%
X108950000Y-111126190D02*
X108750000Y-110888095D01*
X108607142Y-111126190D02*
X108607142Y-110626190D01*
X108835714Y-110626190D01*
X108892857Y-110650000D01*
X108921428Y-110673809D01*
X108950000Y-110721428D01*
X108950000Y-110792857D01*
X108921428Y-110840476D01*
X108892857Y-110864285D01*
X108835714Y-110888095D01*
X108607142Y-110888095D01*
X109150000Y-110626190D02*
X109521428Y-110626190D01*
X109321428Y-110816666D01*
X109407142Y-110816666D01*
X109464285Y-110840476D01*
X109492857Y-110864285D01*
X109521428Y-110911904D01*
X109521428Y-111030952D01*
X109492857Y-111078571D01*
X109464285Y-111102380D01*
X109407142Y-111126190D01*
X109235714Y-111126190D01*
X109178571Y-111102380D01*
X109150000Y-111078571D01*
%TO.C,R1*%
X105950000Y-111126190D02*
X105750000Y-110888095D01*
X105607142Y-111126190D02*
X105607142Y-110626190D01*
X105835714Y-110626190D01*
X105892857Y-110650000D01*
X105921428Y-110673809D01*
X105950000Y-110721428D01*
X105950000Y-110792857D01*
X105921428Y-110840476D01*
X105892857Y-110864285D01*
X105835714Y-110888095D01*
X105607142Y-110888095D01*
X106521428Y-111126190D02*
X106178571Y-111126190D01*
X106350000Y-111126190D02*
X106350000Y-110626190D01*
X106292857Y-110697619D01*
X106235714Y-110745238D01*
X106178571Y-110769047D01*
%TO.C,L2*%
X104050000Y-104326190D02*
X103764285Y-104326190D01*
X103764285Y-103826190D01*
X104221428Y-103873809D02*
X104250000Y-103850000D01*
X104307142Y-103826190D01*
X104450000Y-103826190D01*
X104507142Y-103850000D01*
X104535714Y-103873809D01*
X104564285Y-103921428D01*
X104564285Y-103969047D01*
X104535714Y-104040476D01*
X104192857Y-104326190D01*
X104564285Y-104326190D01*
%TO.C,D4*%
X102857142Y-117026190D02*
X102857142Y-116526190D01*
X103000000Y-116526190D01*
X103085714Y-116550000D01*
X103142857Y-116597619D01*
X103171428Y-116645238D01*
X103200000Y-116740476D01*
X103200000Y-116811904D01*
X103171428Y-116907142D01*
X103142857Y-116954761D01*
X103085714Y-117002380D01*
X103000000Y-117026190D01*
X102857142Y-117026190D01*
X103714285Y-116692857D02*
X103714285Y-117026190D01*
X103571428Y-116502380D02*
X103428571Y-116859523D01*
X103800000Y-116859523D01*
%TO.C,D3*%
X102807142Y-115526190D02*
X102807142Y-115026190D01*
X102950000Y-115026190D01*
X103035714Y-115050000D01*
X103092857Y-115097619D01*
X103121428Y-115145238D01*
X103150000Y-115240476D01*
X103150000Y-115311904D01*
X103121428Y-115407142D01*
X103092857Y-115454761D01*
X103035714Y-115502380D01*
X102950000Y-115526190D01*
X102807142Y-115526190D01*
X103350000Y-115026190D02*
X103721428Y-115026190D01*
X103521428Y-115216666D01*
X103607142Y-115216666D01*
X103664285Y-115240476D01*
X103692857Y-115264285D01*
X103721428Y-115311904D01*
X103721428Y-115430952D01*
X103692857Y-115478571D01*
X103664285Y-115502380D01*
X103607142Y-115526190D01*
X103435714Y-115526190D01*
X103378571Y-115502380D01*
X103350000Y-115478571D01*
%TO.C,D2*%
X102957142Y-113876190D02*
X102957142Y-113376190D01*
X103100000Y-113376190D01*
X103185714Y-113400000D01*
X103242857Y-113447619D01*
X103271428Y-113495238D01*
X103300000Y-113590476D01*
X103300000Y-113661904D01*
X103271428Y-113757142D01*
X103242857Y-113804761D01*
X103185714Y-113852380D01*
X103100000Y-113876190D01*
X102957142Y-113876190D01*
X103528571Y-113423809D02*
X103557142Y-113400000D01*
X103614285Y-113376190D01*
X103757142Y-113376190D01*
X103814285Y-113400000D01*
X103842857Y-113423809D01*
X103871428Y-113471428D01*
X103871428Y-113519047D01*
X103842857Y-113590476D01*
X103500000Y-113876190D01*
X103871428Y-113876190D01*
%TO.C,D1*%
X103057142Y-112226190D02*
X103057142Y-111726190D01*
X103200000Y-111726190D01*
X103285714Y-111750000D01*
X103342857Y-111797619D01*
X103371428Y-111845238D01*
X103400000Y-111940476D01*
X103400000Y-112011904D01*
X103371428Y-112107142D01*
X103342857Y-112154761D01*
X103285714Y-112202380D01*
X103200000Y-112226190D01*
X103057142Y-112226190D01*
X103971428Y-112226190D02*
X103628571Y-112226190D01*
X103800000Y-112226190D02*
X103800000Y-111726190D01*
X103742857Y-111797619D01*
X103685714Y-111845238D01*
X103628571Y-111869047D01*
%TO.C,C23*%
X118314285Y-100478571D02*
X118285714Y-100502380D01*
X118200000Y-100526190D01*
X118142857Y-100526190D01*
X118057142Y-100502380D01*
X118000000Y-100454761D01*
X117971428Y-100407142D01*
X117942857Y-100311904D01*
X117942857Y-100240476D01*
X117971428Y-100145238D01*
X118000000Y-100097619D01*
X118057142Y-100050000D01*
X118142857Y-100026190D01*
X118200000Y-100026190D01*
X118285714Y-100050000D01*
X118314285Y-100073809D01*
X118542857Y-100073809D02*
X118571428Y-100050000D01*
X118628571Y-100026190D01*
X118771428Y-100026190D01*
X118828571Y-100050000D01*
X118857142Y-100073809D01*
X118885714Y-100121428D01*
X118885714Y-100169047D01*
X118857142Y-100240476D01*
X118514285Y-100526190D01*
X118885714Y-100526190D01*
X119085714Y-100026190D02*
X119457142Y-100026190D01*
X119257142Y-100216666D01*
X119342857Y-100216666D01*
X119400000Y-100240476D01*
X119428571Y-100264285D01*
X119457142Y-100311904D01*
X119457142Y-100430952D01*
X119428571Y-100478571D01*
X119400000Y-100502380D01*
X119342857Y-100526190D01*
X119171428Y-100526190D01*
X119114285Y-100502380D01*
X119085714Y-100478571D01*
%TO.C,C22*%
X106264285Y-107178571D02*
X106235714Y-107202380D01*
X106150000Y-107226190D01*
X106092857Y-107226190D01*
X106007142Y-107202380D01*
X105950000Y-107154761D01*
X105921428Y-107107142D01*
X105892857Y-107011904D01*
X105892857Y-106940476D01*
X105921428Y-106845238D01*
X105950000Y-106797619D01*
X106007142Y-106750000D01*
X106092857Y-106726190D01*
X106150000Y-106726190D01*
X106235714Y-106750000D01*
X106264285Y-106773809D01*
X106492857Y-106773809D02*
X106521428Y-106750000D01*
X106578571Y-106726190D01*
X106721428Y-106726190D01*
X106778571Y-106750000D01*
X106807142Y-106773809D01*
X106835714Y-106821428D01*
X106835714Y-106869047D01*
X106807142Y-106940476D01*
X106464285Y-107226190D01*
X106835714Y-107226190D01*
X107064285Y-106773809D02*
X107092857Y-106750000D01*
X107150000Y-106726190D01*
X107292857Y-106726190D01*
X107350000Y-106750000D01*
X107378571Y-106773809D01*
X107407142Y-106821428D01*
X107407142Y-106869047D01*
X107378571Y-106940476D01*
X107035714Y-107226190D01*
X107407142Y-107226190D01*
%TO.C,C17*%
X101364285Y-107978571D02*
X101335714Y-108002380D01*
X101250000Y-108026190D01*
X101192857Y-108026190D01*
X101107142Y-108002380D01*
X101050000Y-107954761D01*
X101021428Y-107907142D01*
X100992857Y-107811904D01*
X100992857Y-107740476D01*
X101021428Y-107645238D01*
X101050000Y-107597619D01*
X101107142Y-107550000D01*
X101192857Y-107526190D01*
X101250000Y-107526190D01*
X101335714Y-107550000D01*
X101364285Y-107573809D01*
X101935714Y-108026190D02*
X101592857Y-108026190D01*
X101764285Y-108026190D02*
X101764285Y-107526190D01*
X101707142Y-107597619D01*
X101650000Y-107645238D01*
X101592857Y-107669047D01*
X102135714Y-107526190D02*
X102535714Y-107526190D01*
X102278571Y-108026190D01*
%TO.C,C15*%
X108964285Y-109478571D02*
X108935714Y-109502380D01*
X108850000Y-109526190D01*
X108792857Y-109526190D01*
X108707142Y-109502380D01*
X108650000Y-109454761D01*
X108621428Y-109407142D01*
X108592857Y-109311904D01*
X108592857Y-109240476D01*
X108621428Y-109145238D01*
X108650000Y-109097619D01*
X108707142Y-109050000D01*
X108792857Y-109026190D01*
X108850000Y-109026190D01*
X108935714Y-109050000D01*
X108964285Y-109073809D01*
X109535714Y-109526190D02*
X109192857Y-109526190D01*
X109364285Y-109526190D02*
X109364285Y-109026190D01*
X109307142Y-109097619D01*
X109250000Y-109145238D01*
X109192857Y-109169047D01*
X110078571Y-109026190D02*
X109792857Y-109026190D01*
X109764285Y-109264285D01*
X109792857Y-109240476D01*
X109850000Y-109216666D01*
X109992857Y-109216666D01*
X110050000Y-109240476D01*
X110078571Y-109264285D01*
X110107142Y-109311904D01*
X110107142Y-109430952D01*
X110078571Y-109478571D01*
X110050000Y-109502380D01*
X109992857Y-109526190D01*
X109850000Y-109526190D01*
X109792857Y-109502380D01*
X109764285Y-109478571D01*
%TO.C,C9*%
X112400000Y-107728571D02*
X112371428Y-107752380D01*
X112285714Y-107776190D01*
X112228571Y-107776190D01*
X112142857Y-107752380D01*
X112085714Y-107704761D01*
X112057142Y-107657142D01*
X112028571Y-107561904D01*
X112028571Y-107490476D01*
X112057142Y-107395238D01*
X112085714Y-107347619D01*
X112142857Y-107300000D01*
X112228571Y-107276190D01*
X112285714Y-107276190D01*
X112371428Y-107300000D01*
X112400000Y-107323809D01*
X112685714Y-107776190D02*
X112800000Y-107776190D01*
X112857142Y-107752380D01*
X112885714Y-107728571D01*
X112942857Y-107657142D01*
X112971428Y-107561904D01*
X112971428Y-107371428D01*
X112942857Y-107323809D01*
X112914285Y-107300000D01*
X112857142Y-107276190D01*
X112742857Y-107276190D01*
X112685714Y-107300000D01*
X112657142Y-107323809D01*
X112628571Y-107371428D01*
X112628571Y-107490476D01*
X112657142Y-107538095D01*
X112685714Y-107561904D01*
X112742857Y-107585714D01*
X112857142Y-107585714D01*
X112914285Y-107561904D01*
X112942857Y-107538095D01*
X112971428Y-107490476D01*
%TO.C,C8*%
X104300000Y-109178571D02*
X104271428Y-109202380D01*
X104185714Y-109226190D01*
X104128571Y-109226190D01*
X104042857Y-109202380D01*
X103985714Y-109154761D01*
X103957142Y-109107142D01*
X103928571Y-109011904D01*
X103928571Y-108940476D01*
X103957142Y-108845238D01*
X103985714Y-108797619D01*
X104042857Y-108750000D01*
X104128571Y-108726190D01*
X104185714Y-108726190D01*
X104271428Y-108750000D01*
X104300000Y-108773809D01*
X104642857Y-108940476D02*
X104585714Y-108916666D01*
X104557142Y-108892857D01*
X104528571Y-108845238D01*
X104528571Y-108821428D01*
X104557142Y-108773809D01*
X104585714Y-108750000D01*
X104642857Y-108726190D01*
X104757142Y-108726190D01*
X104814285Y-108750000D01*
X104842857Y-108773809D01*
X104871428Y-108821428D01*
X104871428Y-108845238D01*
X104842857Y-108892857D01*
X104814285Y-108916666D01*
X104757142Y-108940476D01*
X104642857Y-108940476D01*
X104585714Y-108964285D01*
X104557142Y-108988095D01*
X104528571Y-109035714D01*
X104528571Y-109130952D01*
X104557142Y-109178571D01*
X104585714Y-109202380D01*
X104642857Y-109226190D01*
X104757142Y-109226190D01*
X104814285Y-109202380D01*
X104842857Y-109178571D01*
X104871428Y-109130952D01*
X104871428Y-109035714D01*
X104842857Y-108988095D01*
X104814285Y-108964285D01*
X104757142Y-108940476D01*
%TO.C,C7*%
X108600000Y-107828571D02*
X108571428Y-107852380D01*
X108485714Y-107876190D01*
X108428571Y-107876190D01*
X108342857Y-107852380D01*
X108285714Y-107804761D01*
X108257142Y-107757142D01*
X108228571Y-107661904D01*
X108228571Y-107590476D01*
X108257142Y-107495238D01*
X108285714Y-107447619D01*
X108342857Y-107400000D01*
X108428571Y-107376190D01*
X108485714Y-107376190D01*
X108571428Y-107400000D01*
X108600000Y-107423809D01*
X108800000Y-107376190D02*
X109200000Y-107376190D01*
X108942857Y-107876190D01*
%TO.C,C6*%
X107550000Y-111028571D02*
X107521428Y-111052380D01*
X107435714Y-111076190D01*
X107378571Y-111076190D01*
X107292857Y-111052380D01*
X107235714Y-111004761D01*
X107207142Y-110957142D01*
X107178571Y-110861904D01*
X107178571Y-110790476D01*
X107207142Y-110695238D01*
X107235714Y-110647619D01*
X107292857Y-110600000D01*
X107378571Y-110576190D01*
X107435714Y-110576190D01*
X107521428Y-110600000D01*
X107550000Y-110623809D01*
X108064285Y-110576190D02*
X107950000Y-110576190D01*
X107892857Y-110600000D01*
X107864285Y-110623809D01*
X107807142Y-110695238D01*
X107778571Y-110790476D01*
X107778571Y-110980952D01*
X107807142Y-111028571D01*
X107835714Y-111052380D01*
X107892857Y-111076190D01*
X108007142Y-111076190D01*
X108064285Y-111052380D01*
X108092857Y-111028571D01*
X108121428Y-110980952D01*
X108121428Y-110861904D01*
X108092857Y-110814285D01*
X108064285Y-110790476D01*
X108007142Y-110766666D01*
X107892857Y-110766666D01*
X107835714Y-110790476D01*
X107807142Y-110814285D01*
X107778571Y-110861904D01*
%TO.C,C4*%
X112425000Y-106016071D02*
X112396428Y-106039880D01*
X112310714Y-106063690D01*
X112253571Y-106063690D01*
X112167857Y-106039880D01*
X112110714Y-105992261D01*
X112082142Y-105944642D01*
X112053571Y-105849404D01*
X112053571Y-105777976D01*
X112082142Y-105682738D01*
X112110714Y-105635119D01*
X112167857Y-105587500D01*
X112253571Y-105563690D01*
X112310714Y-105563690D01*
X112396428Y-105587500D01*
X112425000Y-105611309D01*
X112939285Y-105730357D02*
X112939285Y-106063690D01*
X112796428Y-105539880D02*
X112653571Y-105897023D01*
X113025000Y-105897023D01*
%TO.C,C3*%
X108650000Y-106028571D02*
X108621428Y-106052380D01*
X108535714Y-106076190D01*
X108478571Y-106076190D01*
X108392857Y-106052380D01*
X108335714Y-106004761D01*
X108307142Y-105957142D01*
X108278571Y-105861904D01*
X108278571Y-105790476D01*
X108307142Y-105695238D01*
X108335714Y-105647619D01*
X108392857Y-105600000D01*
X108478571Y-105576190D01*
X108535714Y-105576190D01*
X108621428Y-105600000D01*
X108650000Y-105623809D01*
X108850000Y-105576190D02*
X109221428Y-105576190D01*
X109021428Y-105766666D01*
X109107142Y-105766666D01*
X109164285Y-105790476D01*
X109192857Y-105814285D01*
X109221428Y-105861904D01*
X109221428Y-105980952D01*
X109192857Y-106028571D01*
X109164285Y-106052380D01*
X109107142Y-106076190D01*
X108935714Y-106076190D01*
X108878571Y-106052380D01*
X108850000Y-106028571D01*
%TD*%
M02*
