%TF.GenerationSoftware,KiCad,Pcbnew,(5.1.9-0-10_14)*%
%TF.CreationDate,2021-03-17T16:44:50+08:00*%
%TF.ProjectId,Zeeuss,5a656575-7373-42e6-9b69-6361645f7063,rev?*%
%TF.SameCoordinates,Original*%
%TF.FileFunction,Copper,L1,Top*%
%TF.FilePolarity,Positive*%
%FSLAX46Y46*%
G04 Gerber Fmt 4.6, Leading zero omitted, Abs format (unit mm)*
G04 Created by KiCad (PCBNEW (5.1.9-0-10_14)) date 2021-03-17 16:44:50*
%MOMM*%
%LPD*%
G01*
G04 APERTURE LIST*
%TA.AperFunction,ComponentPad*%
%ADD10O,1.350000X1.350000*%
%TD*%
%TA.AperFunction,ComponentPad*%
%ADD11R,1.350000X1.350000*%
%TD*%
%TA.AperFunction,SMDPad,CuDef*%
%ADD12R,3.000000X2.290000*%
%TD*%
%TA.AperFunction,SMDPad,CuDef*%
%ADD13R,3.300000X2.410000*%
%TD*%
%TA.AperFunction,SMDPad,CuDef*%
%ADD14R,0.900000X1.700000*%
%TD*%
%TA.AperFunction,SMDPad,CuDef*%
%ADD15R,2.700000X2.200000*%
%TD*%
%TA.AperFunction,ViaPad*%
%ADD16C,0.800000*%
%TD*%
%TA.AperFunction,Conductor*%
%ADD17C,1.000000*%
%TD*%
%TA.AperFunction,Conductor*%
%ADD18C,0.200000*%
%TD*%
%TA.AperFunction,Conductor*%
%ADD19C,0.500000*%
%TD*%
%TA.AperFunction,Conductor*%
%ADD20C,0.254000*%
%TD*%
%TA.AperFunction,Conductor*%
%ADD21C,0.100000*%
%TD*%
G04 APERTURE END LIST*
D10*
%TO.P,J2,4*%
%TO.N,/SW*%
X100200000Y-109000000D03*
%TO.P,J2,3*%
%TO.N,/LED3*%
X100200000Y-107000000D03*
%TO.P,J2,2*%
%TO.N,/LED2*%
X100200000Y-105000000D03*
D11*
%TO.P,J2,1*%
%TO.N,/LED1*%
X100200000Y-103000000D03*
%TD*%
D10*
%TO.P,J1,5*%
%TO.N,Earth*%
X124800000Y-111000000D03*
%TO.P,J1,4*%
%TO.N,VBUS*%
X124800000Y-109000000D03*
%TO.P,J1,3*%
%TO.N,+3V3*%
X124800000Y-107000000D03*
%TO.P,J1,2*%
%TO.N,+5V*%
X124800000Y-105000000D03*
D11*
%TO.P,J1,1*%
%TO.N,+BATT*%
X124800000Y-103000000D03*
%TD*%
%TO.P,C11,2*%
%TO.N,Earth*%
%TA.AperFunction,SMDPad,CuDef*%
G36*
G01*
X117225000Y-112682500D02*
X117225000Y-113157500D01*
G75*
G02*
X116987500Y-113395000I-237500J0D01*
G01*
X116412500Y-113395000D01*
G75*
G02*
X116175000Y-113157500I0J237500D01*
G01*
X116175000Y-112682500D01*
G75*
G02*
X116412500Y-112445000I237500J0D01*
G01*
X116987500Y-112445000D01*
G75*
G02*
X117225000Y-112682500I0J-237500D01*
G01*
G37*
%TD.AperFunction*%
%TO.P,C11,1*%
%TO.N,+3V3*%
%TA.AperFunction,SMDPad,CuDef*%
G36*
G01*
X118975000Y-112682500D02*
X118975000Y-113157500D01*
G75*
G02*
X118737500Y-113395000I-237500J0D01*
G01*
X118162500Y-113395000D01*
G75*
G02*
X117925000Y-113157500I0J237500D01*
G01*
X117925000Y-112682500D01*
G75*
G02*
X118162500Y-112445000I237500J0D01*
G01*
X118737500Y-112445000D01*
G75*
G02*
X118975000Y-112682500I0J-237500D01*
G01*
G37*
%TD.AperFunction*%
%TD*%
D12*
%TO.P,U2,9*%
%TO.N,Earth*%
X105000000Y-106000000D03*
%TO.P,U2,8*%
%TO.N,+5V*%
%TA.AperFunction,SMDPad,CuDef*%
G36*
G01*
X106755000Y-107500000D02*
X107055000Y-107500000D01*
G75*
G02*
X107205000Y-107650000I0J-150000D01*
G01*
X107205000Y-109300000D01*
G75*
G02*
X107055000Y-109450000I-150000J0D01*
G01*
X106755000Y-109450000D01*
G75*
G02*
X106605000Y-109300000I0J150000D01*
G01*
X106605000Y-107650000D01*
G75*
G02*
X106755000Y-107500000I150000J0D01*
G01*
G37*
%TD.AperFunction*%
%TO.P,U2,7*%
%TO.N,Net-(L2-Pad1)*%
%TA.AperFunction,SMDPad,CuDef*%
G36*
G01*
X105485000Y-107500000D02*
X105785000Y-107500000D01*
G75*
G02*
X105935000Y-107650000I0J-150000D01*
G01*
X105935000Y-109300000D01*
G75*
G02*
X105785000Y-109450000I-150000J0D01*
G01*
X105485000Y-109450000D01*
G75*
G02*
X105335000Y-109300000I0J150000D01*
G01*
X105335000Y-107650000D01*
G75*
G02*
X105485000Y-107500000I150000J0D01*
G01*
G37*
%TD.AperFunction*%
%TO.P,U2,6*%
%TO.N,Net-(C15-Pad1)*%
%TA.AperFunction,SMDPad,CuDef*%
G36*
G01*
X104215000Y-107500000D02*
X104515000Y-107500000D01*
G75*
G02*
X104665000Y-107650000I0J-150000D01*
G01*
X104665000Y-109300000D01*
G75*
G02*
X104515000Y-109450000I-150000J0D01*
G01*
X104215000Y-109450000D01*
G75*
G02*
X104065000Y-109300000I0J150000D01*
G01*
X104065000Y-107650000D01*
G75*
G02*
X104215000Y-107500000I150000J0D01*
G01*
G37*
%TD.AperFunction*%
%TO.P,U2,5*%
%TO.N,Net-(R3-Pad1)*%
%TA.AperFunction,SMDPad,CuDef*%
G36*
G01*
X102945000Y-107500000D02*
X103245000Y-107500000D01*
G75*
G02*
X103395000Y-107650000I0J-150000D01*
G01*
X103395000Y-109300000D01*
G75*
G02*
X103245000Y-109450000I-150000J0D01*
G01*
X102945000Y-109450000D01*
G75*
G02*
X102795000Y-109300000I0J150000D01*
G01*
X102795000Y-107650000D01*
G75*
G02*
X102945000Y-107500000I150000J0D01*
G01*
G37*
%TD.AperFunction*%
%TO.P,U2,4*%
%TO.N,/LED3*%
%TA.AperFunction,SMDPad,CuDef*%
G36*
G01*
X102945000Y-102550000D02*
X103245000Y-102550000D01*
G75*
G02*
X103395000Y-102700000I0J-150000D01*
G01*
X103395000Y-104350000D01*
G75*
G02*
X103245000Y-104500000I-150000J0D01*
G01*
X102945000Y-104500000D01*
G75*
G02*
X102795000Y-104350000I0J150000D01*
G01*
X102795000Y-102700000D01*
G75*
G02*
X102945000Y-102550000I150000J0D01*
G01*
G37*
%TD.AperFunction*%
%TO.P,U2,3*%
%TO.N,/LED2*%
%TA.AperFunction,SMDPad,CuDef*%
G36*
G01*
X104215000Y-102550000D02*
X104515000Y-102550000D01*
G75*
G02*
X104665000Y-102700000I0J-150000D01*
G01*
X104665000Y-104350000D01*
G75*
G02*
X104515000Y-104500000I-150000J0D01*
G01*
X104215000Y-104500000D01*
G75*
G02*
X104065000Y-104350000I0J150000D01*
G01*
X104065000Y-102700000D01*
G75*
G02*
X104215000Y-102550000I150000J0D01*
G01*
G37*
%TD.AperFunction*%
%TO.P,U2,2*%
%TO.N,/LED1*%
%TA.AperFunction,SMDPad,CuDef*%
G36*
G01*
X105485000Y-102550000D02*
X105785000Y-102550000D01*
G75*
G02*
X105935000Y-102700000I0J-150000D01*
G01*
X105935000Y-104350000D01*
G75*
G02*
X105785000Y-104500000I-150000J0D01*
G01*
X105485000Y-104500000D01*
G75*
G02*
X105335000Y-104350000I0J150000D01*
G01*
X105335000Y-102700000D01*
G75*
G02*
X105485000Y-102550000I150000J0D01*
G01*
G37*
%TD.AperFunction*%
%TO.P,U2,1*%
%TO.N,VBUS*%
%TA.AperFunction,SMDPad,CuDef*%
G36*
G01*
X106755000Y-102550000D02*
X107055000Y-102550000D01*
G75*
G02*
X107205000Y-102700000I0J-150000D01*
G01*
X107205000Y-104350000D01*
G75*
G02*
X107055000Y-104500000I-150000J0D01*
G01*
X106755000Y-104500000D01*
G75*
G02*
X106605000Y-104350000I0J150000D01*
G01*
X106605000Y-102700000D01*
G75*
G02*
X106755000Y-102550000I150000J0D01*
G01*
G37*
%TD.AperFunction*%
%TD*%
D13*
%TO.P,U1,9*%
%TO.N,Earth*%
X120000000Y-106000000D03*
%TO.P,U1,8*%
%TO.N,+5V*%
%TA.AperFunction,SMDPad,CuDef*%
G36*
G01*
X118245000Y-104500000D02*
X117945000Y-104500000D01*
G75*
G02*
X117795000Y-104350000I0J150000D01*
G01*
X117795000Y-102700000D01*
G75*
G02*
X117945000Y-102550000I150000J0D01*
G01*
X118245000Y-102550000D01*
G75*
G02*
X118395000Y-102700000I0J-150000D01*
G01*
X118395000Y-104350000D01*
G75*
G02*
X118245000Y-104500000I-150000J0D01*
G01*
G37*
%TD.AperFunction*%
%TO.P,U1,7*%
%TA.AperFunction,SMDPad,CuDef*%
G36*
G01*
X119515000Y-104500000D02*
X119215000Y-104500000D01*
G75*
G02*
X119065000Y-104350000I0J150000D01*
G01*
X119065000Y-102700000D01*
G75*
G02*
X119215000Y-102550000I150000J0D01*
G01*
X119515000Y-102550000D01*
G75*
G02*
X119665000Y-102700000I0J-150000D01*
G01*
X119665000Y-104350000D01*
G75*
G02*
X119515000Y-104500000I-150000J0D01*
G01*
G37*
%TD.AperFunction*%
%TO.P,U1,6*%
%TA.AperFunction,SMDPad,CuDef*%
G36*
G01*
X120785000Y-104500000D02*
X120485000Y-104500000D01*
G75*
G02*
X120335000Y-104350000I0J150000D01*
G01*
X120335000Y-102700000D01*
G75*
G02*
X120485000Y-102550000I150000J0D01*
G01*
X120785000Y-102550000D01*
G75*
G02*
X120935000Y-102700000I0J-150000D01*
G01*
X120935000Y-104350000D01*
G75*
G02*
X120785000Y-104500000I-150000J0D01*
G01*
G37*
%TD.AperFunction*%
%TO.P,U1,5*%
%TO.N,Net-(U1-Pad5)*%
%TA.AperFunction,SMDPad,CuDef*%
G36*
G01*
X122055000Y-104500000D02*
X121755000Y-104500000D01*
G75*
G02*
X121605000Y-104350000I0J150000D01*
G01*
X121605000Y-102700000D01*
G75*
G02*
X121755000Y-102550000I150000J0D01*
G01*
X122055000Y-102550000D01*
G75*
G02*
X122205000Y-102700000I0J-150000D01*
G01*
X122205000Y-104350000D01*
G75*
G02*
X122055000Y-104500000I-150000J0D01*
G01*
G37*
%TD.AperFunction*%
%TO.P,U1,4*%
%TO.N,Earth*%
%TA.AperFunction,SMDPad,CuDef*%
G36*
G01*
X122055000Y-109450000D02*
X121755000Y-109450000D01*
G75*
G02*
X121605000Y-109300000I0J150000D01*
G01*
X121605000Y-107650000D01*
G75*
G02*
X121755000Y-107500000I150000J0D01*
G01*
X122055000Y-107500000D01*
G75*
G02*
X122205000Y-107650000I0J-150000D01*
G01*
X122205000Y-109300000D01*
G75*
G02*
X122055000Y-109450000I-150000J0D01*
G01*
G37*
%TD.AperFunction*%
%TO.P,U1,3*%
%TO.N,Net-(C23-Pad2)*%
%TA.AperFunction,SMDPad,CuDef*%
G36*
G01*
X120785000Y-109450000D02*
X120485000Y-109450000D01*
G75*
G02*
X120335000Y-109300000I0J150000D01*
G01*
X120335000Y-107650000D01*
G75*
G02*
X120485000Y-107500000I150000J0D01*
G01*
X120785000Y-107500000D01*
G75*
G02*
X120935000Y-107650000I0J-150000D01*
G01*
X120935000Y-109300000D01*
G75*
G02*
X120785000Y-109450000I-150000J0D01*
G01*
G37*
%TD.AperFunction*%
%TO.P,U1,2*%
%TO.N,+3V3*%
%TA.AperFunction,SMDPad,CuDef*%
G36*
G01*
X119515000Y-109450000D02*
X119215000Y-109450000D01*
G75*
G02*
X119065000Y-109300000I0J150000D01*
G01*
X119065000Y-107650000D01*
G75*
G02*
X119215000Y-107500000I150000J0D01*
G01*
X119515000Y-107500000D01*
G75*
G02*
X119665000Y-107650000I0J-150000D01*
G01*
X119665000Y-109300000D01*
G75*
G02*
X119515000Y-109450000I-150000J0D01*
G01*
G37*
%TD.AperFunction*%
%TO.P,U1,1*%
%TA.AperFunction,SMDPad,CuDef*%
G36*
G01*
X118245000Y-109450000D02*
X117945000Y-109450000D01*
G75*
G02*
X117795000Y-109300000I0J150000D01*
G01*
X117795000Y-107650000D01*
G75*
G02*
X117945000Y-107500000I150000J0D01*
G01*
X118245000Y-107500000D01*
G75*
G02*
X118395000Y-107650000I0J-150000D01*
G01*
X118395000Y-109300000D01*
G75*
G02*
X118245000Y-109450000I-150000J0D01*
G01*
G37*
%TD.AperFunction*%
%TD*%
D14*
%TO.P,SW1,2*%
%TO.N,/SW*%
X104445000Y-112000000D03*
%TO.P,SW1,1*%
%TO.N,Earth*%
X101045000Y-112000000D03*
%TD*%
%TO.P,R10,2*%
%TO.N,Net-(C23-Pad2)*%
%TA.AperFunction,SMDPad,CuDef*%
G36*
G01*
X121400000Y-113157500D02*
X121400000Y-112682500D01*
G75*
G02*
X121637500Y-112445000I237500J0D01*
G01*
X122212500Y-112445000D01*
G75*
G02*
X122450000Y-112682500I0J-237500D01*
G01*
X122450000Y-113157500D01*
G75*
G02*
X122212500Y-113395000I-237500J0D01*
G01*
X121637500Y-113395000D01*
G75*
G02*
X121400000Y-113157500I0J237500D01*
G01*
G37*
%TD.AperFunction*%
%TO.P,R10,1*%
%TO.N,Earth*%
%TA.AperFunction,SMDPad,CuDef*%
G36*
G01*
X119650000Y-113157500D02*
X119650000Y-112682500D01*
G75*
G02*
X119887500Y-112445000I237500J0D01*
G01*
X120462500Y-112445000D01*
G75*
G02*
X120700000Y-112682500I0J-237500D01*
G01*
X120700000Y-113157500D01*
G75*
G02*
X120462500Y-113395000I-237500J0D01*
G01*
X119887500Y-113395000D01*
G75*
G02*
X119650000Y-113157500I0J237500D01*
G01*
G37*
%TD.AperFunction*%
%TD*%
%TO.P,R9,2*%
%TO.N,+3V3*%
%TA.AperFunction,SMDPad,CuDef*%
G36*
G01*
X117931250Y-111317500D02*
X117931250Y-110842500D01*
G75*
G02*
X118168750Y-110605000I237500J0D01*
G01*
X118743750Y-110605000D01*
G75*
G02*
X118981250Y-110842500I0J-237500D01*
G01*
X118981250Y-111317500D01*
G75*
G02*
X118743750Y-111555000I-237500J0D01*
G01*
X118168750Y-111555000D01*
G75*
G02*
X117931250Y-111317500I0J237500D01*
G01*
G37*
%TD.AperFunction*%
%TO.P,R9,1*%
%TO.N,Net-(C23-Pad2)*%
%TA.AperFunction,SMDPad,CuDef*%
G36*
G01*
X116181250Y-111317500D02*
X116181250Y-110842500D01*
G75*
G02*
X116418750Y-110605000I237500J0D01*
G01*
X116993750Y-110605000D01*
G75*
G02*
X117231250Y-110842500I0J-237500D01*
G01*
X117231250Y-111317500D01*
G75*
G02*
X116993750Y-111555000I-237500J0D01*
G01*
X116418750Y-111555000D01*
G75*
G02*
X116181250Y-111317500I0J237500D01*
G01*
G37*
%TD.AperFunction*%
%TD*%
%TO.P,R5,2*%
%TO.N,Net-(C15-Pad1)*%
%TA.AperFunction,SMDPad,CuDef*%
G36*
G01*
X117280000Y-100762500D02*
X117280000Y-101237500D01*
G75*
G02*
X117042500Y-101475000I-237500J0D01*
G01*
X116467500Y-101475000D01*
G75*
G02*
X116230000Y-101237500I0J237500D01*
G01*
X116230000Y-100762500D01*
G75*
G02*
X116467500Y-100525000I237500J0D01*
G01*
X117042500Y-100525000D01*
G75*
G02*
X117280000Y-100762500I0J-237500D01*
G01*
G37*
%TD.AperFunction*%
%TO.P,R5,1*%
%TO.N,+BATT*%
%TA.AperFunction,SMDPad,CuDef*%
G36*
G01*
X119030000Y-100762500D02*
X119030000Y-101237500D01*
G75*
G02*
X118792500Y-101475000I-237500J0D01*
G01*
X118217500Y-101475000D01*
G75*
G02*
X117980000Y-101237500I0J237500D01*
G01*
X117980000Y-100762500D01*
G75*
G02*
X118217500Y-100525000I237500J0D01*
G01*
X118792500Y-100525000D01*
G75*
G02*
X119030000Y-100762500I0J-237500D01*
G01*
G37*
%TD.AperFunction*%
%TD*%
%TO.P,R3,2*%
%TO.N,/SW*%
%TA.AperFunction,SMDPad,CuDef*%
G36*
G01*
X106800000Y-112682500D02*
X106800000Y-113157500D01*
G75*
G02*
X106562500Y-113395000I-237500J0D01*
G01*
X105987500Y-113395000D01*
G75*
G02*
X105750000Y-113157500I0J237500D01*
G01*
X105750000Y-112682500D01*
G75*
G02*
X105987500Y-112445000I237500J0D01*
G01*
X106562500Y-112445000D01*
G75*
G02*
X106800000Y-112682500I0J-237500D01*
G01*
G37*
%TD.AperFunction*%
%TO.P,R3,1*%
%TO.N,Net-(R3-Pad1)*%
%TA.AperFunction,SMDPad,CuDef*%
G36*
G01*
X108550000Y-112682500D02*
X108550000Y-113157500D01*
G75*
G02*
X108312500Y-113395000I-237500J0D01*
G01*
X107737500Y-113395000D01*
G75*
G02*
X107500000Y-113157500I0J237500D01*
G01*
X107500000Y-112682500D01*
G75*
G02*
X107737500Y-112445000I237500J0D01*
G01*
X108312500Y-112445000D01*
G75*
G02*
X108550000Y-112682500I0J-237500D01*
G01*
G37*
%TD.AperFunction*%
%TD*%
%TO.P,R1,2*%
%TO.N,Net-(C6-Pad1)*%
%TA.AperFunction,SMDPad,CuDef*%
G36*
G01*
X107720000Y-101237500D02*
X107720000Y-100762500D01*
G75*
G02*
X107957500Y-100525000I237500J0D01*
G01*
X108532500Y-100525000D01*
G75*
G02*
X108770000Y-100762500I0J-237500D01*
G01*
X108770000Y-101237500D01*
G75*
G02*
X108532500Y-101475000I-237500J0D01*
G01*
X107957500Y-101475000D01*
G75*
G02*
X107720000Y-101237500I0J237500D01*
G01*
G37*
%TD.AperFunction*%
%TO.P,R1,1*%
%TO.N,VBUS*%
%TA.AperFunction,SMDPad,CuDef*%
G36*
G01*
X105970000Y-101237500D02*
X105970000Y-100762500D01*
G75*
G02*
X106207500Y-100525000I237500J0D01*
G01*
X106782500Y-100525000D01*
G75*
G02*
X107020000Y-100762500I0J-237500D01*
G01*
X107020000Y-101237500D01*
G75*
G02*
X106782500Y-101475000I-237500J0D01*
G01*
X106207500Y-101475000D01*
G75*
G02*
X105970000Y-101237500I0J237500D01*
G01*
G37*
%TD.AperFunction*%
%TD*%
D15*
%TO.P,L2,2*%
%TO.N,+BATT*%
X115050000Y-106000000D03*
%TO.P,L2,1*%
%TO.N,Net-(L2-Pad1)*%
X109950000Y-106000000D03*
%TD*%
%TO.P,C23,2*%
%TO.N,Net-(C23-Pad2)*%
%TA.AperFunction,SMDPad,CuDef*%
G36*
G01*
X121400000Y-111317500D02*
X121400000Y-110842500D01*
G75*
G02*
X121637500Y-110605000I237500J0D01*
G01*
X122212500Y-110605000D01*
G75*
G02*
X122450000Y-110842500I0J-237500D01*
G01*
X122450000Y-111317500D01*
G75*
G02*
X122212500Y-111555000I-237500J0D01*
G01*
X121637500Y-111555000D01*
G75*
G02*
X121400000Y-111317500I0J237500D01*
G01*
G37*
%TD.AperFunction*%
%TO.P,C23,1*%
%TO.N,+3V3*%
%TA.AperFunction,SMDPad,CuDef*%
G36*
G01*
X119650000Y-111317500D02*
X119650000Y-110842500D01*
G75*
G02*
X119887500Y-110605000I237500J0D01*
G01*
X120462500Y-110605000D01*
G75*
G02*
X120700000Y-110842500I0J-237500D01*
G01*
X120700000Y-111317500D01*
G75*
G02*
X120462500Y-111555000I-237500J0D01*
G01*
X119887500Y-111555000D01*
G75*
G02*
X119650000Y-111317500I0J237500D01*
G01*
G37*
%TD.AperFunction*%
%TD*%
%TO.P,C22,2*%
%TO.N,Earth*%
%TA.AperFunction,SMDPad,CuDef*%
G36*
G01*
X114462500Y-111317500D02*
X114462500Y-110842500D01*
G75*
G02*
X114700000Y-110605000I237500J0D01*
G01*
X115275000Y-110605000D01*
G75*
G02*
X115512500Y-110842500I0J-237500D01*
G01*
X115512500Y-111317500D01*
G75*
G02*
X115275000Y-111555000I-237500J0D01*
G01*
X114700000Y-111555000D01*
G75*
G02*
X114462500Y-111317500I0J237500D01*
G01*
G37*
%TD.AperFunction*%
%TO.P,C22,1*%
%TO.N,+5V*%
%TA.AperFunction,SMDPad,CuDef*%
G36*
G01*
X112712500Y-111317500D02*
X112712500Y-110842500D01*
G75*
G02*
X112950000Y-110605000I237500J0D01*
G01*
X113525000Y-110605000D01*
G75*
G02*
X113762500Y-110842500I0J-237500D01*
G01*
X113762500Y-111317500D01*
G75*
G02*
X113525000Y-111555000I-237500J0D01*
G01*
X112950000Y-111555000D01*
G75*
G02*
X112712500Y-111317500I0J237500D01*
G01*
G37*
%TD.AperFunction*%
%TD*%
%TO.P,C17,2*%
%TO.N,Earth*%
%TA.AperFunction,SMDPad,CuDef*%
G36*
G01*
X121400000Y-101237500D02*
X121400000Y-100762500D01*
G75*
G02*
X121637500Y-100525000I237500J0D01*
G01*
X122212500Y-100525000D01*
G75*
G02*
X122450000Y-100762500I0J-237500D01*
G01*
X122450000Y-101237500D01*
G75*
G02*
X122212500Y-101475000I-237500J0D01*
G01*
X121637500Y-101475000D01*
G75*
G02*
X121400000Y-101237500I0J237500D01*
G01*
G37*
%TD.AperFunction*%
%TO.P,C17,1*%
%TO.N,+BATT*%
%TA.AperFunction,SMDPad,CuDef*%
G36*
G01*
X119650000Y-101237500D02*
X119650000Y-100762500D01*
G75*
G02*
X119887500Y-100525000I237500J0D01*
G01*
X120462500Y-100525000D01*
G75*
G02*
X120700000Y-100762500I0J-237500D01*
G01*
X120700000Y-101237500D01*
G75*
G02*
X120462500Y-101475000I-237500J0D01*
G01*
X119887500Y-101475000D01*
G75*
G02*
X119650000Y-101237500I0J237500D01*
G01*
G37*
%TD.AperFunction*%
%TD*%
%TO.P,C15,2*%
%TO.N,Earth*%
%TA.AperFunction,SMDPad,CuDef*%
G36*
G01*
X113860000Y-100762500D02*
X113860000Y-101237500D01*
G75*
G02*
X113622500Y-101475000I-237500J0D01*
G01*
X113047500Y-101475000D01*
G75*
G02*
X112810000Y-101237500I0J237500D01*
G01*
X112810000Y-100762500D01*
G75*
G02*
X113047500Y-100525000I237500J0D01*
G01*
X113622500Y-100525000D01*
G75*
G02*
X113860000Y-100762500I0J-237500D01*
G01*
G37*
%TD.AperFunction*%
%TO.P,C15,1*%
%TO.N,Net-(C15-Pad1)*%
%TA.AperFunction,SMDPad,CuDef*%
G36*
G01*
X115610000Y-100762500D02*
X115610000Y-101237500D01*
G75*
G02*
X115372500Y-101475000I-237500J0D01*
G01*
X114797500Y-101475000D01*
G75*
G02*
X114560000Y-101237500I0J237500D01*
G01*
X114560000Y-100762500D01*
G75*
G02*
X114797500Y-100525000I237500J0D01*
G01*
X115372500Y-100525000D01*
G75*
G02*
X115610000Y-100762500I0J-237500D01*
G01*
G37*
%TD.AperFunction*%
%TD*%
%TO.P,C9,2*%
%TO.N,Earth*%
%TA.AperFunction,SMDPad,CuDef*%
G36*
G01*
X114450000Y-113157500D02*
X114450000Y-112682500D01*
G75*
G02*
X114687500Y-112445000I237500J0D01*
G01*
X115262500Y-112445000D01*
G75*
G02*
X115500000Y-112682500I0J-237500D01*
G01*
X115500000Y-113157500D01*
G75*
G02*
X115262500Y-113395000I-237500J0D01*
G01*
X114687500Y-113395000D01*
G75*
G02*
X114450000Y-113157500I0J237500D01*
G01*
G37*
%TD.AperFunction*%
%TO.P,C9,1*%
%TO.N,+5V*%
%TA.AperFunction,SMDPad,CuDef*%
G36*
G01*
X112700000Y-113157500D02*
X112700000Y-112682500D01*
G75*
G02*
X112937500Y-112445000I237500J0D01*
G01*
X113512500Y-112445000D01*
G75*
G02*
X113750000Y-112682500I0J-237500D01*
G01*
X113750000Y-113157500D01*
G75*
G02*
X113512500Y-113395000I-237500J0D01*
G01*
X112937500Y-113395000D01*
G75*
G02*
X112700000Y-113157500I0J237500D01*
G01*
G37*
%TD.AperFunction*%
%TD*%
%TO.P,C8,2*%
%TO.N,Earth*%
%TA.AperFunction,SMDPad,CuDef*%
G36*
G01*
X103600000Y-100762500D02*
X103600000Y-101237500D01*
G75*
G02*
X103362500Y-101475000I-237500J0D01*
G01*
X102787500Y-101475000D01*
G75*
G02*
X102550000Y-101237500I0J237500D01*
G01*
X102550000Y-100762500D01*
G75*
G02*
X102787500Y-100525000I237500J0D01*
G01*
X103362500Y-100525000D01*
G75*
G02*
X103600000Y-100762500I0J-237500D01*
G01*
G37*
%TD.AperFunction*%
%TO.P,C8,1*%
%TO.N,VBUS*%
%TA.AperFunction,SMDPad,CuDef*%
G36*
G01*
X105350000Y-100762500D02*
X105350000Y-101237500D01*
G75*
G02*
X105112500Y-101475000I-237500J0D01*
G01*
X104537500Y-101475000D01*
G75*
G02*
X104300000Y-101237500I0J237500D01*
G01*
X104300000Y-100762500D01*
G75*
G02*
X104537500Y-100525000I237500J0D01*
G01*
X105112500Y-100525000D01*
G75*
G02*
X105350000Y-100762500I0J-237500D01*
G01*
G37*
%TD.AperFunction*%
%TD*%
%TO.P,C7,2*%
%TO.N,Earth*%
%TA.AperFunction,SMDPad,CuDef*%
G36*
G01*
X110293750Y-110842500D02*
X110293750Y-111317500D01*
G75*
G02*
X110056250Y-111555000I-237500J0D01*
G01*
X109481250Y-111555000D01*
G75*
G02*
X109243750Y-111317500I0J237500D01*
G01*
X109243750Y-110842500D01*
G75*
G02*
X109481250Y-110605000I237500J0D01*
G01*
X110056250Y-110605000D01*
G75*
G02*
X110293750Y-110842500I0J-237500D01*
G01*
G37*
%TD.AperFunction*%
%TO.P,C7,1*%
%TO.N,+5V*%
%TA.AperFunction,SMDPad,CuDef*%
G36*
G01*
X112043750Y-110842500D02*
X112043750Y-111317500D01*
G75*
G02*
X111806250Y-111555000I-237500J0D01*
G01*
X111231250Y-111555000D01*
G75*
G02*
X110993750Y-111317500I0J237500D01*
G01*
X110993750Y-110842500D01*
G75*
G02*
X111231250Y-110605000I237500J0D01*
G01*
X111806250Y-110605000D01*
G75*
G02*
X112043750Y-110842500I0J-237500D01*
G01*
G37*
%TD.AperFunction*%
%TD*%
%TO.P,C6,2*%
%TO.N,Earth*%
%TA.AperFunction,SMDPad,CuDef*%
G36*
G01*
X111140000Y-101237500D02*
X111140000Y-100762500D01*
G75*
G02*
X111377500Y-100525000I237500J0D01*
G01*
X111952500Y-100525000D01*
G75*
G02*
X112190000Y-100762500I0J-237500D01*
G01*
X112190000Y-101237500D01*
G75*
G02*
X111952500Y-101475000I-237500J0D01*
G01*
X111377500Y-101475000D01*
G75*
G02*
X111140000Y-101237500I0J237500D01*
G01*
G37*
%TD.AperFunction*%
%TO.P,C6,1*%
%TO.N,Net-(C6-Pad1)*%
%TA.AperFunction,SMDPad,CuDef*%
G36*
G01*
X109390000Y-101237500D02*
X109390000Y-100762500D01*
G75*
G02*
X109627500Y-100525000I237500J0D01*
G01*
X110202500Y-100525000D01*
G75*
G02*
X110440000Y-100762500I0J-237500D01*
G01*
X110440000Y-101237500D01*
G75*
G02*
X110202500Y-101475000I-237500J0D01*
G01*
X109627500Y-101475000D01*
G75*
G02*
X109390000Y-101237500I0J237500D01*
G01*
G37*
%TD.AperFunction*%
%TD*%
%TO.P,C4,2*%
%TO.N,Earth*%
%TA.AperFunction,SMDPad,CuDef*%
G36*
G01*
X107525000Y-111317500D02*
X107525000Y-110842500D01*
G75*
G02*
X107762500Y-110605000I237500J0D01*
G01*
X108337500Y-110605000D01*
G75*
G02*
X108575000Y-110842500I0J-237500D01*
G01*
X108575000Y-111317500D01*
G75*
G02*
X108337500Y-111555000I-237500J0D01*
G01*
X107762500Y-111555000D01*
G75*
G02*
X107525000Y-111317500I0J237500D01*
G01*
G37*
%TD.AperFunction*%
%TO.P,C4,1*%
%TO.N,+5V*%
%TA.AperFunction,SMDPad,CuDef*%
G36*
G01*
X105775000Y-111317500D02*
X105775000Y-110842500D01*
G75*
G02*
X106012500Y-110605000I237500J0D01*
G01*
X106587500Y-110605000D01*
G75*
G02*
X106825000Y-110842500I0J-237500D01*
G01*
X106825000Y-111317500D01*
G75*
G02*
X106587500Y-111555000I-237500J0D01*
G01*
X106012500Y-111555000D01*
G75*
G02*
X105775000Y-111317500I0J237500D01*
G01*
G37*
%TD.AperFunction*%
%TD*%
%TO.P,C3,2*%
%TO.N,Earth*%
%TA.AperFunction,SMDPad,CuDef*%
G36*
G01*
X110275000Y-112682500D02*
X110275000Y-113157500D01*
G75*
G02*
X110037500Y-113395000I-237500J0D01*
G01*
X109462500Y-113395000D01*
G75*
G02*
X109225000Y-113157500I0J237500D01*
G01*
X109225000Y-112682500D01*
G75*
G02*
X109462500Y-112445000I237500J0D01*
G01*
X110037500Y-112445000D01*
G75*
G02*
X110275000Y-112682500I0J-237500D01*
G01*
G37*
%TD.AperFunction*%
%TO.P,C3,1*%
%TO.N,+5V*%
%TA.AperFunction,SMDPad,CuDef*%
G36*
G01*
X112025000Y-112682500D02*
X112025000Y-113157500D01*
G75*
G02*
X111787500Y-113395000I-237500J0D01*
G01*
X111212500Y-113395000D01*
G75*
G02*
X110975000Y-113157500I0J237500D01*
G01*
X110975000Y-112682500D01*
G75*
G02*
X111212500Y-112445000I237500J0D01*
G01*
X111787500Y-112445000D01*
G75*
G02*
X112025000Y-112682500I0J-237500D01*
G01*
G37*
%TD.AperFunction*%
%TD*%
D16*
%TO.N,Earth*%
X113300000Y-101000000D03*
X101050000Y-112050000D03*
X103050000Y-101000000D03*
X121900000Y-108500000D03*
X121200000Y-105800000D03*
X120200000Y-105800000D03*
X119550000Y-106600000D03*
X104000000Y-106550000D03*
X105050000Y-106550000D03*
X106050000Y-106550000D03*
X106050000Y-105400000D03*
X105050000Y-105400000D03*
X120150000Y-112950000D03*
X109720000Y-111080000D03*
X114987500Y-111080000D03*
%TO.N,+3V3*%
X118095000Y-108475000D03*
X119365000Y-108475000D03*
%TO.N,+5V*%
X113237500Y-111080000D03*
X111500000Y-111150000D03*
X120625000Y-103525000D03*
X119425000Y-103525000D03*
%TO.N,VBUS*%
X106900000Y-103100000D03*
X106900000Y-104000000D03*
X116700000Y-109700000D03*
%TO.N,Net-(C15-Pad1)*%
X116750000Y-101000000D03*
X115100000Y-101000000D03*
X104400000Y-108500000D03*
%TO.N,+BATT*%
X114400000Y-106550000D03*
X115750000Y-106550000D03*
X115750000Y-105500000D03*
X114400000Y-105500000D03*
X118505000Y-101000000D03*
%TO.N,Net-(C23-Pad2)*%
X116650000Y-111100000D03*
X121925000Y-112920000D03*
%TO.N,Net-(L2-Pad1)*%
X105600000Y-108500000D03*
X109950000Y-106000000D03*
%TO.N,/LED2*%
X104350000Y-103600000D03*
%TD*%
D17*
%TO.N,Earth*%
X114987500Y-112907500D02*
X114975000Y-112920000D01*
X114975000Y-112920000D02*
X116700000Y-112920000D01*
X109750000Y-111098750D02*
X109768750Y-111080000D01*
X109750000Y-112920000D02*
X109750000Y-111098750D01*
X109768750Y-111080000D02*
X109720000Y-111080000D01*
X109720000Y-111080000D02*
X108050000Y-111080000D01*
X114987500Y-111080000D02*
X114987500Y-112907500D01*
X124274990Y-110844990D02*
X124274990Y-111000000D01*
X121905000Y-108475000D02*
X124274990Y-110844990D01*
%TO.N,+3V3*%
X118095000Y-108475000D02*
X118095000Y-110718750D01*
X118456250Y-112913750D02*
X118450000Y-112920000D01*
X118456250Y-111080000D02*
X118456250Y-112913750D01*
X120175000Y-111080000D02*
X118456250Y-111080000D01*
X119365000Y-108475000D02*
X118095000Y-108475000D01*
X118095000Y-110718750D02*
X118456250Y-111080000D01*
%TO.N,+5V*%
X111518750Y-111080000D02*
X113237500Y-111080000D01*
X113237500Y-111080000D02*
X113237500Y-112907500D01*
X113225000Y-112920000D02*
X111500000Y-112920000D01*
X111500000Y-111098750D02*
X111518750Y-111080000D01*
X111500000Y-112920000D02*
X111500000Y-111150000D01*
X111518750Y-110605000D02*
X111518750Y-111080000D01*
X109388750Y-108475000D02*
X111518750Y-110605000D01*
X106905000Y-108475000D02*
X109388750Y-108475000D01*
X106905000Y-109450000D02*
X106300000Y-110055000D01*
X106300000Y-110055000D02*
X106300000Y-111080000D01*
X106905000Y-108475000D02*
X106905000Y-109450000D01*
X111500000Y-111150000D02*
X111500000Y-111098750D01*
X113237500Y-112907500D02*
X113225000Y-112920000D01*
X120635000Y-103525000D02*
X120625000Y-103525000D01*
X120625000Y-103525000D02*
X119425000Y-103525000D01*
X119425000Y-103525000D02*
X118095000Y-103525000D01*
%TO.N,Net-(C6-Pad1)*%
X109915000Y-101000000D02*
X108245000Y-101000000D01*
%TO.N,VBUS*%
X104825000Y-101000000D02*
X106495000Y-101000000D01*
X106905000Y-101410000D02*
X106905000Y-103525000D01*
X106495000Y-101000000D02*
X106905000Y-101410000D01*
X112999999Y-105339997D02*
X112999999Y-107660001D01*
X112999999Y-107660001D02*
X115039998Y-109700000D01*
X111185002Y-103525000D02*
X112999999Y-105339997D01*
X115039998Y-109700000D02*
X116700000Y-109700000D01*
X106905000Y-103525000D02*
X111185002Y-103525000D01*
%TO.N,Net-(C15-Pad1)*%
X116750000Y-101000000D02*
X115100000Y-101000000D01*
%TO.N,+BATT*%
X120175000Y-101000000D02*
X118505000Y-101000000D01*
%TO.N,Net-(C23-Pad2)*%
X121925000Y-110979160D02*
X121925000Y-111080000D01*
X120635000Y-109689160D02*
X121925000Y-110979160D01*
X120635000Y-108475000D02*
X120635000Y-109689160D01*
X121925000Y-111080000D02*
X121925000Y-112920000D01*
D18*
%TO.N,Net-(R3-Pad1)*%
X107249990Y-112144990D02*
X108025000Y-112920000D01*
X105474990Y-111774990D02*
X105844990Y-112144990D01*
X105474990Y-111189988D02*
X105474990Y-111774990D01*
X105135001Y-110849999D02*
X105474990Y-111189988D01*
X104149999Y-110849999D02*
X105135001Y-110849999D01*
X103095000Y-109795000D02*
X104149999Y-110849999D01*
X105844990Y-112144990D02*
X107249990Y-112144990D01*
X103095000Y-108475000D02*
X103095000Y-109795000D01*
D19*
%TO.N,/SW*%
X105365000Y-112920000D02*
X104445000Y-112000000D01*
X106275000Y-112920000D02*
X105365000Y-112920000D01*
D18*
X100325010Y-108530010D02*
X100325010Y-108000000D01*
X103795000Y-112000000D02*
X100325010Y-108530010D01*
X104445000Y-112000000D02*
X103795000Y-112000000D01*
%TO.N,/LED3*%
X103095000Y-103525000D02*
X103095000Y-105505000D01*
X101600000Y-107000000D02*
X100325010Y-107000000D01*
X103095000Y-105505000D02*
X101600000Y-107000000D01*
%TO.N,/LED1*%
X105635000Y-102550000D02*
X105085000Y-102000000D01*
X105635000Y-103525000D02*
X105635000Y-102550000D01*
X100325010Y-102874990D02*
X100325010Y-103000000D01*
X101200000Y-102000000D02*
X100325010Y-102874990D01*
X105085000Y-102000000D02*
X101200000Y-102000000D01*
%TD*%
D20*
%TO.N,Earth*%
X124340000Y-101686928D02*
X124125000Y-101686928D01*
X124000518Y-101699188D01*
X123880820Y-101735498D01*
X123770506Y-101794463D01*
X123673815Y-101873815D01*
X123594463Y-101970506D01*
X123535498Y-102080820D01*
X123499188Y-102200518D01*
X123486928Y-102325000D01*
X123486928Y-103675000D01*
X123499188Y-103799482D01*
X123535498Y-103919180D01*
X123594463Y-104029494D01*
X123673815Y-104126185D01*
X123760697Y-104197487D01*
X123639093Y-104379482D01*
X123540342Y-104617887D01*
X123490000Y-104870976D01*
X123490000Y-105129024D01*
X123540342Y-105382113D01*
X123639093Y-105620518D01*
X123782456Y-105835077D01*
X123947379Y-106000000D01*
X123782456Y-106164923D01*
X123639093Y-106379482D01*
X123540342Y-106617887D01*
X123490000Y-106870976D01*
X123490000Y-107129024D01*
X123540342Y-107382113D01*
X123639093Y-107620518D01*
X123782456Y-107835077D01*
X123947379Y-108000000D01*
X123782456Y-108164923D01*
X123639093Y-108379482D01*
X123540342Y-108617887D01*
X123490000Y-108870976D01*
X123490000Y-109129024D01*
X123540342Y-109382113D01*
X123639093Y-109620518D01*
X123782456Y-109835077D01*
X123954060Y-110006681D01*
X123821697Y-110128773D01*
X123670527Y-110336371D01*
X123562762Y-110569472D01*
X123532090Y-110670600D01*
X123655776Y-110873000D01*
X124340001Y-110873000D01*
X124340001Y-111127000D01*
X123655776Y-111127000D01*
X123532090Y-111329400D01*
X123562762Y-111430528D01*
X123670527Y-111663629D01*
X123821697Y-111871227D01*
X124010463Y-112045344D01*
X124229570Y-112179289D01*
X124340001Y-112219894D01*
X124340001Y-113340000D01*
X123067704Y-113340000D01*
X123071248Y-113328316D01*
X123088072Y-113157500D01*
X123088072Y-112682500D01*
X123071248Y-112511684D01*
X123060000Y-112474604D01*
X123060000Y-111525396D01*
X123071248Y-111488316D01*
X123088072Y-111317500D01*
X123088072Y-110842500D01*
X123071248Y-110671684D01*
X123021423Y-110507433D01*
X122940512Y-110356058D01*
X122831623Y-110223377D01*
X122698942Y-110114488D01*
X122627014Y-110076042D01*
X122541257Y-109990285D01*
X122559494Y-109980537D01*
X122656185Y-109901185D01*
X122735537Y-109804494D01*
X122794502Y-109694180D01*
X122830812Y-109574482D01*
X122843072Y-109450000D01*
X122840000Y-108760750D01*
X122681250Y-108602000D01*
X122032000Y-108602000D01*
X122032000Y-108622000D01*
X121778000Y-108622000D01*
X121778000Y-108602000D01*
X121770000Y-108602000D01*
X121770000Y-108419248D01*
X121762983Y-108348000D01*
X121778000Y-108348000D01*
X121778000Y-108328000D01*
X122032000Y-108328000D01*
X122032000Y-108348000D01*
X122681250Y-108348000D01*
X122840000Y-108189250D01*
X122843072Y-107500000D01*
X122830812Y-107375518D01*
X122794502Y-107255820D01*
X122735537Y-107145506D01*
X122656185Y-107048815D01*
X122559494Y-106969463D01*
X122449180Y-106910498D01*
X122329482Y-106874188D01*
X122286952Y-106869999D01*
X122285000Y-106285750D01*
X122126250Y-106127000D01*
X120127000Y-106127000D01*
X120127000Y-106147000D01*
X119873000Y-106147000D01*
X119873000Y-106127000D01*
X117873750Y-106127000D01*
X117715000Y-106285750D01*
X117712945Y-106900826D01*
X117643418Y-106921916D01*
X117507171Y-106994742D01*
X117387749Y-107092749D01*
X117289742Y-107212171D01*
X117216916Y-107348418D01*
X117172071Y-107496255D01*
X117156928Y-107650000D01*
X117156928Y-107828934D01*
X117146716Y-107841377D01*
X117041324Y-108038553D01*
X116976423Y-108252501D01*
X116954509Y-108475000D01*
X116960000Y-108530752D01*
X116960000Y-108592799D01*
X116922499Y-108581423D01*
X116755752Y-108565000D01*
X115510130Y-108565000D01*
X114683201Y-107738072D01*
X116400000Y-107738072D01*
X116524482Y-107725812D01*
X116644180Y-107689502D01*
X116754494Y-107630537D01*
X116851185Y-107551185D01*
X116930537Y-107454494D01*
X116989502Y-107344180D01*
X117025812Y-107224482D01*
X117038072Y-107100000D01*
X117038072Y-104900000D01*
X117025812Y-104775518D01*
X116989502Y-104655820D01*
X116930537Y-104545506D01*
X116851185Y-104448815D01*
X116754494Y-104369463D01*
X116644180Y-104310498D01*
X116524482Y-104274188D01*
X116400000Y-104261928D01*
X113700000Y-104261928D01*
X113575518Y-104274188D01*
X113547746Y-104282612D01*
X112026998Y-102761865D01*
X111991451Y-102718551D01*
X111818625Y-102576716D01*
X111621449Y-102471324D01*
X111407501Y-102406423D01*
X111240754Y-102390000D01*
X111240753Y-102390000D01*
X111185002Y-102384509D01*
X111129251Y-102390000D01*
X108040000Y-102390000D01*
X108040000Y-102120300D01*
X108189248Y-102135000D01*
X109970752Y-102135000D01*
X110137499Y-102118577D01*
X110155646Y-102113072D01*
X110202500Y-102113072D01*
X110373316Y-102096248D01*
X110537567Y-102046423D01*
X110688942Y-101965512D01*
X110712839Y-101945901D01*
X110785506Y-102005537D01*
X110895820Y-102064502D01*
X111015518Y-102100812D01*
X111140000Y-102113072D01*
X111379250Y-102110000D01*
X111538000Y-101951250D01*
X111538000Y-101127000D01*
X111792000Y-101127000D01*
X111792000Y-101951250D01*
X111950750Y-102110000D01*
X112190000Y-102113072D01*
X112314482Y-102100812D01*
X112434180Y-102064502D01*
X112500000Y-102029320D01*
X112565820Y-102064502D01*
X112685518Y-102100812D01*
X112810000Y-102113072D01*
X113049250Y-102110000D01*
X113208000Y-101951250D01*
X113208000Y-101127000D01*
X111792000Y-101127000D01*
X111538000Y-101127000D01*
X111518000Y-101127000D01*
X111518000Y-100873000D01*
X111538000Y-100873000D01*
X111538000Y-100853000D01*
X111792000Y-100853000D01*
X111792000Y-100873000D01*
X113208000Y-100873000D01*
X113208000Y-100853000D01*
X113462000Y-100853000D01*
X113462000Y-100873000D01*
X113482000Y-100873000D01*
X113482000Y-101127000D01*
X113462000Y-101127000D01*
X113462000Y-101951250D01*
X113620750Y-102110000D01*
X113860000Y-102113072D01*
X113984482Y-102100812D01*
X114104180Y-102064502D01*
X114214494Y-102005537D01*
X114287161Y-101945901D01*
X114311058Y-101965512D01*
X114462433Y-102046423D01*
X114626684Y-102096248D01*
X114797500Y-102113072D01*
X114859354Y-102113072D01*
X114877501Y-102118577D01*
X115044248Y-102135000D01*
X116805752Y-102135000D01*
X116972499Y-102118577D01*
X116990646Y-102113072D01*
X117042500Y-102113072D01*
X117213316Y-102096248D01*
X117377567Y-102046423D01*
X117528942Y-101965512D01*
X117630000Y-101882575D01*
X117713104Y-101950777D01*
X117643418Y-101971916D01*
X117507171Y-102044742D01*
X117387749Y-102142749D01*
X117289742Y-102262171D01*
X117216916Y-102398418D01*
X117172071Y-102546255D01*
X117156928Y-102700000D01*
X117156928Y-102878934D01*
X117146716Y-102891377D01*
X117041324Y-103088553D01*
X116976423Y-103302501D01*
X116954509Y-103525000D01*
X116976423Y-103747499D01*
X117041324Y-103961447D01*
X117146716Y-104158623D01*
X117156928Y-104171066D01*
X117156928Y-104350000D01*
X117172071Y-104503745D01*
X117216916Y-104651582D01*
X117289742Y-104787829D01*
X117387749Y-104907251D01*
X117507171Y-105005258D01*
X117643418Y-105078084D01*
X117712945Y-105099174D01*
X117715000Y-105714250D01*
X117873750Y-105873000D01*
X119873000Y-105873000D01*
X119873000Y-105853000D01*
X120127000Y-105853000D01*
X120127000Y-105873000D01*
X122126250Y-105873000D01*
X122285000Y-105714250D01*
X122287055Y-105099174D01*
X122356582Y-105078084D01*
X122492829Y-105005258D01*
X122612251Y-104907251D01*
X122710258Y-104787829D01*
X122783084Y-104651582D01*
X122827929Y-104503745D01*
X122843072Y-104350000D01*
X122843072Y-102700000D01*
X122827929Y-102546255D01*
X122783084Y-102398418D01*
X122710258Y-102262171D01*
X122612251Y-102142749D01*
X122562579Y-102101984D01*
X122574482Y-102100812D01*
X122694180Y-102064502D01*
X122804494Y-102005537D01*
X122901185Y-101926185D01*
X122980537Y-101829494D01*
X123039502Y-101719180D01*
X123075812Y-101599482D01*
X123088072Y-101475000D01*
X123085000Y-101285750D01*
X122926250Y-101127000D01*
X122052000Y-101127000D01*
X122052000Y-101147000D01*
X121798000Y-101147000D01*
X121798000Y-101127000D01*
X121778000Y-101127000D01*
X121778000Y-100873000D01*
X121798000Y-100873000D01*
X121798000Y-100853000D01*
X122052000Y-100853000D01*
X122052000Y-100873000D01*
X122926250Y-100873000D01*
X123085000Y-100714250D01*
X123085881Y-100660000D01*
X124340000Y-100660000D01*
X124340000Y-101686928D01*
%TA.AperFunction,Conductor*%
D21*
G36*
X124340000Y-101686928D02*
G01*
X124125000Y-101686928D01*
X124000518Y-101699188D01*
X123880820Y-101735498D01*
X123770506Y-101794463D01*
X123673815Y-101873815D01*
X123594463Y-101970506D01*
X123535498Y-102080820D01*
X123499188Y-102200518D01*
X123486928Y-102325000D01*
X123486928Y-103675000D01*
X123499188Y-103799482D01*
X123535498Y-103919180D01*
X123594463Y-104029494D01*
X123673815Y-104126185D01*
X123760697Y-104197487D01*
X123639093Y-104379482D01*
X123540342Y-104617887D01*
X123490000Y-104870976D01*
X123490000Y-105129024D01*
X123540342Y-105382113D01*
X123639093Y-105620518D01*
X123782456Y-105835077D01*
X123947379Y-106000000D01*
X123782456Y-106164923D01*
X123639093Y-106379482D01*
X123540342Y-106617887D01*
X123490000Y-106870976D01*
X123490000Y-107129024D01*
X123540342Y-107382113D01*
X123639093Y-107620518D01*
X123782456Y-107835077D01*
X123947379Y-108000000D01*
X123782456Y-108164923D01*
X123639093Y-108379482D01*
X123540342Y-108617887D01*
X123490000Y-108870976D01*
X123490000Y-109129024D01*
X123540342Y-109382113D01*
X123639093Y-109620518D01*
X123782456Y-109835077D01*
X123954060Y-110006681D01*
X123821697Y-110128773D01*
X123670527Y-110336371D01*
X123562762Y-110569472D01*
X123532090Y-110670600D01*
X123655776Y-110873000D01*
X124340001Y-110873000D01*
X124340001Y-111127000D01*
X123655776Y-111127000D01*
X123532090Y-111329400D01*
X123562762Y-111430528D01*
X123670527Y-111663629D01*
X123821697Y-111871227D01*
X124010463Y-112045344D01*
X124229570Y-112179289D01*
X124340001Y-112219894D01*
X124340001Y-113340000D01*
X123067704Y-113340000D01*
X123071248Y-113328316D01*
X123088072Y-113157500D01*
X123088072Y-112682500D01*
X123071248Y-112511684D01*
X123060000Y-112474604D01*
X123060000Y-111525396D01*
X123071248Y-111488316D01*
X123088072Y-111317500D01*
X123088072Y-110842500D01*
X123071248Y-110671684D01*
X123021423Y-110507433D01*
X122940512Y-110356058D01*
X122831623Y-110223377D01*
X122698942Y-110114488D01*
X122627014Y-110076042D01*
X122541257Y-109990285D01*
X122559494Y-109980537D01*
X122656185Y-109901185D01*
X122735537Y-109804494D01*
X122794502Y-109694180D01*
X122830812Y-109574482D01*
X122843072Y-109450000D01*
X122840000Y-108760750D01*
X122681250Y-108602000D01*
X122032000Y-108602000D01*
X122032000Y-108622000D01*
X121778000Y-108622000D01*
X121778000Y-108602000D01*
X121770000Y-108602000D01*
X121770000Y-108419248D01*
X121762983Y-108348000D01*
X121778000Y-108348000D01*
X121778000Y-108328000D01*
X122032000Y-108328000D01*
X122032000Y-108348000D01*
X122681250Y-108348000D01*
X122840000Y-108189250D01*
X122843072Y-107500000D01*
X122830812Y-107375518D01*
X122794502Y-107255820D01*
X122735537Y-107145506D01*
X122656185Y-107048815D01*
X122559494Y-106969463D01*
X122449180Y-106910498D01*
X122329482Y-106874188D01*
X122286952Y-106869999D01*
X122285000Y-106285750D01*
X122126250Y-106127000D01*
X120127000Y-106127000D01*
X120127000Y-106147000D01*
X119873000Y-106147000D01*
X119873000Y-106127000D01*
X117873750Y-106127000D01*
X117715000Y-106285750D01*
X117712945Y-106900826D01*
X117643418Y-106921916D01*
X117507171Y-106994742D01*
X117387749Y-107092749D01*
X117289742Y-107212171D01*
X117216916Y-107348418D01*
X117172071Y-107496255D01*
X117156928Y-107650000D01*
X117156928Y-107828934D01*
X117146716Y-107841377D01*
X117041324Y-108038553D01*
X116976423Y-108252501D01*
X116954509Y-108475000D01*
X116960000Y-108530752D01*
X116960000Y-108592799D01*
X116922499Y-108581423D01*
X116755752Y-108565000D01*
X115510130Y-108565000D01*
X114683201Y-107738072D01*
X116400000Y-107738072D01*
X116524482Y-107725812D01*
X116644180Y-107689502D01*
X116754494Y-107630537D01*
X116851185Y-107551185D01*
X116930537Y-107454494D01*
X116989502Y-107344180D01*
X117025812Y-107224482D01*
X117038072Y-107100000D01*
X117038072Y-104900000D01*
X117025812Y-104775518D01*
X116989502Y-104655820D01*
X116930537Y-104545506D01*
X116851185Y-104448815D01*
X116754494Y-104369463D01*
X116644180Y-104310498D01*
X116524482Y-104274188D01*
X116400000Y-104261928D01*
X113700000Y-104261928D01*
X113575518Y-104274188D01*
X113547746Y-104282612D01*
X112026998Y-102761865D01*
X111991451Y-102718551D01*
X111818625Y-102576716D01*
X111621449Y-102471324D01*
X111407501Y-102406423D01*
X111240754Y-102390000D01*
X111240753Y-102390000D01*
X111185002Y-102384509D01*
X111129251Y-102390000D01*
X108040000Y-102390000D01*
X108040000Y-102120300D01*
X108189248Y-102135000D01*
X109970752Y-102135000D01*
X110137499Y-102118577D01*
X110155646Y-102113072D01*
X110202500Y-102113072D01*
X110373316Y-102096248D01*
X110537567Y-102046423D01*
X110688942Y-101965512D01*
X110712839Y-101945901D01*
X110785506Y-102005537D01*
X110895820Y-102064502D01*
X111015518Y-102100812D01*
X111140000Y-102113072D01*
X111379250Y-102110000D01*
X111538000Y-101951250D01*
X111538000Y-101127000D01*
X111792000Y-101127000D01*
X111792000Y-101951250D01*
X111950750Y-102110000D01*
X112190000Y-102113072D01*
X112314482Y-102100812D01*
X112434180Y-102064502D01*
X112500000Y-102029320D01*
X112565820Y-102064502D01*
X112685518Y-102100812D01*
X112810000Y-102113072D01*
X113049250Y-102110000D01*
X113208000Y-101951250D01*
X113208000Y-101127000D01*
X111792000Y-101127000D01*
X111538000Y-101127000D01*
X111518000Y-101127000D01*
X111518000Y-100873000D01*
X111538000Y-100873000D01*
X111538000Y-100853000D01*
X111792000Y-100853000D01*
X111792000Y-100873000D01*
X113208000Y-100873000D01*
X113208000Y-100853000D01*
X113462000Y-100853000D01*
X113462000Y-100873000D01*
X113482000Y-100873000D01*
X113482000Y-101127000D01*
X113462000Y-101127000D01*
X113462000Y-101951250D01*
X113620750Y-102110000D01*
X113860000Y-102113072D01*
X113984482Y-102100812D01*
X114104180Y-102064502D01*
X114214494Y-102005537D01*
X114287161Y-101945901D01*
X114311058Y-101965512D01*
X114462433Y-102046423D01*
X114626684Y-102096248D01*
X114797500Y-102113072D01*
X114859354Y-102113072D01*
X114877501Y-102118577D01*
X115044248Y-102135000D01*
X116805752Y-102135000D01*
X116972499Y-102118577D01*
X116990646Y-102113072D01*
X117042500Y-102113072D01*
X117213316Y-102096248D01*
X117377567Y-102046423D01*
X117528942Y-101965512D01*
X117630000Y-101882575D01*
X117713104Y-101950777D01*
X117643418Y-101971916D01*
X117507171Y-102044742D01*
X117387749Y-102142749D01*
X117289742Y-102262171D01*
X117216916Y-102398418D01*
X117172071Y-102546255D01*
X117156928Y-102700000D01*
X117156928Y-102878934D01*
X117146716Y-102891377D01*
X117041324Y-103088553D01*
X116976423Y-103302501D01*
X116954509Y-103525000D01*
X116976423Y-103747499D01*
X117041324Y-103961447D01*
X117146716Y-104158623D01*
X117156928Y-104171066D01*
X117156928Y-104350000D01*
X117172071Y-104503745D01*
X117216916Y-104651582D01*
X117289742Y-104787829D01*
X117387749Y-104907251D01*
X117507171Y-105005258D01*
X117643418Y-105078084D01*
X117712945Y-105099174D01*
X117715000Y-105714250D01*
X117873750Y-105873000D01*
X119873000Y-105873000D01*
X119873000Y-105853000D01*
X120127000Y-105853000D01*
X120127000Y-105873000D01*
X122126250Y-105873000D01*
X122285000Y-105714250D01*
X122287055Y-105099174D01*
X122356582Y-105078084D01*
X122492829Y-105005258D01*
X122612251Y-104907251D01*
X122710258Y-104787829D01*
X122783084Y-104651582D01*
X122827929Y-104503745D01*
X122843072Y-104350000D01*
X122843072Y-102700000D01*
X122827929Y-102546255D01*
X122783084Y-102398418D01*
X122710258Y-102262171D01*
X122612251Y-102142749D01*
X122562579Y-102101984D01*
X122574482Y-102100812D01*
X122694180Y-102064502D01*
X122804494Y-102005537D01*
X122901185Y-101926185D01*
X122980537Y-101829494D01*
X123039502Y-101719180D01*
X123075812Y-101599482D01*
X123088072Y-101475000D01*
X123085000Y-101285750D01*
X122926250Y-101127000D01*
X122052000Y-101127000D01*
X122052000Y-101147000D01*
X121798000Y-101147000D01*
X121798000Y-101127000D01*
X121778000Y-101127000D01*
X121778000Y-100873000D01*
X121798000Y-100873000D01*
X121798000Y-100853000D01*
X122052000Y-100853000D01*
X122052000Y-100873000D01*
X122926250Y-100873000D01*
X123085000Y-100714250D01*
X123085881Y-100660000D01*
X124340000Y-100660000D01*
X124340000Y-101686928D01*
G37*
%TD.AperFunction*%
D20*
X101300652Y-110545098D02*
X101172000Y-110673750D01*
X101172000Y-111873000D01*
X101971250Y-111873000D01*
X102130000Y-111714250D01*
X102131840Y-111376287D01*
X103249746Y-112494193D01*
X103272762Y-112522238D01*
X103356928Y-112591311D01*
X103356928Y-112850000D01*
X103369188Y-112974482D01*
X103405498Y-113094180D01*
X103464463Y-113204494D01*
X103543815Y-113301185D01*
X103591111Y-113340000D01*
X101898889Y-113340000D01*
X101946185Y-113301185D01*
X102025537Y-113204494D01*
X102084502Y-113094180D01*
X102120812Y-112974482D01*
X102133072Y-112850000D01*
X102130000Y-112285750D01*
X101971250Y-112127000D01*
X101172000Y-112127000D01*
X101172000Y-112147000D01*
X100918000Y-112147000D01*
X100918000Y-112127000D01*
X100898000Y-112127000D01*
X100898000Y-111873000D01*
X100918000Y-111873000D01*
X100918000Y-110673750D01*
X100759250Y-110515000D01*
X100660000Y-110513144D01*
X100660000Y-110227396D01*
X100820518Y-110160907D01*
X100878032Y-110122478D01*
X101300652Y-110545098D01*
%TA.AperFunction,Conductor*%
D21*
G36*
X101300652Y-110545098D02*
G01*
X101172000Y-110673750D01*
X101172000Y-111873000D01*
X101971250Y-111873000D01*
X102130000Y-111714250D01*
X102131840Y-111376287D01*
X103249746Y-112494193D01*
X103272762Y-112522238D01*
X103356928Y-112591311D01*
X103356928Y-112850000D01*
X103369188Y-112974482D01*
X103405498Y-113094180D01*
X103464463Y-113204494D01*
X103543815Y-113301185D01*
X103591111Y-113340000D01*
X101898889Y-113340000D01*
X101946185Y-113301185D01*
X102025537Y-113204494D01*
X102084502Y-113094180D01*
X102120812Y-112974482D01*
X102133072Y-112850000D01*
X102130000Y-112285750D01*
X101971250Y-112127000D01*
X101172000Y-112127000D01*
X101172000Y-112147000D01*
X100918000Y-112147000D01*
X100918000Y-112127000D01*
X100898000Y-112127000D01*
X100898000Y-111873000D01*
X100918000Y-111873000D01*
X100918000Y-110673750D01*
X100759250Y-110515000D01*
X100660000Y-110513144D01*
X100660000Y-110227396D01*
X100820518Y-110160907D01*
X100878032Y-110122478D01*
X101300652Y-110545098D01*
G37*
%TD.AperFunction*%
D20*
X120302000Y-112793000D02*
X120322000Y-112793000D01*
X120322000Y-113047000D01*
X120302000Y-113047000D01*
X120302000Y-113067000D01*
X120048000Y-113067000D01*
X120048000Y-113047000D01*
X120028000Y-113047000D01*
X120028000Y-112793000D01*
X120048000Y-112793000D01*
X120048000Y-112773000D01*
X120302000Y-112773000D01*
X120302000Y-112793000D01*
%TA.AperFunction,Conductor*%
D21*
G36*
X120302000Y-112793000D02*
G01*
X120322000Y-112793000D01*
X120322000Y-113047000D01*
X120302000Y-113047000D01*
X120302000Y-113067000D01*
X120048000Y-113067000D01*
X120048000Y-113047000D01*
X120028000Y-113047000D01*
X120028000Y-112793000D01*
X120048000Y-112793000D01*
X120048000Y-112773000D01*
X120302000Y-112773000D01*
X120302000Y-112793000D01*
G37*
%TD.AperFunction*%
D20*
X115114500Y-110953000D02*
X115134500Y-110953000D01*
X115134500Y-111207000D01*
X115114500Y-111207000D01*
X115114500Y-111956250D01*
X115102000Y-111968750D01*
X115102000Y-112793000D01*
X116573000Y-112793000D01*
X116573000Y-112773000D01*
X116827000Y-112773000D01*
X116827000Y-112793000D01*
X116847000Y-112793000D01*
X116847000Y-113047000D01*
X116827000Y-113047000D01*
X116827000Y-113067000D01*
X116573000Y-113067000D01*
X116573000Y-113047000D01*
X115102000Y-113047000D01*
X115102000Y-113067000D01*
X114848000Y-113067000D01*
X114848000Y-113047000D01*
X114828000Y-113047000D01*
X114828000Y-112793000D01*
X114848000Y-112793000D01*
X114848000Y-112043750D01*
X114860500Y-112031250D01*
X114860500Y-111207000D01*
X114840500Y-111207000D01*
X114840500Y-110953000D01*
X114860500Y-110953000D01*
X114860500Y-110933000D01*
X115114500Y-110933000D01*
X115114500Y-110953000D01*
%TA.AperFunction,Conductor*%
D21*
G36*
X115114500Y-110953000D02*
G01*
X115134500Y-110953000D01*
X115134500Y-111207000D01*
X115114500Y-111207000D01*
X115114500Y-111956250D01*
X115102000Y-111968750D01*
X115102000Y-112793000D01*
X116573000Y-112793000D01*
X116573000Y-112773000D01*
X116827000Y-112773000D01*
X116827000Y-112793000D01*
X116847000Y-112793000D01*
X116847000Y-113047000D01*
X116827000Y-113047000D01*
X116827000Y-113067000D01*
X116573000Y-113067000D01*
X116573000Y-113047000D01*
X115102000Y-113047000D01*
X115102000Y-113067000D01*
X114848000Y-113067000D01*
X114848000Y-113047000D01*
X114828000Y-113047000D01*
X114828000Y-112793000D01*
X114848000Y-112793000D01*
X114848000Y-112043750D01*
X114860500Y-112031250D01*
X114860500Y-111207000D01*
X114840500Y-111207000D01*
X114840500Y-110953000D01*
X114860500Y-110953000D01*
X114860500Y-110933000D01*
X115114500Y-110933000D01*
X115114500Y-110953000D01*
G37*
%TD.AperFunction*%
D20*
X109275960Y-109967342D02*
X109243750Y-109966928D01*
X109119268Y-109979188D01*
X108999570Y-110015498D01*
X108909375Y-110063709D01*
X108819180Y-110015498D01*
X108699482Y-109979188D01*
X108575000Y-109966928D01*
X108335750Y-109970000D01*
X108177000Y-110128750D01*
X108177000Y-110953000D01*
X109641750Y-110953000D01*
X109641750Y-110933000D01*
X109895750Y-110933000D01*
X109895750Y-110953000D01*
X109915750Y-110953000D01*
X109915750Y-111207000D01*
X109895750Y-111207000D01*
X109895750Y-111950000D01*
X109877000Y-111968750D01*
X109877000Y-112793000D01*
X109897000Y-112793000D01*
X109897000Y-113047000D01*
X109877000Y-113047000D01*
X109877000Y-113067000D01*
X109623000Y-113067000D01*
X109623000Y-113047000D01*
X109603000Y-113047000D01*
X109603000Y-112793000D01*
X109623000Y-112793000D01*
X109623000Y-112050000D01*
X109641750Y-112031250D01*
X109641750Y-111207000D01*
X108177000Y-111207000D01*
X108177000Y-111227000D01*
X107923000Y-111227000D01*
X107923000Y-111207000D01*
X107903000Y-111207000D01*
X107903000Y-110953000D01*
X107923000Y-110953000D01*
X107923000Y-110128750D01*
X107861849Y-110067599D01*
X107958676Y-109886447D01*
X108023577Y-109672499D01*
X108025132Y-109656716D01*
X108025942Y-109648484D01*
X108029733Y-109610000D01*
X108918619Y-109610000D01*
X109275960Y-109967342D01*
%TA.AperFunction,Conductor*%
D21*
G36*
X109275960Y-109967342D02*
G01*
X109243750Y-109966928D01*
X109119268Y-109979188D01*
X108999570Y-110015498D01*
X108909375Y-110063709D01*
X108819180Y-110015498D01*
X108699482Y-109979188D01*
X108575000Y-109966928D01*
X108335750Y-109970000D01*
X108177000Y-110128750D01*
X108177000Y-110953000D01*
X109641750Y-110953000D01*
X109641750Y-110933000D01*
X109895750Y-110933000D01*
X109895750Y-110953000D01*
X109915750Y-110953000D01*
X109915750Y-111207000D01*
X109895750Y-111207000D01*
X109895750Y-111950000D01*
X109877000Y-111968750D01*
X109877000Y-112793000D01*
X109897000Y-112793000D01*
X109897000Y-113047000D01*
X109877000Y-113047000D01*
X109877000Y-113067000D01*
X109623000Y-113067000D01*
X109623000Y-113047000D01*
X109603000Y-113047000D01*
X109603000Y-112793000D01*
X109623000Y-112793000D01*
X109623000Y-112050000D01*
X109641750Y-112031250D01*
X109641750Y-111207000D01*
X108177000Y-111207000D01*
X108177000Y-111227000D01*
X107923000Y-111227000D01*
X107923000Y-111207000D01*
X107903000Y-111207000D01*
X107903000Y-110953000D01*
X107923000Y-110953000D01*
X107923000Y-110128750D01*
X107861849Y-110067599D01*
X107958676Y-109886447D01*
X108023577Y-109672499D01*
X108025132Y-109656716D01*
X108025942Y-109648484D01*
X108029733Y-109610000D01*
X108918619Y-109610000D01*
X109275960Y-109967342D01*
G37*
%TD.AperFunction*%
D20*
X107974188Y-104775518D02*
X107961928Y-104900000D01*
X107961928Y-107100000D01*
X107974188Y-107224482D01*
X108009230Y-107340000D01*
X107778584Y-107340000D01*
X107710258Y-107212171D01*
X107612251Y-107092749D01*
X107492829Y-106994742D01*
X107356582Y-106921916D01*
X107208745Y-106877071D01*
X107137089Y-106870013D01*
X107135000Y-106285750D01*
X106976250Y-106127000D01*
X105127000Y-106127000D01*
X105127000Y-106147000D01*
X104873000Y-106147000D01*
X104873000Y-106127000D01*
X104853000Y-106127000D01*
X104853000Y-105873000D01*
X104873000Y-105873000D01*
X104873000Y-105853000D01*
X105127000Y-105853000D01*
X105127000Y-105873000D01*
X106976250Y-105873000D01*
X107135000Y-105714250D01*
X107137089Y-105129987D01*
X107208745Y-105122929D01*
X107356582Y-105078084D01*
X107492829Y-105005258D01*
X107612251Y-104907251D01*
X107710258Y-104787829D01*
X107778584Y-104660000D01*
X108009230Y-104660000D01*
X107974188Y-104775518D01*
%TA.AperFunction,Conductor*%
D21*
G36*
X107974188Y-104775518D02*
G01*
X107961928Y-104900000D01*
X107961928Y-107100000D01*
X107974188Y-107224482D01*
X108009230Y-107340000D01*
X107778584Y-107340000D01*
X107710258Y-107212171D01*
X107612251Y-107092749D01*
X107492829Y-106994742D01*
X107356582Y-106921916D01*
X107208745Y-106877071D01*
X107137089Y-106870013D01*
X107135000Y-106285750D01*
X106976250Y-106127000D01*
X105127000Y-106127000D01*
X105127000Y-106147000D01*
X104873000Y-106147000D01*
X104873000Y-106127000D01*
X104853000Y-106127000D01*
X104853000Y-105873000D01*
X104873000Y-105873000D01*
X104873000Y-105853000D01*
X105127000Y-105853000D01*
X105127000Y-105873000D01*
X106976250Y-105873000D01*
X107135000Y-105714250D01*
X107137089Y-105129987D01*
X107208745Y-105122929D01*
X107356582Y-105078084D01*
X107492829Y-105005258D01*
X107612251Y-104907251D01*
X107710258Y-104787829D01*
X107778584Y-104660000D01*
X108009230Y-104660000D01*
X107974188Y-104775518D01*
G37*
%TD.AperFunction*%
D20*
X101915000Y-100714250D02*
X102073750Y-100873000D01*
X102948000Y-100873000D01*
X102948000Y-100853000D01*
X103202000Y-100853000D01*
X103202000Y-100873000D01*
X103222000Y-100873000D01*
X103222000Y-101127000D01*
X103202000Y-101127000D01*
X103202000Y-101147000D01*
X102948000Y-101147000D01*
X102948000Y-101127000D01*
X102073750Y-101127000D01*
X101935750Y-101265000D01*
X101236105Y-101265000D01*
X101200000Y-101261444D01*
X101055915Y-101275635D01*
X100917366Y-101317663D01*
X100848921Y-101354248D01*
X100789680Y-101385913D01*
X100677762Y-101477762D01*
X100660000Y-101499405D01*
X100660000Y-100660000D01*
X101914119Y-100660000D01*
X101915000Y-100714250D01*
%TA.AperFunction,Conductor*%
D21*
G36*
X101915000Y-100714250D02*
G01*
X102073750Y-100873000D01*
X102948000Y-100873000D01*
X102948000Y-100853000D01*
X103202000Y-100853000D01*
X103202000Y-100873000D01*
X103222000Y-100873000D01*
X103222000Y-101127000D01*
X103202000Y-101127000D01*
X103202000Y-101147000D01*
X102948000Y-101147000D01*
X102948000Y-101127000D01*
X102073750Y-101127000D01*
X101935750Y-101265000D01*
X101236105Y-101265000D01*
X101200000Y-101261444D01*
X101055915Y-101275635D01*
X100917366Y-101317663D01*
X100848921Y-101354248D01*
X100789680Y-101385913D01*
X100677762Y-101477762D01*
X100660000Y-101499405D01*
X100660000Y-100660000D01*
X101914119Y-100660000D01*
X101915000Y-100714250D01*
G37*
%TD.AperFunction*%
%TD*%
M02*
