%TF.GenerationSoftware,KiCad,Pcbnew,(5.1.9-0-10_14)*%
%TF.CreationDate,2021-03-17T16:44:50+08:00*%
%TF.ProjectId,Zeeuss,5a656575-7373-42e6-9b69-6361645f7063,rev?*%
%TF.SameCoordinates,Original*%
%TF.FileFunction,Copper,L2,Bot*%
%TF.FilePolarity,Positive*%
%FSLAX46Y46*%
G04 Gerber Fmt 4.6, Leading zero omitted, Abs format (unit mm)*
G04 Created by KiCad (PCBNEW (5.1.9-0-10_14)) date 2021-03-17 16:44:50*
%MOMM*%
%LPD*%
G01*
G04 APERTURE LIST*
%TA.AperFunction,ComponentPad*%
%ADD10O,1.350000X1.350000*%
%TD*%
%TA.AperFunction,ComponentPad*%
%ADD11R,1.350000X1.350000*%
%TD*%
%TA.AperFunction,ViaPad*%
%ADD12C,0.800000*%
%TD*%
%TA.AperFunction,Conductor*%
%ADD13C,1.000000*%
%TD*%
%TA.AperFunction,Conductor*%
%ADD14C,0.200000*%
%TD*%
%TA.AperFunction,Conductor*%
%ADD15C,0.254000*%
%TD*%
%TA.AperFunction,Conductor*%
%ADD16C,0.100000*%
%TD*%
G04 APERTURE END LIST*
D10*
%TO.P,J2,4*%
%TO.N,/SW*%
X100200000Y-109000000D03*
%TO.P,J2,3*%
%TO.N,/LED3*%
X100200000Y-107000000D03*
%TO.P,J2,2*%
%TO.N,/LED2*%
X100200000Y-105000000D03*
D11*
%TO.P,J2,1*%
%TO.N,/LED1*%
X100200000Y-103000000D03*
%TD*%
D10*
%TO.P,J1,5*%
%TO.N,Earth*%
X124800000Y-111000000D03*
%TO.P,J1,4*%
%TO.N,VBUS*%
X124800000Y-109000000D03*
%TO.P,J1,3*%
%TO.N,+3V3*%
X124800000Y-107000000D03*
%TO.P,J1,2*%
%TO.N,+5V*%
X124800000Y-105000000D03*
D11*
%TO.P,J1,1*%
%TO.N,+BATT*%
X124800000Y-103000000D03*
%TD*%
D12*
%TO.N,Earth*%
X113300000Y-101000000D03*
X101050000Y-112050000D03*
X103050000Y-101000000D03*
X121900000Y-108500000D03*
X121200000Y-105800000D03*
X120200000Y-105800000D03*
X119550000Y-106600000D03*
X104000000Y-106550000D03*
X105050000Y-106550000D03*
X106050000Y-106550000D03*
X106050000Y-105400000D03*
X105050000Y-105400000D03*
X120150000Y-112950000D03*
X109720000Y-111080000D03*
X114987500Y-111080000D03*
%TO.N,+3V3*%
X118095000Y-108475000D03*
X119365000Y-108475000D03*
%TO.N,+5V*%
X113237500Y-111080000D03*
X111500000Y-111150000D03*
X120625000Y-103525000D03*
X119425000Y-103525000D03*
%TO.N,VBUS*%
X106900000Y-103100000D03*
X106900000Y-104000000D03*
X116700000Y-109700000D03*
%TO.N,Net-(C15-Pad1)*%
X116750000Y-101000000D03*
X115100000Y-101000000D03*
X104400000Y-108500000D03*
%TO.N,+BATT*%
X114400000Y-106550000D03*
X115750000Y-106550000D03*
X115750000Y-105500000D03*
X114400000Y-105500000D03*
X118505000Y-101000000D03*
%TO.N,Net-(C23-Pad2)*%
X116650000Y-111100000D03*
X121925000Y-112920000D03*
%TO.N,Net-(L2-Pad1)*%
X105600000Y-108500000D03*
X109950000Y-106000000D03*
%TO.N,/LED2*%
X104350000Y-103600000D03*
%TD*%
D13*
%TO.N,+3V3*%
X119365000Y-108475000D02*
X119675000Y-108475000D01*
X121150000Y-107000000D02*
X124274990Y-107000000D01*
X119675000Y-108475000D02*
X121150000Y-107000000D01*
%TO.N,+5V*%
X122100000Y-105000000D02*
X124274990Y-105000000D01*
X120625000Y-103525000D02*
X122100000Y-105000000D01*
X119425000Y-104892500D02*
X119425000Y-103525000D01*
X113237500Y-111080000D02*
X119425000Y-104892500D01*
%TO.N,VBUS*%
X123574990Y-109700000D02*
X124274990Y-109000000D01*
X116700000Y-109700000D02*
X123574990Y-109700000D01*
%TO.N,Net-(C15-Pad1)*%
X104400000Y-108500000D02*
X104400000Y-109750000D01*
X104400000Y-109750000D02*
X104850000Y-110200000D01*
X104850000Y-110200000D02*
X107800000Y-110200000D01*
X115100000Y-102900000D02*
X115100000Y-101000000D01*
X107800000Y-110200000D02*
X115100000Y-102900000D01*
%TO.N,+BATT*%
X122274990Y-101000000D02*
X124274990Y-103000000D01*
X118505000Y-101000000D02*
X122274990Y-101000000D01*
X115750000Y-105500000D02*
X115750000Y-104350000D01*
X118505000Y-101595000D02*
X118505000Y-101000000D01*
X115750000Y-104350000D02*
X118505000Y-101595000D01*
%TO.N,Net-(C23-Pad2)*%
X120105000Y-111100000D02*
X121925000Y-112920000D01*
X116650000Y-111100000D02*
X120105000Y-111100000D01*
%TO.N,Net-(L2-Pad1)*%
X107450000Y-108500000D02*
X109950000Y-106000000D01*
X105600000Y-108500000D02*
X107450000Y-108500000D01*
D14*
%TO.N,/LED2*%
X102950000Y-105000000D02*
X100325010Y-105000000D01*
X104350000Y-103600000D02*
X102950000Y-105000000D01*
%TD*%
D15*
%TO.N,Earth*%
X113981424Y-100777501D02*
X113965001Y-100944248D01*
X113965000Y-102429868D01*
X110943638Y-105451230D01*
X110898284Y-105366378D01*
X110756448Y-105193552D01*
X110583622Y-105051716D01*
X110386446Y-104946324D01*
X110172498Y-104881423D01*
X109950000Y-104859509D01*
X109727501Y-104881423D01*
X109513553Y-104946324D01*
X109316377Y-105051716D01*
X109186856Y-105158012D01*
X106979869Y-107365000D01*
X105544248Y-107365000D01*
X105377501Y-107381423D01*
X105163553Y-107446324D01*
X105000000Y-107533744D01*
X104836446Y-107446324D01*
X104622498Y-107381423D01*
X104400000Y-107359509D01*
X104177501Y-107381423D01*
X103963553Y-107446324D01*
X103766377Y-107551716D01*
X103593551Y-107693551D01*
X103451716Y-107866377D01*
X103346324Y-108063554D01*
X103281423Y-108277502D01*
X103265000Y-108444249D01*
X103265000Y-109694249D01*
X103259509Y-109750000D01*
X103265000Y-109805751D01*
X103265000Y-109805752D01*
X103281423Y-109972499D01*
X103346324Y-110186447D01*
X103451717Y-110383623D01*
X103593552Y-110556449D01*
X103636860Y-110591991D01*
X104008004Y-110963135D01*
X104043551Y-111006449D01*
X104216377Y-111148284D01*
X104410303Y-111251939D01*
X104413553Y-111253676D01*
X104627501Y-111318577D01*
X104849999Y-111340491D01*
X104905751Y-111335000D01*
X107744249Y-111335000D01*
X107800000Y-111340491D01*
X107855751Y-111335000D01*
X107855752Y-111335000D01*
X108022499Y-111318577D01*
X108236447Y-111253676D01*
X108433623Y-111148284D01*
X108606449Y-111006449D01*
X108641996Y-110963135D01*
X113438535Y-106166597D01*
X113404774Y-106248102D01*
X113365000Y-106448061D01*
X113365000Y-106651939D01*
X113404774Y-106851898D01*
X113482795Y-107040256D01*
X113596063Y-107209774D01*
X113740226Y-107353937D01*
X113909744Y-107467205D01*
X114098102Y-107545226D01*
X114298061Y-107585000D01*
X114501939Y-107585000D01*
X114701898Y-107545226D01*
X114890256Y-107467205D01*
X115059774Y-107353937D01*
X115075000Y-107338711D01*
X115090226Y-107353937D01*
X115251004Y-107461365D01*
X112395512Y-110316857D01*
X112289217Y-110446378D01*
X112279071Y-110465360D01*
X112159774Y-110346063D01*
X111990256Y-110232795D01*
X111801898Y-110154774D01*
X111601939Y-110115000D01*
X111398061Y-110115000D01*
X111198102Y-110154774D01*
X111009744Y-110232795D01*
X110840226Y-110346063D01*
X110696063Y-110490226D01*
X110582795Y-110659744D01*
X110504774Y-110848102D01*
X110465000Y-111048061D01*
X110465000Y-111251939D01*
X110504774Y-111451898D01*
X110582795Y-111640256D01*
X110696063Y-111809774D01*
X110840226Y-111953937D01*
X111009744Y-112067205D01*
X111198102Y-112145226D01*
X111398061Y-112185000D01*
X111601939Y-112185000D01*
X111801898Y-112145226D01*
X111990256Y-112067205D01*
X112159774Y-111953937D01*
X112303937Y-111809774D01*
X112332745Y-111766660D01*
X112431052Y-111886448D01*
X112603878Y-112028283D01*
X112801054Y-112133676D01*
X113015002Y-112198577D01*
X113237500Y-112220491D01*
X113459998Y-112198577D01*
X113673946Y-112133676D01*
X113871122Y-112028283D01*
X114000643Y-111921988D01*
X115695041Y-110227590D01*
X115751716Y-110333623D01*
X115781190Y-110369537D01*
X115701716Y-110466377D01*
X115596324Y-110663553D01*
X115531423Y-110877501D01*
X115509509Y-111100000D01*
X115531423Y-111322499D01*
X115596324Y-111536447D01*
X115701716Y-111733623D01*
X115843551Y-111906449D01*
X116016377Y-112048284D01*
X116213553Y-112153676D01*
X116427501Y-112218577D01*
X116594248Y-112235000D01*
X119634869Y-112235000D01*
X120739867Y-113340000D01*
X100660000Y-113340000D01*
X100660000Y-110227396D01*
X100820518Y-110160907D01*
X101035077Y-110017544D01*
X101217544Y-109835077D01*
X101360907Y-109620518D01*
X101459658Y-109382113D01*
X101510000Y-109129024D01*
X101510000Y-108870976D01*
X101459658Y-108617887D01*
X101360907Y-108379482D01*
X101217544Y-108164923D01*
X101052621Y-108000000D01*
X101217544Y-107835077D01*
X101360907Y-107620518D01*
X101459658Y-107382113D01*
X101510000Y-107129024D01*
X101510000Y-106870976D01*
X101459658Y-106617887D01*
X101360907Y-106379482D01*
X101217544Y-106164923D01*
X101052621Y-106000000D01*
X101217544Y-105835077D01*
X101284413Y-105735000D01*
X102913895Y-105735000D01*
X102950000Y-105738556D01*
X102986105Y-105735000D01*
X103094085Y-105724365D01*
X103232633Y-105682337D01*
X103360320Y-105614087D01*
X103472238Y-105522238D01*
X103495258Y-105494188D01*
X104354447Y-104635000D01*
X104451939Y-104635000D01*
X104651898Y-104595226D01*
X104840256Y-104517205D01*
X105009774Y-104403937D01*
X105153937Y-104259774D01*
X105267205Y-104090256D01*
X105345226Y-103901898D01*
X105385000Y-103701939D01*
X105385000Y-103498061D01*
X105345226Y-103298102D01*
X105267205Y-103109744D01*
X105192582Y-102998061D01*
X105865000Y-102998061D01*
X105865000Y-103201939D01*
X105904774Y-103401898D01*
X105966120Y-103550000D01*
X105904774Y-103698102D01*
X105865000Y-103898061D01*
X105865000Y-104101939D01*
X105904774Y-104301898D01*
X105982795Y-104490256D01*
X106096063Y-104659774D01*
X106240226Y-104803937D01*
X106409744Y-104917205D01*
X106598102Y-104995226D01*
X106798061Y-105035000D01*
X107001939Y-105035000D01*
X107201898Y-104995226D01*
X107390256Y-104917205D01*
X107559774Y-104803937D01*
X107703937Y-104659774D01*
X107817205Y-104490256D01*
X107895226Y-104301898D01*
X107935000Y-104101939D01*
X107935000Y-103898061D01*
X107895226Y-103698102D01*
X107833880Y-103550000D01*
X107895226Y-103401898D01*
X107935000Y-103201939D01*
X107935000Y-102998061D01*
X107895226Y-102798102D01*
X107817205Y-102609744D01*
X107703937Y-102440226D01*
X107559774Y-102296063D01*
X107390256Y-102182795D01*
X107201898Y-102104774D01*
X107001939Y-102065000D01*
X106798061Y-102065000D01*
X106598102Y-102104774D01*
X106409744Y-102182795D01*
X106240226Y-102296063D01*
X106096063Y-102440226D01*
X105982795Y-102609744D01*
X105904774Y-102798102D01*
X105865000Y-102998061D01*
X105192582Y-102998061D01*
X105153937Y-102940226D01*
X105009774Y-102796063D01*
X104840256Y-102682795D01*
X104651898Y-102604774D01*
X104451939Y-102565000D01*
X104248061Y-102565000D01*
X104048102Y-102604774D01*
X103859744Y-102682795D01*
X103690226Y-102796063D01*
X103546063Y-102940226D01*
X103432795Y-103109744D01*
X103354774Y-103298102D01*
X103315000Y-103498061D01*
X103315000Y-103595553D01*
X102645554Y-104265000D01*
X101284413Y-104265000D01*
X101239303Y-104197487D01*
X101326185Y-104126185D01*
X101405537Y-104029494D01*
X101464502Y-103919180D01*
X101500812Y-103799482D01*
X101513072Y-103675000D01*
X101513072Y-102325000D01*
X101500812Y-102200518D01*
X101464502Y-102080820D01*
X101405537Y-101970506D01*
X101326185Y-101873815D01*
X101229494Y-101794463D01*
X101119180Y-101735498D01*
X100999482Y-101699188D01*
X100875000Y-101686928D01*
X100660000Y-101686928D01*
X100660000Y-100660000D01*
X114017068Y-100660000D01*
X113981424Y-100777501D01*
%TA.AperFunction,Conductor*%
D16*
G36*
X113981424Y-100777501D02*
G01*
X113965001Y-100944248D01*
X113965000Y-102429868D01*
X110943638Y-105451230D01*
X110898284Y-105366378D01*
X110756448Y-105193552D01*
X110583622Y-105051716D01*
X110386446Y-104946324D01*
X110172498Y-104881423D01*
X109950000Y-104859509D01*
X109727501Y-104881423D01*
X109513553Y-104946324D01*
X109316377Y-105051716D01*
X109186856Y-105158012D01*
X106979869Y-107365000D01*
X105544248Y-107365000D01*
X105377501Y-107381423D01*
X105163553Y-107446324D01*
X105000000Y-107533744D01*
X104836446Y-107446324D01*
X104622498Y-107381423D01*
X104400000Y-107359509D01*
X104177501Y-107381423D01*
X103963553Y-107446324D01*
X103766377Y-107551716D01*
X103593551Y-107693551D01*
X103451716Y-107866377D01*
X103346324Y-108063554D01*
X103281423Y-108277502D01*
X103265000Y-108444249D01*
X103265000Y-109694249D01*
X103259509Y-109750000D01*
X103265000Y-109805751D01*
X103265000Y-109805752D01*
X103281423Y-109972499D01*
X103346324Y-110186447D01*
X103451717Y-110383623D01*
X103593552Y-110556449D01*
X103636860Y-110591991D01*
X104008004Y-110963135D01*
X104043551Y-111006449D01*
X104216377Y-111148284D01*
X104410303Y-111251939D01*
X104413553Y-111253676D01*
X104627501Y-111318577D01*
X104849999Y-111340491D01*
X104905751Y-111335000D01*
X107744249Y-111335000D01*
X107800000Y-111340491D01*
X107855751Y-111335000D01*
X107855752Y-111335000D01*
X108022499Y-111318577D01*
X108236447Y-111253676D01*
X108433623Y-111148284D01*
X108606449Y-111006449D01*
X108641996Y-110963135D01*
X113438535Y-106166597D01*
X113404774Y-106248102D01*
X113365000Y-106448061D01*
X113365000Y-106651939D01*
X113404774Y-106851898D01*
X113482795Y-107040256D01*
X113596063Y-107209774D01*
X113740226Y-107353937D01*
X113909744Y-107467205D01*
X114098102Y-107545226D01*
X114298061Y-107585000D01*
X114501939Y-107585000D01*
X114701898Y-107545226D01*
X114890256Y-107467205D01*
X115059774Y-107353937D01*
X115075000Y-107338711D01*
X115090226Y-107353937D01*
X115251004Y-107461365D01*
X112395512Y-110316857D01*
X112289217Y-110446378D01*
X112279071Y-110465360D01*
X112159774Y-110346063D01*
X111990256Y-110232795D01*
X111801898Y-110154774D01*
X111601939Y-110115000D01*
X111398061Y-110115000D01*
X111198102Y-110154774D01*
X111009744Y-110232795D01*
X110840226Y-110346063D01*
X110696063Y-110490226D01*
X110582795Y-110659744D01*
X110504774Y-110848102D01*
X110465000Y-111048061D01*
X110465000Y-111251939D01*
X110504774Y-111451898D01*
X110582795Y-111640256D01*
X110696063Y-111809774D01*
X110840226Y-111953937D01*
X111009744Y-112067205D01*
X111198102Y-112145226D01*
X111398061Y-112185000D01*
X111601939Y-112185000D01*
X111801898Y-112145226D01*
X111990256Y-112067205D01*
X112159774Y-111953937D01*
X112303937Y-111809774D01*
X112332745Y-111766660D01*
X112431052Y-111886448D01*
X112603878Y-112028283D01*
X112801054Y-112133676D01*
X113015002Y-112198577D01*
X113237500Y-112220491D01*
X113459998Y-112198577D01*
X113673946Y-112133676D01*
X113871122Y-112028283D01*
X114000643Y-111921988D01*
X115695041Y-110227590D01*
X115751716Y-110333623D01*
X115781190Y-110369537D01*
X115701716Y-110466377D01*
X115596324Y-110663553D01*
X115531423Y-110877501D01*
X115509509Y-111100000D01*
X115531423Y-111322499D01*
X115596324Y-111536447D01*
X115701716Y-111733623D01*
X115843551Y-111906449D01*
X116016377Y-112048284D01*
X116213553Y-112153676D01*
X116427501Y-112218577D01*
X116594248Y-112235000D01*
X119634869Y-112235000D01*
X120739867Y-113340000D01*
X100660000Y-113340000D01*
X100660000Y-110227396D01*
X100820518Y-110160907D01*
X101035077Y-110017544D01*
X101217544Y-109835077D01*
X101360907Y-109620518D01*
X101459658Y-109382113D01*
X101510000Y-109129024D01*
X101510000Y-108870976D01*
X101459658Y-108617887D01*
X101360907Y-108379482D01*
X101217544Y-108164923D01*
X101052621Y-108000000D01*
X101217544Y-107835077D01*
X101360907Y-107620518D01*
X101459658Y-107382113D01*
X101510000Y-107129024D01*
X101510000Y-106870976D01*
X101459658Y-106617887D01*
X101360907Y-106379482D01*
X101217544Y-106164923D01*
X101052621Y-106000000D01*
X101217544Y-105835077D01*
X101284413Y-105735000D01*
X102913895Y-105735000D01*
X102950000Y-105738556D01*
X102986105Y-105735000D01*
X103094085Y-105724365D01*
X103232633Y-105682337D01*
X103360320Y-105614087D01*
X103472238Y-105522238D01*
X103495258Y-105494188D01*
X104354447Y-104635000D01*
X104451939Y-104635000D01*
X104651898Y-104595226D01*
X104840256Y-104517205D01*
X105009774Y-104403937D01*
X105153937Y-104259774D01*
X105267205Y-104090256D01*
X105345226Y-103901898D01*
X105385000Y-103701939D01*
X105385000Y-103498061D01*
X105345226Y-103298102D01*
X105267205Y-103109744D01*
X105192582Y-102998061D01*
X105865000Y-102998061D01*
X105865000Y-103201939D01*
X105904774Y-103401898D01*
X105966120Y-103550000D01*
X105904774Y-103698102D01*
X105865000Y-103898061D01*
X105865000Y-104101939D01*
X105904774Y-104301898D01*
X105982795Y-104490256D01*
X106096063Y-104659774D01*
X106240226Y-104803937D01*
X106409744Y-104917205D01*
X106598102Y-104995226D01*
X106798061Y-105035000D01*
X107001939Y-105035000D01*
X107201898Y-104995226D01*
X107390256Y-104917205D01*
X107559774Y-104803937D01*
X107703937Y-104659774D01*
X107817205Y-104490256D01*
X107895226Y-104301898D01*
X107935000Y-104101939D01*
X107935000Y-103898061D01*
X107895226Y-103698102D01*
X107833880Y-103550000D01*
X107895226Y-103401898D01*
X107935000Y-103201939D01*
X107935000Y-102998061D01*
X107895226Y-102798102D01*
X107817205Y-102609744D01*
X107703937Y-102440226D01*
X107559774Y-102296063D01*
X107390256Y-102182795D01*
X107201898Y-102104774D01*
X107001939Y-102065000D01*
X106798061Y-102065000D01*
X106598102Y-102104774D01*
X106409744Y-102182795D01*
X106240226Y-102296063D01*
X106096063Y-102440226D01*
X105982795Y-102609744D01*
X105904774Y-102798102D01*
X105865000Y-102998061D01*
X105192582Y-102998061D01*
X105153937Y-102940226D01*
X105009774Y-102796063D01*
X104840256Y-102682795D01*
X104651898Y-102604774D01*
X104451939Y-102565000D01*
X104248061Y-102565000D01*
X104048102Y-102604774D01*
X103859744Y-102682795D01*
X103690226Y-102796063D01*
X103546063Y-102940226D01*
X103432795Y-103109744D01*
X103354774Y-103298102D01*
X103315000Y-103498061D01*
X103315000Y-103595553D01*
X102645554Y-104265000D01*
X101284413Y-104265000D01*
X101239303Y-104197487D01*
X101326185Y-104126185D01*
X101405537Y-104029494D01*
X101464502Y-103919180D01*
X101500812Y-103799482D01*
X101513072Y-103675000D01*
X101513072Y-102325000D01*
X101500812Y-102200518D01*
X101464502Y-102080820D01*
X101405537Y-101970506D01*
X101326185Y-101873815D01*
X101229494Y-101794463D01*
X101119180Y-101735498D01*
X100999482Y-101699188D01*
X100875000Y-101686928D01*
X100660000Y-101686928D01*
X100660000Y-100660000D01*
X114017068Y-100660000D01*
X113981424Y-100777501D01*
G37*
%TD.AperFunction*%
D15*
X123511847Y-108158012D02*
X123104859Y-108565000D01*
X121190131Y-108565000D01*
X121620132Y-108135000D01*
X123539887Y-108135000D01*
X123511847Y-108158012D01*
%TA.AperFunction,Conductor*%
D16*
G36*
X123511847Y-108158012D02*
G01*
X123104859Y-108565000D01*
X121190131Y-108565000D01*
X121620132Y-108135000D01*
X123539887Y-108135000D01*
X123511847Y-108158012D01*
G37*
%TD.AperFunction*%
D15*
X121258008Y-105763140D02*
X121293551Y-105806449D01*
X121364895Y-105865000D01*
X121205751Y-105865000D01*
X121149999Y-105859509D01*
X121094248Y-105865000D01*
X120927501Y-105881423D01*
X120713553Y-105946324D01*
X120516377Y-106051716D01*
X120343551Y-106193551D01*
X120308008Y-106236860D01*
X119193465Y-107351404D01*
X119142501Y-107356423D01*
X118928553Y-107421324D01*
X118731377Y-107526716D01*
X118644926Y-107597665D01*
X118585256Y-107557795D01*
X118429396Y-107493235D01*
X120188141Y-105734491D01*
X120231449Y-105698949D01*
X120373284Y-105526123D01*
X120478676Y-105328947D01*
X120543577Y-105114999D01*
X120549521Y-105054652D01*
X121258008Y-105763140D01*
%TA.AperFunction,Conductor*%
D16*
G36*
X121258008Y-105763140D02*
G01*
X121293551Y-105806449D01*
X121364895Y-105865000D01*
X121205751Y-105865000D01*
X121149999Y-105859509D01*
X121094248Y-105865000D01*
X120927501Y-105881423D01*
X120713553Y-105946324D01*
X120516377Y-106051716D01*
X120343551Y-106193551D01*
X120308008Y-106236860D01*
X119193465Y-107351404D01*
X119142501Y-107356423D01*
X118928553Y-107421324D01*
X118731377Y-107526716D01*
X118644926Y-107597665D01*
X118585256Y-107557795D01*
X118429396Y-107493235D01*
X120188141Y-105734491D01*
X120231449Y-105698949D01*
X120373284Y-105526123D01*
X120478676Y-105328947D01*
X120543577Y-105114999D01*
X120549521Y-105054652D01*
X121258008Y-105763140D01*
G37*
%TD.AperFunction*%
%TD*%
M02*
