M48
; DRILL file {KiCad (5.1.6-0-10_14)} date Wednesday, January 13, 2021 at 09:17:19 PM
; FORMAT={-:-/ absolute / inch / decimal}
; #@! TF.CreationDate,2021-01-13T21:17:19+08:00
; #@! TF.GenerationSoftware,Kicad,Pcbnew,(5.1.6-0-10_14)
; #@! TF.FileFunction,Plated,1,2,PTH
FMAT,2
INCH
T1C0.0157
%
G90
G05
T1
X3.9724Y-4.3386
X4.002Y-4.0886
X4.0394Y-4.3396
X4.1063Y-4.3307
X4.1732Y-4.3996
X4.2047Y-4.0886
X4.2224Y-4.5394
X4.311Y-4.1978
X4.3159Y-4.3327
X4.3199Y-4.5144
X4.3199Y-4.5644
X4.3209Y-4.4646
X4.3799Y-4.2682
X4.4134Y-4.0472
X4.4478Y-4.1969
X4.6772Y-4.2106
X4.6831Y-4.3701
X4.6831Y-4.4311
X4.6831Y-4.4882
X4.6831Y-4.5472
X4.6831Y-4.6063
T0
M30
