%TF.GenerationSoftware,KiCad,Pcbnew,(5.1.9-0-10_14)*%
%TF.CreationDate,2021-03-17T16:44:50+08:00*%
%TF.ProjectId,Zeeuss,5a656575-7373-42e6-9b69-6361645f7063,rev?*%
%TF.SameCoordinates,Original*%
%TF.FileFunction,Legend,Bot*%
%TF.FilePolarity,Positive*%
%FSLAX46Y46*%
G04 Gerber Fmt 4.6, Leading zero omitted, Abs format (unit mm)*
G04 Created by KiCad (PCBNEW (5.1.9-0-10_14)) date 2021-03-17 16:44:50*
%MOMM*%
%LPD*%
G01*
G04 APERTURE LIST*
%ADD10C,0.010000*%
G04 APERTURE END LIST*
D10*
%TO.C,G\u002A\u002A\u002A*%
G36*
X118825295Y-109892236D02*
G01*
X119049412Y-109892236D01*
X119049412Y-108801530D01*
X118825295Y-108801530D01*
X118825295Y-109892236D01*
G37*
X118825295Y-109892236D02*
X119049412Y-109892236D01*
X119049412Y-108801530D01*
X118825295Y-108801530D01*
X118825295Y-109892236D01*
G36*
X118589785Y-109343148D02*
G01*
X118593706Y-109884765D01*
X118631618Y-109889186D01*
X118664255Y-109888788D01*
X118680177Y-109882961D01*
X118682631Y-109866060D01*
X118684885Y-109822708D01*
X118686873Y-109756336D01*
X118688528Y-109670374D01*
X118689782Y-109568253D01*
X118690570Y-109453403D01*
X118690824Y-109336922D01*
X118690824Y-108801530D01*
X118585863Y-108801530D01*
X118589785Y-109343148D01*
G37*
X118589785Y-109343148D02*
X118593706Y-109884765D01*
X118631618Y-109889186D01*
X118664255Y-109888788D01*
X118680177Y-109882961D01*
X118682631Y-109866060D01*
X118684885Y-109822708D01*
X118686873Y-109756336D01*
X118688528Y-109670374D01*
X118689782Y-109568253D01*
X118690570Y-109453403D01*
X118690824Y-109336922D01*
X118690824Y-108801530D01*
X118585863Y-108801530D01*
X118589785Y-109343148D01*
G36*
X106857412Y-109892236D02*
G01*
X106892275Y-109892236D01*
X106923653Y-109888374D01*
X106937098Y-109882275D01*
X106939394Y-109865537D01*
X106941503Y-109822342D01*
X106943362Y-109756114D01*
X106944910Y-109670280D01*
X106946084Y-109568263D01*
X106946821Y-109453489D01*
X106947059Y-109336922D01*
X106947059Y-108801530D01*
X106857412Y-108801530D01*
X106857412Y-109892236D01*
G37*
X106857412Y-109892236D02*
X106892275Y-109892236D01*
X106923653Y-109888374D01*
X106937098Y-109882275D01*
X106939394Y-109865537D01*
X106941503Y-109822342D01*
X106943362Y-109756114D01*
X106944910Y-109670280D01*
X106946084Y-109568263D01*
X106946821Y-109453489D01*
X106947059Y-109336922D01*
X106947059Y-108801530D01*
X106857412Y-108801530D01*
X106857412Y-109892236D01*
G36*
X106468942Y-109892236D02*
G01*
X106693059Y-109892236D01*
X106693059Y-108801530D01*
X106468942Y-108801530D01*
X106468942Y-109892236D01*
G37*
X106468942Y-109892236D02*
X106693059Y-109892236D01*
X106693059Y-108801530D01*
X106468942Y-108801530D01*
X106468942Y-109892236D01*
G36*
X117656147Y-108924424D02*
G01*
X117413353Y-108928530D01*
X117408737Y-108976208D01*
X117401276Y-109010115D01*
X117381092Y-109024604D01*
X117356443Y-109028502D01*
X117308765Y-109033118D01*
X117308765Y-109645706D01*
X117357324Y-109650388D01*
X117391148Y-109657336D01*
X117404220Y-109674746D01*
X117405883Y-109695959D01*
X117407823Y-109723825D01*
X117416384Y-109744013D01*
X117435680Y-109757747D01*
X117469823Y-109766254D01*
X117522924Y-109770759D01*
X117599097Y-109772489D01*
X117663340Y-109772706D01*
X117752942Y-109772144D01*
X117816675Y-109770216D01*
X117858534Y-109766558D01*
X117882517Y-109760809D01*
X117892620Y-109752606D01*
X117892936Y-109751866D01*
X117897015Y-109723969D01*
X117896802Y-109681971D01*
X117896202Y-109673425D01*
X117890643Y-109635568D01*
X117876967Y-109618108D01*
X117847059Y-109611558D01*
X117842912Y-109611142D01*
X117794353Y-109606460D01*
X117794353Y-109345936D01*
X117794525Y-109251964D01*
X117795342Y-109183763D01*
X117797255Y-109137221D01*
X117800718Y-109108228D01*
X117806183Y-109092673D01*
X117814102Y-109086444D01*
X117823014Y-109085412D01*
X117644942Y-109085412D01*
X117644942Y-109336922D01*
X117644377Y-109420751D01*
X117642815Y-109493939D01*
X117640449Y-109551349D01*
X117637477Y-109587846D01*
X117634981Y-109598393D01*
X117615711Y-109603771D01*
X117576156Y-109607388D01*
X117537863Y-109608353D01*
X117450706Y-109608353D01*
X117450706Y-109085412D01*
X117644942Y-109085412D01*
X117823014Y-109085412D01*
X117865421Y-109080595D01*
X117888710Y-109062048D01*
X117897975Y-109023623D01*
X117898942Y-108993796D01*
X117898942Y-108920319D01*
X117656147Y-108924424D01*
G37*
X117656147Y-108924424D02*
X117413353Y-108928530D01*
X117408737Y-108976208D01*
X117401276Y-109010115D01*
X117381092Y-109024604D01*
X117356443Y-109028502D01*
X117308765Y-109033118D01*
X117308765Y-109645706D01*
X117357324Y-109650388D01*
X117391148Y-109657336D01*
X117404220Y-109674746D01*
X117405883Y-109695959D01*
X117407823Y-109723825D01*
X117416384Y-109744013D01*
X117435680Y-109757747D01*
X117469823Y-109766254D01*
X117522924Y-109770759D01*
X117599097Y-109772489D01*
X117663340Y-109772706D01*
X117752942Y-109772144D01*
X117816675Y-109770216D01*
X117858534Y-109766558D01*
X117882517Y-109760809D01*
X117892620Y-109752606D01*
X117892936Y-109751866D01*
X117897015Y-109723969D01*
X117896802Y-109681971D01*
X117896202Y-109673425D01*
X117890643Y-109635568D01*
X117876967Y-109618108D01*
X117847059Y-109611558D01*
X117842912Y-109611142D01*
X117794353Y-109606460D01*
X117794353Y-109345936D01*
X117794525Y-109251964D01*
X117795342Y-109183763D01*
X117797255Y-109137221D01*
X117800718Y-109108228D01*
X117806183Y-109092673D01*
X117814102Y-109086444D01*
X117823014Y-109085412D01*
X117644942Y-109085412D01*
X117644942Y-109336922D01*
X117644377Y-109420751D01*
X117642815Y-109493939D01*
X117640449Y-109551349D01*
X117637477Y-109587846D01*
X117634981Y-109598393D01*
X117615711Y-109603771D01*
X117576156Y-109607388D01*
X117537863Y-109608353D01*
X117450706Y-109608353D01*
X117450706Y-109085412D01*
X117644942Y-109085412D01*
X117823014Y-109085412D01*
X117865421Y-109080595D01*
X117888710Y-109062048D01*
X117897975Y-109023623D01*
X117898942Y-108993796D01*
X117898942Y-108920319D01*
X117656147Y-108924424D01*
G36*
X116616789Y-108977089D02*
G01*
X116609910Y-109010854D01*
X116592506Y-109023922D01*
X116570060Y-109025648D01*
X116533656Y-109031901D01*
X116512370Y-109044495D01*
X116506852Y-109065523D01*
X116503048Y-109107369D01*
X116501135Y-109161007D01*
X116501292Y-109217411D01*
X116503695Y-109267556D01*
X116507407Y-109297377D01*
X116521967Y-109305660D01*
X116554678Y-109311978D01*
X116557971Y-109312318D01*
X116592542Y-109319872D01*
X116607610Y-109339630D01*
X116611613Y-109361775D01*
X116624189Y-109404782D01*
X116653087Y-109425161D01*
X116684971Y-109428830D01*
X116710886Y-109436299D01*
X116718557Y-109463330D01*
X116718589Y-109466412D01*
X116714583Y-109491839D01*
X116696676Y-109502122D01*
X116667241Y-109503765D01*
X116632141Y-109506664D01*
X116616707Y-109521182D01*
X116611212Y-109552324D01*
X116603923Y-109586598D01*
X116584472Y-109601348D01*
X116558967Y-109605490D01*
X116523203Y-109614515D01*
X116505980Y-109638077D01*
X116502171Y-109652132D01*
X116498645Y-109698701D01*
X116502795Y-109733436D01*
X116512720Y-109758401D01*
X116532093Y-109769785D01*
X116570508Y-109772686D01*
X116576669Y-109772706D01*
X116624276Y-109767692D01*
X116649424Y-109748464D01*
X116658364Y-109708747D01*
X116658824Y-109690255D01*
X116664495Y-109664874D01*
X116687162Y-109653226D01*
X116707383Y-109650388D01*
X116740934Y-109643395D01*
X116756779Y-109624598D01*
X116763412Y-109593412D01*
X116772216Y-109557289D01*
X116791586Y-109540484D01*
X116823177Y-109533648D01*
X116859064Y-109525031D01*
X116875002Y-109506719D01*
X116880153Y-109477618D01*
X116888563Y-109442192D01*
X116907395Y-109429469D01*
X116913771Y-109429059D01*
X116926796Y-109431276D01*
X116935203Y-109441469D01*
X116939990Y-109464953D01*
X116942157Y-109507041D01*
X116942702Y-109573048D01*
X116942706Y-109582953D01*
X116944594Y-109666011D01*
X116950128Y-109723284D01*
X116959117Y-109752939D01*
X116960636Y-109754777D01*
X116986587Y-109766604D01*
X117027276Y-109772543D01*
X117035057Y-109772706D01*
X117074249Y-109769264D01*
X117093490Y-109755657D01*
X117099769Y-109739089D01*
X117101837Y-109715427D01*
X117103391Y-109666275D01*
X117104388Y-109596019D01*
X117104788Y-109509048D01*
X117104548Y-109409748D01*
X117103789Y-109317000D01*
X117101286Y-109085412D01*
X116942706Y-109085412D01*
X116942706Y-109264706D01*
X116658824Y-109264706D01*
X116658824Y-109085412D01*
X116942706Y-109085412D01*
X117101286Y-109085412D01*
X117099589Y-108928530D01*
X116621471Y-108928530D01*
X116616789Y-108977089D01*
G37*
X116616789Y-108977089D02*
X116609910Y-109010854D01*
X116592506Y-109023922D01*
X116570060Y-109025648D01*
X116533656Y-109031901D01*
X116512370Y-109044495D01*
X116506852Y-109065523D01*
X116503048Y-109107369D01*
X116501135Y-109161007D01*
X116501292Y-109217411D01*
X116503695Y-109267556D01*
X116507407Y-109297377D01*
X116521967Y-109305660D01*
X116554678Y-109311978D01*
X116557971Y-109312318D01*
X116592542Y-109319872D01*
X116607610Y-109339630D01*
X116611613Y-109361775D01*
X116624189Y-109404782D01*
X116653087Y-109425161D01*
X116684971Y-109428830D01*
X116710886Y-109436299D01*
X116718557Y-109463330D01*
X116718589Y-109466412D01*
X116714583Y-109491839D01*
X116696676Y-109502122D01*
X116667241Y-109503765D01*
X116632141Y-109506664D01*
X116616707Y-109521182D01*
X116611212Y-109552324D01*
X116603923Y-109586598D01*
X116584472Y-109601348D01*
X116558967Y-109605490D01*
X116523203Y-109614515D01*
X116505980Y-109638077D01*
X116502171Y-109652132D01*
X116498645Y-109698701D01*
X116502795Y-109733436D01*
X116512720Y-109758401D01*
X116532093Y-109769785D01*
X116570508Y-109772686D01*
X116576669Y-109772706D01*
X116624276Y-109767692D01*
X116649424Y-109748464D01*
X116658364Y-109708747D01*
X116658824Y-109690255D01*
X116664495Y-109664874D01*
X116687162Y-109653226D01*
X116707383Y-109650388D01*
X116740934Y-109643395D01*
X116756779Y-109624598D01*
X116763412Y-109593412D01*
X116772216Y-109557289D01*
X116791586Y-109540484D01*
X116823177Y-109533648D01*
X116859064Y-109525031D01*
X116875002Y-109506719D01*
X116880153Y-109477618D01*
X116888563Y-109442192D01*
X116907395Y-109429469D01*
X116913771Y-109429059D01*
X116926796Y-109431276D01*
X116935203Y-109441469D01*
X116939990Y-109464953D01*
X116942157Y-109507041D01*
X116942702Y-109573048D01*
X116942706Y-109582953D01*
X116944594Y-109666011D01*
X116950128Y-109723284D01*
X116959117Y-109752939D01*
X116960636Y-109754777D01*
X116986587Y-109766604D01*
X117027276Y-109772543D01*
X117035057Y-109772706D01*
X117074249Y-109769264D01*
X117093490Y-109755657D01*
X117099769Y-109739089D01*
X117101837Y-109715427D01*
X117103391Y-109666275D01*
X117104388Y-109596019D01*
X117104788Y-109509048D01*
X117104548Y-109409748D01*
X117103789Y-109317000D01*
X117101286Y-109085412D01*
X116942706Y-109085412D01*
X116942706Y-109264706D01*
X116658824Y-109264706D01*
X116658824Y-109085412D01*
X116942706Y-109085412D01*
X117101286Y-109085412D01*
X117099589Y-108928530D01*
X116621471Y-108928530D01*
X116616789Y-108977089D01*
G36*
X115809966Y-108977089D02*
G01*
X115801237Y-109012913D01*
X115781993Y-109025421D01*
X115777570Y-109025648D01*
X115752956Y-109026144D01*
X115734421Y-109030107D01*
X115721102Y-109041248D01*
X115712138Y-109063278D01*
X115706667Y-109099909D01*
X115703826Y-109154851D01*
X115702754Y-109231815D01*
X115702589Y-109334514D01*
X115702589Y-109653177D01*
X115754883Y-109653177D01*
X115790313Y-109656033D01*
X115804804Y-109668615D01*
X115807177Y-109689308D01*
X115808365Y-109723310D01*
X115815115Y-109746535D01*
X115832207Y-109761035D01*
X115864421Y-109768861D01*
X115916536Y-109772067D01*
X115993332Y-109772705D01*
X116001412Y-109772706D01*
X116078535Y-109772095D01*
X116130739Y-109769839D01*
X116162971Y-109765308D01*
X116180177Y-109757871D01*
X116186578Y-109749073D01*
X116193952Y-109715093D01*
X116195647Y-109690255D01*
X116201318Y-109664874D01*
X116223986Y-109653226D01*
X116244206Y-109650388D01*
X116292765Y-109645706D01*
X116296825Y-109347965D01*
X116298066Y-109242207D01*
X116297999Y-109162605D01*
X116295856Y-109105437D01*
X116293258Y-109085412D01*
X116150824Y-109085412D01*
X116150824Y-109608353D01*
X115852000Y-109608353D01*
X115852000Y-109085412D01*
X116150824Y-109085412D01*
X116293258Y-109085412D01*
X116290866Y-109066982D01*
X116282260Y-109043518D01*
X116269268Y-109031324D01*
X116251121Y-109026677D01*
X116230212Y-109025876D01*
X116206259Y-109019115D01*
X116195098Y-108993949D01*
X116192859Y-108977089D01*
X116188177Y-108928530D01*
X115814647Y-108928530D01*
X115809966Y-108977089D01*
G37*
X115809966Y-108977089D02*
X115801237Y-109012913D01*
X115781993Y-109025421D01*
X115777570Y-109025648D01*
X115752956Y-109026144D01*
X115734421Y-109030107D01*
X115721102Y-109041248D01*
X115712138Y-109063278D01*
X115706667Y-109099909D01*
X115703826Y-109154851D01*
X115702754Y-109231815D01*
X115702589Y-109334514D01*
X115702589Y-109653177D01*
X115754883Y-109653177D01*
X115790313Y-109656033D01*
X115804804Y-109668615D01*
X115807177Y-109689308D01*
X115808365Y-109723310D01*
X115815115Y-109746535D01*
X115832207Y-109761035D01*
X115864421Y-109768861D01*
X115916536Y-109772067D01*
X115993332Y-109772705D01*
X116001412Y-109772706D01*
X116078535Y-109772095D01*
X116130739Y-109769839D01*
X116162971Y-109765308D01*
X116180177Y-109757871D01*
X116186578Y-109749073D01*
X116193952Y-109715093D01*
X116195647Y-109690255D01*
X116201318Y-109664874D01*
X116223986Y-109653226D01*
X116244206Y-109650388D01*
X116292765Y-109645706D01*
X116296825Y-109347965D01*
X116298066Y-109242207D01*
X116297999Y-109162605D01*
X116295856Y-109105437D01*
X116293258Y-109085412D01*
X116150824Y-109085412D01*
X116150824Y-109608353D01*
X115852000Y-109608353D01*
X115852000Y-109085412D01*
X116150824Y-109085412D01*
X116293258Y-109085412D01*
X116290866Y-109066982D01*
X116282260Y-109043518D01*
X116269268Y-109031324D01*
X116251121Y-109026677D01*
X116230212Y-109025876D01*
X116206259Y-109019115D01*
X116195098Y-108993949D01*
X116192859Y-108977089D01*
X116188177Y-108928530D01*
X115814647Y-108928530D01*
X115809966Y-108977089D01*
G36*
X114968990Y-108923825D02*
G01*
X114903236Y-108928530D01*
X114899036Y-109317000D01*
X114898207Y-109423441D01*
X114898054Y-109521361D01*
X114898535Y-109606372D01*
X114899608Y-109674087D01*
X114901233Y-109720118D01*
X114903056Y-109739089D01*
X114914421Y-109761911D01*
X114939602Y-109771381D01*
X114967767Y-109772706D01*
X115011814Y-109768746D01*
X115039428Y-109753333D01*
X115054196Y-109721165D01*
X115059704Y-109666941D01*
X115060118Y-109636194D01*
X115060118Y-109535541D01*
X115108677Y-109530859D01*
X115142906Y-109523615D01*
X115157649Y-109504136D01*
X115161918Y-109477618D01*
X115168866Y-109443794D01*
X115186275Y-109430722D01*
X115207488Y-109429059D01*
X115253818Y-109418924D01*
X115278869Y-109387913D01*
X115284236Y-109351365D01*
X115289708Y-109319916D01*
X115309556Y-109309681D01*
X115314118Y-109309530D01*
X115325972Y-109311089D01*
X115334194Y-109318836D01*
X115339446Y-109337378D01*
X115342389Y-109371318D01*
X115343686Y-109425264D01*
X115343998Y-109503819D01*
X115344000Y-109517484D01*
X115344628Y-109594961D01*
X115346350Y-109662905D01*
X115348923Y-109715112D01*
X115352104Y-109745378D01*
X115353070Y-109749073D01*
X115372009Y-109765889D01*
X115414452Y-109772492D01*
X115427491Y-109772706D01*
X115469758Y-109770298D01*
X115491320Y-109760337D01*
X115501063Y-109739089D01*
X115503131Y-109715427D01*
X115504685Y-109666275D01*
X115505682Y-109596019D01*
X115506082Y-109509048D01*
X115505842Y-109409748D01*
X115505083Y-109317000D01*
X115500883Y-108928530D01*
X115351471Y-108928530D01*
X115347099Y-109035954D01*
X115342728Y-109143379D01*
X115294805Y-109148013D01*
X115261649Y-109155058D01*
X115245943Y-109174077D01*
X115239412Y-109204942D01*
X115230608Y-109241065D01*
X115211239Y-109257870D01*
X115179647Y-109264706D01*
X115143761Y-109273323D01*
X115127823Y-109291635D01*
X115122671Y-109320736D01*
X115114262Y-109356161D01*
X115095430Y-109368885D01*
X115089054Y-109369295D01*
X115077505Y-109367510D01*
X115069506Y-109359075D01*
X115064401Y-109339368D01*
X115061535Y-109303768D01*
X115060251Y-109247653D01*
X115059892Y-109166401D01*
X115059889Y-109163853D01*
X115058936Y-109087279D01*
X115056483Y-109020672D01*
X115052875Y-108970136D01*
X115048455Y-108941775D01*
X115047203Y-108938766D01*
X115022011Y-108925591D01*
X114972195Y-108923610D01*
X114968990Y-108923825D01*
G37*
X114968990Y-108923825D02*
X114903236Y-108928530D01*
X114899036Y-109317000D01*
X114898207Y-109423441D01*
X114898054Y-109521361D01*
X114898535Y-109606372D01*
X114899608Y-109674087D01*
X114901233Y-109720118D01*
X114903056Y-109739089D01*
X114914421Y-109761911D01*
X114939602Y-109771381D01*
X114967767Y-109772706D01*
X115011814Y-109768746D01*
X115039428Y-109753333D01*
X115054196Y-109721165D01*
X115059704Y-109666941D01*
X115060118Y-109636194D01*
X115060118Y-109535541D01*
X115108677Y-109530859D01*
X115142906Y-109523615D01*
X115157649Y-109504136D01*
X115161918Y-109477618D01*
X115168866Y-109443794D01*
X115186275Y-109430722D01*
X115207488Y-109429059D01*
X115253818Y-109418924D01*
X115278869Y-109387913D01*
X115284236Y-109351365D01*
X115289708Y-109319916D01*
X115309556Y-109309681D01*
X115314118Y-109309530D01*
X115325972Y-109311089D01*
X115334194Y-109318836D01*
X115339446Y-109337378D01*
X115342389Y-109371318D01*
X115343686Y-109425264D01*
X115343998Y-109503819D01*
X115344000Y-109517484D01*
X115344628Y-109594961D01*
X115346350Y-109662905D01*
X115348923Y-109715112D01*
X115352104Y-109745378D01*
X115353070Y-109749073D01*
X115372009Y-109765889D01*
X115414452Y-109772492D01*
X115427491Y-109772706D01*
X115469758Y-109770298D01*
X115491320Y-109760337D01*
X115501063Y-109739089D01*
X115503131Y-109715427D01*
X115504685Y-109666275D01*
X115505682Y-109596019D01*
X115506082Y-109509048D01*
X115505842Y-109409748D01*
X115505083Y-109317000D01*
X115500883Y-108928530D01*
X115351471Y-108928530D01*
X115347099Y-109035954D01*
X115342728Y-109143379D01*
X115294805Y-109148013D01*
X115261649Y-109155058D01*
X115245943Y-109174077D01*
X115239412Y-109204942D01*
X115230608Y-109241065D01*
X115211239Y-109257870D01*
X115179647Y-109264706D01*
X115143761Y-109273323D01*
X115127823Y-109291635D01*
X115122671Y-109320736D01*
X115114262Y-109356161D01*
X115095430Y-109368885D01*
X115089054Y-109369295D01*
X115077505Y-109367510D01*
X115069506Y-109359075D01*
X115064401Y-109339368D01*
X115061535Y-109303768D01*
X115060251Y-109247653D01*
X115059892Y-109166401D01*
X115059889Y-109163853D01*
X115058936Y-109087279D01*
X115056483Y-109020672D01*
X115052875Y-108970136D01*
X115048455Y-108941775D01*
X115047203Y-108938766D01*
X115022011Y-108925591D01*
X114972195Y-108923610D01*
X114968990Y-108923825D01*
G36*
X114103883Y-108993851D02*
G01*
X114107276Y-109043980D01*
X114118498Y-109070358D01*
X114127517Y-109076343D01*
X114150668Y-109079703D01*
X114197363Y-109082500D01*
X114261265Y-109084478D01*
X114336037Y-109085383D01*
X114352380Y-109085412D01*
X114553609Y-109085412D01*
X114544647Y-109257236D01*
X114436324Y-109261626D01*
X114328000Y-109266015D01*
X114328000Y-109338468D01*
X114330000Y-109381287D01*
X114339783Y-109407966D01*
X114363022Y-109422295D01*
X114405394Y-109428060D01*
X114463693Y-109429059D01*
X114552118Y-109429059D01*
X114552118Y-109607555D01*
X114331736Y-109611689D01*
X114111353Y-109615824D01*
X114111353Y-109765236D01*
X114399316Y-109769295D01*
X114504061Y-109770330D01*
X114582238Y-109769964D01*
X114637136Y-109768029D01*
X114672044Y-109764356D01*
X114690251Y-109758775D01*
X114694655Y-109754131D01*
X114696466Y-109734591D01*
X114697823Y-109689271D01*
X114698692Y-109622269D01*
X114699042Y-109537684D01*
X114698839Y-109439613D01*
X114698050Y-109332157D01*
X114698045Y-109331719D01*
X114694059Y-108928530D01*
X114103883Y-108920428D01*
X114103883Y-108993851D01*
G37*
X114103883Y-108993851D02*
X114107276Y-109043980D01*
X114118498Y-109070358D01*
X114127517Y-109076343D01*
X114150668Y-109079703D01*
X114197363Y-109082500D01*
X114261265Y-109084478D01*
X114336037Y-109085383D01*
X114352380Y-109085412D01*
X114553609Y-109085412D01*
X114544647Y-109257236D01*
X114436324Y-109261626D01*
X114328000Y-109266015D01*
X114328000Y-109338468D01*
X114330000Y-109381287D01*
X114339783Y-109407966D01*
X114363022Y-109422295D01*
X114405394Y-109428060D01*
X114463693Y-109429059D01*
X114552118Y-109429059D01*
X114552118Y-109607555D01*
X114331736Y-109611689D01*
X114111353Y-109615824D01*
X114111353Y-109765236D01*
X114399316Y-109769295D01*
X114504061Y-109770330D01*
X114582238Y-109769964D01*
X114637136Y-109768029D01*
X114672044Y-109764356D01*
X114690251Y-109758775D01*
X114694655Y-109754131D01*
X114696466Y-109734591D01*
X114697823Y-109689271D01*
X114698692Y-109622269D01*
X114699042Y-109537684D01*
X114698839Y-109439613D01*
X114698050Y-109332157D01*
X114698045Y-109331719D01*
X114694059Y-108928530D01*
X114103883Y-108920428D01*
X114103883Y-108993851D01*
G36*
X112609765Y-108972983D02*
G01*
X112607212Y-109008345D01*
X112594808Y-109022910D01*
X112567930Y-109025648D01*
X112532136Y-109030022D01*
X112509063Y-109046456D01*
X112496151Y-109079917D01*
X112490842Y-109135373D01*
X112490236Y-109176449D01*
X112491686Y-109239925D01*
X112498416Y-109279267D01*
X112513998Y-109300171D01*
X112542002Y-109308337D01*
X112573634Y-109309530D01*
X112598392Y-109313838D01*
X112608306Y-109332616D01*
X112609765Y-109360225D01*
X112611618Y-109388303D01*
X112620338Y-109407508D01*
X112640662Y-109419512D01*
X112677331Y-109425988D01*
X112735083Y-109428611D01*
X112804733Y-109429059D01*
X112952434Y-109429059D01*
X112956658Y-109597148D01*
X112960883Y-109765236D01*
X113024519Y-109769837D01*
X113073660Y-109768461D01*
X113095516Y-109755226D01*
X113095741Y-109754673D01*
X113097607Y-109734985D01*
X113099014Y-109689523D01*
X113099925Y-109622394D01*
X113100307Y-109537703D01*
X113100125Y-109439555D01*
X113099343Y-109332057D01*
X113099339Y-109331719D01*
X113096904Y-109085412D01*
X112953412Y-109085412D01*
X112953412Y-109165098D01*
X112951590Y-109211715D01*
X112946915Y-109245297D01*
X112942946Y-109255250D01*
X112924360Y-109259351D01*
X112883034Y-109261765D01*
X112826077Y-109262206D01*
X112789799Y-109261476D01*
X112647118Y-109257236D01*
X112638156Y-109085412D01*
X112953412Y-109085412D01*
X113096904Y-109085412D01*
X113095353Y-108928530D01*
X112852559Y-108924424D01*
X112609765Y-108920319D01*
X112609765Y-108972983D01*
G37*
X112609765Y-108972983D02*
X112607212Y-109008345D01*
X112594808Y-109022910D01*
X112567930Y-109025648D01*
X112532136Y-109030022D01*
X112509063Y-109046456D01*
X112496151Y-109079917D01*
X112490842Y-109135373D01*
X112490236Y-109176449D01*
X112491686Y-109239925D01*
X112498416Y-109279267D01*
X112513998Y-109300171D01*
X112542002Y-109308337D01*
X112573634Y-109309530D01*
X112598392Y-109313838D01*
X112608306Y-109332616D01*
X112609765Y-109360225D01*
X112611618Y-109388303D01*
X112620338Y-109407508D01*
X112640662Y-109419512D01*
X112677331Y-109425988D01*
X112735083Y-109428611D01*
X112804733Y-109429059D01*
X112952434Y-109429059D01*
X112956658Y-109597148D01*
X112960883Y-109765236D01*
X113024519Y-109769837D01*
X113073660Y-109768461D01*
X113095516Y-109755226D01*
X113095741Y-109754673D01*
X113097607Y-109734985D01*
X113099014Y-109689523D01*
X113099925Y-109622394D01*
X113100307Y-109537703D01*
X113100125Y-109439555D01*
X113099343Y-109332057D01*
X113099339Y-109331719D01*
X113096904Y-109085412D01*
X112953412Y-109085412D01*
X112953412Y-109165098D01*
X112951590Y-109211715D01*
X112946915Y-109245297D01*
X112942946Y-109255250D01*
X112924360Y-109259351D01*
X112883034Y-109261765D01*
X112826077Y-109262206D01*
X112789799Y-109261476D01*
X112647118Y-109257236D01*
X112638156Y-109085412D01*
X112953412Y-109085412D01*
X113096904Y-109085412D01*
X113095353Y-108928530D01*
X112852559Y-108924424D01*
X112609765Y-108920319D01*
X112609765Y-108972983D01*
G36*
X112053206Y-108924424D02*
G01*
X111810412Y-108928530D01*
X111805796Y-108976208D01*
X111798334Y-109010115D01*
X111778151Y-109024604D01*
X111753502Y-109028502D01*
X111705824Y-109033118D01*
X111705824Y-109302059D01*
X111754383Y-109306741D01*
X111788207Y-109313689D01*
X111801279Y-109331099D01*
X111802942Y-109352312D01*
X111812991Y-109398511D01*
X111843905Y-109423526D01*
X111881675Y-109429059D01*
X111912022Y-109432909D01*
X111920821Y-109449074D01*
X111919775Y-109462677D01*
X111910228Y-109486184D01*
X111884718Y-109497641D01*
X111858971Y-109500932D01*
X111822230Y-109506187D01*
X111806513Y-109519443D01*
X111802970Y-109549401D01*
X111802942Y-109556015D01*
X111799900Y-109590734D01*
X111784806Y-109605897D01*
X111754383Y-109611142D01*
X111725628Y-109615481D01*
X111711297Y-109626711D01*
X111706370Y-109653042D01*
X111705824Y-109690530D01*
X111705824Y-109765236D01*
X111773059Y-109765236D01*
X111814480Y-109764027D01*
X111834713Y-109755949D01*
X111842452Y-109734323D01*
X111844881Y-109710058D01*
X111850442Y-109673398D01*
X111865312Y-109656878D01*
X111899228Y-109650758D01*
X111904646Y-109650293D01*
X111941703Y-109644366D01*
X111959135Y-109628737D01*
X111967196Y-109594097D01*
X111967295Y-109593412D01*
X111975911Y-109557525D01*
X111994223Y-109541587D01*
X112023324Y-109536436D01*
X112056253Y-109530196D01*
X112069526Y-109513564D01*
X112071883Y-109480407D01*
X112074822Y-109445428D01*
X112087855Y-109431287D01*
X112108746Y-109429059D01*
X112124715Y-109429960D01*
X112135390Y-109436090D01*
X112142030Y-109452591D01*
X112145891Y-109484603D01*
X112148230Y-109537269D01*
X112149835Y-109597148D01*
X112154059Y-109765236D01*
X112214366Y-109769674D01*
X112254954Y-109770060D01*
X112281824Y-109765559D01*
X112285337Y-109763449D01*
X112288112Y-109746284D01*
X112290619Y-109703157D01*
X112292758Y-109637990D01*
X112294433Y-109554701D01*
X112295544Y-109457212D01*
X112295995Y-109349443D01*
X112296000Y-109336552D01*
X112296000Y-109085412D01*
X112146589Y-109085412D01*
X112146589Y-109265788D01*
X112000912Y-109261512D01*
X111855236Y-109257236D01*
X111846274Y-109085412D01*
X112146589Y-109085412D01*
X112296000Y-109085412D01*
X112296000Y-108920319D01*
X112053206Y-108924424D01*
G37*
X112053206Y-108924424D02*
X111810412Y-108928530D01*
X111805796Y-108976208D01*
X111798334Y-109010115D01*
X111778151Y-109024604D01*
X111753502Y-109028502D01*
X111705824Y-109033118D01*
X111705824Y-109302059D01*
X111754383Y-109306741D01*
X111788207Y-109313689D01*
X111801279Y-109331099D01*
X111802942Y-109352312D01*
X111812991Y-109398511D01*
X111843905Y-109423526D01*
X111881675Y-109429059D01*
X111912022Y-109432909D01*
X111920821Y-109449074D01*
X111919775Y-109462677D01*
X111910228Y-109486184D01*
X111884718Y-109497641D01*
X111858971Y-109500932D01*
X111822230Y-109506187D01*
X111806513Y-109519443D01*
X111802970Y-109549401D01*
X111802942Y-109556015D01*
X111799900Y-109590734D01*
X111784806Y-109605897D01*
X111754383Y-109611142D01*
X111725628Y-109615481D01*
X111711297Y-109626711D01*
X111706370Y-109653042D01*
X111705824Y-109690530D01*
X111705824Y-109765236D01*
X111773059Y-109765236D01*
X111814480Y-109764027D01*
X111834713Y-109755949D01*
X111842452Y-109734323D01*
X111844881Y-109710058D01*
X111850442Y-109673398D01*
X111865312Y-109656878D01*
X111899228Y-109650758D01*
X111904646Y-109650293D01*
X111941703Y-109644366D01*
X111959135Y-109628737D01*
X111967196Y-109594097D01*
X111967295Y-109593412D01*
X111975911Y-109557525D01*
X111994223Y-109541587D01*
X112023324Y-109536436D01*
X112056253Y-109530196D01*
X112069526Y-109513564D01*
X112071883Y-109480407D01*
X112074822Y-109445428D01*
X112087855Y-109431287D01*
X112108746Y-109429059D01*
X112124715Y-109429960D01*
X112135390Y-109436090D01*
X112142030Y-109452591D01*
X112145891Y-109484603D01*
X112148230Y-109537269D01*
X112149835Y-109597148D01*
X112154059Y-109765236D01*
X112214366Y-109769674D01*
X112254954Y-109770060D01*
X112281824Y-109765559D01*
X112285337Y-109763449D01*
X112288112Y-109746284D01*
X112290619Y-109703157D01*
X112292758Y-109637990D01*
X112294433Y-109554701D01*
X112295544Y-109457212D01*
X112295995Y-109349443D01*
X112296000Y-109336552D01*
X112296000Y-109085412D01*
X112146589Y-109085412D01*
X112146589Y-109265788D01*
X112000912Y-109261512D01*
X111855236Y-109257236D01*
X111846274Y-109085412D01*
X112146589Y-109085412D01*
X112296000Y-109085412D01*
X112296000Y-108920319D01*
X112053206Y-108924424D01*
G36*
X111011059Y-108973353D02*
G01*
X111008502Y-109008525D01*
X110995888Y-109022949D01*
X110968065Y-109025648D01*
X110942784Y-109027110D01*
X110923746Y-109033929D01*
X110910145Y-109049753D01*
X110901173Y-109078230D01*
X110896024Y-109123007D01*
X110893891Y-109187734D01*
X110893967Y-109276059D01*
X110894936Y-109356281D01*
X110899000Y-109645706D01*
X110951295Y-109653177D01*
X110987418Y-109661981D01*
X111004223Y-109681350D01*
X111011059Y-109712942D01*
X111018530Y-109765236D01*
X111191150Y-109769420D01*
X111260221Y-109770221D01*
X111318031Y-109769250D01*
X111358219Y-109766724D01*
X111374179Y-109763194D01*
X111381383Y-109742304D01*
X111384579Y-109705964D01*
X111384589Y-109703883D01*
X111387177Y-109671580D01*
X111400834Y-109656726D01*
X111434394Y-109650878D01*
X111440618Y-109650344D01*
X111496647Y-109645706D01*
X111500712Y-109356281D01*
X111501878Y-109248715D01*
X111501417Y-109167372D01*
X111498520Y-109108603D01*
X111494947Y-109085412D01*
X111339765Y-109085412D01*
X111339765Y-109608353D01*
X111055883Y-109608353D01*
X111055883Y-109085412D01*
X111339765Y-109085412D01*
X111494947Y-109085412D01*
X111492381Y-109068762D01*
X111482193Y-109044199D01*
X111467149Y-109031267D01*
X111446443Y-109026317D01*
X111427583Y-109025648D01*
X111398666Y-109022537D01*
X111386807Y-109007194D01*
X111384589Y-108973353D01*
X111384589Y-108921059D01*
X111011059Y-108921059D01*
X111011059Y-108973353D01*
G37*
X111011059Y-108973353D02*
X111008502Y-109008525D01*
X110995888Y-109022949D01*
X110968065Y-109025648D01*
X110942784Y-109027110D01*
X110923746Y-109033929D01*
X110910145Y-109049753D01*
X110901173Y-109078230D01*
X110896024Y-109123007D01*
X110893891Y-109187734D01*
X110893967Y-109276059D01*
X110894936Y-109356281D01*
X110899000Y-109645706D01*
X110951295Y-109653177D01*
X110987418Y-109661981D01*
X111004223Y-109681350D01*
X111011059Y-109712942D01*
X111018530Y-109765236D01*
X111191150Y-109769420D01*
X111260221Y-109770221D01*
X111318031Y-109769250D01*
X111358219Y-109766724D01*
X111374179Y-109763194D01*
X111381383Y-109742304D01*
X111384579Y-109705964D01*
X111384589Y-109703883D01*
X111387177Y-109671580D01*
X111400834Y-109656726D01*
X111434394Y-109650878D01*
X111440618Y-109650344D01*
X111496647Y-109645706D01*
X111500712Y-109356281D01*
X111501878Y-109248715D01*
X111501417Y-109167372D01*
X111498520Y-109108603D01*
X111494947Y-109085412D01*
X111339765Y-109085412D01*
X111339765Y-109608353D01*
X111055883Y-109608353D01*
X111055883Y-109085412D01*
X111339765Y-109085412D01*
X111494947Y-109085412D01*
X111492381Y-109068762D01*
X111482193Y-109044199D01*
X111467149Y-109031267D01*
X111446443Y-109026317D01*
X111427583Y-109025648D01*
X111398666Y-109022537D01*
X111386807Y-109007194D01*
X111384589Y-108973353D01*
X111384589Y-108921059D01*
X111011059Y-108921059D01*
X111011059Y-108973353D01*
G36*
X110099647Y-109653177D02*
G01*
X110151942Y-109653177D01*
X110187372Y-109656033D01*
X110201863Y-109668615D01*
X110204236Y-109689308D01*
X110205424Y-109723310D01*
X110212174Y-109746535D01*
X110229266Y-109761035D01*
X110261480Y-109768861D01*
X110313595Y-109772067D01*
X110390391Y-109772705D01*
X110398471Y-109772706D01*
X110475594Y-109772095D01*
X110527798Y-109769839D01*
X110560030Y-109765308D01*
X110577236Y-109757871D01*
X110583637Y-109749073D01*
X110591011Y-109715093D01*
X110592706Y-109690255D01*
X110598377Y-109664874D01*
X110621045Y-109653226D01*
X110641265Y-109650388D01*
X110670721Y-109645569D01*
X110685697Y-109632938D01*
X110692120Y-109604052D01*
X110694378Y-109574736D01*
X110698932Y-109503765D01*
X110624354Y-109503765D01*
X110580065Y-109504788D01*
X110557440Y-109511214D01*
X110548262Y-109528076D01*
X110545094Y-109552324D01*
X110540412Y-109600883D01*
X110395018Y-109605156D01*
X110249623Y-109609429D01*
X110245606Y-109268979D01*
X110241589Y-108928530D01*
X110099647Y-108919422D01*
X110099647Y-109653177D01*
G37*
X110099647Y-109653177D02*
X110151942Y-109653177D01*
X110187372Y-109656033D01*
X110201863Y-109668615D01*
X110204236Y-109689308D01*
X110205424Y-109723310D01*
X110212174Y-109746535D01*
X110229266Y-109761035D01*
X110261480Y-109768861D01*
X110313595Y-109772067D01*
X110390391Y-109772705D01*
X110398471Y-109772706D01*
X110475594Y-109772095D01*
X110527798Y-109769839D01*
X110560030Y-109765308D01*
X110577236Y-109757871D01*
X110583637Y-109749073D01*
X110591011Y-109715093D01*
X110592706Y-109690255D01*
X110598377Y-109664874D01*
X110621045Y-109653226D01*
X110641265Y-109650388D01*
X110670721Y-109645569D01*
X110685697Y-109632938D01*
X110692120Y-109604052D01*
X110694378Y-109574736D01*
X110698932Y-109503765D01*
X110624354Y-109503765D01*
X110580065Y-109504788D01*
X110557440Y-109511214D01*
X110548262Y-109528076D01*
X110545094Y-109552324D01*
X110540412Y-109600883D01*
X110395018Y-109605156D01*
X110249623Y-109609429D01*
X110245606Y-109268979D01*
X110241589Y-108928530D01*
X110099647Y-108919422D01*
X110099647Y-109653177D01*
G36*
X109300295Y-108928530D02*
G01*
X109295595Y-108985602D01*
X109294123Y-109022439D01*
X109299437Y-109048902D01*
X109315610Y-109066699D01*
X109346718Y-109077538D01*
X109396834Y-109083127D01*
X109470033Y-109085173D01*
X109533712Y-109085412D01*
X109741059Y-109085412D01*
X109741059Y-109263397D01*
X109632736Y-109267787D01*
X109524412Y-109272177D01*
X109519713Y-109329249D01*
X109520289Y-109377061D01*
X109534701Y-109407102D01*
X109567663Y-109423105D01*
X109623889Y-109428802D01*
X109645771Y-109429059D01*
X109741059Y-109429059D01*
X109741059Y-109607555D01*
X109520677Y-109611689D01*
X109300295Y-109615824D01*
X109300295Y-109765236D01*
X109890471Y-109773338D01*
X109890471Y-108920428D01*
X109300295Y-108928530D01*
G37*
X109300295Y-108928530D02*
X109295595Y-108985602D01*
X109294123Y-109022439D01*
X109299437Y-109048902D01*
X109315610Y-109066699D01*
X109346718Y-109077538D01*
X109396834Y-109083127D01*
X109470033Y-109085173D01*
X109533712Y-109085412D01*
X109741059Y-109085412D01*
X109741059Y-109263397D01*
X109632736Y-109267787D01*
X109524412Y-109272177D01*
X109519713Y-109329249D01*
X109520289Y-109377061D01*
X109534701Y-109407102D01*
X109567663Y-109423105D01*
X109623889Y-109428802D01*
X109645771Y-109429059D01*
X109741059Y-109429059D01*
X109741059Y-109607555D01*
X109520677Y-109611689D01*
X109300295Y-109615824D01*
X109300295Y-109765236D01*
X109890471Y-109773338D01*
X109890471Y-108920428D01*
X109300295Y-108928530D01*
G36*
X108608384Y-108976208D02*
G01*
X108600923Y-109010115D01*
X108580739Y-109024604D01*
X108556090Y-109028502D01*
X108528358Y-109032858D01*
X108513627Y-109044265D01*
X108506965Y-109070647D01*
X108503867Y-109112411D01*
X108499321Y-109191704D01*
X108571102Y-109187117D01*
X108614400Y-109183038D01*
X108636224Y-109174175D01*
X108644964Y-109154700D01*
X108647565Y-109133971D01*
X108652247Y-109085412D01*
X108934236Y-109085412D01*
X108934236Y-109608353D01*
X108650353Y-109608353D01*
X108650353Y-109503765D01*
X108500942Y-109503765D01*
X108500942Y-109653177D01*
X108552334Y-109653177D01*
X108586220Y-109655563D01*
X108601714Y-109668625D01*
X108607673Y-109701221D01*
X108608363Y-109709206D01*
X108613000Y-109765236D01*
X108785127Y-109769415D01*
X108871222Y-109770184D01*
X108930316Y-109767474D01*
X108965108Y-109761086D01*
X108975627Y-109755221D01*
X108989502Y-109727186D01*
X108994000Y-109695959D01*
X108998379Y-109667055D01*
X109017558Y-109654199D01*
X109042559Y-109650388D01*
X109091118Y-109645706D01*
X109091118Y-109033118D01*
X109043440Y-109028502D01*
X109009533Y-109021040D01*
X108995044Y-109000857D01*
X108991146Y-108976208D01*
X108986530Y-108928530D01*
X108613000Y-108928530D01*
X108608384Y-108976208D01*
G37*
X108608384Y-108976208D02*
X108600923Y-109010115D01*
X108580739Y-109024604D01*
X108556090Y-109028502D01*
X108528358Y-109032858D01*
X108513627Y-109044265D01*
X108506965Y-109070647D01*
X108503867Y-109112411D01*
X108499321Y-109191704D01*
X108571102Y-109187117D01*
X108614400Y-109183038D01*
X108636224Y-109174175D01*
X108644964Y-109154700D01*
X108647565Y-109133971D01*
X108652247Y-109085412D01*
X108934236Y-109085412D01*
X108934236Y-109608353D01*
X108650353Y-109608353D01*
X108650353Y-109503765D01*
X108500942Y-109503765D01*
X108500942Y-109653177D01*
X108552334Y-109653177D01*
X108586220Y-109655563D01*
X108601714Y-109668625D01*
X108607673Y-109701221D01*
X108608363Y-109709206D01*
X108613000Y-109765236D01*
X108785127Y-109769415D01*
X108871222Y-109770184D01*
X108930316Y-109767474D01*
X108965108Y-109761086D01*
X108975627Y-109755221D01*
X108989502Y-109727186D01*
X108994000Y-109695959D01*
X108998379Y-109667055D01*
X109017558Y-109654199D01*
X109042559Y-109650388D01*
X109091118Y-109645706D01*
X109091118Y-109033118D01*
X109043440Y-109028502D01*
X109009533Y-109021040D01*
X108995044Y-109000857D01*
X108991146Y-108976208D01*
X108986530Y-108928530D01*
X108613000Y-108928530D01*
X108608384Y-108976208D01*
G36*
X107694118Y-108994167D02*
G01*
X107696100Y-109037327D01*
X107705835Y-109064202D01*
X107729005Y-109078621D01*
X107771291Y-109084412D01*
X107829530Y-109085412D01*
X107917675Y-109085412D01*
X107921691Y-109425324D01*
X107925706Y-109765236D01*
X107986013Y-109769674D01*
X108026601Y-109770060D01*
X108053471Y-109765559D01*
X108056984Y-109763449D01*
X108060070Y-109746028D01*
X108062806Y-109703140D01*
X108065054Y-109639201D01*
X108066679Y-109558624D01*
X108067543Y-109465825D01*
X108067647Y-109419098D01*
X108067647Y-109085412D01*
X108156073Y-109085412D01*
X108220203Y-109084084D01*
X108260160Y-109077554D01*
X108281620Y-109062005D01*
X108290259Y-109033619D01*
X108291765Y-108994167D01*
X108291765Y-108921059D01*
X107694118Y-108921059D01*
X107694118Y-108994167D01*
G37*
X107694118Y-108994167D02*
X107696100Y-109037327D01*
X107705835Y-109064202D01*
X107729005Y-109078621D01*
X107771291Y-109084412D01*
X107829530Y-109085412D01*
X107917675Y-109085412D01*
X107921691Y-109425324D01*
X107925706Y-109765236D01*
X107986013Y-109769674D01*
X108026601Y-109770060D01*
X108053471Y-109765559D01*
X108056984Y-109763449D01*
X108060070Y-109746028D01*
X108062806Y-109703140D01*
X108065054Y-109639201D01*
X108066679Y-109558624D01*
X108067543Y-109465825D01*
X108067647Y-109419098D01*
X108067647Y-109085412D01*
X108156073Y-109085412D01*
X108220203Y-109084084D01*
X108260160Y-109077554D01*
X108281620Y-109062005D01*
X108290259Y-109033619D01*
X108291765Y-108994167D01*
X108291765Y-108921059D01*
X107694118Y-108921059D01*
X107694118Y-108994167D01*
G36*
X118113039Y-104838064D02*
G01*
X118033819Y-105003459D01*
X117964055Y-105149001D01*
X117900333Y-105281805D01*
X117839238Y-105408985D01*
X117777353Y-105537655D01*
X117727378Y-105641471D01*
X117685275Y-105729037D01*
X117643282Y-105816605D01*
X117604943Y-105896772D01*
X117573799Y-105962134D01*
X117559367Y-105992589D01*
X117537287Y-106038976D01*
X117504833Y-106106634D01*
X117464706Y-106189963D01*
X117419603Y-106283363D01*
X117372225Y-106381231D01*
X117350568Y-106425883D01*
X117304688Y-106520743D01*
X117261440Y-106610766D01*
X117223132Y-106691104D01*
X117192071Y-106756907D01*
X117170562Y-106803326D01*
X117163725Y-106818641D01*
X117143823Y-106857930D01*
X117126078Y-106881708D01*
X117118141Y-106885283D01*
X117109895Y-106871228D01*
X117090338Y-106831924D01*
X117060399Y-106769383D01*
X117021009Y-106685616D01*
X116973098Y-106582633D01*
X116917596Y-106462447D01*
X116855433Y-106327069D01*
X116787538Y-106178509D01*
X116714842Y-106018779D01*
X116638275Y-105849890D01*
X116591075Y-105745465D01*
X116078655Y-104610530D01*
X115471000Y-104610530D01*
X115471000Y-107613706D01*
X115766089Y-107617757D01*
X116061177Y-107621809D01*
X116061177Y-106747434D01*
X116061364Y-106588875D01*
X116061902Y-106439572D01*
X116062758Y-106302139D01*
X116063898Y-106179191D01*
X116065288Y-106073343D01*
X116066894Y-105987210D01*
X116068684Y-105923406D01*
X116070622Y-105884546D01*
X116072443Y-105873059D01*
X116080528Y-105886291D01*
X116099577Y-105924302D01*
X116128417Y-105984562D01*
X116165874Y-106064542D01*
X116210777Y-106161715D01*
X116261953Y-106273551D01*
X116318228Y-106397522D01*
X116378431Y-106531098D01*
X116403282Y-106586500D01*
X116465196Y-106724490D01*
X116523939Y-106854963D01*
X116578285Y-106975232D01*
X116627013Y-107082610D01*
X116668897Y-107174410D01*
X116702715Y-107247943D01*
X116727241Y-107300523D01*
X116741253Y-107329462D01*
X116743478Y-107333559D01*
X116750765Y-107344240D01*
X116760348Y-107352379D01*
X116776015Y-107358321D01*
X116801554Y-107362412D01*
X116840754Y-107364998D01*
X116897404Y-107366423D01*
X116975292Y-107367034D01*
X117078208Y-107367175D01*
X117112224Y-107367177D01*
X117460348Y-107367177D01*
X117734282Y-106810618D01*
X117798271Y-106680577D01*
X117862462Y-106550069D01*
X117924676Y-106423525D01*
X117982737Y-106305374D01*
X118034467Y-106200049D01*
X118077690Y-106111979D01*
X118110227Y-106045595D01*
X118114197Y-106037485D01*
X118220177Y-105820911D01*
X118227881Y-107621177D01*
X118825437Y-107621177D01*
X118821631Y-106115853D01*
X118817824Y-104610530D01*
X118521849Y-104606476D01*
X118225875Y-104602422D01*
X118113039Y-104838064D01*
G37*
X118113039Y-104838064D02*
X118033819Y-105003459D01*
X117964055Y-105149001D01*
X117900333Y-105281805D01*
X117839238Y-105408985D01*
X117777353Y-105537655D01*
X117727378Y-105641471D01*
X117685275Y-105729037D01*
X117643282Y-105816605D01*
X117604943Y-105896772D01*
X117573799Y-105962134D01*
X117559367Y-105992589D01*
X117537287Y-106038976D01*
X117504833Y-106106634D01*
X117464706Y-106189963D01*
X117419603Y-106283363D01*
X117372225Y-106381231D01*
X117350568Y-106425883D01*
X117304688Y-106520743D01*
X117261440Y-106610766D01*
X117223132Y-106691104D01*
X117192071Y-106756907D01*
X117170562Y-106803326D01*
X117163725Y-106818641D01*
X117143823Y-106857930D01*
X117126078Y-106881708D01*
X117118141Y-106885283D01*
X117109895Y-106871228D01*
X117090338Y-106831924D01*
X117060399Y-106769383D01*
X117021009Y-106685616D01*
X116973098Y-106582633D01*
X116917596Y-106462447D01*
X116855433Y-106327069D01*
X116787538Y-106178509D01*
X116714842Y-106018779D01*
X116638275Y-105849890D01*
X116591075Y-105745465D01*
X116078655Y-104610530D01*
X115471000Y-104610530D01*
X115471000Y-107613706D01*
X115766089Y-107617757D01*
X116061177Y-107621809D01*
X116061177Y-106747434D01*
X116061364Y-106588875D01*
X116061902Y-106439572D01*
X116062758Y-106302139D01*
X116063898Y-106179191D01*
X116065288Y-106073343D01*
X116066894Y-105987210D01*
X116068684Y-105923406D01*
X116070622Y-105884546D01*
X116072443Y-105873059D01*
X116080528Y-105886291D01*
X116099577Y-105924302D01*
X116128417Y-105984562D01*
X116165874Y-106064542D01*
X116210777Y-106161715D01*
X116261953Y-106273551D01*
X116318228Y-106397522D01*
X116378431Y-106531098D01*
X116403282Y-106586500D01*
X116465196Y-106724490D01*
X116523939Y-106854963D01*
X116578285Y-106975232D01*
X116627013Y-107082610D01*
X116668897Y-107174410D01*
X116702715Y-107247943D01*
X116727241Y-107300523D01*
X116741253Y-107329462D01*
X116743478Y-107333559D01*
X116750765Y-107344240D01*
X116760348Y-107352379D01*
X116776015Y-107358321D01*
X116801554Y-107362412D01*
X116840754Y-107364998D01*
X116897404Y-107366423D01*
X116975292Y-107367034D01*
X117078208Y-107367175D01*
X117112224Y-107367177D01*
X117460348Y-107367177D01*
X117734282Y-106810618D01*
X117798271Y-106680577D01*
X117862462Y-106550069D01*
X117924676Y-106423525D01*
X117982737Y-106305374D01*
X118034467Y-106200049D01*
X118077690Y-106111979D01*
X118110227Y-106045595D01*
X118114197Y-106037485D01*
X118220177Y-105820911D01*
X118227881Y-107621177D01*
X118825437Y-107621177D01*
X118821631Y-106115853D01*
X118817824Y-104610530D01*
X118521849Y-104606476D01*
X118225875Y-104602422D01*
X118113039Y-104838064D01*
G36*
X112475295Y-107319653D02*
G01*
X112576147Y-107385905D01*
X112635526Y-107424820D01*
X112707677Y-107471971D01*
X112780304Y-107519327D01*
X112806948Y-107536667D01*
X112936895Y-107621177D01*
X114023863Y-107621177D01*
X114209549Y-107500366D01*
X114279638Y-107454711D01*
X114344747Y-107412200D01*
X114398867Y-107376764D01*
X114435988Y-107352335D01*
X114443692Y-107347219D01*
X114492149Y-107314883D01*
X114492251Y-106788206D01*
X114492353Y-106261530D01*
X113895120Y-106261530D01*
X113887236Y-107225236D01*
X113480089Y-107229211D01*
X113072942Y-107233187D01*
X113072942Y-104991530D01*
X114074000Y-104991530D01*
X114074000Y-104603059D01*
X112475295Y-104603059D01*
X112475295Y-107319653D01*
G37*
X112475295Y-107319653D02*
X112576147Y-107385905D01*
X112635526Y-107424820D01*
X112707677Y-107471971D01*
X112780304Y-107519327D01*
X112806948Y-107536667D01*
X112936895Y-107621177D01*
X114023863Y-107621177D01*
X114209549Y-107500366D01*
X114279638Y-107454711D01*
X114344747Y-107412200D01*
X114398867Y-107376764D01*
X114435988Y-107352335D01*
X114443692Y-107347219D01*
X114492149Y-107314883D01*
X114492251Y-106788206D01*
X114492353Y-106261530D01*
X113895120Y-106261530D01*
X113887236Y-107225236D01*
X113480089Y-107229211D01*
X113072942Y-107233187D01*
X113072942Y-104991530D01*
X114074000Y-104991530D01*
X114074000Y-104603059D01*
X112475295Y-104603059D01*
X112475295Y-107319653D01*
G36*
X110002530Y-104984059D02*
G01*
X110230383Y-104988184D01*
X110458236Y-104992308D01*
X110458236Y-107231928D01*
X110230383Y-107236052D01*
X110002530Y-107240177D01*
X109994166Y-107621177D01*
X111504118Y-107621177D01*
X111504118Y-107232706D01*
X111055883Y-107232706D01*
X111055883Y-104991530D01*
X111504985Y-104991530D01*
X111500816Y-104793559D01*
X111496647Y-104595589D01*
X110002530Y-104595589D01*
X110002530Y-104984059D01*
G37*
X110002530Y-104984059D02*
X110230383Y-104988184D01*
X110458236Y-104992308D01*
X110458236Y-107231928D01*
X110230383Y-107236052D01*
X110002530Y-107240177D01*
X109994166Y-107621177D01*
X111504118Y-107621177D01*
X111504118Y-107232706D01*
X111055883Y-107232706D01*
X111055883Y-104991530D01*
X111504985Y-104991530D01*
X111500816Y-104793559D01*
X111496647Y-104595589D01*
X110002530Y-104595589D01*
X110002530Y-104984059D01*
G36*
X106979059Y-104590969D02*
G01*
X106849684Y-104591529D01*
X106742186Y-104592430D01*
X106654965Y-104593691D01*
X106586419Y-104595331D01*
X106534947Y-104597367D01*
X106498949Y-104599820D01*
X106476824Y-104602707D01*
X106466971Y-104606047D01*
X106466369Y-104606710D01*
X106461438Y-104629060D01*
X106457751Y-104673526D01*
X106455379Y-104732365D01*
X106454394Y-104797834D01*
X106454865Y-104862189D01*
X106456864Y-104917686D01*
X106460462Y-104956584D01*
X106463070Y-104967896D01*
X106467161Y-104972641D01*
X106476927Y-104976713D01*
X106494476Y-104980162D01*
X106521915Y-104983038D01*
X106561352Y-104985394D01*
X106614895Y-104987278D01*
X106684651Y-104988741D01*
X106772729Y-104989835D01*
X106881235Y-104990609D01*
X107012277Y-104991113D01*
X107167964Y-104991400D01*
X107350403Y-104991518D01*
X107449187Y-104991530D01*
X108426236Y-104991530D01*
X108426236Y-105873059D01*
X106469511Y-105873059D01*
X106461134Y-105906677D01*
X106458024Y-105935353D01*
X106456326Y-105985831D01*
X106456211Y-106050056D01*
X106457114Y-106097177D01*
X106461471Y-106254059D01*
X107440118Y-106261530D01*
X108418765Y-106269000D01*
X108422707Y-106750853D01*
X108426650Y-107232706D01*
X106453108Y-107232706D01*
X106457289Y-107423206D01*
X106461471Y-107613706D01*
X107507353Y-107616781D01*
X108553236Y-107619855D01*
X108732530Y-107502197D01*
X108802402Y-107456150D01*
X108868241Y-107412410D01*
X108923571Y-107375303D01*
X108961920Y-107349154D01*
X108967932Y-107344950D01*
X109024040Y-107305361D01*
X109016412Y-104595589D01*
X107747346Y-104591768D01*
X107514455Y-104591150D01*
X107309844Y-104590799D01*
X107131912Y-104590732D01*
X106979059Y-104590969D01*
G37*
X106979059Y-104590969D02*
X106849684Y-104591529D01*
X106742186Y-104592430D01*
X106654965Y-104593691D01*
X106586419Y-104595331D01*
X106534947Y-104597367D01*
X106498949Y-104599820D01*
X106476824Y-104602707D01*
X106466971Y-104606047D01*
X106466369Y-104606710D01*
X106461438Y-104629060D01*
X106457751Y-104673526D01*
X106455379Y-104732365D01*
X106454394Y-104797834D01*
X106454865Y-104862189D01*
X106456864Y-104917686D01*
X106460462Y-104956584D01*
X106463070Y-104967896D01*
X106467161Y-104972641D01*
X106476927Y-104976713D01*
X106494476Y-104980162D01*
X106521915Y-104983038D01*
X106561352Y-104985394D01*
X106614895Y-104987278D01*
X106684651Y-104988741D01*
X106772729Y-104989835D01*
X106881235Y-104990609D01*
X107012277Y-104991113D01*
X107167964Y-104991400D01*
X107350403Y-104991518D01*
X107449187Y-104991530D01*
X108426236Y-104991530D01*
X108426236Y-105873059D01*
X106469511Y-105873059D01*
X106461134Y-105906677D01*
X106458024Y-105935353D01*
X106456326Y-105985831D01*
X106456211Y-106050056D01*
X106457114Y-106097177D01*
X106461471Y-106254059D01*
X107440118Y-106261530D01*
X108418765Y-106269000D01*
X108422707Y-106750853D01*
X108426650Y-107232706D01*
X106453108Y-107232706D01*
X106457289Y-107423206D01*
X106461471Y-107613706D01*
X107507353Y-107616781D01*
X108553236Y-107619855D01*
X108732530Y-107502197D01*
X108802402Y-107456150D01*
X108868241Y-107412410D01*
X108923571Y-107375303D01*
X108961920Y-107349154D01*
X108967932Y-107344950D01*
X109024040Y-107305361D01*
X109016412Y-104595589D01*
X107747346Y-104591768D01*
X107514455Y-104591150D01*
X107309844Y-104590799D01*
X107131912Y-104590732D01*
X106979059Y-104590969D01*
G36*
X118866888Y-102686853D02*
G01*
X118862647Y-102847471D01*
X118810353Y-102854942D01*
X118758059Y-102862412D01*
X118753650Y-102971687D01*
X118750777Y-103027766D01*
X118746368Y-103060013D01*
X118738266Y-103074467D01*
X118724312Y-103077173D01*
X118716297Y-103076275D01*
X118699090Y-103071165D01*
X118688694Y-103057494D01*
X118682922Y-103028639D01*
X118679587Y-102977980D01*
X118678964Y-102963265D01*
X118674574Y-102854942D01*
X118571295Y-102854942D01*
X118571295Y-102526236D01*
X118421883Y-102526236D01*
X118421883Y-102867989D01*
X118470442Y-102872671D01*
X118519000Y-102877353D01*
X118523390Y-102985677D01*
X118527780Y-103094000D01*
X118577821Y-103094000D01*
X118610287Y-103097248D01*
X118630551Y-103110665D01*
X118641382Y-103139757D01*
X118645548Y-103190033D01*
X118646000Y-103229693D01*
X118646000Y-103318118D01*
X118794103Y-103318118D01*
X118798493Y-103209795D01*
X118802883Y-103101471D01*
X118851442Y-103096789D01*
X118900000Y-103092107D01*
X118900000Y-102990064D01*
X118901894Y-102930287D01*
X118910323Y-102894356D01*
X118929407Y-102876334D01*
X118963268Y-102870283D01*
X118983399Y-102869883D01*
X118998889Y-102869030D01*
X119009166Y-102863080D01*
X119015299Y-102846945D01*
X119018357Y-102815539D01*
X119019411Y-102763772D01*
X119019530Y-102698059D01*
X119019530Y-102526236D01*
X118871129Y-102526236D01*
X118866888Y-102686853D01*
G37*
X118866888Y-102686853D02*
X118862647Y-102847471D01*
X118810353Y-102854942D01*
X118758059Y-102862412D01*
X118753650Y-102971687D01*
X118750777Y-103027766D01*
X118746368Y-103060013D01*
X118738266Y-103074467D01*
X118724312Y-103077173D01*
X118716297Y-103076275D01*
X118699090Y-103071165D01*
X118688694Y-103057494D01*
X118682922Y-103028639D01*
X118679587Y-102977980D01*
X118678964Y-102963265D01*
X118674574Y-102854942D01*
X118571295Y-102854942D01*
X118571295Y-102526236D01*
X118421883Y-102526236D01*
X118421883Y-102867989D01*
X118470442Y-102872671D01*
X118519000Y-102877353D01*
X118523390Y-102985677D01*
X118527780Y-103094000D01*
X118577821Y-103094000D01*
X118610287Y-103097248D01*
X118630551Y-103110665D01*
X118641382Y-103139757D01*
X118645548Y-103190033D01*
X118646000Y-103229693D01*
X118646000Y-103318118D01*
X118794103Y-103318118D01*
X118798493Y-103209795D01*
X118802883Y-103101471D01*
X118851442Y-103096789D01*
X118900000Y-103092107D01*
X118900000Y-102990064D01*
X118901894Y-102930287D01*
X118910323Y-102894356D01*
X118929407Y-102876334D01*
X118963268Y-102870283D01*
X118983399Y-102869883D01*
X118998889Y-102869030D01*
X119009166Y-102863080D01*
X119015299Y-102846945D01*
X119018357Y-102815539D01*
X119019411Y-102763772D01*
X119019530Y-102698059D01*
X119019530Y-102526236D01*
X118871129Y-102526236D01*
X118866888Y-102686853D01*
G36*
X117689765Y-102644966D02*
G01*
X117910147Y-102649101D01*
X118130530Y-102653236D01*
X118134933Y-102753421D01*
X118139335Y-102853606D01*
X117921353Y-102862412D01*
X117921353Y-102981942D01*
X118029677Y-102986331D01*
X118138000Y-102990721D01*
X118138000Y-103198589D01*
X117689765Y-103198589D01*
X117689765Y-103318118D01*
X118287412Y-103318118D01*
X118287412Y-102526236D01*
X117689765Y-102526236D01*
X117689765Y-102644966D01*
G37*
X117689765Y-102644966D02*
X117910147Y-102649101D01*
X118130530Y-102653236D01*
X118134933Y-102753421D01*
X118139335Y-102853606D01*
X117921353Y-102862412D01*
X117921353Y-102981942D01*
X118029677Y-102986331D01*
X118138000Y-102990721D01*
X118138000Y-103198589D01*
X117689765Y-103198589D01*
X117689765Y-103318118D01*
X118287412Y-103318118D01*
X118287412Y-102526236D01*
X117689765Y-102526236D01*
X117689765Y-102644966D01*
G36*
X117074388Y-102574795D02*
G01*
X117067144Y-102609023D01*
X117047665Y-102623767D01*
X117021147Y-102628035D01*
X116972589Y-102632717D01*
X116972589Y-102867989D01*
X117021147Y-102872671D01*
X117053445Y-102878831D01*
X117068316Y-102895278D01*
X117074198Y-102931641D01*
X117074344Y-102933383D01*
X117079597Y-102970123D01*
X117092855Y-102985840D01*
X117122829Y-102989384D01*
X117129491Y-102989412D01*
X117173733Y-102995445D01*
X117192675Y-103015133D01*
X117189193Y-103049311D01*
X117172458Y-103071439D01*
X117136552Y-103078952D01*
X117129366Y-103079059D01*
X117096121Y-103081524D01*
X117080887Y-103094817D01*
X117074973Y-103127788D01*
X117074344Y-103135089D01*
X117068623Y-103172319D01*
X117054207Y-103189297D01*
X117022657Y-103195653D01*
X117021147Y-103195800D01*
X116989784Y-103201246D01*
X116976008Y-103215636D01*
X116972644Y-103248352D01*
X116972589Y-103259300D01*
X116972589Y-103318118D01*
X117039824Y-103318118D01*
X117082016Y-103316065D01*
X117101941Y-103307785D01*
X117107057Y-103290100D01*
X117107059Y-103289458D01*
X117113914Y-103243174D01*
X117137261Y-103219451D01*
X117174991Y-103213530D01*
X117207860Y-103211017D01*
X117222942Y-103197583D01*
X117228830Y-103164382D01*
X117229422Y-103157500D01*
X117235176Y-103120239D01*
X117249585Y-103103252D01*
X117280936Y-103096933D01*
X117281737Y-103096855D01*
X117315644Y-103089393D01*
X117330133Y-103069210D01*
X117334031Y-103044561D01*
X117343202Y-103008581D01*
X117365204Y-102993446D01*
X117372265Y-102992108D01*
X117399640Y-102995583D01*
X117406669Y-103007050D01*
X117407308Y-103029923D01*
X117408371Y-103074928D01*
X117409679Y-103134319D01*
X117410404Y-103168706D01*
X117413353Y-103310648D01*
X117484324Y-103315201D01*
X117555295Y-103319755D01*
X117555295Y-102714167D01*
X117409161Y-102714167D01*
X117408847Y-102757824D01*
X117408406Y-102800998D01*
X117407525Y-102832597D01*
X117407282Y-102836806D01*
X117398915Y-102845949D01*
X117372700Y-102851156D01*
X117324508Y-102852847D01*
X117260206Y-102851747D01*
X117114530Y-102847471D01*
X117109812Y-102781434D01*
X117106757Y-102722184D01*
X117110978Y-102683312D01*
X117127359Y-102660526D01*
X117160785Y-102649534D01*
X117216141Y-102646044D01*
X117264226Y-102645765D01*
X117330992Y-102645673D01*
X117373393Y-102648225D01*
X117396905Y-102657663D01*
X117407003Y-102678229D01*
X117409161Y-102714167D01*
X117555295Y-102714167D01*
X117555295Y-102526236D01*
X117079070Y-102526236D01*
X117074388Y-102574795D01*
G37*
X117074388Y-102574795D02*
X117067144Y-102609023D01*
X117047665Y-102623767D01*
X117021147Y-102628035D01*
X116972589Y-102632717D01*
X116972589Y-102867989D01*
X117021147Y-102872671D01*
X117053445Y-102878831D01*
X117068316Y-102895278D01*
X117074198Y-102931641D01*
X117074344Y-102933383D01*
X117079597Y-102970123D01*
X117092855Y-102985840D01*
X117122829Y-102989384D01*
X117129491Y-102989412D01*
X117173733Y-102995445D01*
X117192675Y-103015133D01*
X117189193Y-103049311D01*
X117172458Y-103071439D01*
X117136552Y-103078952D01*
X117129366Y-103079059D01*
X117096121Y-103081524D01*
X117080887Y-103094817D01*
X117074973Y-103127788D01*
X117074344Y-103135089D01*
X117068623Y-103172319D01*
X117054207Y-103189297D01*
X117022657Y-103195653D01*
X117021147Y-103195800D01*
X116989784Y-103201246D01*
X116976008Y-103215636D01*
X116972644Y-103248352D01*
X116972589Y-103259300D01*
X116972589Y-103318118D01*
X117039824Y-103318118D01*
X117082016Y-103316065D01*
X117101941Y-103307785D01*
X117107057Y-103290100D01*
X117107059Y-103289458D01*
X117113914Y-103243174D01*
X117137261Y-103219451D01*
X117174991Y-103213530D01*
X117207860Y-103211017D01*
X117222942Y-103197583D01*
X117228830Y-103164382D01*
X117229422Y-103157500D01*
X117235176Y-103120239D01*
X117249585Y-103103252D01*
X117280936Y-103096933D01*
X117281737Y-103096855D01*
X117315644Y-103089393D01*
X117330133Y-103069210D01*
X117334031Y-103044561D01*
X117343202Y-103008581D01*
X117365204Y-102993446D01*
X117372265Y-102992108D01*
X117399640Y-102995583D01*
X117406669Y-103007050D01*
X117407308Y-103029923D01*
X117408371Y-103074928D01*
X117409679Y-103134319D01*
X117410404Y-103168706D01*
X117413353Y-103310648D01*
X117484324Y-103315201D01*
X117555295Y-103319755D01*
X117555295Y-102714167D01*
X117409161Y-102714167D01*
X117408847Y-102757824D01*
X117408406Y-102800998D01*
X117407525Y-102832597D01*
X117407282Y-102836806D01*
X117398915Y-102845949D01*
X117372700Y-102851156D01*
X117324508Y-102852847D01*
X117260206Y-102851747D01*
X117114530Y-102847471D01*
X117109812Y-102781434D01*
X117106757Y-102722184D01*
X117110978Y-102683312D01*
X117127359Y-102660526D01*
X117160785Y-102649534D01*
X117216141Y-102646044D01*
X117264226Y-102645765D01*
X117330992Y-102645673D01*
X117373393Y-102648225D01*
X117396905Y-102657663D01*
X117407003Y-102678229D01*
X117409161Y-102714167D01*
X117555295Y-102714167D01*
X117555295Y-102526236D01*
X117079070Y-102526236D01*
X117074388Y-102574795D01*
G36*
X115844530Y-103191118D02*
G01*
X115788500Y-103195755D01*
X115752409Y-103200632D01*
X115736528Y-103213419D01*
X115732572Y-103243508D01*
X115732471Y-103259255D01*
X115732471Y-103318118D01*
X116106000Y-103318118D01*
X116106000Y-103258353D01*
X116104417Y-103220088D01*
X116094642Y-103203083D01*
X116069137Y-103198722D01*
X116053706Y-103198589D01*
X116001412Y-103198589D01*
X116001412Y-102765295D01*
X116053706Y-102765295D01*
X116085838Y-102763859D01*
X116101054Y-102754132D01*
X116105678Y-102727979D01*
X116106000Y-102698059D01*
X116104884Y-102656747D01*
X116097318Y-102637184D01*
X116076977Y-102631239D01*
X116053706Y-102630824D01*
X116018657Y-102628511D01*
X116004283Y-102615462D01*
X116001419Y-102582510D01*
X116001412Y-102578530D01*
X116001412Y-102526236D01*
X115852572Y-102526236D01*
X115844530Y-103191118D01*
G37*
X115844530Y-103191118D02*
X115788500Y-103195755D01*
X115752409Y-103200632D01*
X115736528Y-103213419D01*
X115732572Y-103243508D01*
X115732471Y-103259255D01*
X115732471Y-103318118D01*
X116106000Y-103318118D01*
X116106000Y-103258353D01*
X116104417Y-103220088D01*
X116094642Y-103203083D01*
X116069137Y-103198722D01*
X116053706Y-103198589D01*
X116001412Y-103198589D01*
X116001412Y-102765295D01*
X116053706Y-102765295D01*
X116085838Y-102763859D01*
X116101054Y-102754132D01*
X116105678Y-102727979D01*
X116106000Y-102698059D01*
X116104884Y-102656747D01*
X116097318Y-102637184D01*
X116076977Y-102631239D01*
X116053706Y-102630824D01*
X116018657Y-102628511D01*
X116004283Y-102615462D01*
X116001419Y-102582510D01*
X116001412Y-102578530D01*
X116001412Y-102526236D01*
X115852572Y-102526236D01*
X115844530Y-103191118D01*
G36*
X115463530Y-103318118D02*
G01*
X115612942Y-103318118D01*
X115612942Y-103198589D01*
X115463530Y-103198589D01*
X115463530Y-103318118D01*
G37*
X115463530Y-103318118D02*
X115612942Y-103318118D01*
X115612942Y-103198589D01*
X115463530Y-103198589D01*
X115463530Y-103318118D01*
G36*
X114833212Y-102574795D02*
G01*
X114825968Y-102609023D01*
X114806489Y-102623767D01*
X114779971Y-102628035D01*
X114731412Y-102632717D01*
X114731412Y-103213530D01*
X114783706Y-103213530D01*
X114818755Y-103215843D01*
X114833129Y-103228892D01*
X114835994Y-103261844D01*
X114836000Y-103265824D01*
X114836000Y-103318118D01*
X115209530Y-103318118D01*
X115209530Y-103266726D01*
X115211916Y-103232840D01*
X115224978Y-103217346D01*
X115257574Y-103211387D01*
X115265559Y-103210696D01*
X115321589Y-103206059D01*
X115321589Y-103158994D01*
X115179964Y-103158994D01*
X115171895Y-103179186D01*
X115148308Y-103191134D01*
X115104669Y-103196905D01*
X115036443Y-103198566D01*
X115023234Y-103198589D01*
X114880824Y-103198589D01*
X114880824Y-103033197D01*
X114881045Y-102961207D01*
X114882411Y-102914069D01*
X114885974Y-102886752D01*
X114892788Y-102874225D01*
X114903905Y-102871456D01*
X114914442Y-102872579D01*
X114938125Y-102882294D01*
X114949568Y-102908231D01*
X114952644Y-102932499D01*
X114958496Y-102969406D01*
X114973353Y-102986123D01*
X115004938Y-102992264D01*
X115038857Y-102999718D01*
X115053355Y-103019875D01*
X115057266Y-103044592D01*
X115063594Y-103076586D01*
X115080621Y-103091214D01*
X115116907Y-103096886D01*
X115158611Y-103105908D01*
X115176331Y-103125442D01*
X115177052Y-103128491D01*
X115179964Y-103158994D01*
X115321589Y-103158994D01*
X115321589Y-102871966D01*
X115178022Y-102871966D01*
X115176286Y-102924414D01*
X115170375Y-102955730D01*
X115159365Y-102970243D01*
X115142333Y-102972284D01*
X115138604Y-102971670D01*
X115116051Y-102952597D01*
X115104942Y-102914537D01*
X115096115Y-102878518D01*
X115076683Y-102861750D01*
X115045177Y-102854942D01*
X115009290Y-102846325D01*
X114993352Y-102828013D01*
X114988201Y-102798912D01*
X114982076Y-102766197D01*
X114965768Y-102752848D01*
X114931225Y-102750353D01*
X114896429Y-102748278D01*
X114883185Y-102736407D01*
X114883190Y-102706274D01*
X114883613Y-102701795D01*
X114888295Y-102653236D01*
X115172177Y-102653236D01*
X115176507Y-102794056D01*
X115178022Y-102871966D01*
X115321589Y-102871966D01*
X115321589Y-102638295D01*
X115269295Y-102630824D01*
X115233408Y-102622208D01*
X115217470Y-102603895D01*
X115212318Y-102574795D01*
X115207637Y-102526236D01*
X114837894Y-102526236D01*
X114833212Y-102574795D01*
G37*
X114833212Y-102574795D02*
X114825968Y-102609023D01*
X114806489Y-102623767D01*
X114779971Y-102628035D01*
X114731412Y-102632717D01*
X114731412Y-103213530D01*
X114783706Y-103213530D01*
X114818755Y-103215843D01*
X114833129Y-103228892D01*
X114835994Y-103261844D01*
X114836000Y-103265824D01*
X114836000Y-103318118D01*
X115209530Y-103318118D01*
X115209530Y-103266726D01*
X115211916Y-103232840D01*
X115224978Y-103217346D01*
X115257574Y-103211387D01*
X115265559Y-103210696D01*
X115321589Y-103206059D01*
X115321589Y-103158994D01*
X115179964Y-103158994D01*
X115171895Y-103179186D01*
X115148308Y-103191134D01*
X115104669Y-103196905D01*
X115036443Y-103198566D01*
X115023234Y-103198589D01*
X114880824Y-103198589D01*
X114880824Y-103033197D01*
X114881045Y-102961207D01*
X114882411Y-102914069D01*
X114885974Y-102886752D01*
X114892788Y-102874225D01*
X114903905Y-102871456D01*
X114914442Y-102872579D01*
X114938125Y-102882294D01*
X114949568Y-102908231D01*
X114952644Y-102932499D01*
X114958496Y-102969406D01*
X114973353Y-102986123D01*
X115004938Y-102992264D01*
X115038857Y-102999718D01*
X115053355Y-103019875D01*
X115057266Y-103044592D01*
X115063594Y-103076586D01*
X115080621Y-103091214D01*
X115116907Y-103096886D01*
X115158611Y-103105908D01*
X115176331Y-103125442D01*
X115177052Y-103128491D01*
X115179964Y-103158994D01*
X115321589Y-103158994D01*
X115321589Y-102871966D01*
X115178022Y-102871966D01*
X115176286Y-102924414D01*
X115170375Y-102955730D01*
X115159365Y-102970243D01*
X115142333Y-102972284D01*
X115138604Y-102971670D01*
X115116051Y-102952597D01*
X115104942Y-102914537D01*
X115096115Y-102878518D01*
X115076683Y-102861750D01*
X115045177Y-102854942D01*
X115009290Y-102846325D01*
X114993352Y-102828013D01*
X114988201Y-102798912D01*
X114982076Y-102766197D01*
X114965768Y-102752848D01*
X114931225Y-102750353D01*
X114896429Y-102748278D01*
X114883185Y-102736407D01*
X114883190Y-102706274D01*
X114883613Y-102701795D01*
X114888295Y-102653236D01*
X115172177Y-102653236D01*
X115176507Y-102794056D01*
X115178022Y-102871966D01*
X115321589Y-102871966D01*
X115321589Y-102638295D01*
X115269295Y-102630824D01*
X115233408Y-102622208D01*
X115217470Y-102603895D01*
X115212318Y-102574795D01*
X115207637Y-102526236D01*
X114837894Y-102526236D01*
X114833212Y-102574795D01*
G36*
X113398859Y-102574795D02*
G01*
X113391615Y-102609023D01*
X113372136Y-102623767D01*
X113345618Y-102628035D01*
X113297059Y-102632717D01*
X113297059Y-103213530D01*
X113349353Y-103213530D01*
X113384403Y-103215843D01*
X113398776Y-103228892D01*
X113401641Y-103261844D01*
X113401647Y-103265824D01*
X113401647Y-103318118D01*
X113641175Y-103318118D01*
X113734094Y-103317645D01*
X113801117Y-103315996D01*
X113846218Y-103312831D01*
X113873373Y-103307806D01*
X113886555Y-103300579D01*
X113888886Y-103296793D01*
X113893468Y-103265335D01*
X113892153Y-103240764D01*
X113881144Y-103214995D01*
X113852128Y-103201653D01*
X113834942Y-103198589D01*
X113626439Y-103198589D01*
X113445797Y-103198589D01*
X113449869Y-102925912D01*
X113453942Y-102653236D01*
X113618295Y-102653236D01*
X113622367Y-102925912D01*
X113626439Y-103198589D01*
X113834942Y-103198589D01*
X113782647Y-103191118D01*
X113782647Y-102653236D01*
X113834942Y-102645765D01*
X113869715Y-102637876D01*
X113885585Y-102620939D01*
X113891660Y-102584794D01*
X113891873Y-102582265D01*
X113896510Y-102526236D01*
X113403541Y-102526236D01*
X113398859Y-102574795D01*
G37*
X113398859Y-102574795D02*
X113391615Y-102609023D01*
X113372136Y-102623767D01*
X113345618Y-102628035D01*
X113297059Y-102632717D01*
X113297059Y-103213530D01*
X113349353Y-103213530D01*
X113384403Y-103215843D01*
X113398776Y-103228892D01*
X113401641Y-103261844D01*
X113401647Y-103265824D01*
X113401647Y-103318118D01*
X113641175Y-103318118D01*
X113734094Y-103317645D01*
X113801117Y-103315996D01*
X113846218Y-103312831D01*
X113873373Y-103307806D01*
X113886555Y-103300579D01*
X113888886Y-103296793D01*
X113893468Y-103265335D01*
X113892153Y-103240764D01*
X113881144Y-103214995D01*
X113852128Y-103201653D01*
X113834942Y-103198589D01*
X113626439Y-103198589D01*
X113445797Y-103198589D01*
X113449869Y-102925912D01*
X113453942Y-102653236D01*
X113618295Y-102653236D01*
X113622367Y-102925912D01*
X113626439Y-103198589D01*
X113834942Y-103198589D01*
X113782647Y-103191118D01*
X113782647Y-102653236D01*
X113834942Y-102645765D01*
X113869715Y-102637876D01*
X113885585Y-102620939D01*
X113891660Y-102584794D01*
X113891873Y-102582265D01*
X113896510Y-102526236D01*
X113403541Y-102526236D01*
X113398859Y-102574795D01*
G36*
X112564942Y-102644966D02*
G01*
X113005706Y-102653236D01*
X113014512Y-102853606D01*
X112796530Y-102862412D01*
X112796530Y-102981942D01*
X112904853Y-102986331D01*
X113013177Y-102990721D01*
X113013177Y-103198589D01*
X112564942Y-103198589D01*
X112564942Y-103318118D01*
X113162589Y-103318118D01*
X113162589Y-102526236D01*
X112564942Y-102526236D01*
X112564942Y-102644966D01*
G37*
X112564942Y-102644966D02*
X113005706Y-102653236D01*
X113014512Y-102853606D01*
X112796530Y-102862412D01*
X112796530Y-102981942D01*
X112904853Y-102986331D01*
X113013177Y-102990721D01*
X113013177Y-103198589D01*
X112564942Y-103198589D01*
X112564942Y-103318118D01*
X113162589Y-103318118D01*
X113162589Y-102526236D01*
X112564942Y-102526236D01*
X112564942Y-102644966D01*
G36*
X111949565Y-102574795D02*
G01*
X111942321Y-102609023D01*
X111922842Y-102623767D01*
X111896324Y-102628035D01*
X111866287Y-102632889D01*
X111852185Y-102645588D01*
X111848008Y-102674914D01*
X111847765Y-102699006D01*
X111847765Y-102765295D01*
X111915000Y-102765295D01*
X111956408Y-102763873D01*
X111976060Y-102756317D01*
X111982059Y-102737692D01*
X111982465Y-102724206D01*
X111985020Y-102688409D01*
X111995693Y-102665435D01*
X112019713Y-102652792D01*
X112062310Y-102647984D01*
X112128713Y-102648518D01*
X112140382Y-102648883D01*
X112273589Y-102653236D01*
X112282425Y-102854942D01*
X111954157Y-102854942D01*
X111949520Y-102910971D01*
X111943799Y-102948201D01*
X111929383Y-102965179D01*
X111897833Y-102971535D01*
X111896324Y-102971682D01*
X111847765Y-102976364D01*
X111847765Y-103211637D01*
X111896324Y-103216318D01*
X111930553Y-103223562D01*
X111945296Y-103243042D01*
X111949565Y-103269559D01*
X111954247Y-103318118D01*
X112323989Y-103318118D01*
X112328671Y-103269559D01*
X112335915Y-103235330D01*
X112355395Y-103220587D01*
X112381912Y-103216318D01*
X112411815Y-103211521D01*
X112425946Y-103198982D01*
X112430202Y-103169981D01*
X112430471Y-103144529D01*
X112430471Y-103077422D01*
X112359500Y-103081976D01*
X112316637Y-103085876D01*
X112295188Y-103094839D01*
X112286734Y-103115612D01*
X112283893Y-103142559D01*
X112279255Y-103198589D01*
X112138501Y-103198589D01*
X112067136Y-103197595D01*
X112020753Y-103191730D01*
X111994456Y-103176667D01*
X111983349Y-103148079D01*
X111982536Y-103101640D01*
X111984988Y-103062920D01*
X111989706Y-102996883D01*
X112156921Y-102992666D01*
X112324136Y-102988450D01*
X112328745Y-102932902D01*
X112334519Y-102895864D01*
X112349177Y-102879033D01*
X112381258Y-102872735D01*
X112381912Y-102872671D01*
X112430471Y-102867989D01*
X112430471Y-102632717D01*
X112381912Y-102628035D01*
X112347683Y-102620791D01*
X112332940Y-102601312D01*
X112328671Y-102574795D01*
X112323989Y-102526236D01*
X111954247Y-102526236D01*
X111949565Y-102574795D01*
G37*
X111949565Y-102574795D02*
X111942321Y-102609023D01*
X111922842Y-102623767D01*
X111896324Y-102628035D01*
X111866287Y-102632889D01*
X111852185Y-102645588D01*
X111848008Y-102674914D01*
X111847765Y-102699006D01*
X111847765Y-102765295D01*
X111915000Y-102765295D01*
X111956408Y-102763873D01*
X111976060Y-102756317D01*
X111982059Y-102737692D01*
X111982465Y-102724206D01*
X111985020Y-102688409D01*
X111995693Y-102665435D01*
X112019713Y-102652792D01*
X112062310Y-102647984D01*
X112128713Y-102648518D01*
X112140382Y-102648883D01*
X112273589Y-102653236D01*
X112282425Y-102854942D01*
X111954157Y-102854942D01*
X111949520Y-102910971D01*
X111943799Y-102948201D01*
X111929383Y-102965179D01*
X111897833Y-102971535D01*
X111896324Y-102971682D01*
X111847765Y-102976364D01*
X111847765Y-103211637D01*
X111896324Y-103216318D01*
X111930553Y-103223562D01*
X111945296Y-103243042D01*
X111949565Y-103269559D01*
X111954247Y-103318118D01*
X112323989Y-103318118D01*
X112328671Y-103269559D01*
X112335915Y-103235330D01*
X112355395Y-103220587D01*
X112381912Y-103216318D01*
X112411815Y-103211521D01*
X112425946Y-103198982D01*
X112430202Y-103169981D01*
X112430471Y-103144529D01*
X112430471Y-103077422D01*
X112359500Y-103081976D01*
X112316637Y-103085876D01*
X112295188Y-103094839D01*
X112286734Y-103115612D01*
X112283893Y-103142559D01*
X112279255Y-103198589D01*
X112138501Y-103198589D01*
X112067136Y-103197595D01*
X112020753Y-103191730D01*
X111994456Y-103176667D01*
X111983349Y-103148079D01*
X111982536Y-103101640D01*
X111984988Y-103062920D01*
X111989706Y-102996883D01*
X112156921Y-102992666D01*
X112324136Y-102988450D01*
X112328745Y-102932902D01*
X112334519Y-102895864D01*
X112349177Y-102879033D01*
X112381258Y-102872735D01*
X112381912Y-102872671D01*
X112430471Y-102867989D01*
X112430471Y-102632717D01*
X112381912Y-102628035D01*
X112347683Y-102620791D01*
X112332940Y-102601312D01*
X112328671Y-102574795D01*
X112323989Y-102526236D01*
X111954247Y-102526236D01*
X111949565Y-102574795D01*
G36*
X111339765Y-102585054D02*
G01*
X111341765Y-102623236D01*
X111352548Y-102640962D01*
X111379290Y-102647616D01*
X111388324Y-102648554D01*
X111436883Y-102653236D01*
X111440955Y-102925912D01*
X111445027Y-103198589D01*
X111392396Y-103198589D01*
X111358699Y-103200378D01*
X111343725Y-103211491D01*
X111339884Y-103240543D01*
X111339765Y-103258353D01*
X111339765Y-103318118D01*
X111713295Y-103318118D01*
X111713295Y-103259255D01*
X111711496Y-103221189D01*
X111700576Y-103203602D01*
X111672246Y-103197101D01*
X111657265Y-103195755D01*
X111601236Y-103191118D01*
X111597157Y-102926283D01*
X111593079Y-102661448D01*
X111634510Y-102652359D01*
X111680053Y-102640931D01*
X111703493Y-102628015D01*
X111712132Y-102606810D01*
X111713295Y-102578999D01*
X111713295Y-102526236D01*
X111339765Y-102526236D01*
X111339765Y-102585054D01*
G37*
X111339765Y-102585054D02*
X111341765Y-102623236D01*
X111352548Y-102640962D01*
X111379290Y-102647616D01*
X111388324Y-102648554D01*
X111436883Y-102653236D01*
X111440955Y-102925912D01*
X111445027Y-103198589D01*
X111392396Y-103198589D01*
X111358699Y-103200378D01*
X111343725Y-103211491D01*
X111339884Y-103240543D01*
X111339765Y-103258353D01*
X111339765Y-103318118D01*
X111713295Y-103318118D01*
X111713295Y-103259255D01*
X111711496Y-103221189D01*
X111700576Y-103203602D01*
X111672246Y-103197101D01*
X111657265Y-103195755D01*
X111601236Y-103191118D01*
X111597157Y-102926283D01*
X111593079Y-102661448D01*
X111634510Y-102652359D01*
X111680053Y-102640931D01*
X111703493Y-102628015D01*
X111712132Y-102606810D01*
X111713295Y-102578999D01*
X111713295Y-102526236D01*
X111339765Y-102526236D01*
X111339765Y-102585054D01*
G36*
X110709447Y-102574795D02*
G01*
X110702454Y-102608346D01*
X110683657Y-102624191D01*
X110652471Y-102630824D01*
X110618883Y-102637857D01*
X110604007Y-102652461D01*
X110600263Y-102684383D01*
X110600177Y-102698059D01*
X110600177Y-102757824D01*
X110740221Y-102766854D01*
X110749589Y-102653236D01*
X111033471Y-102653236D01*
X111037545Y-102926457D01*
X111041620Y-103199679D01*
X110895604Y-103195399D01*
X110749589Y-103191118D01*
X110749589Y-103146295D01*
X110752583Y-103116564D01*
X110767417Y-103102737D01*
X110802870Y-103097065D01*
X110805618Y-103096834D01*
X110841585Y-103092005D01*
X110857502Y-103079355D01*
X110861533Y-103049545D01*
X110861647Y-103032752D01*
X110861647Y-102973308D01*
X110600177Y-102981942D01*
X110600177Y-103206059D01*
X110652471Y-103213530D01*
X110688358Y-103222146D01*
X110704296Y-103240459D01*
X110709447Y-103269559D01*
X110714129Y-103318118D01*
X111087677Y-103318118D01*
X111082986Y-103269559D01*
X111082145Y-103237612D01*
X111093383Y-103222944D01*
X111124773Y-103217192D01*
X111134324Y-103216363D01*
X111190353Y-103211726D01*
X111190353Y-102632717D01*
X111141795Y-102628035D01*
X111107566Y-102620791D01*
X111092822Y-102601312D01*
X111088554Y-102574795D01*
X111083872Y-102526236D01*
X110714129Y-102526236D01*
X110709447Y-102574795D01*
G37*
X110709447Y-102574795D02*
X110702454Y-102608346D01*
X110683657Y-102624191D01*
X110652471Y-102630824D01*
X110618883Y-102637857D01*
X110604007Y-102652461D01*
X110600263Y-102684383D01*
X110600177Y-102698059D01*
X110600177Y-102757824D01*
X110740221Y-102766854D01*
X110749589Y-102653236D01*
X111033471Y-102653236D01*
X111037545Y-102926457D01*
X111041620Y-103199679D01*
X110895604Y-103195399D01*
X110749589Y-103191118D01*
X110749589Y-103146295D01*
X110752583Y-103116564D01*
X110767417Y-103102737D01*
X110802870Y-103097065D01*
X110805618Y-103096834D01*
X110841585Y-103092005D01*
X110857502Y-103079355D01*
X110861533Y-103049545D01*
X110861647Y-103032752D01*
X110861647Y-102973308D01*
X110600177Y-102981942D01*
X110600177Y-103206059D01*
X110652471Y-103213530D01*
X110688358Y-103222146D01*
X110704296Y-103240459D01*
X110709447Y-103269559D01*
X110714129Y-103318118D01*
X111087677Y-103318118D01*
X111082986Y-103269559D01*
X111082145Y-103237612D01*
X111093383Y-103222944D01*
X111124773Y-103217192D01*
X111134324Y-103216363D01*
X111190353Y-103211726D01*
X111190353Y-102632717D01*
X111141795Y-102628035D01*
X111107566Y-102620791D01*
X111092822Y-102601312D01*
X111088554Y-102574795D01*
X111083872Y-102526236D01*
X110714129Y-102526236D01*
X110709447Y-102574795D01*
G36*
X110320684Y-102634559D02*
G01*
X110316295Y-102742883D01*
X110260265Y-102747520D01*
X110223537Y-102752748D01*
X110207823Y-102766030D01*
X110204268Y-102796222D01*
X110204236Y-102803549D01*
X110201863Y-102838000D01*
X110188639Y-102852130D01*
X110155408Y-102854937D01*
X110151942Y-102854942D01*
X110116881Y-102857289D01*
X110102501Y-102870244D01*
X110099652Y-102902678D01*
X110099647Y-102905637D01*
X110090467Y-102949829D01*
X110062071Y-102971563D01*
X110038661Y-102974471D01*
X110033750Y-102960332D01*
X110029659Y-102921115D01*
X110026682Y-102861618D01*
X110025111Y-102786641D01*
X110024942Y-102750353D01*
X110024942Y-102526236D01*
X109875530Y-102526236D01*
X109875530Y-103318118D01*
X110024942Y-103318118D01*
X110024942Y-103094000D01*
X110076289Y-103094000D01*
X110111389Y-103091102D01*
X110126824Y-103076583D01*
X110132318Y-103045442D01*
X110139312Y-103011891D01*
X110158108Y-102996045D01*
X110189295Y-102989412D01*
X110225418Y-102980608D01*
X110242223Y-102961239D01*
X110249059Y-102929648D01*
X110258869Y-102892546D01*
X110277062Y-102878245D01*
X110286412Y-102877353D01*
X110298014Y-102878955D01*
X110306285Y-102886741D01*
X110311918Y-102905182D01*
X110315601Y-102938748D01*
X110318025Y-102991909D01*
X110319879Y-103069136D01*
X110320429Y-103097736D01*
X110324564Y-103318118D01*
X110458236Y-103318118D01*
X110458236Y-102526236D01*
X110325074Y-102526236D01*
X110320684Y-102634559D01*
G37*
X110320684Y-102634559D02*
X110316295Y-102742883D01*
X110260265Y-102747520D01*
X110223537Y-102752748D01*
X110207823Y-102766030D01*
X110204268Y-102796222D01*
X110204236Y-102803549D01*
X110201863Y-102838000D01*
X110188639Y-102852130D01*
X110155408Y-102854937D01*
X110151942Y-102854942D01*
X110116881Y-102857289D01*
X110102501Y-102870244D01*
X110099652Y-102902678D01*
X110099647Y-102905637D01*
X110090467Y-102949829D01*
X110062071Y-102971563D01*
X110038661Y-102974471D01*
X110033750Y-102960332D01*
X110029659Y-102921115D01*
X110026682Y-102861618D01*
X110025111Y-102786641D01*
X110024942Y-102750353D01*
X110024942Y-102526236D01*
X109875530Y-102526236D01*
X109875530Y-103318118D01*
X110024942Y-103318118D01*
X110024942Y-103094000D01*
X110076289Y-103094000D01*
X110111389Y-103091102D01*
X110126824Y-103076583D01*
X110132318Y-103045442D01*
X110139312Y-103011891D01*
X110158108Y-102996045D01*
X110189295Y-102989412D01*
X110225418Y-102980608D01*
X110242223Y-102961239D01*
X110249059Y-102929648D01*
X110258869Y-102892546D01*
X110277062Y-102878245D01*
X110286412Y-102877353D01*
X110298014Y-102878955D01*
X110306285Y-102886741D01*
X110311918Y-102905182D01*
X110315601Y-102938748D01*
X110318025Y-102991909D01*
X110319879Y-103069136D01*
X110320429Y-103097736D01*
X110324564Y-103318118D01*
X110458236Y-103318118D01*
X110458236Y-102526236D01*
X110325074Y-102526236D01*
X110320684Y-102634559D01*
G36*
X109143412Y-102644966D02*
G01*
X109363795Y-102649101D01*
X109584177Y-102653236D01*
X109588580Y-102753421D01*
X109592982Y-102853606D01*
X109375000Y-102862412D01*
X109365812Y-102989412D01*
X109593013Y-102989412D01*
X109584177Y-103191118D01*
X109363795Y-103195253D01*
X109143412Y-103199388D01*
X109143412Y-103318118D01*
X109741059Y-103318118D01*
X109741059Y-102526236D01*
X109143412Y-102526236D01*
X109143412Y-102644966D01*
G37*
X109143412Y-102644966D02*
X109363795Y-102649101D01*
X109584177Y-102653236D01*
X109588580Y-102753421D01*
X109592982Y-102853606D01*
X109375000Y-102862412D01*
X109365812Y-102989412D01*
X109593013Y-102989412D01*
X109584177Y-103191118D01*
X109363795Y-103195253D01*
X109143412Y-103199388D01*
X109143412Y-103318118D01*
X109741059Y-103318118D01*
X109741059Y-102526236D01*
X109143412Y-102526236D01*
X109143412Y-102644966D01*
G36*
X108528035Y-102574795D02*
G01*
X108521042Y-102608346D01*
X108502246Y-102624191D01*
X108471059Y-102630824D01*
X108418765Y-102638295D01*
X108418765Y-103206059D01*
X108471059Y-103213530D01*
X108506946Y-103222146D01*
X108522884Y-103240459D01*
X108528035Y-103269559D01*
X108532717Y-103318118D01*
X109008942Y-103318118D01*
X109008942Y-103259300D01*
X109006942Y-103221118D01*
X108996159Y-103203391D01*
X108969417Y-103196738D01*
X108960383Y-103195800D01*
X108911824Y-103191118D01*
X108911824Y-102991763D01*
X108752509Y-102991763D01*
X108752476Y-103067100D01*
X108751555Y-103127321D01*
X108749813Y-103167046D01*
X108748027Y-103180115D01*
X108732106Y-103192130D01*
X108693896Y-103196539D01*
X108654269Y-103195604D01*
X108568177Y-103191118D01*
X108568177Y-102653236D01*
X108747471Y-102653236D01*
X108751582Y-102906687D01*
X108752509Y-102991763D01*
X108911824Y-102991763D01*
X108911824Y-102653236D01*
X108960383Y-102648554D01*
X108991746Y-102643107D01*
X109005522Y-102628718D01*
X109008886Y-102596002D01*
X109008942Y-102585054D01*
X109008942Y-102526236D01*
X108532717Y-102526236D01*
X108528035Y-102574795D01*
G37*
X108528035Y-102574795D02*
X108521042Y-102608346D01*
X108502246Y-102624191D01*
X108471059Y-102630824D01*
X108418765Y-102638295D01*
X108418765Y-103206059D01*
X108471059Y-103213530D01*
X108506946Y-103222146D01*
X108522884Y-103240459D01*
X108528035Y-103269559D01*
X108532717Y-103318118D01*
X109008942Y-103318118D01*
X109008942Y-103259300D01*
X109006942Y-103221118D01*
X108996159Y-103203391D01*
X108969417Y-103196738D01*
X108960383Y-103195800D01*
X108911824Y-103191118D01*
X108911824Y-102991763D01*
X108752509Y-102991763D01*
X108752476Y-103067100D01*
X108751555Y-103127321D01*
X108749813Y-103167046D01*
X108748027Y-103180115D01*
X108732106Y-103192130D01*
X108693896Y-103196539D01*
X108654269Y-103195604D01*
X108568177Y-103191118D01*
X108568177Y-102653236D01*
X108747471Y-102653236D01*
X108751582Y-102906687D01*
X108752509Y-102991763D01*
X108911824Y-102991763D01*
X108911824Y-102653236D01*
X108960383Y-102648554D01*
X108991746Y-102643107D01*
X109005522Y-102628718D01*
X109008886Y-102596002D01*
X109008942Y-102585054D01*
X109008942Y-102526236D01*
X108532717Y-102526236D01*
X108528035Y-102574795D01*
G36*
X107066589Y-102578530D02*
G01*
X107064276Y-102613579D01*
X107051226Y-102627953D01*
X107018275Y-102630817D01*
X107014295Y-102630824D01*
X106962000Y-102630824D01*
X106962000Y-102867989D01*
X107010559Y-102872671D01*
X107044210Y-102879409D01*
X107057268Y-102896848D01*
X107059118Y-102922177D01*
X107055334Y-102953604D01*
X107037806Y-102967347D01*
X107010559Y-102971682D01*
X106962000Y-102976364D01*
X106962000Y-103213530D01*
X107013348Y-103213530D01*
X107048448Y-103216429D01*
X107063882Y-103230947D01*
X107069377Y-103262089D01*
X107074059Y-103310648D01*
X107559647Y-103318858D01*
X107559647Y-103258723D01*
X107558100Y-103220305D01*
X107548444Y-103203172D01*
X107530830Y-103200080D01*
X107290706Y-103200080D01*
X107204795Y-103195599D01*
X107118883Y-103191118D01*
X107118883Y-102996883D01*
X107204795Y-102992402D01*
X107290706Y-102987921D01*
X107290706Y-103200080D01*
X107530830Y-103200080D01*
X107523161Y-103198734D01*
X107507016Y-103198589D01*
X107454385Y-103198589D01*
X107458458Y-102925912D01*
X107459517Y-102854942D01*
X107290706Y-102854942D01*
X107110047Y-102854942D01*
X107118883Y-102653236D01*
X107204795Y-102648755D01*
X107290706Y-102644274D01*
X107290706Y-102854942D01*
X107459517Y-102854942D01*
X107462530Y-102653236D01*
X107511089Y-102648554D01*
X107542452Y-102643107D01*
X107556228Y-102628718D01*
X107559592Y-102596002D01*
X107559647Y-102585054D01*
X107559647Y-102526236D01*
X107066589Y-102526236D01*
X107066589Y-102578530D01*
G37*
X107066589Y-102578530D02*
X107064276Y-102613579D01*
X107051226Y-102627953D01*
X107018275Y-102630817D01*
X107014295Y-102630824D01*
X106962000Y-102630824D01*
X106962000Y-102867989D01*
X107010559Y-102872671D01*
X107044210Y-102879409D01*
X107057268Y-102896848D01*
X107059118Y-102922177D01*
X107055334Y-102953604D01*
X107037806Y-102967347D01*
X107010559Y-102971682D01*
X106962000Y-102976364D01*
X106962000Y-103213530D01*
X107013348Y-103213530D01*
X107048448Y-103216429D01*
X107063882Y-103230947D01*
X107069377Y-103262089D01*
X107074059Y-103310648D01*
X107559647Y-103318858D01*
X107559647Y-103258723D01*
X107558100Y-103220305D01*
X107548444Y-103203172D01*
X107530830Y-103200080D01*
X107290706Y-103200080D01*
X107204795Y-103195599D01*
X107118883Y-103191118D01*
X107118883Y-102996883D01*
X107204795Y-102992402D01*
X107290706Y-102987921D01*
X107290706Y-103200080D01*
X107530830Y-103200080D01*
X107523161Y-103198734D01*
X107507016Y-103198589D01*
X107454385Y-103198589D01*
X107458458Y-102925912D01*
X107459517Y-102854942D01*
X107290706Y-102854942D01*
X107110047Y-102854942D01*
X107118883Y-102653236D01*
X107204795Y-102648755D01*
X107290706Y-102644274D01*
X107290706Y-102854942D01*
X107459517Y-102854942D01*
X107462530Y-102653236D01*
X107511089Y-102648554D01*
X107542452Y-102643107D01*
X107556228Y-102628718D01*
X107559592Y-102596002D01*
X107559647Y-102585054D01*
X107559647Y-102526236D01*
X107066589Y-102526236D01*
X107066589Y-102578530D01*
G36*
X106675037Y-102634559D02*
G01*
X106670647Y-102742883D01*
X106622970Y-102747499D01*
X106589062Y-102754961D01*
X106574573Y-102775144D01*
X106570676Y-102799793D01*
X106561505Y-102835773D01*
X106539503Y-102850908D01*
X106532442Y-102852245D01*
X106509955Y-102851620D01*
X106500552Y-102835802D01*
X106498824Y-102803687D01*
X106496600Y-102768168D01*
X106484180Y-102753418D01*
X106452941Y-102750365D01*
X106448128Y-102750353D01*
X106415365Y-102747159D01*
X106394915Y-102733897D01*
X106383982Y-102705051D01*
X106379765Y-102655102D01*
X106379295Y-102614661D01*
X106379295Y-102526236D01*
X106244824Y-102526236D01*
X106244824Y-102763401D01*
X106293383Y-102768083D01*
X106327652Y-102775366D01*
X106342400Y-102794821D01*
X106346558Y-102820443D01*
X106354019Y-102854350D01*
X106374203Y-102868839D01*
X106398852Y-102872737D01*
X106446530Y-102877353D01*
X106454000Y-103094000D01*
X106461471Y-103310648D01*
X106532442Y-103315201D01*
X106603412Y-103319755D01*
X106603412Y-103112748D01*
X106604078Y-103022292D01*
X106606976Y-102957480D01*
X106613457Y-102914087D01*
X106624874Y-102887888D01*
X106642578Y-102874659D01*
X106667921Y-102870175D01*
X106681106Y-102869883D01*
X106709266Y-102866635D01*
X106720813Y-102850904D01*
X106722942Y-102817589D01*
X106725255Y-102782540D01*
X106738304Y-102768166D01*
X106771255Y-102765301D01*
X106775236Y-102765295D01*
X106827530Y-102765295D01*
X106827530Y-102526236D01*
X106679427Y-102526236D01*
X106675037Y-102634559D01*
G37*
X106675037Y-102634559D02*
X106670647Y-102742883D01*
X106622970Y-102747499D01*
X106589062Y-102754961D01*
X106574573Y-102775144D01*
X106570676Y-102799793D01*
X106561505Y-102835773D01*
X106539503Y-102850908D01*
X106532442Y-102852245D01*
X106509955Y-102851620D01*
X106500552Y-102835802D01*
X106498824Y-102803687D01*
X106496600Y-102768168D01*
X106484180Y-102753418D01*
X106452941Y-102750365D01*
X106448128Y-102750353D01*
X106415365Y-102747159D01*
X106394915Y-102733897D01*
X106383982Y-102705051D01*
X106379765Y-102655102D01*
X106379295Y-102614661D01*
X106379295Y-102526236D01*
X106244824Y-102526236D01*
X106244824Y-102763401D01*
X106293383Y-102768083D01*
X106327652Y-102775366D01*
X106342400Y-102794821D01*
X106346558Y-102820443D01*
X106354019Y-102854350D01*
X106374203Y-102868839D01*
X106398852Y-102872737D01*
X106446530Y-102877353D01*
X106454000Y-103094000D01*
X106461471Y-103310648D01*
X106532442Y-103315201D01*
X106603412Y-103319755D01*
X106603412Y-103112748D01*
X106604078Y-103022292D01*
X106606976Y-102957480D01*
X106613457Y-102914087D01*
X106624874Y-102887888D01*
X106642578Y-102874659D01*
X106667921Y-102870175D01*
X106681106Y-102869883D01*
X106709266Y-102866635D01*
X106720813Y-102850904D01*
X106722942Y-102817589D01*
X106725255Y-102782540D01*
X106738304Y-102768166D01*
X106771255Y-102765301D01*
X106775236Y-102765295D01*
X106827530Y-102765295D01*
X106827530Y-102526236D01*
X106679427Y-102526236D01*
X106675037Y-102634559D01*
%TD*%
M02*
