%TF.GenerationSoftware,KiCad,Pcbnew,(5.1.6-0-10_14)*%
%TF.CreationDate,2021-01-13T21:17:16+08:00*%
%TF.ProjectId,Zeeuss,5a656575-7373-42e6-9b69-6361645f7063,rev?*%
%TF.SameCoordinates,Original*%
%TF.FileFunction,Copper,L1,Top*%
%TF.FilePolarity,Positive*%
%FSLAX46Y46*%
G04 Gerber Fmt 4.6, Leading zero omitted, Abs format (unit mm)*
G04 Created by KiCad (PCBNEW (5.1.6-0-10_14)) date 2021-01-13 21:17:16*
%MOMM*%
%LPD*%
G01*
G04 APERTURE LIST*
%TA.AperFunction,SMDPad,CuDef*%
%ADD10R,2.290000X3.000000*%
%TD*%
%TA.AperFunction,SMDPad,CuDef*%
%ADD11R,2.410000X3.300000*%
%TD*%
%TA.AperFunction,SMDPad,CuDef*%
%ADD12R,1.700000X0.900000*%
%TD*%
%TA.AperFunction,SMDPad,CuDef*%
%ADD13R,2.700000X2.200000*%
%TD*%
%TA.AperFunction,ViaPad*%
%ADD14C,0.800000*%
%TD*%
%TA.AperFunction,Conductor*%
%ADD15C,0.350000*%
%TD*%
%TA.AperFunction,Conductor*%
%ADD16C,0.300000*%
%TD*%
%TA.AperFunction,Conductor*%
%ADD17C,0.200000*%
%TD*%
G04 APERTURE END LIST*
%TO.P,REF\u002A\u002A,5*%
%TO.N,+BATT*%
%TA.AperFunction,SMDPad,CuDef*%
G36*
G01*
X119750000Y-111500000D02*
X118750000Y-111500000D01*
G75*
G02*
X118500000Y-111250000I0J250000D01*
G01*
X118500000Y-110750000D01*
G75*
G02*
X118750000Y-110500000I250000J0D01*
G01*
X119750000Y-110500000D01*
G75*
G02*
X120000000Y-110750000I0J-250000D01*
G01*
X120000000Y-111250000D01*
G75*
G02*
X119750000Y-111500000I-250000J0D01*
G01*
G37*
%TD.AperFunction*%
%TD*%
%TO.P,REF\u002A\u002A,1*%
%TO.N,Earth*%
%TA.AperFunction,SMDPad,CuDef*%
G36*
G01*
X119750000Y-117500000D02*
X118750000Y-117500000D01*
G75*
G02*
X118500000Y-117250000I0J250000D01*
G01*
X118500000Y-116750000D01*
G75*
G02*
X118750000Y-116500000I250000J0D01*
G01*
X119750000Y-116500000D01*
G75*
G02*
X120000000Y-116750000I0J-250000D01*
G01*
X120000000Y-117250000D01*
G75*
G02*
X119750000Y-117500000I-250000J0D01*
G01*
G37*
%TD.AperFunction*%
%TD*%
%TO.P,REF\u002A\u002A,2*%
%TO.N,VBUS*%
%TA.AperFunction,SMDPad,CuDef*%
G36*
G01*
X119750000Y-116000000D02*
X118750000Y-116000000D01*
G75*
G02*
X118500000Y-115750000I0J250000D01*
G01*
X118500000Y-115250000D01*
G75*
G02*
X118750000Y-115000000I250000J0D01*
G01*
X119750000Y-115000000D01*
G75*
G02*
X120000000Y-115250000I0J-250000D01*
G01*
X120000000Y-115750000D01*
G75*
G02*
X119750000Y-116000000I-250000J0D01*
G01*
G37*
%TD.AperFunction*%
%TD*%
%TO.P,REF\u002A\u002A,3*%
%TO.N,+3V3*%
%TA.AperFunction,SMDPad,CuDef*%
G36*
G01*
X119750000Y-114500000D02*
X118750000Y-114500000D01*
G75*
G02*
X118500000Y-114250000I0J250000D01*
G01*
X118500000Y-113750000D01*
G75*
G02*
X118750000Y-113500000I250000J0D01*
G01*
X119750000Y-113500000D01*
G75*
G02*
X120000000Y-113750000I0J-250000D01*
G01*
X120000000Y-114250000D01*
G75*
G02*
X119750000Y-114500000I-250000J0D01*
G01*
G37*
%TD.AperFunction*%
%TD*%
%TO.P,REF\u002A\u002A,4*%
%TO.N,+5V*%
%TA.AperFunction,SMDPad,CuDef*%
G36*
G01*
X119750000Y-113000000D02*
X118750000Y-113000000D01*
G75*
G02*
X118500000Y-112750000I0J250000D01*
G01*
X118500000Y-112250000D01*
G75*
G02*
X118750000Y-112000000I250000J0D01*
G01*
X119750000Y-112000000D01*
G75*
G02*
X120000000Y-112250000I0J-250000D01*
G01*
X120000000Y-112750000D01*
G75*
G02*
X119750000Y-113000000I-250000J0D01*
G01*
G37*
%TD.AperFunction*%
%TD*%
%TO.P,C12,2*%
%TO.N,Earth*%
%TA.AperFunction,SMDPad,CuDef*%
G36*
G01*
X117037500Y-109300000D02*
X116562500Y-109300000D01*
G75*
G02*
X116325000Y-109062500I0J237500D01*
G01*
X116325000Y-108487500D01*
G75*
G02*
X116562500Y-108250000I237500J0D01*
G01*
X117037500Y-108250000D01*
G75*
G02*
X117275000Y-108487500I0J-237500D01*
G01*
X117275000Y-109062500D01*
G75*
G02*
X117037500Y-109300000I-237500J0D01*
G01*
G37*
%TD.AperFunction*%
%TO.P,C12,1*%
%TO.N,+3V3*%
%TA.AperFunction,SMDPad,CuDef*%
G36*
G01*
X117037500Y-111050000D02*
X116562500Y-111050000D01*
G75*
G02*
X116325000Y-110812500I0J237500D01*
G01*
X116325000Y-110237500D01*
G75*
G02*
X116562500Y-110000000I237500J0D01*
G01*
X117037500Y-110000000D01*
G75*
G02*
X117275000Y-110237500I0J-237500D01*
G01*
X117275000Y-110812500D01*
G75*
G02*
X117037500Y-111050000I-237500J0D01*
G01*
G37*
%TD.AperFunction*%
%TD*%
%TO.P,C11,2*%
%TO.N,Earth*%
%TA.AperFunction,SMDPad,CuDef*%
G36*
G01*
X113625000Y-111504170D02*
X113625000Y-111979170D01*
G75*
G02*
X113387500Y-112216670I-237500J0D01*
G01*
X112812500Y-112216670D01*
G75*
G02*
X112575000Y-111979170I0J237500D01*
G01*
X112575000Y-111504170D01*
G75*
G02*
X112812500Y-111266670I237500J0D01*
G01*
X113387500Y-111266670D01*
G75*
G02*
X113625000Y-111504170I0J-237500D01*
G01*
G37*
%TD.AperFunction*%
%TO.P,C11,1*%
%TO.N,+3V3*%
%TA.AperFunction,SMDPad,CuDef*%
G36*
G01*
X115375000Y-111504170D02*
X115375000Y-111979170D01*
G75*
G02*
X115137500Y-112216670I-237500J0D01*
G01*
X114562500Y-112216670D01*
G75*
G02*
X114325000Y-111979170I0J237500D01*
G01*
X114325000Y-111504170D01*
G75*
G02*
X114562500Y-111266670I237500J0D01*
G01*
X115137500Y-111266670D01*
G75*
G02*
X115375000Y-111504170I0J-237500D01*
G01*
G37*
%TD.AperFunction*%
%TD*%
%TO.P,C10,2*%
%TO.N,Earth*%
%TA.AperFunction,SMDPad,CuDef*%
G36*
G01*
X115162500Y-114800000D02*
X115637500Y-114800000D01*
G75*
G02*
X115875000Y-115037500I0J-237500D01*
G01*
X115875000Y-115612500D01*
G75*
G02*
X115637500Y-115850000I-237500J0D01*
G01*
X115162500Y-115850000D01*
G75*
G02*
X114925000Y-115612500I0J237500D01*
G01*
X114925000Y-115037500D01*
G75*
G02*
X115162500Y-114800000I237500J0D01*
G01*
G37*
%TD.AperFunction*%
%TO.P,C10,1*%
%TO.N,+3V3*%
%TA.AperFunction,SMDPad,CuDef*%
G36*
G01*
X115162500Y-113050000D02*
X115637500Y-113050000D01*
G75*
G02*
X115875000Y-113287500I0J-237500D01*
G01*
X115875000Y-113862500D01*
G75*
G02*
X115637500Y-114100000I-237500J0D01*
G01*
X115162500Y-114100000D01*
G75*
G02*
X114925000Y-113862500I0J237500D01*
G01*
X114925000Y-113287500D01*
G75*
G02*
X115162500Y-113050000I237500J0D01*
G01*
G37*
%TD.AperFunction*%
%TD*%
%TO.P,C5,2*%
%TO.N,Earth*%
%TA.AperFunction,SMDPad,CuDef*%
G36*
G01*
X113625000Y-109812500D02*
X113625000Y-110287500D01*
G75*
G02*
X113387500Y-110525000I-237500J0D01*
G01*
X112812500Y-110525000D01*
G75*
G02*
X112575000Y-110287500I0J237500D01*
G01*
X112575000Y-109812500D01*
G75*
G02*
X112812500Y-109575000I237500J0D01*
G01*
X113387500Y-109575000D01*
G75*
G02*
X113625000Y-109812500I0J-237500D01*
G01*
G37*
%TD.AperFunction*%
%TO.P,C5,1*%
%TO.N,+3V3*%
%TA.AperFunction,SMDPad,CuDef*%
G36*
G01*
X115375000Y-109812500D02*
X115375000Y-110287500D01*
G75*
G02*
X115137500Y-110525000I-237500J0D01*
G01*
X114562500Y-110525000D01*
G75*
G02*
X114325000Y-110287500I0J237500D01*
G01*
X114325000Y-109812500D01*
G75*
G02*
X114562500Y-109575000I237500J0D01*
G01*
X115137500Y-109575000D01*
G75*
G02*
X115375000Y-109812500I0J-237500D01*
G01*
G37*
%TD.AperFunction*%
%TD*%
%TO.P,C2,2*%
%TO.N,Earth*%
%TA.AperFunction,SMDPad,CuDef*%
G36*
G01*
X116912500Y-114800000D02*
X117387500Y-114800000D01*
G75*
G02*
X117625000Y-115037500I0J-237500D01*
G01*
X117625000Y-115612500D01*
G75*
G02*
X117387500Y-115850000I-237500J0D01*
G01*
X116912500Y-115850000D01*
G75*
G02*
X116675000Y-115612500I0J237500D01*
G01*
X116675000Y-115037500D01*
G75*
G02*
X116912500Y-114800000I237500J0D01*
G01*
G37*
%TD.AperFunction*%
%TO.P,C2,1*%
%TO.N,+3V3*%
%TA.AperFunction,SMDPad,CuDef*%
G36*
G01*
X116912500Y-113050000D02*
X117387500Y-113050000D01*
G75*
G02*
X117625000Y-113287500I0J-237500D01*
G01*
X117625000Y-113862500D01*
G75*
G02*
X117387500Y-114100000I-237500J0D01*
G01*
X116912500Y-114100000D01*
G75*
G02*
X116675000Y-113862500I0J237500D01*
G01*
X116675000Y-113287500D01*
G75*
G02*
X116912500Y-113050000I237500J0D01*
G01*
G37*
%TD.AperFunction*%
%TD*%
%TO.P,C1,2*%
%TO.N,Earth*%
%TA.AperFunction,SMDPad,CuDef*%
G36*
G01*
X118275000Y-107179166D02*
X118275000Y-106704166D01*
G75*
G02*
X118512500Y-106466666I237500J0D01*
G01*
X119087500Y-106466666D01*
G75*
G02*
X119325000Y-106704166I0J-237500D01*
G01*
X119325000Y-107179166D01*
G75*
G02*
X119087500Y-107416666I-237500J0D01*
G01*
X118512500Y-107416666D01*
G75*
G02*
X118275000Y-107179166I0J237500D01*
G01*
G37*
%TD.AperFunction*%
%TO.P,C1,1*%
%TO.N,+3V3*%
%TA.AperFunction,SMDPad,CuDef*%
G36*
G01*
X116525000Y-107179166D02*
X116525000Y-106704166D01*
G75*
G02*
X116762500Y-106466666I237500J0D01*
G01*
X117337500Y-106466666D01*
G75*
G02*
X117575000Y-106704166I0J-237500D01*
G01*
X117575000Y-107179166D01*
G75*
G02*
X117337500Y-107416666I-237500J0D01*
G01*
X116762500Y-107416666D01*
G75*
G02*
X116525000Y-107179166I0J237500D01*
G01*
G37*
%TD.AperFunction*%
%TD*%
D10*
%TO.P,U2,9*%
%TO.N,Earth*%
X107250000Y-115300000D03*
%TO.P,U2,8*%
%TO.N,+5V*%
%TA.AperFunction,SMDPad,CuDef*%
G36*
G01*
X108750000Y-113545000D02*
X108750000Y-113245000D01*
G75*
G02*
X108900000Y-113095000I150000J0D01*
G01*
X110550000Y-113095000D01*
G75*
G02*
X110700000Y-113245000I0J-150000D01*
G01*
X110700000Y-113545000D01*
G75*
G02*
X110550000Y-113695000I-150000J0D01*
G01*
X108900000Y-113695000D01*
G75*
G02*
X108750000Y-113545000I0J150000D01*
G01*
G37*
%TD.AperFunction*%
%TO.P,U2,7*%
%TO.N,Net-(L2-Pad1)*%
%TA.AperFunction,SMDPad,CuDef*%
G36*
G01*
X108750000Y-114815000D02*
X108750000Y-114515000D01*
G75*
G02*
X108900000Y-114365000I150000J0D01*
G01*
X110550000Y-114365000D01*
G75*
G02*
X110700000Y-114515000I0J-150000D01*
G01*
X110700000Y-114815000D01*
G75*
G02*
X110550000Y-114965000I-150000J0D01*
G01*
X108900000Y-114965000D01*
G75*
G02*
X108750000Y-114815000I0J150000D01*
G01*
G37*
%TD.AperFunction*%
%TO.P,U2,6*%
%TO.N,Net-(C15-Pad1)*%
%TA.AperFunction,SMDPad,CuDef*%
G36*
G01*
X108750000Y-116085000D02*
X108750000Y-115785000D01*
G75*
G02*
X108900000Y-115635000I150000J0D01*
G01*
X110550000Y-115635000D01*
G75*
G02*
X110700000Y-115785000I0J-150000D01*
G01*
X110700000Y-116085000D01*
G75*
G02*
X110550000Y-116235000I-150000J0D01*
G01*
X108900000Y-116235000D01*
G75*
G02*
X108750000Y-116085000I0J150000D01*
G01*
G37*
%TD.AperFunction*%
%TO.P,U2,5*%
%TO.N,Net-(R3-Pad1)*%
%TA.AperFunction,SMDPad,CuDef*%
G36*
G01*
X108750000Y-117355000D02*
X108750000Y-117055000D01*
G75*
G02*
X108900000Y-116905000I150000J0D01*
G01*
X110550000Y-116905000D01*
G75*
G02*
X110700000Y-117055000I0J-150000D01*
G01*
X110700000Y-117355000D01*
G75*
G02*
X110550000Y-117505000I-150000J0D01*
G01*
X108900000Y-117505000D01*
G75*
G02*
X108750000Y-117355000I0J150000D01*
G01*
G37*
%TD.AperFunction*%
%TO.P,U2,4*%
%TO.N,Net-(D1-Pad1)*%
%TA.AperFunction,SMDPad,CuDef*%
G36*
G01*
X103800000Y-117355000D02*
X103800000Y-117055000D01*
G75*
G02*
X103950000Y-116905000I150000J0D01*
G01*
X105600000Y-116905000D01*
G75*
G02*
X105750000Y-117055000I0J-150000D01*
G01*
X105750000Y-117355000D01*
G75*
G02*
X105600000Y-117505000I-150000J0D01*
G01*
X103950000Y-117505000D01*
G75*
G02*
X103800000Y-117355000I0J150000D01*
G01*
G37*
%TD.AperFunction*%
%TO.P,U2,3*%
%TO.N,Net-(D2-Pad2)*%
%TA.AperFunction,SMDPad,CuDef*%
G36*
G01*
X103800000Y-116085000D02*
X103800000Y-115785000D01*
G75*
G02*
X103950000Y-115635000I150000J0D01*
G01*
X105600000Y-115635000D01*
G75*
G02*
X105750000Y-115785000I0J-150000D01*
G01*
X105750000Y-116085000D01*
G75*
G02*
X105600000Y-116235000I-150000J0D01*
G01*
X103950000Y-116235000D01*
G75*
G02*
X103800000Y-116085000I0J150000D01*
G01*
G37*
%TD.AperFunction*%
%TO.P,U2,2*%
%TO.N,Net-(D1-Pad2)*%
%TA.AperFunction,SMDPad,CuDef*%
G36*
G01*
X103800000Y-114815000D02*
X103800000Y-114515000D01*
G75*
G02*
X103950000Y-114365000I150000J0D01*
G01*
X105600000Y-114365000D01*
G75*
G02*
X105750000Y-114515000I0J-150000D01*
G01*
X105750000Y-114815000D01*
G75*
G02*
X105600000Y-114965000I-150000J0D01*
G01*
X103950000Y-114965000D01*
G75*
G02*
X103800000Y-114815000I0J150000D01*
G01*
G37*
%TD.AperFunction*%
%TO.P,U2,1*%
%TO.N,VBUS*%
%TA.AperFunction,SMDPad,CuDef*%
G36*
G01*
X103800000Y-113545000D02*
X103800000Y-113245000D01*
G75*
G02*
X103950000Y-113095000I150000J0D01*
G01*
X105600000Y-113095000D01*
G75*
G02*
X105750000Y-113245000I0J-150000D01*
G01*
X105750000Y-113545000D01*
G75*
G02*
X105600000Y-113695000I-150000J0D01*
G01*
X103950000Y-113695000D01*
G75*
G02*
X103800000Y-113545000I0J150000D01*
G01*
G37*
%TD.AperFunction*%
%TD*%
D11*
%TO.P,U1,9*%
%TO.N,Earth*%
X112100000Y-102800000D03*
%TO.P,U1,8*%
%TO.N,+5V*%
%TA.AperFunction,SMDPad,CuDef*%
G36*
G01*
X110600000Y-104555000D02*
X110600000Y-104855000D01*
G75*
G02*
X110450000Y-105005000I-150000J0D01*
G01*
X108800000Y-105005000D01*
G75*
G02*
X108650000Y-104855000I0J150000D01*
G01*
X108650000Y-104555000D01*
G75*
G02*
X108800000Y-104405000I150000J0D01*
G01*
X110450000Y-104405000D01*
G75*
G02*
X110600000Y-104555000I0J-150000D01*
G01*
G37*
%TD.AperFunction*%
%TO.P,U1,7*%
%TA.AperFunction,SMDPad,CuDef*%
G36*
G01*
X110600000Y-103285000D02*
X110600000Y-103585000D01*
G75*
G02*
X110450000Y-103735000I-150000J0D01*
G01*
X108800000Y-103735000D01*
G75*
G02*
X108650000Y-103585000I0J150000D01*
G01*
X108650000Y-103285000D01*
G75*
G02*
X108800000Y-103135000I150000J0D01*
G01*
X110450000Y-103135000D01*
G75*
G02*
X110600000Y-103285000I0J-150000D01*
G01*
G37*
%TD.AperFunction*%
%TO.P,U1,6*%
%TA.AperFunction,SMDPad,CuDef*%
G36*
G01*
X110600000Y-102015000D02*
X110600000Y-102315000D01*
G75*
G02*
X110450000Y-102465000I-150000J0D01*
G01*
X108800000Y-102465000D01*
G75*
G02*
X108650000Y-102315000I0J150000D01*
G01*
X108650000Y-102015000D01*
G75*
G02*
X108800000Y-101865000I150000J0D01*
G01*
X110450000Y-101865000D01*
G75*
G02*
X110600000Y-102015000I0J-150000D01*
G01*
G37*
%TD.AperFunction*%
%TO.P,U1,5*%
%TO.N,Net-(U1-Pad5)*%
%TA.AperFunction,SMDPad,CuDef*%
G36*
G01*
X110600000Y-100745000D02*
X110600000Y-101045000D01*
G75*
G02*
X110450000Y-101195000I-150000J0D01*
G01*
X108800000Y-101195000D01*
G75*
G02*
X108650000Y-101045000I0J150000D01*
G01*
X108650000Y-100745000D01*
G75*
G02*
X108800000Y-100595000I150000J0D01*
G01*
X110450000Y-100595000D01*
G75*
G02*
X110600000Y-100745000I0J-150000D01*
G01*
G37*
%TD.AperFunction*%
%TO.P,U1,4*%
%TO.N,Earth*%
%TA.AperFunction,SMDPad,CuDef*%
G36*
G01*
X115550000Y-100745000D02*
X115550000Y-101045000D01*
G75*
G02*
X115400000Y-101195000I-150000J0D01*
G01*
X113750000Y-101195000D01*
G75*
G02*
X113600000Y-101045000I0J150000D01*
G01*
X113600000Y-100745000D01*
G75*
G02*
X113750000Y-100595000I150000J0D01*
G01*
X115400000Y-100595000D01*
G75*
G02*
X115550000Y-100745000I0J-150000D01*
G01*
G37*
%TD.AperFunction*%
%TO.P,U1,3*%
%TO.N,Net-(C23-Pad2)*%
%TA.AperFunction,SMDPad,CuDef*%
G36*
G01*
X115550000Y-102015000D02*
X115550000Y-102315000D01*
G75*
G02*
X115400000Y-102465000I-150000J0D01*
G01*
X113750000Y-102465000D01*
G75*
G02*
X113600000Y-102315000I0J150000D01*
G01*
X113600000Y-102015000D01*
G75*
G02*
X113750000Y-101865000I150000J0D01*
G01*
X115400000Y-101865000D01*
G75*
G02*
X115550000Y-102015000I0J-150000D01*
G01*
G37*
%TD.AperFunction*%
%TO.P,U1,2*%
%TO.N,+3V3*%
%TA.AperFunction,SMDPad,CuDef*%
G36*
G01*
X115550000Y-103285000D02*
X115550000Y-103585000D01*
G75*
G02*
X115400000Y-103735000I-150000J0D01*
G01*
X113750000Y-103735000D01*
G75*
G02*
X113600000Y-103585000I0J150000D01*
G01*
X113600000Y-103285000D01*
G75*
G02*
X113750000Y-103135000I150000J0D01*
G01*
X115400000Y-103135000D01*
G75*
G02*
X115550000Y-103285000I0J-150000D01*
G01*
G37*
%TD.AperFunction*%
%TO.P,U1,1*%
%TA.AperFunction,SMDPad,CuDef*%
G36*
G01*
X115550000Y-104555000D02*
X115550000Y-104855000D01*
G75*
G02*
X115400000Y-105005000I-150000J0D01*
G01*
X113750000Y-105005000D01*
G75*
G02*
X113600000Y-104855000I0J150000D01*
G01*
X113600000Y-104555000D01*
G75*
G02*
X113750000Y-104405000I150000J0D01*
G01*
X115400000Y-104405000D01*
G75*
G02*
X115550000Y-104555000I0J-150000D01*
G01*
G37*
%TD.AperFunction*%
%TD*%
D12*
%TO.P,SW1,2*%
%TO.N,Earth*%
X112750000Y-116950000D03*
%TO.P,SW1,1*%
%TO.N,Net-(R3-Pad2)*%
X112750000Y-113550000D03*
%TD*%
%TO.P,R10,2*%
%TO.N,Net-(C23-Pad2)*%
%TA.AperFunction,SMDPad,CuDef*%
G36*
G01*
X116512500Y-102400000D02*
X116987500Y-102400000D01*
G75*
G02*
X117225000Y-102637500I0J-237500D01*
G01*
X117225000Y-103212500D01*
G75*
G02*
X116987500Y-103450000I-237500J0D01*
G01*
X116512500Y-103450000D01*
G75*
G02*
X116275000Y-103212500I0J237500D01*
G01*
X116275000Y-102637500D01*
G75*
G02*
X116512500Y-102400000I237500J0D01*
G01*
G37*
%TD.AperFunction*%
%TO.P,R10,1*%
%TO.N,Earth*%
%TA.AperFunction,SMDPad,CuDef*%
G36*
G01*
X116512500Y-100650000D02*
X116987500Y-100650000D01*
G75*
G02*
X117225000Y-100887500I0J-237500D01*
G01*
X117225000Y-101462500D01*
G75*
G02*
X116987500Y-101700000I-237500J0D01*
G01*
X116512500Y-101700000D01*
G75*
G02*
X116275000Y-101462500I0J237500D01*
G01*
X116275000Y-100887500D01*
G75*
G02*
X116512500Y-100650000I237500J0D01*
G01*
G37*
%TD.AperFunction*%
%TD*%
%TO.P,R9,2*%
%TO.N,+3V3*%
%TA.AperFunction,SMDPad,CuDef*%
G36*
G01*
X118275000Y-105487500D02*
X118275000Y-105012500D01*
G75*
G02*
X118512500Y-104775000I237500J0D01*
G01*
X119087500Y-104775000D01*
G75*
G02*
X119325000Y-105012500I0J-237500D01*
G01*
X119325000Y-105487500D01*
G75*
G02*
X119087500Y-105725000I-237500J0D01*
G01*
X118512500Y-105725000D01*
G75*
G02*
X118275000Y-105487500I0J237500D01*
G01*
G37*
%TD.AperFunction*%
%TO.P,R9,1*%
%TO.N,Net-(C23-Pad2)*%
%TA.AperFunction,SMDPad,CuDef*%
G36*
G01*
X116525000Y-105487500D02*
X116525000Y-105012500D01*
G75*
G02*
X116762500Y-104775000I237500J0D01*
G01*
X117337500Y-104775000D01*
G75*
G02*
X117575000Y-105012500I0J-237500D01*
G01*
X117575000Y-105487500D01*
G75*
G02*
X117337500Y-105725000I-237500J0D01*
G01*
X116762500Y-105725000D01*
G75*
G02*
X116525000Y-105487500I0J237500D01*
G01*
G37*
%TD.AperFunction*%
%TD*%
%TO.P,R5,2*%
%TO.N,Net-(C15-Pad1)*%
%TA.AperFunction,SMDPad,CuDef*%
G36*
G01*
X102362500Y-109700000D02*
X102837500Y-109700000D01*
G75*
G02*
X103075000Y-109937500I0J-237500D01*
G01*
X103075000Y-110512500D01*
G75*
G02*
X102837500Y-110750000I-237500J0D01*
G01*
X102362500Y-110750000D01*
G75*
G02*
X102125000Y-110512500I0J237500D01*
G01*
X102125000Y-109937500D01*
G75*
G02*
X102362500Y-109700000I237500J0D01*
G01*
G37*
%TD.AperFunction*%
%TO.P,R5,1*%
%TO.N,+BATT*%
%TA.AperFunction,SMDPad,CuDef*%
G36*
G01*
X102362500Y-107950000D02*
X102837500Y-107950000D01*
G75*
G02*
X103075000Y-108187500I0J-237500D01*
G01*
X103075000Y-108762500D01*
G75*
G02*
X102837500Y-109000000I-237500J0D01*
G01*
X102362500Y-109000000D01*
G75*
G02*
X102125000Y-108762500I0J237500D01*
G01*
X102125000Y-108187500D01*
G75*
G02*
X102362500Y-107950000I237500J0D01*
G01*
G37*
%TD.AperFunction*%
%TD*%
%TO.P,R3,2*%
%TO.N,Net-(R3-Pad2)*%
%TA.AperFunction,SMDPad,CuDef*%
G36*
G01*
X110825000Y-111937500D02*
X110825000Y-111462500D01*
G75*
G02*
X111062500Y-111225000I237500J0D01*
G01*
X111637500Y-111225000D01*
G75*
G02*
X111875000Y-111462500I0J-237500D01*
G01*
X111875000Y-111937500D01*
G75*
G02*
X111637500Y-112175000I-237500J0D01*
G01*
X111062500Y-112175000D01*
G75*
G02*
X110825000Y-111937500I0J237500D01*
G01*
G37*
%TD.AperFunction*%
%TO.P,R3,1*%
%TO.N,Net-(R3-Pad1)*%
%TA.AperFunction,SMDPad,CuDef*%
G36*
G01*
X109075000Y-111937500D02*
X109075000Y-111462500D01*
G75*
G02*
X109312500Y-111225000I237500J0D01*
G01*
X109887500Y-111225000D01*
G75*
G02*
X110125000Y-111462500I0J-237500D01*
G01*
X110125000Y-111937500D01*
G75*
G02*
X109887500Y-112175000I-237500J0D01*
G01*
X109312500Y-112175000D01*
G75*
G02*
X109075000Y-111937500I0J237500D01*
G01*
G37*
%TD.AperFunction*%
%TD*%
%TO.P,R1,2*%
%TO.N,Net-(C6-Pad1)*%
%TA.AperFunction,SMDPad,CuDef*%
G36*
G01*
X106237500Y-110525000D02*
X105762500Y-110525000D01*
G75*
G02*
X105525000Y-110287500I0J237500D01*
G01*
X105525000Y-109712500D01*
G75*
G02*
X105762500Y-109475000I237500J0D01*
G01*
X106237500Y-109475000D01*
G75*
G02*
X106475000Y-109712500I0J-237500D01*
G01*
X106475000Y-110287500D01*
G75*
G02*
X106237500Y-110525000I-237500J0D01*
G01*
G37*
%TD.AperFunction*%
%TO.P,R1,1*%
%TO.N,VBUS*%
%TA.AperFunction,SMDPad,CuDef*%
G36*
G01*
X106237500Y-112275000D02*
X105762500Y-112275000D01*
G75*
G02*
X105525000Y-112037500I0J237500D01*
G01*
X105525000Y-111462500D01*
G75*
G02*
X105762500Y-111225000I237500J0D01*
G01*
X106237500Y-111225000D01*
G75*
G02*
X106475000Y-111462500I0J-237500D01*
G01*
X106475000Y-112037500D01*
G75*
G02*
X106237500Y-112275000I-237500J0D01*
G01*
G37*
%TD.AperFunction*%
%TD*%
D13*
%TO.P,L2,2*%
%TO.N,+BATT*%
X101650000Y-103850000D03*
%TO.P,L2,1*%
%TO.N,Net-(L2-Pad1)*%
X106750000Y-103850000D03*
%TD*%
%TO.P,D4,2*%
%TO.N,Net-(D1-Pad1)*%
%TA.AperFunction,SMDPad,CuDef*%
G36*
G01*
X101322500Y-116493749D02*
X101322500Y-117006249D01*
G75*
G02*
X101103750Y-117224999I-218750J0D01*
G01*
X100666250Y-117224999D01*
G75*
G02*
X100447500Y-117006249I0J218750D01*
G01*
X100447500Y-116493749D01*
G75*
G02*
X100666250Y-116274999I218750J0D01*
G01*
X101103750Y-116274999D01*
G75*
G02*
X101322500Y-116493749I0J-218750D01*
G01*
G37*
%TD.AperFunction*%
%TO.P,D4,1*%
%TO.N,Net-(D2-Pad2)*%
%TA.AperFunction,SMDPad,CuDef*%
G36*
G01*
X102897500Y-116493749D02*
X102897500Y-117006249D01*
G75*
G02*
X102678750Y-117224999I-218750J0D01*
G01*
X102241250Y-117224999D01*
G75*
G02*
X102022500Y-117006249I0J218750D01*
G01*
X102022500Y-116493749D01*
G75*
G02*
X102241250Y-116274999I218750J0D01*
G01*
X102678750Y-116274999D01*
G75*
G02*
X102897500Y-116493749I0J-218750D01*
G01*
G37*
%TD.AperFunction*%
%TD*%
%TO.P,D3,2*%
%TO.N,Net-(D1-Pad1)*%
%TA.AperFunction,SMDPad,CuDef*%
G36*
G01*
X101322500Y-114910416D02*
X101322500Y-115422916D01*
G75*
G02*
X101103750Y-115641666I-218750J0D01*
G01*
X100666250Y-115641666D01*
G75*
G02*
X100447500Y-115422916I0J218750D01*
G01*
X100447500Y-114910416D01*
G75*
G02*
X100666250Y-114691666I218750J0D01*
G01*
X101103750Y-114691666D01*
G75*
G02*
X101322500Y-114910416I0J-218750D01*
G01*
G37*
%TD.AperFunction*%
%TO.P,D3,1*%
%TO.N,Net-(D1-Pad2)*%
%TA.AperFunction,SMDPad,CuDef*%
G36*
G01*
X102897500Y-114910416D02*
X102897500Y-115422916D01*
G75*
G02*
X102678750Y-115641666I-218750J0D01*
G01*
X102241250Y-115641666D01*
G75*
G02*
X102022500Y-115422916I0J218750D01*
G01*
X102022500Y-114910416D01*
G75*
G02*
X102241250Y-114691666I218750J0D01*
G01*
X102678750Y-114691666D01*
G75*
G02*
X102897500Y-114910416I0J-218750D01*
G01*
G37*
%TD.AperFunction*%
%TD*%
%TO.P,D2,2*%
%TO.N,Net-(D2-Pad2)*%
%TA.AperFunction,SMDPad,CuDef*%
G36*
G01*
X102062500Y-113839583D02*
X102062500Y-113327083D01*
G75*
G02*
X102281250Y-113108333I218750J0D01*
G01*
X102718750Y-113108333D01*
G75*
G02*
X102937500Y-113327083I0J-218750D01*
G01*
X102937500Y-113839583D01*
G75*
G02*
X102718750Y-114058333I-218750J0D01*
G01*
X102281250Y-114058333D01*
G75*
G02*
X102062500Y-113839583I0J218750D01*
G01*
G37*
%TD.AperFunction*%
%TO.P,D2,1*%
%TO.N,Net-(D1-Pad1)*%
%TA.AperFunction,SMDPad,CuDef*%
G36*
G01*
X100487500Y-113839583D02*
X100487500Y-113327083D01*
G75*
G02*
X100706250Y-113108333I218750J0D01*
G01*
X101143750Y-113108333D01*
G75*
G02*
X101362500Y-113327083I0J-218750D01*
G01*
X101362500Y-113839583D01*
G75*
G02*
X101143750Y-114058333I-218750J0D01*
G01*
X100706250Y-114058333D01*
G75*
G02*
X100487500Y-113839583I0J218750D01*
G01*
G37*
%TD.AperFunction*%
%TD*%
%TO.P,D1,2*%
%TO.N,Net-(D1-Pad2)*%
%TA.AperFunction,SMDPad,CuDef*%
G36*
G01*
X102062500Y-112256250D02*
X102062500Y-111743750D01*
G75*
G02*
X102281250Y-111525000I218750J0D01*
G01*
X102718750Y-111525000D01*
G75*
G02*
X102937500Y-111743750I0J-218750D01*
G01*
X102937500Y-112256250D01*
G75*
G02*
X102718750Y-112475000I-218750J0D01*
G01*
X102281250Y-112475000D01*
G75*
G02*
X102062500Y-112256250I0J218750D01*
G01*
G37*
%TD.AperFunction*%
%TO.P,D1,1*%
%TO.N,Net-(D1-Pad1)*%
%TA.AperFunction,SMDPad,CuDef*%
G36*
G01*
X100487500Y-112256250D02*
X100487500Y-111743750D01*
G75*
G02*
X100706250Y-111525000I218750J0D01*
G01*
X101143750Y-111525000D01*
G75*
G02*
X101362500Y-111743750I0J-218750D01*
G01*
X101362500Y-112256250D01*
G75*
G02*
X101143750Y-112475000I-218750J0D01*
G01*
X100706250Y-112475000D01*
G75*
G02*
X100487500Y-112256250I0J218750D01*
G01*
G37*
%TD.AperFunction*%
%TD*%
%TO.P,C23,2*%
%TO.N,Net-(C23-Pad2)*%
%TA.AperFunction,SMDPad,CuDef*%
G36*
G01*
X118262500Y-102400000D02*
X118737500Y-102400000D01*
G75*
G02*
X118975000Y-102637500I0J-237500D01*
G01*
X118975000Y-103212500D01*
G75*
G02*
X118737500Y-103450000I-237500J0D01*
G01*
X118262500Y-103450000D01*
G75*
G02*
X118025000Y-103212500I0J237500D01*
G01*
X118025000Y-102637500D01*
G75*
G02*
X118262500Y-102400000I237500J0D01*
G01*
G37*
%TD.AperFunction*%
%TO.P,C23,1*%
%TO.N,+3V3*%
%TA.AperFunction,SMDPad,CuDef*%
G36*
G01*
X118262500Y-100650000D02*
X118737500Y-100650000D01*
G75*
G02*
X118975000Y-100887500I0J-237500D01*
G01*
X118975000Y-101462500D01*
G75*
G02*
X118737500Y-101700000I-237500J0D01*
G01*
X118262500Y-101700000D01*
G75*
G02*
X118025000Y-101462500I0J237500D01*
G01*
X118025000Y-100887500D01*
G75*
G02*
X118262500Y-100650000I237500J0D01*
G01*
G37*
%TD.AperFunction*%
%TD*%
%TO.P,C22,2*%
%TO.N,Earth*%
%TA.AperFunction,SMDPad,CuDef*%
G36*
G01*
X107100000Y-108587500D02*
X107100000Y-108112500D01*
G75*
G02*
X107337500Y-107875000I237500J0D01*
G01*
X107912500Y-107875000D01*
G75*
G02*
X108150000Y-108112500I0J-237500D01*
G01*
X108150000Y-108587500D01*
G75*
G02*
X107912500Y-108825000I-237500J0D01*
G01*
X107337500Y-108825000D01*
G75*
G02*
X107100000Y-108587500I0J237500D01*
G01*
G37*
%TD.AperFunction*%
%TO.P,C22,1*%
%TO.N,+5V*%
%TA.AperFunction,SMDPad,CuDef*%
G36*
G01*
X105350000Y-108587500D02*
X105350000Y-108112500D01*
G75*
G02*
X105587500Y-107875000I237500J0D01*
G01*
X106162500Y-107875000D01*
G75*
G02*
X106400000Y-108112500I0J-237500D01*
G01*
X106400000Y-108587500D01*
G75*
G02*
X106162500Y-108825000I-237500J0D01*
G01*
X105587500Y-108825000D01*
G75*
G02*
X105350000Y-108587500I0J237500D01*
G01*
G37*
%TD.AperFunction*%
%TD*%
%TO.P,C17,2*%
%TO.N,Earth*%
%TA.AperFunction,SMDPad,CuDef*%
G36*
G01*
X100662500Y-109675000D02*
X101137500Y-109675000D01*
G75*
G02*
X101375000Y-109912500I0J-237500D01*
G01*
X101375000Y-110487500D01*
G75*
G02*
X101137500Y-110725000I-237500J0D01*
G01*
X100662500Y-110725000D01*
G75*
G02*
X100425000Y-110487500I0J237500D01*
G01*
X100425000Y-109912500D01*
G75*
G02*
X100662500Y-109675000I237500J0D01*
G01*
G37*
%TD.AperFunction*%
%TO.P,C17,1*%
%TO.N,+BATT*%
%TA.AperFunction,SMDPad,CuDef*%
G36*
G01*
X100662500Y-107925000D02*
X101137500Y-107925000D01*
G75*
G02*
X101375000Y-108162500I0J-237500D01*
G01*
X101375000Y-108737500D01*
G75*
G02*
X101137500Y-108975000I-237500J0D01*
G01*
X100662500Y-108975000D01*
G75*
G02*
X100425000Y-108737500I0J237500D01*
G01*
X100425000Y-108162500D01*
G75*
G02*
X100662500Y-107925000I237500J0D01*
G01*
G37*
%TD.AperFunction*%
%TD*%
%TO.P,C15,2*%
%TO.N,Earth*%
%TA.AperFunction,SMDPad,CuDef*%
G36*
G01*
X110850000Y-110287500D02*
X110850000Y-109812500D01*
G75*
G02*
X111087500Y-109575000I237500J0D01*
G01*
X111662500Y-109575000D01*
G75*
G02*
X111900000Y-109812500I0J-237500D01*
G01*
X111900000Y-110287500D01*
G75*
G02*
X111662500Y-110525000I-237500J0D01*
G01*
X111087500Y-110525000D01*
G75*
G02*
X110850000Y-110287500I0J237500D01*
G01*
G37*
%TD.AperFunction*%
%TO.P,C15,1*%
%TO.N,Net-(C15-Pad1)*%
%TA.AperFunction,SMDPad,CuDef*%
G36*
G01*
X109100000Y-110287500D02*
X109100000Y-109812500D01*
G75*
G02*
X109337500Y-109575000I237500J0D01*
G01*
X109912500Y-109575000D01*
G75*
G02*
X110150000Y-109812500I0J-237500D01*
G01*
X110150000Y-110287500D01*
G75*
G02*
X109912500Y-110525000I-237500J0D01*
G01*
X109337500Y-110525000D01*
G75*
G02*
X109100000Y-110287500I0J237500D01*
G01*
G37*
%TD.AperFunction*%
%TD*%
%TO.P,C9,2*%
%TO.N,Earth*%
%TA.AperFunction,SMDPad,CuDef*%
G36*
G01*
X114225000Y-108637500D02*
X114225000Y-108162500D01*
G75*
G02*
X114462500Y-107925000I237500J0D01*
G01*
X115037500Y-107925000D01*
G75*
G02*
X115275000Y-108162500I0J-237500D01*
G01*
X115275000Y-108637500D01*
G75*
G02*
X115037500Y-108875000I-237500J0D01*
G01*
X114462500Y-108875000D01*
G75*
G02*
X114225000Y-108637500I0J237500D01*
G01*
G37*
%TD.AperFunction*%
%TO.P,C9,1*%
%TO.N,+5V*%
%TA.AperFunction,SMDPad,CuDef*%
G36*
G01*
X112475000Y-108637500D02*
X112475000Y-108162500D01*
G75*
G02*
X112712500Y-107925000I237500J0D01*
G01*
X113287500Y-107925000D01*
G75*
G02*
X113525000Y-108162500I0J-237500D01*
G01*
X113525000Y-108637500D01*
G75*
G02*
X113287500Y-108875000I-237500J0D01*
G01*
X112712500Y-108875000D01*
G75*
G02*
X112475000Y-108637500I0J237500D01*
G01*
G37*
%TD.AperFunction*%
%TD*%
%TO.P,C8,2*%
%TO.N,Earth*%
%TA.AperFunction,SMDPad,CuDef*%
G36*
G01*
X104537500Y-110525000D02*
X104062500Y-110525000D01*
G75*
G02*
X103825000Y-110287500I0J237500D01*
G01*
X103825000Y-109712500D01*
G75*
G02*
X104062500Y-109475000I237500J0D01*
G01*
X104537500Y-109475000D01*
G75*
G02*
X104775000Y-109712500I0J-237500D01*
G01*
X104775000Y-110287500D01*
G75*
G02*
X104537500Y-110525000I-237500J0D01*
G01*
G37*
%TD.AperFunction*%
%TO.P,C8,1*%
%TO.N,VBUS*%
%TA.AperFunction,SMDPad,CuDef*%
G36*
G01*
X104537500Y-112275000D02*
X104062500Y-112275000D01*
G75*
G02*
X103825000Y-112037500I0J237500D01*
G01*
X103825000Y-111462500D01*
G75*
G02*
X104062500Y-111225000I237500J0D01*
G01*
X104537500Y-111225000D01*
G75*
G02*
X104775000Y-111462500I0J-237500D01*
G01*
X104775000Y-112037500D01*
G75*
G02*
X104537500Y-112275000I-237500J0D01*
G01*
G37*
%TD.AperFunction*%
%TD*%
%TO.P,C7,2*%
%TO.N,Earth*%
%TA.AperFunction,SMDPad,CuDef*%
G36*
G01*
X110025000Y-108175000D02*
X110025000Y-108650000D01*
G75*
G02*
X109787500Y-108887500I-237500J0D01*
G01*
X109212500Y-108887500D01*
G75*
G02*
X108975000Y-108650000I0J237500D01*
G01*
X108975000Y-108175000D01*
G75*
G02*
X109212500Y-107937500I237500J0D01*
G01*
X109787500Y-107937500D01*
G75*
G02*
X110025000Y-108175000I0J-237500D01*
G01*
G37*
%TD.AperFunction*%
%TO.P,C7,1*%
%TO.N,+5V*%
%TA.AperFunction,SMDPad,CuDef*%
G36*
G01*
X111775000Y-108175000D02*
X111775000Y-108650000D01*
G75*
G02*
X111537500Y-108887500I-237500J0D01*
G01*
X110962500Y-108887500D01*
G75*
G02*
X110725000Y-108650000I0J237500D01*
G01*
X110725000Y-108175000D01*
G75*
G02*
X110962500Y-107937500I237500J0D01*
G01*
X111537500Y-107937500D01*
G75*
G02*
X111775000Y-108175000I0J-237500D01*
G01*
G37*
%TD.AperFunction*%
%TD*%
%TO.P,C6,2*%
%TO.N,Earth*%
%TA.AperFunction,SMDPad,CuDef*%
G36*
G01*
X107462500Y-111225000D02*
X107937500Y-111225000D01*
G75*
G02*
X108175000Y-111462500I0J-237500D01*
G01*
X108175000Y-112037500D01*
G75*
G02*
X107937500Y-112275000I-237500J0D01*
G01*
X107462500Y-112275000D01*
G75*
G02*
X107225000Y-112037500I0J237500D01*
G01*
X107225000Y-111462500D01*
G75*
G02*
X107462500Y-111225000I237500J0D01*
G01*
G37*
%TD.AperFunction*%
%TO.P,C6,1*%
%TO.N,Net-(C6-Pad1)*%
%TA.AperFunction,SMDPad,CuDef*%
G36*
G01*
X107462500Y-109475000D02*
X107937500Y-109475000D01*
G75*
G02*
X108175000Y-109712500I0J-237500D01*
G01*
X108175000Y-110287500D01*
G75*
G02*
X107937500Y-110525000I-237500J0D01*
G01*
X107462500Y-110525000D01*
G75*
G02*
X107225000Y-110287500I0J237500D01*
G01*
X107225000Y-109712500D01*
G75*
G02*
X107462500Y-109475000I237500J0D01*
G01*
G37*
%TD.AperFunction*%
%TD*%
%TO.P,C4,2*%
%TO.N,Earth*%
%TA.AperFunction,SMDPad,CuDef*%
G36*
G01*
X114200000Y-106837500D02*
X114200000Y-106362500D01*
G75*
G02*
X114437500Y-106125000I237500J0D01*
G01*
X115012500Y-106125000D01*
G75*
G02*
X115250000Y-106362500I0J-237500D01*
G01*
X115250000Y-106837500D01*
G75*
G02*
X115012500Y-107075000I-237500J0D01*
G01*
X114437500Y-107075000D01*
G75*
G02*
X114200000Y-106837500I0J237500D01*
G01*
G37*
%TD.AperFunction*%
%TO.P,C4,1*%
%TO.N,+5V*%
%TA.AperFunction,SMDPad,CuDef*%
G36*
G01*
X112450000Y-106837500D02*
X112450000Y-106362500D01*
G75*
G02*
X112687500Y-106125000I237500J0D01*
G01*
X113262500Y-106125000D01*
G75*
G02*
X113500000Y-106362500I0J-237500D01*
G01*
X113500000Y-106837500D01*
G75*
G02*
X113262500Y-107075000I-237500J0D01*
G01*
X112687500Y-107075000D01*
G75*
G02*
X112450000Y-106837500I0J237500D01*
G01*
G37*
%TD.AperFunction*%
%TD*%
%TO.P,C3,2*%
%TO.N,Earth*%
%TA.AperFunction,SMDPad,CuDef*%
G36*
G01*
X110025000Y-106387500D02*
X110025000Y-106862500D01*
G75*
G02*
X109787500Y-107100000I-237500J0D01*
G01*
X109212500Y-107100000D01*
G75*
G02*
X108975000Y-106862500I0J237500D01*
G01*
X108975000Y-106387500D01*
G75*
G02*
X109212500Y-106150000I237500J0D01*
G01*
X109787500Y-106150000D01*
G75*
G02*
X110025000Y-106387500I0J-237500D01*
G01*
G37*
%TD.AperFunction*%
%TO.P,C3,1*%
%TO.N,+5V*%
%TA.AperFunction,SMDPad,CuDef*%
G36*
G01*
X111775000Y-106387500D02*
X111775000Y-106862500D01*
G75*
G02*
X111537500Y-107100000I-237500J0D01*
G01*
X110962500Y-107100000D01*
G75*
G02*
X110725000Y-106862500I0J237500D01*
G01*
X110725000Y-106387500D01*
G75*
G02*
X110962500Y-106150000I237500J0D01*
G01*
X111537500Y-106150000D01*
G75*
G02*
X111775000Y-106387500I0J-237500D01*
G01*
G37*
%TD.AperFunction*%
%TD*%
D14*
%TO.N,Earth*%
X118800000Y-106950000D03*
X100900000Y-110200000D03*
X104300000Y-110000000D03*
X107250000Y-115300000D03*
X112100000Y-102800000D03*
X118950000Y-117000000D03*
X109500000Y-106625000D03*
%TO.N,+3V3*%
X118950000Y-114000000D03*
%TO.N,+5V*%
X118950000Y-112550000D03*
X109750000Y-113400000D03*
X111250000Y-108412500D03*
X112975000Y-106600000D03*
%TO.N,VBUS*%
X118950000Y-115500000D03*
X106000000Y-111750000D03*
%TO.N,Net-(C15-Pad1)*%
X109725000Y-115935000D03*
X102600000Y-110225000D03*
X109625000Y-110050000D03*
%TO.N,+BATT*%
X118950000Y-111000000D03*
X101650000Y-103850000D03*
%TO.N,Net-(L2-Pad1)*%
X106800000Y-103850000D03*
X109725000Y-114665000D03*
%TD*%
D15*
%TO.N,Earth*%
X114005000Y-100895000D02*
X114575000Y-100895000D01*
X112100000Y-102800000D02*
X114005000Y-100895000D01*
X116470000Y-100895000D02*
X116750000Y-101175000D01*
X114575000Y-100895000D02*
X116470000Y-100895000D01*
X107700000Y-114850000D02*
X107250000Y-115300000D01*
X107700000Y-111750000D02*
X107700000Y-114850000D01*
D16*
X109500000Y-106625000D02*
X109500000Y-106625000D01*
X107687500Y-108412500D02*
X107625000Y-108350000D01*
X109500000Y-108412500D02*
X107687500Y-108412500D01*
X109737500Y-108412500D02*
X111375000Y-110050000D01*
X109500000Y-108412500D02*
X109737500Y-108412500D01*
X111375000Y-110050000D02*
X113100000Y-110050000D01*
X113100000Y-110050000D02*
X113100000Y-111741670D01*
X113775000Y-116950000D02*
X115400000Y-115325000D01*
X112750000Y-116950000D02*
X113775000Y-116950000D01*
X117150000Y-115325000D02*
X115400000Y-115325000D01*
X117150000Y-115325000D02*
X117150000Y-116100000D01*
X118050000Y-117000000D02*
X118950000Y-117000000D01*
X117150000Y-116100000D02*
X118050000Y-117000000D01*
X118950000Y-117000000D02*
X119111210Y-117000000D01*
X114574990Y-113216660D02*
X113100000Y-111741670D01*
X114574990Y-114499990D02*
X114574990Y-113216660D01*
X115400000Y-115325000D02*
X114574990Y-114499990D01*
X114725000Y-108375000D02*
X114750000Y-108400000D01*
X114725000Y-106600000D02*
X114725000Y-108375000D01*
X114750000Y-108400000D02*
X113100000Y-110050000D01*
X109500000Y-106625000D02*
X109500000Y-108412500D01*
X115125000Y-108775000D02*
X114750000Y-108400000D01*
X116800000Y-108775000D02*
X115125000Y-108775000D01*
D15*
%TO.N,+3V3*%
X114575000Y-103435000D02*
X114575000Y-104705000D01*
X118975000Y-101175000D02*
X119550000Y-101750000D01*
X118500000Y-101175000D02*
X118975000Y-101175000D01*
X119550000Y-104500000D02*
X118800000Y-105250000D01*
X119550000Y-101750000D02*
X119550000Y-104500000D01*
X117050000Y-106941666D02*
X116811666Y-106941666D01*
X117108334Y-106941666D02*
X118800000Y-105250000D01*
X117050000Y-106941666D02*
X117108334Y-106941666D01*
X114813334Y-104705000D02*
X117050000Y-106941666D01*
X114575000Y-104705000D02*
X114813334Y-104705000D01*
D16*
X115400000Y-113575000D02*
X117150000Y-113575000D01*
X118525000Y-113575000D02*
X118950000Y-114000000D01*
X117150000Y-113575000D02*
X118525000Y-113575000D01*
X114850000Y-110050000D02*
X114850000Y-111741670D01*
X115400000Y-112291670D02*
X115400000Y-113575000D01*
X114850000Y-111741670D02*
X115400000Y-112291670D01*
X116800000Y-107191666D02*
X117050000Y-106941666D01*
X117050000Y-106941666D02*
X117900000Y-107791666D01*
X117900000Y-109425000D02*
X116800000Y-110525000D01*
X117900000Y-107791666D02*
X117900000Y-109425000D01*
X115325000Y-110525000D02*
X114850000Y-110050000D01*
X116800000Y-110525000D02*
X115325000Y-110525000D01*
D15*
%TO.N,+5V*%
X109625000Y-102165000D02*
X109625000Y-104705000D01*
X111250000Y-106625000D02*
X111250000Y-108412500D01*
X113000000Y-108412500D02*
X111250000Y-108412500D01*
X109625000Y-105000000D02*
X111250000Y-106625000D01*
X109625000Y-104705000D02*
X109625000Y-105000000D01*
D16*
X105980000Y-108350000D02*
X109625000Y-104705000D01*
X105875000Y-108350000D02*
X105980000Y-108350000D01*
X111275000Y-106600000D02*
X111250000Y-106625000D01*
X112975000Y-106600000D02*
X111275000Y-106600000D01*
D15*
%TO.N,Net-(C6-Pad1)*%
X107700000Y-110000000D02*
X106000000Y-110000000D01*
%TO.N,VBUS*%
X104300000Y-112920000D02*
X104775000Y-113395000D01*
X104300000Y-111750000D02*
X104300000Y-112920000D01*
X106000000Y-111750000D02*
X104300000Y-111750000D01*
%TO.N,+BATT*%
X100925000Y-108475000D02*
X100900000Y-108450000D01*
X102600000Y-108475000D02*
X100925000Y-108475000D01*
X100900000Y-104600000D02*
X101650000Y-103850000D01*
X100900000Y-108450000D02*
X100900000Y-104600000D01*
%TO.N,Net-(C23-Pad2)*%
X118500000Y-102925000D02*
X116750000Y-102925000D01*
X116750000Y-104950000D02*
X117050000Y-105250000D01*
X116750000Y-102925000D02*
X116750000Y-104950000D01*
X115990000Y-102165000D02*
X114575000Y-102165000D01*
X116750000Y-102925000D02*
X115990000Y-102165000D01*
D17*
%TO.N,Net-(D1-Pad2)*%
X101762490Y-114469156D02*
X102460000Y-115166666D01*
X101762490Y-112300010D02*
X101762490Y-114469156D01*
X102062500Y-112000000D02*
X101762490Y-112300010D01*
X102500000Y-112000000D02*
X102062500Y-112000000D01*
X103499990Y-113731402D02*
X104433588Y-114665000D01*
X103499990Y-112999990D02*
X103499990Y-113731402D01*
X104433588Y-114665000D02*
X104775000Y-114665000D01*
X102500000Y-112000000D02*
X103499990Y-112999990D01*
D15*
%TO.N,Net-(D1-Pad1)*%
X100925000Y-116959999D02*
X100885000Y-116999999D01*
D17*
X101660010Y-117525009D02*
X100885000Y-116749999D01*
X104454991Y-117525009D02*
X101660010Y-117525009D01*
X104775000Y-117205000D02*
X104454991Y-117525009D01*
X100885000Y-116749999D02*
X100885000Y-111565000D01*
%TO.N,Net-(D2-Pad2)*%
X103274999Y-115935000D02*
X104775000Y-115935000D01*
X102460000Y-116749999D02*
X103274999Y-115935000D01*
X103197510Y-116012489D02*
X102460000Y-116749999D01*
X103197510Y-114280843D02*
X103197510Y-116012489D01*
X102500000Y-113583333D02*
X103197510Y-114280843D01*
D16*
%TO.N,Net-(R3-Pad2)*%
X111350000Y-112150000D02*
X112750000Y-113550000D01*
X111350000Y-111700000D02*
X111350000Y-112150000D01*
D15*
%TO.N,Net-(R3-Pad1)*%
X109730000Y-117200000D02*
X109725000Y-117205000D01*
D16*
X109712124Y-111700000D02*
X109600000Y-111700000D01*
X111050010Y-113037886D02*
X109712124Y-111700000D01*
X111050010Y-116854990D02*
X111050010Y-113037886D01*
X110700000Y-117205000D02*
X111050010Y-116854990D01*
X109725000Y-117205000D02*
X110700000Y-117205000D01*
%TD*%
M02*
