%TF.GenerationSoftware,KiCad,Pcbnew,(5.1.9-0-10_14)*%
%TF.CreationDate,2021-03-17T16:44:50+08:00*%
%TF.ProjectId,Zeeuss,5a656575-7373-42e6-9b69-6361645f7063,rev?*%
%TF.SameCoordinates,Original*%
%TF.FileFunction,Paste,Top*%
%TF.FilePolarity,Positive*%
%FSLAX46Y46*%
G04 Gerber Fmt 4.6, Leading zero omitted, Abs format (unit mm)*
G04 Created by KiCad (PCBNEW (5.1.9-0-10_14)) date 2021-03-17 16:44:50*
%MOMM*%
%LPD*%
G01*
G04 APERTURE LIST*
%ADD10R,0.900000X1.700000*%
%ADD11R,2.700000X2.200000*%
G04 APERTURE END LIST*
%TO.C,C11*%
G36*
G01*
X117225000Y-112682500D02*
X117225000Y-113157500D01*
G75*
G02*
X116987500Y-113395000I-237500J0D01*
G01*
X116412500Y-113395000D01*
G75*
G02*
X116175000Y-113157500I0J237500D01*
G01*
X116175000Y-112682500D01*
G75*
G02*
X116412500Y-112445000I237500J0D01*
G01*
X116987500Y-112445000D01*
G75*
G02*
X117225000Y-112682500I0J-237500D01*
G01*
G37*
G36*
G01*
X118975000Y-112682500D02*
X118975000Y-113157500D01*
G75*
G02*
X118737500Y-113395000I-237500J0D01*
G01*
X118162500Y-113395000D01*
G75*
G02*
X117925000Y-113157500I0J237500D01*
G01*
X117925000Y-112682500D01*
G75*
G02*
X118162500Y-112445000I237500J0D01*
G01*
X118737500Y-112445000D01*
G75*
G02*
X118975000Y-112682500I0J-237500D01*
G01*
G37*
%TD*%
%TO.C,U2*%
G36*
G01*
X103875000Y-106110000D02*
X104625000Y-106110000D01*
G75*
G02*
X104855000Y-106340000I0J-230000D01*
G01*
X104855000Y-106800000D01*
G75*
G02*
X104625000Y-107030000I-230000J0D01*
G01*
X103875000Y-107030000D01*
G75*
G02*
X103645000Y-106800000I0J230000D01*
G01*
X103645000Y-106340000D01*
G75*
G02*
X103875000Y-106110000I230000J0D01*
G01*
G37*
G36*
G01*
X105375000Y-106110000D02*
X106125000Y-106110000D01*
G75*
G02*
X106355000Y-106340000I0J-230000D01*
G01*
X106355000Y-106800000D01*
G75*
G02*
X106125000Y-107030000I-230000J0D01*
G01*
X105375000Y-107030000D01*
G75*
G02*
X105145000Y-106800000I0J230000D01*
G01*
X105145000Y-106340000D01*
G75*
G02*
X105375000Y-106110000I230000J0D01*
G01*
G37*
G36*
G01*
X103875000Y-104970000D02*
X104625000Y-104970000D01*
G75*
G02*
X104855000Y-105200000I0J-230000D01*
G01*
X104855000Y-105660000D01*
G75*
G02*
X104625000Y-105890000I-230000J0D01*
G01*
X103875000Y-105890000D01*
G75*
G02*
X103645000Y-105660000I0J230000D01*
G01*
X103645000Y-105200000D01*
G75*
G02*
X103875000Y-104970000I230000J0D01*
G01*
G37*
G36*
G01*
X105375000Y-104970000D02*
X106125000Y-104970000D01*
G75*
G02*
X106355000Y-105200000I0J-230000D01*
G01*
X106355000Y-105660000D01*
G75*
G02*
X106125000Y-105890000I-230000J0D01*
G01*
X105375000Y-105890000D01*
G75*
G02*
X105145000Y-105660000I0J230000D01*
G01*
X105145000Y-105200000D01*
G75*
G02*
X105375000Y-104970000I230000J0D01*
G01*
G37*
G36*
G01*
X106755000Y-107500000D02*
X107055000Y-107500000D01*
G75*
G02*
X107205000Y-107650000I0J-150000D01*
G01*
X107205000Y-109300000D01*
G75*
G02*
X107055000Y-109450000I-150000J0D01*
G01*
X106755000Y-109450000D01*
G75*
G02*
X106605000Y-109300000I0J150000D01*
G01*
X106605000Y-107650000D01*
G75*
G02*
X106755000Y-107500000I150000J0D01*
G01*
G37*
G36*
G01*
X105485000Y-107500000D02*
X105785000Y-107500000D01*
G75*
G02*
X105935000Y-107650000I0J-150000D01*
G01*
X105935000Y-109300000D01*
G75*
G02*
X105785000Y-109450000I-150000J0D01*
G01*
X105485000Y-109450000D01*
G75*
G02*
X105335000Y-109300000I0J150000D01*
G01*
X105335000Y-107650000D01*
G75*
G02*
X105485000Y-107500000I150000J0D01*
G01*
G37*
G36*
G01*
X104215000Y-107500000D02*
X104515000Y-107500000D01*
G75*
G02*
X104665000Y-107650000I0J-150000D01*
G01*
X104665000Y-109300000D01*
G75*
G02*
X104515000Y-109450000I-150000J0D01*
G01*
X104215000Y-109450000D01*
G75*
G02*
X104065000Y-109300000I0J150000D01*
G01*
X104065000Y-107650000D01*
G75*
G02*
X104215000Y-107500000I150000J0D01*
G01*
G37*
G36*
G01*
X102945000Y-107500000D02*
X103245000Y-107500000D01*
G75*
G02*
X103395000Y-107650000I0J-150000D01*
G01*
X103395000Y-109300000D01*
G75*
G02*
X103245000Y-109450000I-150000J0D01*
G01*
X102945000Y-109450000D01*
G75*
G02*
X102795000Y-109300000I0J150000D01*
G01*
X102795000Y-107650000D01*
G75*
G02*
X102945000Y-107500000I150000J0D01*
G01*
G37*
G36*
G01*
X102945000Y-102550000D02*
X103245000Y-102550000D01*
G75*
G02*
X103395000Y-102700000I0J-150000D01*
G01*
X103395000Y-104350000D01*
G75*
G02*
X103245000Y-104500000I-150000J0D01*
G01*
X102945000Y-104500000D01*
G75*
G02*
X102795000Y-104350000I0J150000D01*
G01*
X102795000Y-102700000D01*
G75*
G02*
X102945000Y-102550000I150000J0D01*
G01*
G37*
G36*
G01*
X104215000Y-102550000D02*
X104515000Y-102550000D01*
G75*
G02*
X104665000Y-102700000I0J-150000D01*
G01*
X104665000Y-104350000D01*
G75*
G02*
X104515000Y-104500000I-150000J0D01*
G01*
X104215000Y-104500000D01*
G75*
G02*
X104065000Y-104350000I0J150000D01*
G01*
X104065000Y-102700000D01*
G75*
G02*
X104215000Y-102550000I150000J0D01*
G01*
G37*
G36*
G01*
X105485000Y-102550000D02*
X105785000Y-102550000D01*
G75*
G02*
X105935000Y-102700000I0J-150000D01*
G01*
X105935000Y-104350000D01*
G75*
G02*
X105785000Y-104500000I-150000J0D01*
G01*
X105485000Y-104500000D01*
G75*
G02*
X105335000Y-104350000I0J150000D01*
G01*
X105335000Y-102700000D01*
G75*
G02*
X105485000Y-102550000I150000J0D01*
G01*
G37*
G36*
G01*
X106755000Y-102550000D02*
X107055000Y-102550000D01*
G75*
G02*
X107205000Y-102700000I0J-150000D01*
G01*
X107205000Y-104350000D01*
G75*
G02*
X107055000Y-104500000I-150000J0D01*
G01*
X106755000Y-104500000D01*
G75*
G02*
X106605000Y-104350000I0J150000D01*
G01*
X106605000Y-102700000D01*
G75*
G02*
X106755000Y-102550000I150000J0D01*
G01*
G37*
%TD*%
%TO.C,U1*%
G36*
G01*
X121247500Y-105885000D02*
X120402500Y-105885000D01*
G75*
G02*
X120160000Y-105642500I0J242500D01*
G01*
X120160000Y-105157500D01*
G75*
G02*
X120402500Y-104915000I242500J0D01*
G01*
X121247500Y-104915000D01*
G75*
G02*
X121490000Y-105157500I0J-242500D01*
G01*
X121490000Y-105642500D01*
G75*
G02*
X121247500Y-105885000I-242500J0D01*
G01*
G37*
G36*
G01*
X119597500Y-105885000D02*
X118752500Y-105885000D01*
G75*
G02*
X118510000Y-105642500I0J242500D01*
G01*
X118510000Y-105157500D01*
G75*
G02*
X118752500Y-104915000I242500J0D01*
G01*
X119597500Y-104915000D01*
G75*
G02*
X119840000Y-105157500I0J-242500D01*
G01*
X119840000Y-105642500D01*
G75*
G02*
X119597500Y-105885000I-242500J0D01*
G01*
G37*
G36*
G01*
X121247500Y-107085000D02*
X120402500Y-107085000D01*
G75*
G02*
X120160000Y-106842500I0J242500D01*
G01*
X120160000Y-106357500D01*
G75*
G02*
X120402500Y-106115000I242500J0D01*
G01*
X121247500Y-106115000D01*
G75*
G02*
X121490000Y-106357500I0J-242500D01*
G01*
X121490000Y-106842500D01*
G75*
G02*
X121247500Y-107085000I-242500J0D01*
G01*
G37*
G36*
G01*
X119597500Y-107085000D02*
X118752500Y-107085000D01*
G75*
G02*
X118510000Y-106842500I0J242500D01*
G01*
X118510000Y-106357500D01*
G75*
G02*
X118752500Y-106115000I242500J0D01*
G01*
X119597500Y-106115000D01*
G75*
G02*
X119840000Y-106357500I0J-242500D01*
G01*
X119840000Y-106842500D01*
G75*
G02*
X119597500Y-107085000I-242500J0D01*
G01*
G37*
G36*
G01*
X118245000Y-104500000D02*
X117945000Y-104500000D01*
G75*
G02*
X117795000Y-104350000I0J150000D01*
G01*
X117795000Y-102700000D01*
G75*
G02*
X117945000Y-102550000I150000J0D01*
G01*
X118245000Y-102550000D01*
G75*
G02*
X118395000Y-102700000I0J-150000D01*
G01*
X118395000Y-104350000D01*
G75*
G02*
X118245000Y-104500000I-150000J0D01*
G01*
G37*
G36*
G01*
X119515000Y-104500000D02*
X119215000Y-104500000D01*
G75*
G02*
X119065000Y-104350000I0J150000D01*
G01*
X119065000Y-102700000D01*
G75*
G02*
X119215000Y-102550000I150000J0D01*
G01*
X119515000Y-102550000D01*
G75*
G02*
X119665000Y-102700000I0J-150000D01*
G01*
X119665000Y-104350000D01*
G75*
G02*
X119515000Y-104500000I-150000J0D01*
G01*
G37*
G36*
G01*
X120785000Y-104500000D02*
X120485000Y-104500000D01*
G75*
G02*
X120335000Y-104350000I0J150000D01*
G01*
X120335000Y-102700000D01*
G75*
G02*
X120485000Y-102550000I150000J0D01*
G01*
X120785000Y-102550000D01*
G75*
G02*
X120935000Y-102700000I0J-150000D01*
G01*
X120935000Y-104350000D01*
G75*
G02*
X120785000Y-104500000I-150000J0D01*
G01*
G37*
G36*
G01*
X122055000Y-104500000D02*
X121755000Y-104500000D01*
G75*
G02*
X121605000Y-104350000I0J150000D01*
G01*
X121605000Y-102700000D01*
G75*
G02*
X121755000Y-102550000I150000J0D01*
G01*
X122055000Y-102550000D01*
G75*
G02*
X122205000Y-102700000I0J-150000D01*
G01*
X122205000Y-104350000D01*
G75*
G02*
X122055000Y-104500000I-150000J0D01*
G01*
G37*
G36*
G01*
X122055000Y-109450000D02*
X121755000Y-109450000D01*
G75*
G02*
X121605000Y-109300000I0J150000D01*
G01*
X121605000Y-107650000D01*
G75*
G02*
X121755000Y-107500000I150000J0D01*
G01*
X122055000Y-107500000D01*
G75*
G02*
X122205000Y-107650000I0J-150000D01*
G01*
X122205000Y-109300000D01*
G75*
G02*
X122055000Y-109450000I-150000J0D01*
G01*
G37*
G36*
G01*
X120785000Y-109450000D02*
X120485000Y-109450000D01*
G75*
G02*
X120335000Y-109300000I0J150000D01*
G01*
X120335000Y-107650000D01*
G75*
G02*
X120485000Y-107500000I150000J0D01*
G01*
X120785000Y-107500000D01*
G75*
G02*
X120935000Y-107650000I0J-150000D01*
G01*
X120935000Y-109300000D01*
G75*
G02*
X120785000Y-109450000I-150000J0D01*
G01*
G37*
G36*
G01*
X119515000Y-109450000D02*
X119215000Y-109450000D01*
G75*
G02*
X119065000Y-109300000I0J150000D01*
G01*
X119065000Y-107650000D01*
G75*
G02*
X119215000Y-107500000I150000J0D01*
G01*
X119515000Y-107500000D01*
G75*
G02*
X119665000Y-107650000I0J-150000D01*
G01*
X119665000Y-109300000D01*
G75*
G02*
X119515000Y-109450000I-150000J0D01*
G01*
G37*
G36*
G01*
X118245000Y-109450000D02*
X117945000Y-109450000D01*
G75*
G02*
X117795000Y-109300000I0J150000D01*
G01*
X117795000Y-107650000D01*
G75*
G02*
X117945000Y-107500000I150000J0D01*
G01*
X118245000Y-107500000D01*
G75*
G02*
X118395000Y-107650000I0J-150000D01*
G01*
X118395000Y-109300000D01*
G75*
G02*
X118245000Y-109450000I-150000J0D01*
G01*
G37*
%TD*%
D10*
%TO.C,SW1*%
X104445000Y-112000000D03*
X101045000Y-112000000D03*
%TD*%
%TO.C,R10*%
G36*
G01*
X121400000Y-113157500D02*
X121400000Y-112682500D01*
G75*
G02*
X121637500Y-112445000I237500J0D01*
G01*
X122212500Y-112445000D01*
G75*
G02*
X122450000Y-112682500I0J-237500D01*
G01*
X122450000Y-113157500D01*
G75*
G02*
X122212500Y-113395000I-237500J0D01*
G01*
X121637500Y-113395000D01*
G75*
G02*
X121400000Y-113157500I0J237500D01*
G01*
G37*
G36*
G01*
X119650000Y-113157500D02*
X119650000Y-112682500D01*
G75*
G02*
X119887500Y-112445000I237500J0D01*
G01*
X120462500Y-112445000D01*
G75*
G02*
X120700000Y-112682500I0J-237500D01*
G01*
X120700000Y-113157500D01*
G75*
G02*
X120462500Y-113395000I-237500J0D01*
G01*
X119887500Y-113395000D01*
G75*
G02*
X119650000Y-113157500I0J237500D01*
G01*
G37*
%TD*%
%TO.C,R9*%
G36*
G01*
X117931250Y-111317500D02*
X117931250Y-110842500D01*
G75*
G02*
X118168750Y-110605000I237500J0D01*
G01*
X118743750Y-110605000D01*
G75*
G02*
X118981250Y-110842500I0J-237500D01*
G01*
X118981250Y-111317500D01*
G75*
G02*
X118743750Y-111555000I-237500J0D01*
G01*
X118168750Y-111555000D01*
G75*
G02*
X117931250Y-111317500I0J237500D01*
G01*
G37*
G36*
G01*
X116181250Y-111317500D02*
X116181250Y-110842500D01*
G75*
G02*
X116418750Y-110605000I237500J0D01*
G01*
X116993750Y-110605000D01*
G75*
G02*
X117231250Y-110842500I0J-237500D01*
G01*
X117231250Y-111317500D01*
G75*
G02*
X116993750Y-111555000I-237500J0D01*
G01*
X116418750Y-111555000D01*
G75*
G02*
X116181250Y-111317500I0J237500D01*
G01*
G37*
%TD*%
%TO.C,R5*%
G36*
G01*
X117280000Y-100762500D02*
X117280000Y-101237500D01*
G75*
G02*
X117042500Y-101475000I-237500J0D01*
G01*
X116467500Y-101475000D01*
G75*
G02*
X116230000Y-101237500I0J237500D01*
G01*
X116230000Y-100762500D01*
G75*
G02*
X116467500Y-100525000I237500J0D01*
G01*
X117042500Y-100525000D01*
G75*
G02*
X117280000Y-100762500I0J-237500D01*
G01*
G37*
G36*
G01*
X119030000Y-100762500D02*
X119030000Y-101237500D01*
G75*
G02*
X118792500Y-101475000I-237500J0D01*
G01*
X118217500Y-101475000D01*
G75*
G02*
X117980000Y-101237500I0J237500D01*
G01*
X117980000Y-100762500D01*
G75*
G02*
X118217500Y-100525000I237500J0D01*
G01*
X118792500Y-100525000D01*
G75*
G02*
X119030000Y-100762500I0J-237500D01*
G01*
G37*
%TD*%
%TO.C,R3*%
G36*
G01*
X106800000Y-112682500D02*
X106800000Y-113157500D01*
G75*
G02*
X106562500Y-113395000I-237500J0D01*
G01*
X105987500Y-113395000D01*
G75*
G02*
X105750000Y-113157500I0J237500D01*
G01*
X105750000Y-112682500D01*
G75*
G02*
X105987500Y-112445000I237500J0D01*
G01*
X106562500Y-112445000D01*
G75*
G02*
X106800000Y-112682500I0J-237500D01*
G01*
G37*
G36*
G01*
X108550000Y-112682500D02*
X108550000Y-113157500D01*
G75*
G02*
X108312500Y-113395000I-237500J0D01*
G01*
X107737500Y-113395000D01*
G75*
G02*
X107500000Y-113157500I0J237500D01*
G01*
X107500000Y-112682500D01*
G75*
G02*
X107737500Y-112445000I237500J0D01*
G01*
X108312500Y-112445000D01*
G75*
G02*
X108550000Y-112682500I0J-237500D01*
G01*
G37*
%TD*%
%TO.C,R1*%
G36*
G01*
X107720000Y-101237500D02*
X107720000Y-100762500D01*
G75*
G02*
X107957500Y-100525000I237500J0D01*
G01*
X108532500Y-100525000D01*
G75*
G02*
X108770000Y-100762500I0J-237500D01*
G01*
X108770000Y-101237500D01*
G75*
G02*
X108532500Y-101475000I-237500J0D01*
G01*
X107957500Y-101475000D01*
G75*
G02*
X107720000Y-101237500I0J237500D01*
G01*
G37*
G36*
G01*
X105970000Y-101237500D02*
X105970000Y-100762500D01*
G75*
G02*
X106207500Y-100525000I237500J0D01*
G01*
X106782500Y-100525000D01*
G75*
G02*
X107020000Y-100762500I0J-237500D01*
G01*
X107020000Y-101237500D01*
G75*
G02*
X106782500Y-101475000I-237500J0D01*
G01*
X106207500Y-101475000D01*
G75*
G02*
X105970000Y-101237500I0J237500D01*
G01*
G37*
%TD*%
D11*
%TO.C,L2*%
X115050000Y-106000000D03*
X109950000Y-106000000D03*
%TD*%
%TO.C,C23*%
G36*
G01*
X121400000Y-111317500D02*
X121400000Y-110842500D01*
G75*
G02*
X121637500Y-110605000I237500J0D01*
G01*
X122212500Y-110605000D01*
G75*
G02*
X122450000Y-110842500I0J-237500D01*
G01*
X122450000Y-111317500D01*
G75*
G02*
X122212500Y-111555000I-237500J0D01*
G01*
X121637500Y-111555000D01*
G75*
G02*
X121400000Y-111317500I0J237500D01*
G01*
G37*
G36*
G01*
X119650000Y-111317500D02*
X119650000Y-110842500D01*
G75*
G02*
X119887500Y-110605000I237500J0D01*
G01*
X120462500Y-110605000D01*
G75*
G02*
X120700000Y-110842500I0J-237500D01*
G01*
X120700000Y-111317500D01*
G75*
G02*
X120462500Y-111555000I-237500J0D01*
G01*
X119887500Y-111555000D01*
G75*
G02*
X119650000Y-111317500I0J237500D01*
G01*
G37*
%TD*%
%TO.C,C22*%
G36*
G01*
X114462500Y-111317500D02*
X114462500Y-110842500D01*
G75*
G02*
X114700000Y-110605000I237500J0D01*
G01*
X115275000Y-110605000D01*
G75*
G02*
X115512500Y-110842500I0J-237500D01*
G01*
X115512500Y-111317500D01*
G75*
G02*
X115275000Y-111555000I-237500J0D01*
G01*
X114700000Y-111555000D01*
G75*
G02*
X114462500Y-111317500I0J237500D01*
G01*
G37*
G36*
G01*
X112712500Y-111317500D02*
X112712500Y-110842500D01*
G75*
G02*
X112950000Y-110605000I237500J0D01*
G01*
X113525000Y-110605000D01*
G75*
G02*
X113762500Y-110842500I0J-237500D01*
G01*
X113762500Y-111317500D01*
G75*
G02*
X113525000Y-111555000I-237500J0D01*
G01*
X112950000Y-111555000D01*
G75*
G02*
X112712500Y-111317500I0J237500D01*
G01*
G37*
%TD*%
%TO.C,C17*%
G36*
G01*
X121400000Y-101237500D02*
X121400000Y-100762500D01*
G75*
G02*
X121637500Y-100525000I237500J0D01*
G01*
X122212500Y-100525000D01*
G75*
G02*
X122450000Y-100762500I0J-237500D01*
G01*
X122450000Y-101237500D01*
G75*
G02*
X122212500Y-101475000I-237500J0D01*
G01*
X121637500Y-101475000D01*
G75*
G02*
X121400000Y-101237500I0J237500D01*
G01*
G37*
G36*
G01*
X119650000Y-101237500D02*
X119650000Y-100762500D01*
G75*
G02*
X119887500Y-100525000I237500J0D01*
G01*
X120462500Y-100525000D01*
G75*
G02*
X120700000Y-100762500I0J-237500D01*
G01*
X120700000Y-101237500D01*
G75*
G02*
X120462500Y-101475000I-237500J0D01*
G01*
X119887500Y-101475000D01*
G75*
G02*
X119650000Y-101237500I0J237500D01*
G01*
G37*
%TD*%
%TO.C,C15*%
G36*
G01*
X113860000Y-100762500D02*
X113860000Y-101237500D01*
G75*
G02*
X113622500Y-101475000I-237500J0D01*
G01*
X113047500Y-101475000D01*
G75*
G02*
X112810000Y-101237500I0J237500D01*
G01*
X112810000Y-100762500D01*
G75*
G02*
X113047500Y-100525000I237500J0D01*
G01*
X113622500Y-100525000D01*
G75*
G02*
X113860000Y-100762500I0J-237500D01*
G01*
G37*
G36*
G01*
X115610000Y-100762500D02*
X115610000Y-101237500D01*
G75*
G02*
X115372500Y-101475000I-237500J0D01*
G01*
X114797500Y-101475000D01*
G75*
G02*
X114560000Y-101237500I0J237500D01*
G01*
X114560000Y-100762500D01*
G75*
G02*
X114797500Y-100525000I237500J0D01*
G01*
X115372500Y-100525000D01*
G75*
G02*
X115610000Y-100762500I0J-237500D01*
G01*
G37*
%TD*%
%TO.C,C9*%
G36*
G01*
X114450000Y-113157500D02*
X114450000Y-112682500D01*
G75*
G02*
X114687500Y-112445000I237500J0D01*
G01*
X115262500Y-112445000D01*
G75*
G02*
X115500000Y-112682500I0J-237500D01*
G01*
X115500000Y-113157500D01*
G75*
G02*
X115262500Y-113395000I-237500J0D01*
G01*
X114687500Y-113395000D01*
G75*
G02*
X114450000Y-113157500I0J237500D01*
G01*
G37*
G36*
G01*
X112700000Y-113157500D02*
X112700000Y-112682500D01*
G75*
G02*
X112937500Y-112445000I237500J0D01*
G01*
X113512500Y-112445000D01*
G75*
G02*
X113750000Y-112682500I0J-237500D01*
G01*
X113750000Y-113157500D01*
G75*
G02*
X113512500Y-113395000I-237500J0D01*
G01*
X112937500Y-113395000D01*
G75*
G02*
X112700000Y-113157500I0J237500D01*
G01*
G37*
%TD*%
%TO.C,C8*%
G36*
G01*
X103600000Y-100762500D02*
X103600000Y-101237500D01*
G75*
G02*
X103362500Y-101475000I-237500J0D01*
G01*
X102787500Y-101475000D01*
G75*
G02*
X102550000Y-101237500I0J237500D01*
G01*
X102550000Y-100762500D01*
G75*
G02*
X102787500Y-100525000I237500J0D01*
G01*
X103362500Y-100525000D01*
G75*
G02*
X103600000Y-100762500I0J-237500D01*
G01*
G37*
G36*
G01*
X105350000Y-100762500D02*
X105350000Y-101237500D01*
G75*
G02*
X105112500Y-101475000I-237500J0D01*
G01*
X104537500Y-101475000D01*
G75*
G02*
X104300000Y-101237500I0J237500D01*
G01*
X104300000Y-100762500D01*
G75*
G02*
X104537500Y-100525000I237500J0D01*
G01*
X105112500Y-100525000D01*
G75*
G02*
X105350000Y-100762500I0J-237500D01*
G01*
G37*
%TD*%
%TO.C,C7*%
G36*
G01*
X110293750Y-110842500D02*
X110293750Y-111317500D01*
G75*
G02*
X110056250Y-111555000I-237500J0D01*
G01*
X109481250Y-111555000D01*
G75*
G02*
X109243750Y-111317500I0J237500D01*
G01*
X109243750Y-110842500D01*
G75*
G02*
X109481250Y-110605000I237500J0D01*
G01*
X110056250Y-110605000D01*
G75*
G02*
X110293750Y-110842500I0J-237500D01*
G01*
G37*
G36*
G01*
X112043750Y-110842500D02*
X112043750Y-111317500D01*
G75*
G02*
X111806250Y-111555000I-237500J0D01*
G01*
X111231250Y-111555000D01*
G75*
G02*
X110993750Y-111317500I0J237500D01*
G01*
X110993750Y-110842500D01*
G75*
G02*
X111231250Y-110605000I237500J0D01*
G01*
X111806250Y-110605000D01*
G75*
G02*
X112043750Y-110842500I0J-237500D01*
G01*
G37*
%TD*%
%TO.C,C6*%
G36*
G01*
X111140000Y-101237500D02*
X111140000Y-100762500D01*
G75*
G02*
X111377500Y-100525000I237500J0D01*
G01*
X111952500Y-100525000D01*
G75*
G02*
X112190000Y-100762500I0J-237500D01*
G01*
X112190000Y-101237500D01*
G75*
G02*
X111952500Y-101475000I-237500J0D01*
G01*
X111377500Y-101475000D01*
G75*
G02*
X111140000Y-101237500I0J237500D01*
G01*
G37*
G36*
G01*
X109390000Y-101237500D02*
X109390000Y-100762500D01*
G75*
G02*
X109627500Y-100525000I237500J0D01*
G01*
X110202500Y-100525000D01*
G75*
G02*
X110440000Y-100762500I0J-237500D01*
G01*
X110440000Y-101237500D01*
G75*
G02*
X110202500Y-101475000I-237500J0D01*
G01*
X109627500Y-101475000D01*
G75*
G02*
X109390000Y-101237500I0J237500D01*
G01*
G37*
%TD*%
%TO.C,C4*%
G36*
G01*
X107525000Y-111317500D02*
X107525000Y-110842500D01*
G75*
G02*
X107762500Y-110605000I237500J0D01*
G01*
X108337500Y-110605000D01*
G75*
G02*
X108575000Y-110842500I0J-237500D01*
G01*
X108575000Y-111317500D01*
G75*
G02*
X108337500Y-111555000I-237500J0D01*
G01*
X107762500Y-111555000D01*
G75*
G02*
X107525000Y-111317500I0J237500D01*
G01*
G37*
G36*
G01*
X105775000Y-111317500D02*
X105775000Y-110842500D01*
G75*
G02*
X106012500Y-110605000I237500J0D01*
G01*
X106587500Y-110605000D01*
G75*
G02*
X106825000Y-110842500I0J-237500D01*
G01*
X106825000Y-111317500D01*
G75*
G02*
X106587500Y-111555000I-237500J0D01*
G01*
X106012500Y-111555000D01*
G75*
G02*
X105775000Y-111317500I0J237500D01*
G01*
G37*
%TD*%
%TO.C,C3*%
G36*
G01*
X110275000Y-112682500D02*
X110275000Y-113157500D01*
G75*
G02*
X110037500Y-113395000I-237500J0D01*
G01*
X109462500Y-113395000D01*
G75*
G02*
X109225000Y-113157500I0J237500D01*
G01*
X109225000Y-112682500D01*
G75*
G02*
X109462500Y-112445000I237500J0D01*
G01*
X110037500Y-112445000D01*
G75*
G02*
X110275000Y-112682500I0J-237500D01*
G01*
G37*
G36*
G01*
X112025000Y-112682500D02*
X112025000Y-113157500D01*
G75*
G02*
X111787500Y-113395000I-237500J0D01*
G01*
X111212500Y-113395000D01*
G75*
G02*
X110975000Y-113157500I0J237500D01*
G01*
X110975000Y-112682500D01*
G75*
G02*
X111212500Y-112445000I237500J0D01*
G01*
X111787500Y-112445000D01*
G75*
G02*
X112025000Y-112682500I0J-237500D01*
G01*
G37*
%TD*%
M02*
