%TF.GenerationSoftware,KiCad,Pcbnew,(5.1.6-0-10_14)*%
%TF.CreationDate,2021-01-13T21:17:16+08:00*%
%TF.ProjectId,Zeeuss,5a656575-7373-42e6-9b69-6361645f7063,rev?*%
%TF.SameCoordinates,Original*%
%TF.FileFunction,Legend,Bot*%
%TF.FilePolarity,Positive*%
%FSLAX46Y46*%
G04 Gerber Fmt 4.6, Leading zero omitted, Abs format (unit mm)*
G04 Created by KiCad (PCBNEW (5.1.6-0-10_14)) date 2021-01-13 21:17:16*
%MOMM*%
%LPD*%
G01*
G04 APERTURE LIST*
%ADD10C,0.010000*%
%ADD11C,0.120000*%
%ADD12C,0.150000*%
G04 APERTURE END LIST*
D10*
%TO.C,G\u002A\u002A\u002A*%
G36*
X113975295Y-108542236D02*
G01*
X114199412Y-108542236D01*
X114199412Y-107451530D01*
X113975295Y-107451530D01*
X113975295Y-108542236D01*
G37*
X113975295Y-108542236D02*
X114199412Y-108542236D01*
X114199412Y-107451530D01*
X113975295Y-107451530D01*
X113975295Y-108542236D01*
G36*
X113739785Y-107993148D02*
G01*
X113743706Y-108534765D01*
X113781618Y-108539186D01*
X113814255Y-108538788D01*
X113830177Y-108532961D01*
X113832631Y-108516060D01*
X113834885Y-108472708D01*
X113836873Y-108406336D01*
X113838528Y-108320374D01*
X113839782Y-108218253D01*
X113840570Y-108103403D01*
X113840824Y-107986922D01*
X113840824Y-107451530D01*
X113735863Y-107451530D01*
X113739785Y-107993148D01*
G37*
X113739785Y-107993148D02*
X113743706Y-108534765D01*
X113781618Y-108539186D01*
X113814255Y-108538788D01*
X113830177Y-108532961D01*
X113832631Y-108516060D01*
X113834885Y-108472708D01*
X113836873Y-108406336D01*
X113838528Y-108320374D01*
X113839782Y-108218253D01*
X113840570Y-108103403D01*
X113840824Y-107986922D01*
X113840824Y-107451530D01*
X113735863Y-107451530D01*
X113739785Y-107993148D01*
G36*
X102007412Y-108542236D02*
G01*
X102042275Y-108542236D01*
X102073653Y-108538374D01*
X102087098Y-108532275D01*
X102089394Y-108515537D01*
X102091503Y-108472342D01*
X102093362Y-108406114D01*
X102094910Y-108320280D01*
X102096084Y-108218263D01*
X102096821Y-108103489D01*
X102097059Y-107986922D01*
X102097059Y-107451530D01*
X102007412Y-107451530D01*
X102007412Y-108542236D01*
G37*
X102007412Y-108542236D02*
X102042275Y-108542236D01*
X102073653Y-108538374D01*
X102087098Y-108532275D01*
X102089394Y-108515537D01*
X102091503Y-108472342D01*
X102093362Y-108406114D01*
X102094910Y-108320280D01*
X102096084Y-108218263D01*
X102096821Y-108103489D01*
X102097059Y-107986922D01*
X102097059Y-107451530D01*
X102007412Y-107451530D01*
X102007412Y-108542236D01*
G36*
X101618942Y-108542236D02*
G01*
X101843059Y-108542236D01*
X101843059Y-107451530D01*
X101618942Y-107451530D01*
X101618942Y-108542236D01*
G37*
X101618942Y-108542236D02*
X101843059Y-108542236D01*
X101843059Y-107451530D01*
X101618942Y-107451530D01*
X101618942Y-108542236D01*
G36*
X112806147Y-107574424D02*
G01*
X112563353Y-107578530D01*
X112558737Y-107626208D01*
X112551276Y-107660115D01*
X112531092Y-107674604D01*
X112506443Y-107678502D01*
X112458765Y-107683118D01*
X112458765Y-108295706D01*
X112507324Y-108300388D01*
X112541148Y-108307336D01*
X112554220Y-108324746D01*
X112555883Y-108345959D01*
X112557823Y-108373825D01*
X112566384Y-108394013D01*
X112585680Y-108407747D01*
X112619823Y-108416254D01*
X112672924Y-108420759D01*
X112749097Y-108422489D01*
X112813340Y-108422706D01*
X112902942Y-108422144D01*
X112966675Y-108420216D01*
X113008534Y-108416558D01*
X113032517Y-108410809D01*
X113042620Y-108402606D01*
X113042936Y-108401866D01*
X113047015Y-108373969D01*
X113046802Y-108331971D01*
X113046202Y-108323425D01*
X113040643Y-108285568D01*
X113026967Y-108268108D01*
X112997059Y-108261558D01*
X112992912Y-108261142D01*
X112944353Y-108256460D01*
X112944353Y-107995936D01*
X112944525Y-107901964D01*
X112945342Y-107833763D01*
X112947255Y-107787221D01*
X112950718Y-107758228D01*
X112956183Y-107742673D01*
X112964102Y-107736444D01*
X112973014Y-107735412D01*
X112794942Y-107735412D01*
X112794942Y-107986922D01*
X112794377Y-108070751D01*
X112792815Y-108143939D01*
X112790449Y-108201349D01*
X112787477Y-108237846D01*
X112784981Y-108248393D01*
X112765711Y-108253771D01*
X112726156Y-108257388D01*
X112687863Y-108258353D01*
X112600706Y-108258353D01*
X112600706Y-107735412D01*
X112794942Y-107735412D01*
X112973014Y-107735412D01*
X113015421Y-107730595D01*
X113038710Y-107712048D01*
X113047975Y-107673623D01*
X113048942Y-107643796D01*
X113048942Y-107570319D01*
X112806147Y-107574424D01*
G37*
X112806147Y-107574424D02*
X112563353Y-107578530D01*
X112558737Y-107626208D01*
X112551276Y-107660115D01*
X112531092Y-107674604D01*
X112506443Y-107678502D01*
X112458765Y-107683118D01*
X112458765Y-108295706D01*
X112507324Y-108300388D01*
X112541148Y-108307336D01*
X112554220Y-108324746D01*
X112555883Y-108345959D01*
X112557823Y-108373825D01*
X112566384Y-108394013D01*
X112585680Y-108407747D01*
X112619823Y-108416254D01*
X112672924Y-108420759D01*
X112749097Y-108422489D01*
X112813340Y-108422706D01*
X112902942Y-108422144D01*
X112966675Y-108420216D01*
X113008534Y-108416558D01*
X113032517Y-108410809D01*
X113042620Y-108402606D01*
X113042936Y-108401866D01*
X113047015Y-108373969D01*
X113046802Y-108331971D01*
X113046202Y-108323425D01*
X113040643Y-108285568D01*
X113026967Y-108268108D01*
X112997059Y-108261558D01*
X112992912Y-108261142D01*
X112944353Y-108256460D01*
X112944353Y-107995936D01*
X112944525Y-107901964D01*
X112945342Y-107833763D01*
X112947255Y-107787221D01*
X112950718Y-107758228D01*
X112956183Y-107742673D01*
X112964102Y-107736444D01*
X112973014Y-107735412D01*
X112794942Y-107735412D01*
X112794942Y-107986922D01*
X112794377Y-108070751D01*
X112792815Y-108143939D01*
X112790449Y-108201349D01*
X112787477Y-108237846D01*
X112784981Y-108248393D01*
X112765711Y-108253771D01*
X112726156Y-108257388D01*
X112687863Y-108258353D01*
X112600706Y-108258353D01*
X112600706Y-107735412D01*
X112794942Y-107735412D01*
X112973014Y-107735412D01*
X113015421Y-107730595D01*
X113038710Y-107712048D01*
X113047975Y-107673623D01*
X113048942Y-107643796D01*
X113048942Y-107570319D01*
X112806147Y-107574424D01*
G36*
X111766789Y-107627089D02*
G01*
X111759910Y-107660854D01*
X111742506Y-107673922D01*
X111720060Y-107675648D01*
X111683656Y-107681901D01*
X111662370Y-107694495D01*
X111656852Y-107715523D01*
X111653048Y-107757369D01*
X111651135Y-107811007D01*
X111651292Y-107867411D01*
X111653695Y-107917556D01*
X111657407Y-107947377D01*
X111671967Y-107955660D01*
X111704678Y-107961978D01*
X111707971Y-107962318D01*
X111742542Y-107969872D01*
X111757610Y-107989630D01*
X111761613Y-108011775D01*
X111774189Y-108054782D01*
X111803087Y-108075161D01*
X111834971Y-108078830D01*
X111860886Y-108086299D01*
X111868557Y-108113330D01*
X111868589Y-108116412D01*
X111864583Y-108141839D01*
X111846676Y-108152122D01*
X111817241Y-108153765D01*
X111782141Y-108156664D01*
X111766707Y-108171182D01*
X111761212Y-108202324D01*
X111753923Y-108236598D01*
X111734472Y-108251348D01*
X111708967Y-108255490D01*
X111673203Y-108264515D01*
X111655980Y-108288077D01*
X111652171Y-108302132D01*
X111648645Y-108348701D01*
X111652795Y-108383436D01*
X111662720Y-108408401D01*
X111682093Y-108419785D01*
X111720508Y-108422686D01*
X111726669Y-108422706D01*
X111774276Y-108417692D01*
X111799424Y-108398464D01*
X111808364Y-108358747D01*
X111808824Y-108340255D01*
X111814495Y-108314874D01*
X111837162Y-108303226D01*
X111857383Y-108300388D01*
X111890934Y-108293395D01*
X111906779Y-108274598D01*
X111913412Y-108243412D01*
X111922216Y-108207289D01*
X111941586Y-108190484D01*
X111973177Y-108183648D01*
X112009064Y-108175031D01*
X112025002Y-108156719D01*
X112030153Y-108127618D01*
X112038563Y-108092192D01*
X112057395Y-108079469D01*
X112063771Y-108079059D01*
X112076796Y-108081276D01*
X112085203Y-108091469D01*
X112089990Y-108114953D01*
X112092157Y-108157041D01*
X112092702Y-108223048D01*
X112092706Y-108232953D01*
X112094594Y-108316011D01*
X112100128Y-108373284D01*
X112109117Y-108402939D01*
X112110636Y-108404777D01*
X112136587Y-108416604D01*
X112177276Y-108422543D01*
X112185057Y-108422706D01*
X112224249Y-108419264D01*
X112243490Y-108405657D01*
X112249769Y-108389089D01*
X112251837Y-108365427D01*
X112253391Y-108316275D01*
X112254388Y-108246019D01*
X112254788Y-108159048D01*
X112254548Y-108059748D01*
X112253789Y-107967000D01*
X112251286Y-107735412D01*
X112092706Y-107735412D01*
X112092706Y-107914706D01*
X111808824Y-107914706D01*
X111808824Y-107735412D01*
X112092706Y-107735412D01*
X112251286Y-107735412D01*
X112249589Y-107578530D01*
X111771471Y-107578530D01*
X111766789Y-107627089D01*
G37*
X111766789Y-107627089D02*
X111759910Y-107660854D01*
X111742506Y-107673922D01*
X111720060Y-107675648D01*
X111683656Y-107681901D01*
X111662370Y-107694495D01*
X111656852Y-107715523D01*
X111653048Y-107757369D01*
X111651135Y-107811007D01*
X111651292Y-107867411D01*
X111653695Y-107917556D01*
X111657407Y-107947377D01*
X111671967Y-107955660D01*
X111704678Y-107961978D01*
X111707971Y-107962318D01*
X111742542Y-107969872D01*
X111757610Y-107989630D01*
X111761613Y-108011775D01*
X111774189Y-108054782D01*
X111803087Y-108075161D01*
X111834971Y-108078830D01*
X111860886Y-108086299D01*
X111868557Y-108113330D01*
X111868589Y-108116412D01*
X111864583Y-108141839D01*
X111846676Y-108152122D01*
X111817241Y-108153765D01*
X111782141Y-108156664D01*
X111766707Y-108171182D01*
X111761212Y-108202324D01*
X111753923Y-108236598D01*
X111734472Y-108251348D01*
X111708967Y-108255490D01*
X111673203Y-108264515D01*
X111655980Y-108288077D01*
X111652171Y-108302132D01*
X111648645Y-108348701D01*
X111652795Y-108383436D01*
X111662720Y-108408401D01*
X111682093Y-108419785D01*
X111720508Y-108422686D01*
X111726669Y-108422706D01*
X111774276Y-108417692D01*
X111799424Y-108398464D01*
X111808364Y-108358747D01*
X111808824Y-108340255D01*
X111814495Y-108314874D01*
X111837162Y-108303226D01*
X111857383Y-108300388D01*
X111890934Y-108293395D01*
X111906779Y-108274598D01*
X111913412Y-108243412D01*
X111922216Y-108207289D01*
X111941586Y-108190484D01*
X111973177Y-108183648D01*
X112009064Y-108175031D01*
X112025002Y-108156719D01*
X112030153Y-108127618D01*
X112038563Y-108092192D01*
X112057395Y-108079469D01*
X112063771Y-108079059D01*
X112076796Y-108081276D01*
X112085203Y-108091469D01*
X112089990Y-108114953D01*
X112092157Y-108157041D01*
X112092702Y-108223048D01*
X112092706Y-108232953D01*
X112094594Y-108316011D01*
X112100128Y-108373284D01*
X112109117Y-108402939D01*
X112110636Y-108404777D01*
X112136587Y-108416604D01*
X112177276Y-108422543D01*
X112185057Y-108422706D01*
X112224249Y-108419264D01*
X112243490Y-108405657D01*
X112249769Y-108389089D01*
X112251837Y-108365427D01*
X112253391Y-108316275D01*
X112254388Y-108246019D01*
X112254788Y-108159048D01*
X112254548Y-108059748D01*
X112253789Y-107967000D01*
X112251286Y-107735412D01*
X112092706Y-107735412D01*
X112092706Y-107914706D01*
X111808824Y-107914706D01*
X111808824Y-107735412D01*
X112092706Y-107735412D01*
X112251286Y-107735412D01*
X112249589Y-107578530D01*
X111771471Y-107578530D01*
X111766789Y-107627089D01*
G36*
X110959966Y-107627089D02*
G01*
X110951237Y-107662913D01*
X110931993Y-107675421D01*
X110927570Y-107675648D01*
X110902956Y-107676144D01*
X110884421Y-107680107D01*
X110871102Y-107691248D01*
X110862138Y-107713278D01*
X110856667Y-107749909D01*
X110853826Y-107804851D01*
X110852754Y-107881815D01*
X110852589Y-107984514D01*
X110852589Y-108303177D01*
X110904883Y-108303177D01*
X110940313Y-108306033D01*
X110954804Y-108318615D01*
X110957177Y-108339308D01*
X110958365Y-108373310D01*
X110965115Y-108396535D01*
X110982207Y-108411035D01*
X111014421Y-108418861D01*
X111066536Y-108422067D01*
X111143332Y-108422705D01*
X111151412Y-108422706D01*
X111228535Y-108422095D01*
X111280739Y-108419839D01*
X111312971Y-108415308D01*
X111330177Y-108407871D01*
X111336578Y-108399073D01*
X111343952Y-108365093D01*
X111345647Y-108340255D01*
X111351318Y-108314874D01*
X111373986Y-108303226D01*
X111394206Y-108300388D01*
X111442765Y-108295706D01*
X111446825Y-107997965D01*
X111448066Y-107892207D01*
X111447999Y-107812605D01*
X111445856Y-107755437D01*
X111443258Y-107735412D01*
X111300824Y-107735412D01*
X111300824Y-108258353D01*
X111002000Y-108258353D01*
X111002000Y-107735412D01*
X111300824Y-107735412D01*
X111443258Y-107735412D01*
X111440866Y-107716982D01*
X111432260Y-107693518D01*
X111419268Y-107681324D01*
X111401121Y-107676677D01*
X111380212Y-107675876D01*
X111356259Y-107669115D01*
X111345098Y-107643949D01*
X111342859Y-107627089D01*
X111338177Y-107578530D01*
X110964647Y-107578530D01*
X110959966Y-107627089D01*
G37*
X110959966Y-107627089D02*
X110951237Y-107662913D01*
X110931993Y-107675421D01*
X110927570Y-107675648D01*
X110902956Y-107676144D01*
X110884421Y-107680107D01*
X110871102Y-107691248D01*
X110862138Y-107713278D01*
X110856667Y-107749909D01*
X110853826Y-107804851D01*
X110852754Y-107881815D01*
X110852589Y-107984514D01*
X110852589Y-108303177D01*
X110904883Y-108303177D01*
X110940313Y-108306033D01*
X110954804Y-108318615D01*
X110957177Y-108339308D01*
X110958365Y-108373310D01*
X110965115Y-108396535D01*
X110982207Y-108411035D01*
X111014421Y-108418861D01*
X111066536Y-108422067D01*
X111143332Y-108422705D01*
X111151412Y-108422706D01*
X111228535Y-108422095D01*
X111280739Y-108419839D01*
X111312971Y-108415308D01*
X111330177Y-108407871D01*
X111336578Y-108399073D01*
X111343952Y-108365093D01*
X111345647Y-108340255D01*
X111351318Y-108314874D01*
X111373986Y-108303226D01*
X111394206Y-108300388D01*
X111442765Y-108295706D01*
X111446825Y-107997965D01*
X111448066Y-107892207D01*
X111447999Y-107812605D01*
X111445856Y-107755437D01*
X111443258Y-107735412D01*
X111300824Y-107735412D01*
X111300824Y-108258353D01*
X111002000Y-108258353D01*
X111002000Y-107735412D01*
X111300824Y-107735412D01*
X111443258Y-107735412D01*
X111440866Y-107716982D01*
X111432260Y-107693518D01*
X111419268Y-107681324D01*
X111401121Y-107676677D01*
X111380212Y-107675876D01*
X111356259Y-107669115D01*
X111345098Y-107643949D01*
X111342859Y-107627089D01*
X111338177Y-107578530D01*
X110964647Y-107578530D01*
X110959966Y-107627089D01*
G36*
X110118990Y-107573825D02*
G01*
X110053236Y-107578530D01*
X110049036Y-107967000D01*
X110048207Y-108073441D01*
X110048054Y-108171361D01*
X110048535Y-108256372D01*
X110049608Y-108324087D01*
X110051233Y-108370118D01*
X110053056Y-108389089D01*
X110064421Y-108411911D01*
X110089602Y-108421381D01*
X110117767Y-108422706D01*
X110161814Y-108418746D01*
X110189428Y-108403333D01*
X110204196Y-108371165D01*
X110209704Y-108316941D01*
X110210118Y-108286194D01*
X110210118Y-108185541D01*
X110258677Y-108180859D01*
X110292906Y-108173615D01*
X110307649Y-108154136D01*
X110311918Y-108127618D01*
X110318866Y-108093794D01*
X110336275Y-108080722D01*
X110357488Y-108079059D01*
X110403818Y-108068924D01*
X110428869Y-108037913D01*
X110434236Y-108001365D01*
X110439708Y-107969916D01*
X110459556Y-107959681D01*
X110464118Y-107959530D01*
X110475972Y-107961089D01*
X110484194Y-107968836D01*
X110489446Y-107987378D01*
X110492389Y-108021318D01*
X110493686Y-108075264D01*
X110493998Y-108153819D01*
X110494000Y-108167484D01*
X110494628Y-108244961D01*
X110496350Y-108312905D01*
X110498923Y-108365112D01*
X110502104Y-108395378D01*
X110503070Y-108399073D01*
X110522009Y-108415889D01*
X110564452Y-108422492D01*
X110577491Y-108422706D01*
X110619758Y-108420298D01*
X110641320Y-108410337D01*
X110651063Y-108389089D01*
X110653131Y-108365427D01*
X110654685Y-108316275D01*
X110655682Y-108246019D01*
X110656082Y-108159048D01*
X110655842Y-108059748D01*
X110655083Y-107967000D01*
X110650883Y-107578530D01*
X110501471Y-107578530D01*
X110497099Y-107685954D01*
X110492728Y-107793379D01*
X110444805Y-107798013D01*
X110411649Y-107805058D01*
X110395943Y-107824077D01*
X110389412Y-107854942D01*
X110380608Y-107891065D01*
X110361239Y-107907870D01*
X110329647Y-107914706D01*
X110293761Y-107923323D01*
X110277823Y-107941635D01*
X110272671Y-107970736D01*
X110264262Y-108006161D01*
X110245430Y-108018885D01*
X110239054Y-108019295D01*
X110227505Y-108017510D01*
X110219506Y-108009075D01*
X110214401Y-107989368D01*
X110211535Y-107953768D01*
X110210251Y-107897653D01*
X110209892Y-107816401D01*
X110209889Y-107813853D01*
X110208936Y-107737279D01*
X110206483Y-107670672D01*
X110202875Y-107620136D01*
X110198455Y-107591775D01*
X110197203Y-107588766D01*
X110172011Y-107575591D01*
X110122195Y-107573610D01*
X110118990Y-107573825D01*
G37*
X110118990Y-107573825D02*
X110053236Y-107578530D01*
X110049036Y-107967000D01*
X110048207Y-108073441D01*
X110048054Y-108171361D01*
X110048535Y-108256372D01*
X110049608Y-108324087D01*
X110051233Y-108370118D01*
X110053056Y-108389089D01*
X110064421Y-108411911D01*
X110089602Y-108421381D01*
X110117767Y-108422706D01*
X110161814Y-108418746D01*
X110189428Y-108403333D01*
X110204196Y-108371165D01*
X110209704Y-108316941D01*
X110210118Y-108286194D01*
X110210118Y-108185541D01*
X110258677Y-108180859D01*
X110292906Y-108173615D01*
X110307649Y-108154136D01*
X110311918Y-108127618D01*
X110318866Y-108093794D01*
X110336275Y-108080722D01*
X110357488Y-108079059D01*
X110403818Y-108068924D01*
X110428869Y-108037913D01*
X110434236Y-108001365D01*
X110439708Y-107969916D01*
X110459556Y-107959681D01*
X110464118Y-107959530D01*
X110475972Y-107961089D01*
X110484194Y-107968836D01*
X110489446Y-107987378D01*
X110492389Y-108021318D01*
X110493686Y-108075264D01*
X110493998Y-108153819D01*
X110494000Y-108167484D01*
X110494628Y-108244961D01*
X110496350Y-108312905D01*
X110498923Y-108365112D01*
X110502104Y-108395378D01*
X110503070Y-108399073D01*
X110522009Y-108415889D01*
X110564452Y-108422492D01*
X110577491Y-108422706D01*
X110619758Y-108420298D01*
X110641320Y-108410337D01*
X110651063Y-108389089D01*
X110653131Y-108365427D01*
X110654685Y-108316275D01*
X110655682Y-108246019D01*
X110656082Y-108159048D01*
X110655842Y-108059748D01*
X110655083Y-107967000D01*
X110650883Y-107578530D01*
X110501471Y-107578530D01*
X110497099Y-107685954D01*
X110492728Y-107793379D01*
X110444805Y-107798013D01*
X110411649Y-107805058D01*
X110395943Y-107824077D01*
X110389412Y-107854942D01*
X110380608Y-107891065D01*
X110361239Y-107907870D01*
X110329647Y-107914706D01*
X110293761Y-107923323D01*
X110277823Y-107941635D01*
X110272671Y-107970736D01*
X110264262Y-108006161D01*
X110245430Y-108018885D01*
X110239054Y-108019295D01*
X110227505Y-108017510D01*
X110219506Y-108009075D01*
X110214401Y-107989368D01*
X110211535Y-107953768D01*
X110210251Y-107897653D01*
X110209892Y-107816401D01*
X110209889Y-107813853D01*
X110208936Y-107737279D01*
X110206483Y-107670672D01*
X110202875Y-107620136D01*
X110198455Y-107591775D01*
X110197203Y-107588766D01*
X110172011Y-107575591D01*
X110122195Y-107573610D01*
X110118990Y-107573825D01*
G36*
X109253883Y-107643851D02*
G01*
X109257276Y-107693980D01*
X109268498Y-107720358D01*
X109277517Y-107726343D01*
X109300668Y-107729703D01*
X109347363Y-107732500D01*
X109411265Y-107734478D01*
X109486037Y-107735383D01*
X109502380Y-107735412D01*
X109703609Y-107735412D01*
X109694647Y-107907236D01*
X109586324Y-107911626D01*
X109478000Y-107916015D01*
X109478000Y-107988468D01*
X109480000Y-108031287D01*
X109489783Y-108057966D01*
X109513022Y-108072295D01*
X109555394Y-108078060D01*
X109613693Y-108079059D01*
X109702118Y-108079059D01*
X109702118Y-108257555D01*
X109481736Y-108261689D01*
X109261353Y-108265824D01*
X109261353Y-108415236D01*
X109549316Y-108419295D01*
X109654061Y-108420330D01*
X109732238Y-108419964D01*
X109787136Y-108418029D01*
X109822044Y-108414356D01*
X109840251Y-108408775D01*
X109844655Y-108404131D01*
X109846466Y-108384591D01*
X109847823Y-108339271D01*
X109848692Y-108272269D01*
X109849042Y-108187684D01*
X109848839Y-108089613D01*
X109848050Y-107982157D01*
X109848045Y-107981719D01*
X109844059Y-107578530D01*
X109253883Y-107570428D01*
X109253883Y-107643851D01*
G37*
X109253883Y-107643851D02*
X109257276Y-107693980D01*
X109268498Y-107720358D01*
X109277517Y-107726343D01*
X109300668Y-107729703D01*
X109347363Y-107732500D01*
X109411265Y-107734478D01*
X109486037Y-107735383D01*
X109502380Y-107735412D01*
X109703609Y-107735412D01*
X109694647Y-107907236D01*
X109586324Y-107911626D01*
X109478000Y-107916015D01*
X109478000Y-107988468D01*
X109480000Y-108031287D01*
X109489783Y-108057966D01*
X109513022Y-108072295D01*
X109555394Y-108078060D01*
X109613693Y-108079059D01*
X109702118Y-108079059D01*
X109702118Y-108257555D01*
X109481736Y-108261689D01*
X109261353Y-108265824D01*
X109261353Y-108415236D01*
X109549316Y-108419295D01*
X109654061Y-108420330D01*
X109732238Y-108419964D01*
X109787136Y-108418029D01*
X109822044Y-108414356D01*
X109840251Y-108408775D01*
X109844655Y-108404131D01*
X109846466Y-108384591D01*
X109847823Y-108339271D01*
X109848692Y-108272269D01*
X109849042Y-108187684D01*
X109848839Y-108089613D01*
X109848050Y-107982157D01*
X109848045Y-107981719D01*
X109844059Y-107578530D01*
X109253883Y-107570428D01*
X109253883Y-107643851D01*
G36*
X107759765Y-107622983D02*
G01*
X107757212Y-107658345D01*
X107744808Y-107672910D01*
X107717930Y-107675648D01*
X107682136Y-107680022D01*
X107659063Y-107696456D01*
X107646151Y-107729917D01*
X107640842Y-107785373D01*
X107640236Y-107826449D01*
X107641686Y-107889925D01*
X107648416Y-107929267D01*
X107663998Y-107950171D01*
X107692002Y-107958337D01*
X107723634Y-107959530D01*
X107748392Y-107963838D01*
X107758306Y-107982616D01*
X107759765Y-108010225D01*
X107761618Y-108038303D01*
X107770338Y-108057508D01*
X107790662Y-108069512D01*
X107827331Y-108075988D01*
X107885083Y-108078611D01*
X107954733Y-108079059D01*
X108102434Y-108079059D01*
X108106658Y-108247148D01*
X108110883Y-108415236D01*
X108174519Y-108419837D01*
X108223660Y-108418461D01*
X108245516Y-108405226D01*
X108245741Y-108404673D01*
X108247607Y-108384985D01*
X108249014Y-108339523D01*
X108249925Y-108272394D01*
X108250307Y-108187703D01*
X108250125Y-108089555D01*
X108249343Y-107982057D01*
X108249339Y-107981719D01*
X108246904Y-107735412D01*
X108103412Y-107735412D01*
X108103412Y-107815098D01*
X108101590Y-107861715D01*
X108096915Y-107895297D01*
X108092946Y-107905250D01*
X108074360Y-107909351D01*
X108033034Y-107911765D01*
X107976077Y-107912206D01*
X107939799Y-107911476D01*
X107797118Y-107907236D01*
X107788156Y-107735412D01*
X108103412Y-107735412D01*
X108246904Y-107735412D01*
X108245353Y-107578530D01*
X108002559Y-107574424D01*
X107759765Y-107570319D01*
X107759765Y-107622983D01*
G37*
X107759765Y-107622983D02*
X107757212Y-107658345D01*
X107744808Y-107672910D01*
X107717930Y-107675648D01*
X107682136Y-107680022D01*
X107659063Y-107696456D01*
X107646151Y-107729917D01*
X107640842Y-107785373D01*
X107640236Y-107826449D01*
X107641686Y-107889925D01*
X107648416Y-107929267D01*
X107663998Y-107950171D01*
X107692002Y-107958337D01*
X107723634Y-107959530D01*
X107748392Y-107963838D01*
X107758306Y-107982616D01*
X107759765Y-108010225D01*
X107761618Y-108038303D01*
X107770338Y-108057508D01*
X107790662Y-108069512D01*
X107827331Y-108075988D01*
X107885083Y-108078611D01*
X107954733Y-108079059D01*
X108102434Y-108079059D01*
X108106658Y-108247148D01*
X108110883Y-108415236D01*
X108174519Y-108419837D01*
X108223660Y-108418461D01*
X108245516Y-108405226D01*
X108245741Y-108404673D01*
X108247607Y-108384985D01*
X108249014Y-108339523D01*
X108249925Y-108272394D01*
X108250307Y-108187703D01*
X108250125Y-108089555D01*
X108249343Y-107982057D01*
X108249339Y-107981719D01*
X108246904Y-107735412D01*
X108103412Y-107735412D01*
X108103412Y-107815098D01*
X108101590Y-107861715D01*
X108096915Y-107895297D01*
X108092946Y-107905250D01*
X108074360Y-107909351D01*
X108033034Y-107911765D01*
X107976077Y-107912206D01*
X107939799Y-107911476D01*
X107797118Y-107907236D01*
X107788156Y-107735412D01*
X108103412Y-107735412D01*
X108246904Y-107735412D01*
X108245353Y-107578530D01*
X108002559Y-107574424D01*
X107759765Y-107570319D01*
X107759765Y-107622983D01*
G36*
X107203206Y-107574424D02*
G01*
X106960412Y-107578530D01*
X106955796Y-107626208D01*
X106948334Y-107660115D01*
X106928151Y-107674604D01*
X106903502Y-107678502D01*
X106855824Y-107683118D01*
X106855824Y-107952059D01*
X106904383Y-107956741D01*
X106938207Y-107963689D01*
X106951279Y-107981099D01*
X106952942Y-108002312D01*
X106962991Y-108048511D01*
X106993905Y-108073526D01*
X107031675Y-108079059D01*
X107062022Y-108082909D01*
X107070821Y-108099074D01*
X107069775Y-108112677D01*
X107060228Y-108136184D01*
X107034718Y-108147641D01*
X107008971Y-108150932D01*
X106972230Y-108156187D01*
X106956513Y-108169443D01*
X106952970Y-108199401D01*
X106952942Y-108206015D01*
X106949900Y-108240734D01*
X106934806Y-108255897D01*
X106904383Y-108261142D01*
X106875628Y-108265481D01*
X106861297Y-108276711D01*
X106856370Y-108303042D01*
X106855824Y-108340530D01*
X106855824Y-108415236D01*
X106923059Y-108415236D01*
X106964480Y-108414027D01*
X106984713Y-108405949D01*
X106992452Y-108384323D01*
X106994881Y-108360058D01*
X107000442Y-108323398D01*
X107015312Y-108306878D01*
X107049228Y-108300758D01*
X107054646Y-108300293D01*
X107091703Y-108294366D01*
X107109135Y-108278737D01*
X107117196Y-108244097D01*
X107117295Y-108243412D01*
X107125911Y-108207525D01*
X107144223Y-108191587D01*
X107173324Y-108186436D01*
X107206253Y-108180196D01*
X107219526Y-108163564D01*
X107221883Y-108130407D01*
X107224822Y-108095428D01*
X107237855Y-108081287D01*
X107258746Y-108079059D01*
X107274715Y-108079960D01*
X107285390Y-108086090D01*
X107292030Y-108102591D01*
X107295891Y-108134603D01*
X107298230Y-108187269D01*
X107299835Y-108247148D01*
X107304059Y-108415236D01*
X107364366Y-108419674D01*
X107404954Y-108420060D01*
X107431824Y-108415559D01*
X107435337Y-108413449D01*
X107438112Y-108396284D01*
X107440619Y-108353157D01*
X107442758Y-108287990D01*
X107444433Y-108204701D01*
X107445544Y-108107212D01*
X107445995Y-107999443D01*
X107446000Y-107986552D01*
X107446000Y-107735412D01*
X107296589Y-107735412D01*
X107296589Y-107915788D01*
X107150912Y-107911512D01*
X107005236Y-107907236D01*
X106996274Y-107735412D01*
X107296589Y-107735412D01*
X107446000Y-107735412D01*
X107446000Y-107570319D01*
X107203206Y-107574424D01*
G37*
X107203206Y-107574424D02*
X106960412Y-107578530D01*
X106955796Y-107626208D01*
X106948334Y-107660115D01*
X106928151Y-107674604D01*
X106903502Y-107678502D01*
X106855824Y-107683118D01*
X106855824Y-107952059D01*
X106904383Y-107956741D01*
X106938207Y-107963689D01*
X106951279Y-107981099D01*
X106952942Y-108002312D01*
X106962991Y-108048511D01*
X106993905Y-108073526D01*
X107031675Y-108079059D01*
X107062022Y-108082909D01*
X107070821Y-108099074D01*
X107069775Y-108112677D01*
X107060228Y-108136184D01*
X107034718Y-108147641D01*
X107008971Y-108150932D01*
X106972230Y-108156187D01*
X106956513Y-108169443D01*
X106952970Y-108199401D01*
X106952942Y-108206015D01*
X106949900Y-108240734D01*
X106934806Y-108255897D01*
X106904383Y-108261142D01*
X106875628Y-108265481D01*
X106861297Y-108276711D01*
X106856370Y-108303042D01*
X106855824Y-108340530D01*
X106855824Y-108415236D01*
X106923059Y-108415236D01*
X106964480Y-108414027D01*
X106984713Y-108405949D01*
X106992452Y-108384323D01*
X106994881Y-108360058D01*
X107000442Y-108323398D01*
X107015312Y-108306878D01*
X107049228Y-108300758D01*
X107054646Y-108300293D01*
X107091703Y-108294366D01*
X107109135Y-108278737D01*
X107117196Y-108244097D01*
X107117295Y-108243412D01*
X107125911Y-108207525D01*
X107144223Y-108191587D01*
X107173324Y-108186436D01*
X107206253Y-108180196D01*
X107219526Y-108163564D01*
X107221883Y-108130407D01*
X107224822Y-108095428D01*
X107237855Y-108081287D01*
X107258746Y-108079059D01*
X107274715Y-108079960D01*
X107285390Y-108086090D01*
X107292030Y-108102591D01*
X107295891Y-108134603D01*
X107298230Y-108187269D01*
X107299835Y-108247148D01*
X107304059Y-108415236D01*
X107364366Y-108419674D01*
X107404954Y-108420060D01*
X107431824Y-108415559D01*
X107435337Y-108413449D01*
X107438112Y-108396284D01*
X107440619Y-108353157D01*
X107442758Y-108287990D01*
X107444433Y-108204701D01*
X107445544Y-108107212D01*
X107445995Y-107999443D01*
X107446000Y-107986552D01*
X107446000Y-107735412D01*
X107296589Y-107735412D01*
X107296589Y-107915788D01*
X107150912Y-107911512D01*
X107005236Y-107907236D01*
X106996274Y-107735412D01*
X107296589Y-107735412D01*
X107446000Y-107735412D01*
X107446000Y-107570319D01*
X107203206Y-107574424D01*
G36*
X106161059Y-107623353D02*
G01*
X106158502Y-107658525D01*
X106145888Y-107672949D01*
X106118065Y-107675648D01*
X106092784Y-107677110D01*
X106073746Y-107683929D01*
X106060145Y-107699753D01*
X106051173Y-107728230D01*
X106046024Y-107773007D01*
X106043891Y-107837734D01*
X106043967Y-107926059D01*
X106044936Y-108006281D01*
X106049000Y-108295706D01*
X106101295Y-108303177D01*
X106137418Y-108311981D01*
X106154223Y-108331350D01*
X106161059Y-108362942D01*
X106168530Y-108415236D01*
X106341150Y-108419420D01*
X106410221Y-108420221D01*
X106468031Y-108419250D01*
X106508219Y-108416724D01*
X106524179Y-108413194D01*
X106531383Y-108392304D01*
X106534579Y-108355964D01*
X106534589Y-108353883D01*
X106537177Y-108321580D01*
X106550834Y-108306726D01*
X106584394Y-108300878D01*
X106590618Y-108300344D01*
X106646647Y-108295706D01*
X106650712Y-108006281D01*
X106651878Y-107898715D01*
X106651417Y-107817372D01*
X106648520Y-107758603D01*
X106644947Y-107735412D01*
X106489765Y-107735412D01*
X106489765Y-108258353D01*
X106205883Y-108258353D01*
X106205883Y-107735412D01*
X106489765Y-107735412D01*
X106644947Y-107735412D01*
X106642381Y-107718762D01*
X106632193Y-107694199D01*
X106617149Y-107681267D01*
X106596443Y-107676317D01*
X106577583Y-107675648D01*
X106548666Y-107672537D01*
X106536807Y-107657194D01*
X106534589Y-107623353D01*
X106534589Y-107571059D01*
X106161059Y-107571059D01*
X106161059Y-107623353D01*
G37*
X106161059Y-107623353D02*
X106158502Y-107658525D01*
X106145888Y-107672949D01*
X106118065Y-107675648D01*
X106092784Y-107677110D01*
X106073746Y-107683929D01*
X106060145Y-107699753D01*
X106051173Y-107728230D01*
X106046024Y-107773007D01*
X106043891Y-107837734D01*
X106043967Y-107926059D01*
X106044936Y-108006281D01*
X106049000Y-108295706D01*
X106101295Y-108303177D01*
X106137418Y-108311981D01*
X106154223Y-108331350D01*
X106161059Y-108362942D01*
X106168530Y-108415236D01*
X106341150Y-108419420D01*
X106410221Y-108420221D01*
X106468031Y-108419250D01*
X106508219Y-108416724D01*
X106524179Y-108413194D01*
X106531383Y-108392304D01*
X106534579Y-108355964D01*
X106534589Y-108353883D01*
X106537177Y-108321580D01*
X106550834Y-108306726D01*
X106584394Y-108300878D01*
X106590618Y-108300344D01*
X106646647Y-108295706D01*
X106650712Y-108006281D01*
X106651878Y-107898715D01*
X106651417Y-107817372D01*
X106648520Y-107758603D01*
X106644947Y-107735412D01*
X106489765Y-107735412D01*
X106489765Y-108258353D01*
X106205883Y-108258353D01*
X106205883Y-107735412D01*
X106489765Y-107735412D01*
X106644947Y-107735412D01*
X106642381Y-107718762D01*
X106632193Y-107694199D01*
X106617149Y-107681267D01*
X106596443Y-107676317D01*
X106577583Y-107675648D01*
X106548666Y-107672537D01*
X106536807Y-107657194D01*
X106534589Y-107623353D01*
X106534589Y-107571059D01*
X106161059Y-107571059D01*
X106161059Y-107623353D01*
G36*
X105249647Y-108303177D02*
G01*
X105301942Y-108303177D01*
X105337372Y-108306033D01*
X105351863Y-108318615D01*
X105354236Y-108339308D01*
X105355424Y-108373310D01*
X105362174Y-108396535D01*
X105379266Y-108411035D01*
X105411480Y-108418861D01*
X105463595Y-108422067D01*
X105540391Y-108422705D01*
X105548471Y-108422706D01*
X105625594Y-108422095D01*
X105677798Y-108419839D01*
X105710030Y-108415308D01*
X105727236Y-108407871D01*
X105733637Y-108399073D01*
X105741011Y-108365093D01*
X105742706Y-108340255D01*
X105748377Y-108314874D01*
X105771045Y-108303226D01*
X105791265Y-108300388D01*
X105820721Y-108295569D01*
X105835697Y-108282938D01*
X105842120Y-108254052D01*
X105844378Y-108224736D01*
X105848932Y-108153765D01*
X105774354Y-108153765D01*
X105730065Y-108154788D01*
X105707440Y-108161214D01*
X105698262Y-108178076D01*
X105695094Y-108202324D01*
X105690412Y-108250883D01*
X105545018Y-108255156D01*
X105399623Y-108259429D01*
X105395606Y-107918979D01*
X105391589Y-107578530D01*
X105249647Y-107569422D01*
X105249647Y-108303177D01*
G37*
X105249647Y-108303177D02*
X105301942Y-108303177D01*
X105337372Y-108306033D01*
X105351863Y-108318615D01*
X105354236Y-108339308D01*
X105355424Y-108373310D01*
X105362174Y-108396535D01*
X105379266Y-108411035D01*
X105411480Y-108418861D01*
X105463595Y-108422067D01*
X105540391Y-108422705D01*
X105548471Y-108422706D01*
X105625594Y-108422095D01*
X105677798Y-108419839D01*
X105710030Y-108415308D01*
X105727236Y-108407871D01*
X105733637Y-108399073D01*
X105741011Y-108365093D01*
X105742706Y-108340255D01*
X105748377Y-108314874D01*
X105771045Y-108303226D01*
X105791265Y-108300388D01*
X105820721Y-108295569D01*
X105835697Y-108282938D01*
X105842120Y-108254052D01*
X105844378Y-108224736D01*
X105848932Y-108153765D01*
X105774354Y-108153765D01*
X105730065Y-108154788D01*
X105707440Y-108161214D01*
X105698262Y-108178076D01*
X105695094Y-108202324D01*
X105690412Y-108250883D01*
X105545018Y-108255156D01*
X105399623Y-108259429D01*
X105395606Y-107918979D01*
X105391589Y-107578530D01*
X105249647Y-107569422D01*
X105249647Y-108303177D01*
G36*
X104450295Y-107578530D02*
G01*
X104445595Y-107635602D01*
X104444123Y-107672439D01*
X104449437Y-107698902D01*
X104465610Y-107716699D01*
X104496718Y-107727538D01*
X104546834Y-107733127D01*
X104620033Y-107735173D01*
X104683712Y-107735412D01*
X104891059Y-107735412D01*
X104891059Y-107913397D01*
X104782736Y-107917787D01*
X104674412Y-107922177D01*
X104669713Y-107979249D01*
X104670289Y-108027061D01*
X104684701Y-108057102D01*
X104717663Y-108073105D01*
X104773889Y-108078802D01*
X104795771Y-108079059D01*
X104891059Y-108079059D01*
X104891059Y-108257555D01*
X104670677Y-108261689D01*
X104450295Y-108265824D01*
X104450295Y-108415236D01*
X105040471Y-108423338D01*
X105040471Y-107570428D01*
X104450295Y-107578530D01*
G37*
X104450295Y-107578530D02*
X104445595Y-107635602D01*
X104444123Y-107672439D01*
X104449437Y-107698902D01*
X104465610Y-107716699D01*
X104496718Y-107727538D01*
X104546834Y-107733127D01*
X104620033Y-107735173D01*
X104683712Y-107735412D01*
X104891059Y-107735412D01*
X104891059Y-107913397D01*
X104782736Y-107917787D01*
X104674412Y-107922177D01*
X104669713Y-107979249D01*
X104670289Y-108027061D01*
X104684701Y-108057102D01*
X104717663Y-108073105D01*
X104773889Y-108078802D01*
X104795771Y-108079059D01*
X104891059Y-108079059D01*
X104891059Y-108257555D01*
X104670677Y-108261689D01*
X104450295Y-108265824D01*
X104450295Y-108415236D01*
X105040471Y-108423338D01*
X105040471Y-107570428D01*
X104450295Y-107578530D01*
G36*
X103758384Y-107626208D02*
G01*
X103750923Y-107660115D01*
X103730739Y-107674604D01*
X103706090Y-107678502D01*
X103678358Y-107682858D01*
X103663627Y-107694265D01*
X103656965Y-107720647D01*
X103653867Y-107762411D01*
X103649321Y-107841704D01*
X103721102Y-107837117D01*
X103764400Y-107833038D01*
X103786224Y-107824175D01*
X103794964Y-107804700D01*
X103797565Y-107783971D01*
X103802247Y-107735412D01*
X104084236Y-107735412D01*
X104084236Y-108258353D01*
X103800353Y-108258353D01*
X103800353Y-108153765D01*
X103650942Y-108153765D01*
X103650942Y-108303177D01*
X103702334Y-108303177D01*
X103736220Y-108305563D01*
X103751714Y-108318625D01*
X103757673Y-108351221D01*
X103758363Y-108359206D01*
X103763000Y-108415236D01*
X103935127Y-108419415D01*
X104021222Y-108420184D01*
X104080316Y-108417474D01*
X104115108Y-108411086D01*
X104125627Y-108405221D01*
X104139502Y-108377186D01*
X104144000Y-108345959D01*
X104148379Y-108317055D01*
X104167558Y-108304199D01*
X104192559Y-108300388D01*
X104241118Y-108295706D01*
X104241118Y-107683118D01*
X104193440Y-107678502D01*
X104159533Y-107671040D01*
X104145044Y-107650857D01*
X104141146Y-107626208D01*
X104136530Y-107578530D01*
X103763000Y-107578530D01*
X103758384Y-107626208D01*
G37*
X103758384Y-107626208D02*
X103750923Y-107660115D01*
X103730739Y-107674604D01*
X103706090Y-107678502D01*
X103678358Y-107682858D01*
X103663627Y-107694265D01*
X103656965Y-107720647D01*
X103653867Y-107762411D01*
X103649321Y-107841704D01*
X103721102Y-107837117D01*
X103764400Y-107833038D01*
X103786224Y-107824175D01*
X103794964Y-107804700D01*
X103797565Y-107783971D01*
X103802247Y-107735412D01*
X104084236Y-107735412D01*
X104084236Y-108258353D01*
X103800353Y-108258353D01*
X103800353Y-108153765D01*
X103650942Y-108153765D01*
X103650942Y-108303177D01*
X103702334Y-108303177D01*
X103736220Y-108305563D01*
X103751714Y-108318625D01*
X103757673Y-108351221D01*
X103758363Y-108359206D01*
X103763000Y-108415236D01*
X103935127Y-108419415D01*
X104021222Y-108420184D01*
X104080316Y-108417474D01*
X104115108Y-108411086D01*
X104125627Y-108405221D01*
X104139502Y-108377186D01*
X104144000Y-108345959D01*
X104148379Y-108317055D01*
X104167558Y-108304199D01*
X104192559Y-108300388D01*
X104241118Y-108295706D01*
X104241118Y-107683118D01*
X104193440Y-107678502D01*
X104159533Y-107671040D01*
X104145044Y-107650857D01*
X104141146Y-107626208D01*
X104136530Y-107578530D01*
X103763000Y-107578530D01*
X103758384Y-107626208D01*
G36*
X102844118Y-107644167D02*
G01*
X102846100Y-107687327D01*
X102855835Y-107714202D01*
X102879005Y-107728621D01*
X102921291Y-107734412D01*
X102979530Y-107735412D01*
X103067675Y-107735412D01*
X103071691Y-108075324D01*
X103075706Y-108415236D01*
X103136013Y-108419674D01*
X103176601Y-108420060D01*
X103203471Y-108415559D01*
X103206984Y-108413449D01*
X103210070Y-108396028D01*
X103212806Y-108353140D01*
X103215054Y-108289201D01*
X103216679Y-108208624D01*
X103217543Y-108115825D01*
X103217647Y-108069098D01*
X103217647Y-107735412D01*
X103306073Y-107735412D01*
X103370203Y-107734084D01*
X103410160Y-107727554D01*
X103431620Y-107712005D01*
X103440259Y-107683619D01*
X103441765Y-107644167D01*
X103441765Y-107571059D01*
X102844118Y-107571059D01*
X102844118Y-107644167D01*
G37*
X102844118Y-107644167D02*
X102846100Y-107687327D01*
X102855835Y-107714202D01*
X102879005Y-107728621D01*
X102921291Y-107734412D01*
X102979530Y-107735412D01*
X103067675Y-107735412D01*
X103071691Y-108075324D01*
X103075706Y-108415236D01*
X103136013Y-108419674D01*
X103176601Y-108420060D01*
X103203471Y-108415559D01*
X103206984Y-108413449D01*
X103210070Y-108396028D01*
X103212806Y-108353140D01*
X103215054Y-108289201D01*
X103216679Y-108208624D01*
X103217543Y-108115825D01*
X103217647Y-108069098D01*
X103217647Y-107735412D01*
X103306073Y-107735412D01*
X103370203Y-107734084D01*
X103410160Y-107727554D01*
X103431620Y-107712005D01*
X103440259Y-107683619D01*
X103441765Y-107644167D01*
X103441765Y-107571059D01*
X102844118Y-107571059D01*
X102844118Y-107644167D01*
G36*
X113263039Y-103488064D02*
G01*
X113183819Y-103653459D01*
X113114055Y-103799001D01*
X113050333Y-103931805D01*
X112989238Y-104058985D01*
X112927353Y-104187655D01*
X112877378Y-104291471D01*
X112835275Y-104379037D01*
X112793282Y-104466605D01*
X112754943Y-104546772D01*
X112723799Y-104612134D01*
X112709367Y-104642589D01*
X112687287Y-104688976D01*
X112654833Y-104756634D01*
X112614706Y-104839963D01*
X112569603Y-104933363D01*
X112522225Y-105031231D01*
X112500568Y-105075883D01*
X112454688Y-105170743D01*
X112411440Y-105260766D01*
X112373132Y-105341104D01*
X112342071Y-105406907D01*
X112320562Y-105453326D01*
X112313725Y-105468641D01*
X112293823Y-105507930D01*
X112276078Y-105531708D01*
X112268141Y-105535283D01*
X112259895Y-105521228D01*
X112240338Y-105481924D01*
X112210399Y-105419383D01*
X112171009Y-105335616D01*
X112123098Y-105232633D01*
X112067596Y-105112447D01*
X112005433Y-104977069D01*
X111937538Y-104828509D01*
X111864842Y-104668779D01*
X111788275Y-104499890D01*
X111741075Y-104395465D01*
X111228655Y-103260530D01*
X110621000Y-103260530D01*
X110621000Y-106263706D01*
X110916089Y-106267757D01*
X111211177Y-106271809D01*
X111211177Y-105397434D01*
X111211364Y-105238875D01*
X111211902Y-105089572D01*
X111212758Y-104952139D01*
X111213898Y-104829191D01*
X111215288Y-104723343D01*
X111216894Y-104637210D01*
X111218684Y-104573406D01*
X111220622Y-104534546D01*
X111222443Y-104523059D01*
X111230528Y-104536291D01*
X111249577Y-104574302D01*
X111278417Y-104634562D01*
X111315874Y-104714542D01*
X111360777Y-104811715D01*
X111411953Y-104923551D01*
X111468228Y-105047522D01*
X111528431Y-105181098D01*
X111553282Y-105236500D01*
X111615196Y-105374490D01*
X111673939Y-105504963D01*
X111728285Y-105625232D01*
X111777013Y-105732610D01*
X111818897Y-105824410D01*
X111852715Y-105897943D01*
X111877241Y-105950523D01*
X111891253Y-105979462D01*
X111893478Y-105983559D01*
X111900765Y-105994240D01*
X111910348Y-106002379D01*
X111926015Y-106008321D01*
X111951554Y-106012412D01*
X111990754Y-106014998D01*
X112047404Y-106016423D01*
X112125292Y-106017034D01*
X112228208Y-106017175D01*
X112262224Y-106017177D01*
X112610348Y-106017177D01*
X112884282Y-105460618D01*
X112948271Y-105330577D01*
X113012462Y-105200069D01*
X113074676Y-105073525D01*
X113132737Y-104955374D01*
X113184467Y-104850049D01*
X113227690Y-104761979D01*
X113260227Y-104695595D01*
X113264197Y-104687485D01*
X113370177Y-104470911D01*
X113377881Y-106271177D01*
X113975437Y-106271177D01*
X113971631Y-104765853D01*
X113967824Y-103260530D01*
X113671849Y-103256476D01*
X113375875Y-103252422D01*
X113263039Y-103488064D01*
G37*
X113263039Y-103488064D02*
X113183819Y-103653459D01*
X113114055Y-103799001D01*
X113050333Y-103931805D01*
X112989238Y-104058985D01*
X112927353Y-104187655D01*
X112877378Y-104291471D01*
X112835275Y-104379037D01*
X112793282Y-104466605D01*
X112754943Y-104546772D01*
X112723799Y-104612134D01*
X112709367Y-104642589D01*
X112687287Y-104688976D01*
X112654833Y-104756634D01*
X112614706Y-104839963D01*
X112569603Y-104933363D01*
X112522225Y-105031231D01*
X112500568Y-105075883D01*
X112454688Y-105170743D01*
X112411440Y-105260766D01*
X112373132Y-105341104D01*
X112342071Y-105406907D01*
X112320562Y-105453326D01*
X112313725Y-105468641D01*
X112293823Y-105507930D01*
X112276078Y-105531708D01*
X112268141Y-105535283D01*
X112259895Y-105521228D01*
X112240338Y-105481924D01*
X112210399Y-105419383D01*
X112171009Y-105335616D01*
X112123098Y-105232633D01*
X112067596Y-105112447D01*
X112005433Y-104977069D01*
X111937538Y-104828509D01*
X111864842Y-104668779D01*
X111788275Y-104499890D01*
X111741075Y-104395465D01*
X111228655Y-103260530D01*
X110621000Y-103260530D01*
X110621000Y-106263706D01*
X110916089Y-106267757D01*
X111211177Y-106271809D01*
X111211177Y-105397434D01*
X111211364Y-105238875D01*
X111211902Y-105089572D01*
X111212758Y-104952139D01*
X111213898Y-104829191D01*
X111215288Y-104723343D01*
X111216894Y-104637210D01*
X111218684Y-104573406D01*
X111220622Y-104534546D01*
X111222443Y-104523059D01*
X111230528Y-104536291D01*
X111249577Y-104574302D01*
X111278417Y-104634562D01*
X111315874Y-104714542D01*
X111360777Y-104811715D01*
X111411953Y-104923551D01*
X111468228Y-105047522D01*
X111528431Y-105181098D01*
X111553282Y-105236500D01*
X111615196Y-105374490D01*
X111673939Y-105504963D01*
X111728285Y-105625232D01*
X111777013Y-105732610D01*
X111818897Y-105824410D01*
X111852715Y-105897943D01*
X111877241Y-105950523D01*
X111891253Y-105979462D01*
X111893478Y-105983559D01*
X111900765Y-105994240D01*
X111910348Y-106002379D01*
X111926015Y-106008321D01*
X111951554Y-106012412D01*
X111990754Y-106014998D01*
X112047404Y-106016423D01*
X112125292Y-106017034D01*
X112228208Y-106017175D01*
X112262224Y-106017177D01*
X112610348Y-106017177D01*
X112884282Y-105460618D01*
X112948271Y-105330577D01*
X113012462Y-105200069D01*
X113074676Y-105073525D01*
X113132737Y-104955374D01*
X113184467Y-104850049D01*
X113227690Y-104761979D01*
X113260227Y-104695595D01*
X113264197Y-104687485D01*
X113370177Y-104470911D01*
X113377881Y-106271177D01*
X113975437Y-106271177D01*
X113971631Y-104765853D01*
X113967824Y-103260530D01*
X113671849Y-103256476D01*
X113375875Y-103252422D01*
X113263039Y-103488064D01*
G36*
X107625295Y-105969653D02*
G01*
X107726147Y-106035905D01*
X107785526Y-106074820D01*
X107857677Y-106121971D01*
X107930304Y-106169327D01*
X107956948Y-106186667D01*
X108086895Y-106271177D01*
X109173863Y-106271177D01*
X109359549Y-106150366D01*
X109429638Y-106104711D01*
X109494747Y-106062200D01*
X109548867Y-106026764D01*
X109585988Y-106002335D01*
X109593692Y-105997219D01*
X109642149Y-105964883D01*
X109642251Y-105438206D01*
X109642353Y-104911530D01*
X109045120Y-104911530D01*
X109037236Y-105875236D01*
X108630089Y-105879211D01*
X108222942Y-105883187D01*
X108222942Y-103641530D01*
X109224000Y-103641530D01*
X109224000Y-103253059D01*
X107625295Y-103253059D01*
X107625295Y-105969653D01*
G37*
X107625295Y-105969653D02*
X107726147Y-106035905D01*
X107785526Y-106074820D01*
X107857677Y-106121971D01*
X107930304Y-106169327D01*
X107956948Y-106186667D01*
X108086895Y-106271177D01*
X109173863Y-106271177D01*
X109359549Y-106150366D01*
X109429638Y-106104711D01*
X109494747Y-106062200D01*
X109548867Y-106026764D01*
X109585988Y-106002335D01*
X109593692Y-105997219D01*
X109642149Y-105964883D01*
X109642251Y-105438206D01*
X109642353Y-104911530D01*
X109045120Y-104911530D01*
X109037236Y-105875236D01*
X108630089Y-105879211D01*
X108222942Y-105883187D01*
X108222942Y-103641530D01*
X109224000Y-103641530D01*
X109224000Y-103253059D01*
X107625295Y-103253059D01*
X107625295Y-105969653D01*
G36*
X105152530Y-103634059D02*
G01*
X105380383Y-103638184D01*
X105608236Y-103642308D01*
X105608236Y-105881928D01*
X105380383Y-105886052D01*
X105152530Y-105890177D01*
X105144166Y-106271177D01*
X106654118Y-106271177D01*
X106654118Y-105882706D01*
X106205883Y-105882706D01*
X106205883Y-103641530D01*
X106654985Y-103641530D01*
X106650816Y-103443559D01*
X106646647Y-103245589D01*
X105152530Y-103245589D01*
X105152530Y-103634059D01*
G37*
X105152530Y-103634059D02*
X105380383Y-103638184D01*
X105608236Y-103642308D01*
X105608236Y-105881928D01*
X105380383Y-105886052D01*
X105152530Y-105890177D01*
X105144166Y-106271177D01*
X106654118Y-106271177D01*
X106654118Y-105882706D01*
X106205883Y-105882706D01*
X106205883Y-103641530D01*
X106654985Y-103641530D01*
X106650816Y-103443559D01*
X106646647Y-103245589D01*
X105152530Y-103245589D01*
X105152530Y-103634059D01*
G36*
X102129059Y-103240969D02*
G01*
X101999684Y-103241529D01*
X101892186Y-103242430D01*
X101804965Y-103243691D01*
X101736419Y-103245331D01*
X101684947Y-103247367D01*
X101648949Y-103249820D01*
X101626824Y-103252707D01*
X101616971Y-103256047D01*
X101616369Y-103256710D01*
X101611438Y-103279060D01*
X101607751Y-103323526D01*
X101605379Y-103382365D01*
X101604394Y-103447834D01*
X101604865Y-103512189D01*
X101606864Y-103567686D01*
X101610462Y-103606584D01*
X101613070Y-103617896D01*
X101617161Y-103622641D01*
X101626927Y-103626713D01*
X101644476Y-103630162D01*
X101671915Y-103633038D01*
X101711352Y-103635394D01*
X101764895Y-103637278D01*
X101834651Y-103638741D01*
X101922729Y-103639835D01*
X102031235Y-103640609D01*
X102162277Y-103641113D01*
X102317964Y-103641400D01*
X102500403Y-103641518D01*
X102599187Y-103641530D01*
X103576236Y-103641530D01*
X103576236Y-104523059D01*
X101619511Y-104523059D01*
X101611134Y-104556677D01*
X101608024Y-104585353D01*
X101606326Y-104635831D01*
X101606211Y-104700056D01*
X101607114Y-104747177D01*
X101611471Y-104904059D01*
X102590118Y-104911530D01*
X103568765Y-104919000D01*
X103572707Y-105400853D01*
X103576650Y-105882706D01*
X101603108Y-105882706D01*
X101607289Y-106073206D01*
X101611471Y-106263706D01*
X102657353Y-106266781D01*
X103703236Y-106269855D01*
X103882530Y-106152197D01*
X103952402Y-106106150D01*
X104018241Y-106062410D01*
X104073571Y-106025303D01*
X104111920Y-105999154D01*
X104117932Y-105994950D01*
X104174040Y-105955361D01*
X104166412Y-103245589D01*
X102897346Y-103241768D01*
X102664455Y-103241150D01*
X102459844Y-103240799D01*
X102281912Y-103240732D01*
X102129059Y-103240969D01*
G37*
X102129059Y-103240969D02*
X101999684Y-103241529D01*
X101892186Y-103242430D01*
X101804965Y-103243691D01*
X101736419Y-103245331D01*
X101684947Y-103247367D01*
X101648949Y-103249820D01*
X101626824Y-103252707D01*
X101616971Y-103256047D01*
X101616369Y-103256710D01*
X101611438Y-103279060D01*
X101607751Y-103323526D01*
X101605379Y-103382365D01*
X101604394Y-103447834D01*
X101604865Y-103512189D01*
X101606864Y-103567686D01*
X101610462Y-103606584D01*
X101613070Y-103617896D01*
X101617161Y-103622641D01*
X101626927Y-103626713D01*
X101644476Y-103630162D01*
X101671915Y-103633038D01*
X101711352Y-103635394D01*
X101764895Y-103637278D01*
X101834651Y-103638741D01*
X101922729Y-103639835D01*
X102031235Y-103640609D01*
X102162277Y-103641113D01*
X102317964Y-103641400D01*
X102500403Y-103641518D01*
X102599187Y-103641530D01*
X103576236Y-103641530D01*
X103576236Y-104523059D01*
X101619511Y-104523059D01*
X101611134Y-104556677D01*
X101608024Y-104585353D01*
X101606326Y-104635831D01*
X101606211Y-104700056D01*
X101607114Y-104747177D01*
X101611471Y-104904059D01*
X102590118Y-104911530D01*
X103568765Y-104919000D01*
X103572707Y-105400853D01*
X103576650Y-105882706D01*
X101603108Y-105882706D01*
X101607289Y-106073206D01*
X101611471Y-106263706D01*
X102657353Y-106266781D01*
X103703236Y-106269855D01*
X103882530Y-106152197D01*
X103952402Y-106106150D01*
X104018241Y-106062410D01*
X104073571Y-106025303D01*
X104111920Y-105999154D01*
X104117932Y-105994950D01*
X104174040Y-105955361D01*
X104166412Y-103245589D01*
X102897346Y-103241768D01*
X102664455Y-103241150D01*
X102459844Y-103240799D01*
X102281912Y-103240732D01*
X102129059Y-103240969D01*
G36*
X114016888Y-101336853D02*
G01*
X114012647Y-101497471D01*
X113960353Y-101504942D01*
X113908059Y-101512412D01*
X113903650Y-101621687D01*
X113900777Y-101677766D01*
X113896368Y-101710013D01*
X113888266Y-101724467D01*
X113874312Y-101727173D01*
X113866297Y-101726275D01*
X113849090Y-101721165D01*
X113838694Y-101707494D01*
X113832922Y-101678639D01*
X113829587Y-101627980D01*
X113828964Y-101613265D01*
X113824574Y-101504942D01*
X113721295Y-101504942D01*
X113721295Y-101176236D01*
X113571883Y-101176236D01*
X113571883Y-101517989D01*
X113620442Y-101522671D01*
X113669000Y-101527353D01*
X113673390Y-101635677D01*
X113677780Y-101744000D01*
X113727821Y-101744000D01*
X113760287Y-101747248D01*
X113780551Y-101760665D01*
X113791382Y-101789757D01*
X113795548Y-101840033D01*
X113796000Y-101879693D01*
X113796000Y-101968118D01*
X113944103Y-101968118D01*
X113948493Y-101859795D01*
X113952883Y-101751471D01*
X114001442Y-101746789D01*
X114050000Y-101742107D01*
X114050000Y-101640064D01*
X114051894Y-101580287D01*
X114060323Y-101544356D01*
X114079407Y-101526334D01*
X114113268Y-101520283D01*
X114133399Y-101519883D01*
X114148889Y-101519030D01*
X114159166Y-101513080D01*
X114165299Y-101496945D01*
X114168357Y-101465539D01*
X114169411Y-101413772D01*
X114169530Y-101348059D01*
X114169530Y-101176236D01*
X114021129Y-101176236D01*
X114016888Y-101336853D01*
G37*
X114016888Y-101336853D02*
X114012647Y-101497471D01*
X113960353Y-101504942D01*
X113908059Y-101512412D01*
X113903650Y-101621687D01*
X113900777Y-101677766D01*
X113896368Y-101710013D01*
X113888266Y-101724467D01*
X113874312Y-101727173D01*
X113866297Y-101726275D01*
X113849090Y-101721165D01*
X113838694Y-101707494D01*
X113832922Y-101678639D01*
X113829587Y-101627980D01*
X113828964Y-101613265D01*
X113824574Y-101504942D01*
X113721295Y-101504942D01*
X113721295Y-101176236D01*
X113571883Y-101176236D01*
X113571883Y-101517989D01*
X113620442Y-101522671D01*
X113669000Y-101527353D01*
X113673390Y-101635677D01*
X113677780Y-101744000D01*
X113727821Y-101744000D01*
X113760287Y-101747248D01*
X113780551Y-101760665D01*
X113791382Y-101789757D01*
X113795548Y-101840033D01*
X113796000Y-101879693D01*
X113796000Y-101968118D01*
X113944103Y-101968118D01*
X113948493Y-101859795D01*
X113952883Y-101751471D01*
X114001442Y-101746789D01*
X114050000Y-101742107D01*
X114050000Y-101640064D01*
X114051894Y-101580287D01*
X114060323Y-101544356D01*
X114079407Y-101526334D01*
X114113268Y-101520283D01*
X114133399Y-101519883D01*
X114148889Y-101519030D01*
X114159166Y-101513080D01*
X114165299Y-101496945D01*
X114168357Y-101465539D01*
X114169411Y-101413772D01*
X114169530Y-101348059D01*
X114169530Y-101176236D01*
X114021129Y-101176236D01*
X114016888Y-101336853D01*
G36*
X112839765Y-101294966D02*
G01*
X113060147Y-101299101D01*
X113280530Y-101303236D01*
X113284933Y-101403421D01*
X113289335Y-101503606D01*
X113071353Y-101512412D01*
X113071353Y-101631942D01*
X113179677Y-101636331D01*
X113288000Y-101640721D01*
X113288000Y-101848589D01*
X112839765Y-101848589D01*
X112839765Y-101968118D01*
X113437412Y-101968118D01*
X113437412Y-101176236D01*
X112839765Y-101176236D01*
X112839765Y-101294966D01*
G37*
X112839765Y-101294966D02*
X113060147Y-101299101D01*
X113280530Y-101303236D01*
X113284933Y-101403421D01*
X113289335Y-101503606D01*
X113071353Y-101512412D01*
X113071353Y-101631942D01*
X113179677Y-101636331D01*
X113288000Y-101640721D01*
X113288000Y-101848589D01*
X112839765Y-101848589D01*
X112839765Y-101968118D01*
X113437412Y-101968118D01*
X113437412Y-101176236D01*
X112839765Y-101176236D01*
X112839765Y-101294966D01*
G36*
X112224388Y-101224795D02*
G01*
X112217144Y-101259023D01*
X112197665Y-101273767D01*
X112171147Y-101278035D01*
X112122589Y-101282717D01*
X112122589Y-101517989D01*
X112171147Y-101522671D01*
X112203445Y-101528831D01*
X112218316Y-101545278D01*
X112224198Y-101581641D01*
X112224344Y-101583383D01*
X112229597Y-101620123D01*
X112242855Y-101635840D01*
X112272829Y-101639384D01*
X112279491Y-101639412D01*
X112323733Y-101645445D01*
X112342675Y-101665133D01*
X112339193Y-101699311D01*
X112322458Y-101721439D01*
X112286552Y-101728952D01*
X112279366Y-101729059D01*
X112246121Y-101731524D01*
X112230887Y-101744817D01*
X112224973Y-101777788D01*
X112224344Y-101785089D01*
X112218623Y-101822319D01*
X112204207Y-101839297D01*
X112172657Y-101845653D01*
X112171147Y-101845800D01*
X112139784Y-101851246D01*
X112126008Y-101865636D01*
X112122644Y-101898352D01*
X112122589Y-101909300D01*
X112122589Y-101968118D01*
X112189824Y-101968118D01*
X112232016Y-101966065D01*
X112251941Y-101957785D01*
X112257057Y-101940100D01*
X112257059Y-101939458D01*
X112263914Y-101893174D01*
X112287261Y-101869451D01*
X112324991Y-101863530D01*
X112357860Y-101861017D01*
X112372942Y-101847583D01*
X112378830Y-101814382D01*
X112379422Y-101807500D01*
X112385176Y-101770239D01*
X112399585Y-101753252D01*
X112430936Y-101746933D01*
X112431737Y-101746855D01*
X112465644Y-101739393D01*
X112480133Y-101719210D01*
X112484031Y-101694561D01*
X112493202Y-101658581D01*
X112515204Y-101643446D01*
X112522265Y-101642108D01*
X112549640Y-101645583D01*
X112556669Y-101657050D01*
X112557308Y-101679923D01*
X112558371Y-101724928D01*
X112559679Y-101784319D01*
X112560404Y-101818706D01*
X112563353Y-101960648D01*
X112634324Y-101965201D01*
X112705295Y-101969755D01*
X112705295Y-101364167D01*
X112559161Y-101364167D01*
X112558847Y-101407824D01*
X112558406Y-101450998D01*
X112557525Y-101482597D01*
X112557282Y-101486806D01*
X112548915Y-101495949D01*
X112522700Y-101501156D01*
X112474508Y-101502847D01*
X112410206Y-101501747D01*
X112264530Y-101497471D01*
X112259812Y-101431434D01*
X112256757Y-101372184D01*
X112260978Y-101333312D01*
X112277359Y-101310526D01*
X112310785Y-101299534D01*
X112366141Y-101296044D01*
X112414226Y-101295765D01*
X112480992Y-101295673D01*
X112523393Y-101298225D01*
X112546905Y-101307663D01*
X112557003Y-101328229D01*
X112559161Y-101364167D01*
X112705295Y-101364167D01*
X112705295Y-101176236D01*
X112229070Y-101176236D01*
X112224388Y-101224795D01*
G37*
X112224388Y-101224795D02*
X112217144Y-101259023D01*
X112197665Y-101273767D01*
X112171147Y-101278035D01*
X112122589Y-101282717D01*
X112122589Y-101517989D01*
X112171147Y-101522671D01*
X112203445Y-101528831D01*
X112218316Y-101545278D01*
X112224198Y-101581641D01*
X112224344Y-101583383D01*
X112229597Y-101620123D01*
X112242855Y-101635840D01*
X112272829Y-101639384D01*
X112279491Y-101639412D01*
X112323733Y-101645445D01*
X112342675Y-101665133D01*
X112339193Y-101699311D01*
X112322458Y-101721439D01*
X112286552Y-101728952D01*
X112279366Y-101729059D01*
X112246121Y-101731524D01*
X112230887Y-101744817D01*
X112224973Y-101777788D01*
X112224344Y-101785089D01*
X112218623Y-101822319D01*
X112204207Y-101839297D01*
X112172657Y-101845653D01*
X112171147Y-101845800D01*
X112139784Y-101851246D01*
X112126008Y-101865636D01*
X112122644Y-101898352D01*
X112122589Y-101909300D01*
X112122589Y-101968118D01*
X112189824Y-101968118D01*
X112232016Y-101966065D01*
X112251941Y-101957785D01*
X112257057Y-101940100D01*
X112257059Y-101939458D01*
X112263914Y-101893174D01*
X112287261Y-101869451D01*
X112324991Y-101863530D01*
X112357860Y-101861017D01*
X112372942Y-101847583D01*
X112378830Y-101814382D01*
X112379422Y-101807500D01*
X112385176Y-101770239D01*
X112399585Y-101753252D01*
X112430936Y-101746933D01*
X112431737Y-101746855D01*
X112465644Y-101739393D01*
X112480133Y-101719210D01*
X112484031Y-101694561D01*
X112493202Y-101658581D01*
X112515204Y-101643446D01*
X112522265Y-101642108D01*
X112549640Y-101645583D01*
X112556669Y-101657050D01*
X112557308Y-101679923D01*
X112558371Y-101724928D01*
X112559679Y-101784319D01*
X112560404Y-101818706D01*
X112563353Y-101960648D01*
X112634324Y-101965201D01*
X112705295Y-101969755D01*
X112705295Y-101364167D01*
X112559161Y-101364167D01*
X112558847Y-101407824D01*
X112558406Y-101450998D01*
X112557525Y-101482597D01*
X112557282Y-101486806D01*
X112548915Y-101495949D01*
X112522700Y-101501156D01*
X112474508Y-101502847D01*
X112410206Y-101501747D01*
X112264530Y-101497471D01*
X112259812Y-101431434D01*
X112256757Y-101372184D01*
X112260978Y-101333312D01*
X112277359Y-101310526D01*
X112310785Y-101299534D01*
X112366141Y-101296044D01*
X112414226Y-101295765D01*
X112480992Y-101295673D01*
X112523393Y-101298225D01*
X112546905Y-101307663D01*
X112557003Y-101328229D01*
X112559161Y-101364167D01*
X112705295Y-101364167D01*
X112705295Y-101176236D01*
X112229070Y-101176236D01*
X112224388Y-101224795D01*
G36*
X110994530Y-101841118D02*
G01*
X110938500Y-101845755D01*
X110902409Y-101850632D01*
X110886528Y-101863419D01*
X110882572Y-101893508D01*
X110882471Y-101909255D01*
X110882471Y-101968118D01*
X111256000Y-101968118D01*
X111256000Y-101908353D01*
X111254417Y-101870088D01*
X111244642Y-101853083D01*
X111219137Y-101848722D01*
X111203706Y-101848589D01*
X111151412Y-101848589D01*
X111151412Y-101415295D01*
X111203706Y-101415295D01*
X111235838Y-101413859D01*
X111251054Y-101404132D01*
X111255678Y-101377979D01*
X111256000Y-101348059D01*
X111254884Y-101306747D01*
X111247318Y-101287184D01*
X111226977Y-101281239D01*
X111203706Y-101280824D01*
X111168657Y-101278511D01*
X111154283Y-101265462D01*
X111151419Y-101232510D01*
X111151412Y-101228530D01*
X111151412Y-101176236D01*
X111002572Y-101176236D01*
X110994530Y-101841118D01*
G37*
X110994530Y-101841118D02*
X110938500Y-101845755D01*
X110902409Y-101850632D01*
X110886528Y-101863419D01*
X110882572Y-101893508D01*
X110882471Y-101909255D01*
X110882471Y-101968118D01*
X111256000Y-101968118D01*
X111256000Y-101908353D01*
X111254417Y-101870088D01*
X111244642Y-101853083D01*
X111219137Y-101848722D01*
X111203706Y-101848589D01*
X111151412Y-101848589D01*
X111151412Y-101415295D01*
X111203706Y-101415295D01*
X111235838Y-101413859D01*
X111251054Y-101404132D01*
X111255678Y-101377979D01*
X111256000Y-101348059D01*
X111254884Y-101306747D01*
X111247318Y-101287184D01*
X111226977Y-101281239D01*
X111203706Y-101280824D01*
X111168657Y-101278511D01*
X111154283Y-101265462D01*
X111151419Y-101232510D01*
X111151412Y-101228530D01*
X111151412Y-101176236D01*
X111002572Y-101176236D01*
X110994530Y-101841118D01*
G36*
X110613530Y-101968118D02*
G01*
X110762942Y-101968118D01*
X110762942Y-101848589D01*
X110613530Y-101848589D01*
X110613530Y-101968118D01*
G37*
X110613530Y-101968118D02*
X110762942Y-101968118D01*
X110762942Y-101848589D01*
X110613530Y-101848589D01*
X110613530Y-101968118D01*
G36*
X109983212Y-101224795D02*
G01*
X109975968Y-101259023D01*
X109956489Y-101273767D01*
X109929971Y-101278035D01*
X109881412Y-101282717D01*
X109881412Y-101863530D01*
X109933706Y-101863530D01*
X109968755Y-101865843D01*
X109983129Y-101878892D01*
X109985994Y-101911844D01*
X109986000Y-101915824D01*
X109986000Y-101968118D01*
X110359530Y-101968118D01*
X110359530Y-101916726D01*
X110361916Y-101882840D01*
X110374978Y-101867346D01*
X110407574Y-101861387D01*
X110415559Y-101860696D01*
X110471589Y-101856059D01*
X110471589Y-101808994D01*
X110329964Y-101808994D01*
X110321895Y-101829186D01*
X110298308Y-101841134D01*
X110254669Y-101846905D01*
X110186443Y-101848566D01*
X110173234Y-101848589D01*
X110030824Y-101848589D01*
X110030824Y-101683197D01*
X110031045Y-101611207D01*
X110032411Y-101564069D01*
X110035974Y-101536752D01*
X110042788Y-101524225D01*
X110053905Y-101521456D01*
X110064442Y-101522579D01*
X110088125Y-101532294D01*
X110099568Y-101558231D01*
X110102644Y-101582499D01*
X110108496Y-101619406D01*
X110123353Y-101636123D01*
X110154938Y-101642264D01*
X110188857Y-101649718D01*
X110203355Y-101669875D01*
X110207266Y-101694592D01*
X110213594Y-101726586D01*
X110230621Y-101741214D01*
X110266907Y-101746886D01*
X110308611Y-101755908D01*
X110326331Y-101775442D01*
X110327052Y-101778491D01*
X110329964Y-101808994D01*
X110471589Y-101808994D01*
X110471589Y-101521966D01*
X110328022Y-101521966D01*
X110326286Y-101574414D01*
X110320375Y-101605730D01*
X110309365Y-101620243D01*
X110292333Y-101622284D01*
X110288604Y-101621670D01*
X110266051Y-101602597D01*
X110254942Y-101564537D01*
X110246115Y-101528518D01*
X110226683Y-101511750D01*
X110195177Y-101504942D01*
X110159290Y-101496325D01*
X110143352Y-101478013D01*
X110138201Y-101448912D01*
X110132076Y-101416197D01*
X110115768Y-101402848D01*
X110081225Y-101400353D01*
X110046429Y-101398278D01*
X110033185Y-101386407D01*
X110033190Y-101356274D01*
X110033613Y-101351795D01*
X110038295Y-101303236D01*
X110322177Y-101303236D01*
X110326507Y-101444056D01*
X110328022Y-101521966D01*
X110471589Y-101521966D01*
X110471589Y-101288295D01*
X110419295Y-101280824D01*
X110383408Y-101272208D01*
X110367470Y-101253895D01*
X110362318Y-101224795D01*
X110357637Y-101176236D01*
X109987894Y-101176236D01*
X109983212Y-101224795D01*
G37*
X109983212Y-101224795D02*
X109975968Y-101259023D01*
X109956489Y-101273767D01*
X109929971Y-101278035D01*
X109881412Y-101282717D01*
X109881412Y-101863530D01*
X109933706Y-101863530D01*
X109968755Y-101865843D01*
X109983129Y-101878892D01*
X109985994Y-101911844D01*
X109986000Y-101915824D01*
X109986000Y-101968118D01*
X110359530Y-101968118D01*
X110359530Y-101916726D01*
X110361916Y-101882840D01*
X110374978Y-101867346D01*
X110407574Y-101861387D01*
X110415559Y-101860696D01*
X110471589Y-101856059D01*
X110471589Y-101808994D01*
X110329964Y-101808994D01*
X110321895Y-101829186D01*
X110298308Y-101841134D01*
X110254669Y-101846905D01*
X110186443Y-101848566D01*
X110173234Y-101848589D01*
X110030824Y-101848589D01*
X110030824Y-101683197D01*
X110031045Y-101611207D01*
X110032411Y-101564069D01*
X110035974Y-101536752D01*
X110042788Y-101524225D01*
X110053905Y-101521456D01*
X110064442Y-101522579D01*
X110088125Y-101532294D01*
X110099568Y-101558231D01*
X110102644Y-101582499D01*
X110108496Y-101619406D01*
X110123353Y-101636123D01*
X110154938Y-101642264D01*
X110188857Y-101649718D01*
X110203355Y-101669875D01*
X110207266Y-101694592D01*
X110213594Y-101726586D01*
X110230621Y-101741214D01*
X110266907Y-101746886D01*
X110308611Y-101755908D01*
X110326331Y-101775442D01*
X110327052Y-101778491D01*
X110329964Y-101808994D01*
X110471589Y-101808994D01*
X110471589Y-101521966D01*
X110328022Y-101521966D01*
X110326286Y-101574414D01*
X110320375Y-101605730D01*
X110309365Y-101620243D01*
X110292333Y-101622284D01*
X110288604Y-101621670D01*
X110266051Y-101602597D01*
X110254942Y-101564537D01*
X110246115Y-101528518D01*
X110226683Y-101511750D01*
X110195177Y-101504942D01*
X110159290Y-101496325D01*
X110143352Y-101478013D01*
X110138201Y-101448912D01*
X110132076Y-101416197D01*
X110115768Y-101402848D01*
X110081225Y-101400353D01*
X110046429Y-101398278D01*
X110033185Y-101386407D01*
X110033190Y-101356274D01*
X110033613Y-101351795D01*
X110038295Y-101303236D01*
X110322177Y-101303236D01*
X110326507Y-101444056D01*
X110328022Y-101521966D01*
X110471589Y-101521966D01*
X110471589Y-101288295D01*
X110419295Y-101280824D01*
X110383408Y-101272208D01*
X110367470Y-101253895D01*
X110362318Y-101224795D01*
X110357637Y-101176236D01*
X109987894Y-101176236D01*
X109983212Y-101224795D01*
G36*
X108548859Y-101224795D02*
G01*
X108541615Y-101259023D01*
X108522136Y-101273767D01*
X108495618Y-101278035D01*
X108447059Y-101282717D01*
X108447059Y-101863530D01*
X108499353Y-101863530D01*
X108534403Y-101865843D01*
X108548776Y-101878892D01*
X108551641Y-101911844D01*
X108551647Y-101915824D01*
X108551647Y-101968118D01*
X108791175Y-101968118D01*
X108884094Y-101967645D01*
X108951117Y-101965996D01*
X108996218Y-101962831D01*
X109023373Y-101957806D01*
X109036555Y-101950579D01*
X109038886Y-101946793D01*
X109043468Y-101915335D01*
X109042153Y-101890764D01*
X109031144Y-101864995D01*
X109002128Y-101851653D01*
X108984942Y-101848589D01*
X108776439Y-101848589D01*
X108595797Y-101848589D01*
X108599869Y-101575912D01*
X108603942Y-101303236D01*
X108768295Y-101303236D01*
X108772367Y-101575912D01*
X108776439Y-101848589D01*
X108984942Y-101848589D01*
X108932647Y-101841118D01*
X108932647Y-101303236D01*
X108984942Y-101295765D01*
X109019715Y-101287876D01*
X109035585Y-101270939D01*
X109041660Y-101234794D01*
X109041873Y-101232265D01*
X109046510Y-101176236D01*
X108553541Y-101176236D01*
X108548859Y-101224795D01*
G37*
X108548859Y-101224795D02*
X108541615Y-101259023D01*
X108522136Y-101273767D01*
X108495618Y-101278035D01*
X108447059Y-101282717D01*
X108447059Y-101863530D01*
X108499353Y-101863530D01*
X108534403Y-101865843D01*
X108548776Y-101878892D01*
X108551641Y-101911844D01*
X108551647Y-101915824D01*
X108551647Y-101968118D01*
X108791175Y-101968118D01*
X108884094Y-101967645D01*
X108951117Y-101965996D01*
X108996218Y-101962831D01*
X109023373Y-101957806D01*
X109036555Y-101950579D01*
X109038886Y-101946793D01*
X109043468Y-101915335D01*
X109042153Y-101890764D01*
X109031144Y-101864995D01*
X109002128Y-101851653D01*
X108984942Y-101848589D01*
X108776439Y-101848589D01*
X108595797Y-101848589D01*
X108599869Y-101575912D01*
X108603942Y-101303236D01*
X108768295Y-101303236D01*
X108772367Y-101575912D01*
X108776439Y-101848589D01*
X108984942Y-101848589D01*
X108932647Y-101841118D01*
X108932647Y-101303236D01*
X108984942Y-101295765D01*
X109019715Y-101287876D01*
X109035585Y-101270939D01*
X109041660Y-101234794D01*
X109041873Y-101232265D01*
X109046510Y-101176236D01*
X108553541Y-101176236D01*
X108548859Y-101224795D01*
G36*
X107714942Y-101294966D02*
G01*
X108155706Y-101303236D01*
X108164512Y-101503606D01*
X107946530Y-101512412D01*
X107946530Y-101631942D01*
X108054853Y-101636331D01*
X108163177Y-101640721D01*
X108163177Y-101848589D01*
X107714942Y-101848589D01*
X107714942Y-101968118D01*
X108312589Y-101968118D01*
X108312589Y-101176236D01*
X107714942Y-101176236D01*
X107714942Y-101294966D01*
G37*
X107714942Y-101294966D02*
X108155706Y-101303236D01*
X108164512Y-101503606D01*
X107946530Y-101512412D01*
X107946530Y-101631942D01*
X108054853Y-101636331D01*
X108163177Y-101640721D01*
X108163177Y-101848589D01*
X107714942Y-101848589D01*
X107714942Y-101968118D01*
X108312589Y-101968118D01*
X108312589Y-101176236D01*
X107714942Y-101176236D01*
X107714942Y-101294966D01*
G36*
X107099565Y-101224795D02*
G01*
X107092321Y-101259023D01*
X107072842Y-101273767D01*
X107046324Y-101278035D01*
X107016287Y-101282889D01*
X107002185Y-101295588D01*
X106998008Y-101324914D01*
X106997765Y-101349006D01*
X106997765Y-101415295D01*
X107065000Y-101415295D01*
X107106408Y-101413873D01*
X107126060Y-101406317D01*
X107132059Y-101387692D01*
X107132465Y-101374206D01*
X107135020Y-101338409D01*
X107145693Y-101315435D01*
X107169713Y-101302792D01*
X107212310Y-101297984D01*
X107278713Y-101298518D01*
X107290382Y-101298883D01*
X107423589Y-101303236D01*
X107432425Y-101504942D01*
X107104157Y-101504942D01*
X107099520Y-101560971D01*
X107093799Y-101598201D01*
X107079383Y-101615179D01*
X107047833Y-101621535D01*
X107046324Y-101621682D01*
X106997765Y-101626364D01*
X106997765Y-101861637D01*
X107046324Y-101866318D01*
X107080553Y-101873562D01*
X107095296Y-101893042D01*
X107099565Y-101919559D01*
X107104247Y-101968118D01*
X107473989Y-101968118D01*
X107478671Y-101919559D01*
X107485915Y-101885330D01*
X107505395Y-101870587D01*
X107531912Y-101866318D01*
X107561815Y-101861521D01*
X107575946Y-101848982D01*
X107580202Y-101819981D01*
X107580471Y-101794529D01*
X107580471Y-101727422D01*
X107509500Y-101731976D01*
X107466637Y-101735876D01*
X107445188Y-101744839D01*
X107436734Y-101765612D01*
X107433893Y-101792559D01*
X107429255Y-101848589D01*
X107288501Y-101848589D01*
X107217136Y-101847595D01*
X107170753Y-101841730D01*
X107144456Y-101826667D01*
X107133349Y-101798079D01*
X107132536Y-101751640D01*
X107134988Y-101712920D01*
X107139706Y-101646883D01*
X107306921Y-101642666D01*
X107474136Y-101638450D01*
X107478745Y-101582902D01*
X107484519Y-101545864D01*
X107499177Y-101529033D01*
X107531258Y-101522735D01*
X107531912Y-101522671D01*
X107580471Y-101517989D01*
X107580471Y-101282717D01*
X107531912Y-101278035D01*
X107497683Y-101270791D01*
X107482940Y-101251312D01*
X107478671Y-101224795D01*
X107473989Y-101176236D01*
X107104247Y-101176236D01*
X107099565Y-101224795D01*
G37*
X107099565Y-101224795D02*
X107092321Y-101259023D01*
X107072842Y-101273767D01*
X107046324Y-101278035D01*
X107016287Y-101282889D01*
X107002185Y-101295588D01*
X106998008Y-101324914D01*
X106997765Y-101349006D01*
X106997765Y-101415295D01*
X107065000Y-101415295D01*
X107106408Y-101413873D01*
X107126060Y-101406317D01*
X107132059Y-101387692D01*
X107132465Y-101374206D01*
X107135020Y-101338409D01*
X107145693Y-101315435D01*
X107169713Y-101302792D01*
X107212310Y-101297984D01*
X107278713Y-101298518D01*
X107290382Y-101298883D01*
X107423589Y-101303236D01*
X107432425Y-101504942D01*
X107104157Y-101504942D01*
X107099520Y-101560971D01*
X107093799Y-101598201D01*
X107079383Y-101615179D01*
X107047833Y-101621535D01*
X107046324Y-101621682D01*
X106997765Y-101626364D01*
X106997765Y-101861637D01*
X107046324Y-101866318D01*
X107080553Y-101873562D01*
X107095296Y-101893042D01*
X107099565Y-101919559D01*
X107104247Y-101968118D01*
X107473989Y-101968118D01*
X107478671Y-101919559D01*
X107485915Y-101885330D01*
X107505395Y-101870587D01*
X107531912Y-101866318D01*
X107561815Y-101861521D01*
X107575946Y-101848982D01*
X107580202Y-101819981D01*
X107580471Y-101794529D01*
X107580471Y-101727422D01*
X107509500Y-101731976D01*
X107466637Y-101735876D01*
X107445188Y-101744839D01*
X107436734Y-101765612D01*
X107433893Y-101792559D01*
X107429255Y-101848589D01*
X107288501Y-101848589D01*
X107217136Y-101847595D01*
X107170753Y-101841730D01*
X107144456Y-101826667D01*
X107133349Y-101798079D01*
X107132536Y-101751640D01*
X107134988Y-101712920D01*
X107139706Y-101646883D01*
X107306921Y-101642666D01*
X107474136Y-101638450D01*
X107478745Y-101582902D01*
X107484519Y-101545864D01*
X107499177Y-101529033D01*
X107531258Y-101522735D01*
X107531912Y-101522671D01*
X107580471Y-101517989D01*
X107580471Y-101282717D01*
X107531912Y-101278035D01*
X107497683Y-101270791D01*
X107482940Y-101251312D01*
X107478671Y-101224795D01*
X107473989Y-101176236D01*
X107104247Y-101176236D01*
X107099565Y-101224795D01*
G36*
X106489765Y-101235054D02*
G01*
X106491765Y-101273236D01*
X106502548Y-101290962D01*
X106529290Y-101297616D01*
X106538324Y-101298554D01*
X106586883Y-101303236D01*
X106590955Y-101575912D01*
X106595027Y-101848589D01*
X106542396Y-101848589D01*
X106508699Y-101850378D01*
X106493725Y-101861491D01*
X106489884Y-101890543D01*
X106489765Y-101908353D01*
X106489765Y-101968118D01*
X106863295Y-101968118D01*
X106863295Y-101909255D01*
X106861496Y-101871189D01*
X106850576Y-101853602D01*
X106822246Y-101847101D01*
X106807265Y-101845755D01*
X106751236Y-101841118D01*
X106747157Y-101576283D01*
X106743079Y-101311448D01*
X106784510Y-101302359D01*
X106830053Y-101290931D01*
X106853493Y-101278015D01*
X106862132Y-101256810D01*
X106863295Y-101228999D01*
X106863295Y-101176236D01*
X106489765Y-101176236D01*
X106489765Y-101235054D01*
G37*
X106489765Y-101235054D02*
X106491765Y-101273236D01*
X106502548Y-101290962D01*
X106529290Y-101297616D01*
X106538324Y-101298554D01*
X106586883Y-101303236D01*
X106590955Y-101575912D01*
X106595027Y-101848589D01*
X106542396Y-101848589D01*
X106508699Y-101850378D01*
X106493725Y-101861491D01*
X106489884Y-101890543D01*
X106489765Y-101908353D01*
X106489765Y-101968118D01*
X106863295Y-101968118D01*
X106863295Y-101909255D01*
X106861496Y-101871189D01*
X106850576Y-101853602D01*
X106822246Y-101847101D01*
X106807265Y-101845755D01*
X106751236Y-101841118D01*
X106747157Y-101576283D01*
X106743079Y-101311448D01*
X106784510Y-101302359D01*
X106830053Y-101290931D01*
X106853493Y-101278015D01*
X106862132Y-101256810D01*
X106863295Y-101228999D01*
X106863295Y-101176236D01*
X106489765Y-101176236D01*
X106489765Y-101235054D01*
G36*
X105859447Y-101224795D02*
G01*
X105852454Y-101258346D01*
X105833657Y-101274191D01*
X105802471Y-101280824D01*
X105768883Y-101287857D01*
X105754007Y-101302461D01*
X105750263Y-101334383D01*
X105750177Y-101348059D01*
X105750177Y-101407824D01*
X105890221Y-101416854D01*
X105899589Y-101303236D01*
X106183471Y-101303236D01*
X106187545Y-101576457D01*
X106191620Y-101849679D01*
X106045604Y-101845399D01*
X105899589Y-101841118D01*
X105899589Y-101796295D01*
X105902583Y-101766564D01*
X105917417Y-101752737D01*
X105952870Y-101747065D01*
X105955618Y-101746834D01*
X105991585Y-101742005D01*
X106007502Y-101729355D01*
X106011533Y-101699545D01*
X106011647Y-101682752D01*
X106011647Y-101623308D01*
X105750177Y-101631942D01*
X105750177Y-101856059D01*
X105802471Y-101863530D01*
X105838358Y-101872146D01*
X105854296Y-101890459D01*
X105859447Y-101919559D01*
X105864129Y-101968118D01*
X106237677Y-101968118D01*
X106232986Y-101919559D01*
X106232145Y-101887612D01*
X106243383Y-101872944D01*
X106274773Y-101867192D01*
X106284324Y-101866363D01*
X106340353Y-101861726D01*
X106340353Y-101282717D01*
X106291795Y-101278035D01*
X106257566Y-101270791D01*
X106242822Y-101251312D01*
X106238554Y-101224795D01*
X106233872Y-101176236D01*
X105864129Y-101176236D01*
X105859447Y-101224795D01*
G37*
X105859447Y-101224795D02*
X105852454Y-101258346D01*
X105833657Y-101274191D01*
X105802471Y-101280824D01*
X105768883Y-101287857D01*
X105754007Y-101302461D01*
X105750263Y-101334383D01*
X105750177Y-101348059D01*
X105750177Y-101407824D01*
X105890221Y-101416854D01*
X105899589Y-101303236D01*
X106183471Y-101303236D01*
X106187545Y-101576457D01*
X106191620Y-101849679D01*
X106045604Y-101845399D01*
X105899589Y-101841118D01*
X105899589Y-101796295D01*
X105902583Y-101766564D01*
X105917417Y-101752737D01*
X105952870Y-101747065D01*
X105955618Y-101746834D01*
X105991585Y-101742005D01*
X106007502Y-101729355D01*
X106011533Y-101699545D01*
X106011647Y-101682752D01*
X106011647Y-101623308D01*
X105750177Y-101631942D01*
X105750177Y-101856059D01*
X105802471Y-101863530D01*
X105838358Y-101872146D01*
X105854296Y-101890459D01*
X105859447Y-101919559D01*
X105864129Y-101968118D01*
X106237677Y-101968118D01*
X106232986Y-101919559D01*
X106232145Y-101887612D01*
X106243383Y-101872944D01*
X106274773Y-101867192D01*
X106284324Y-101866363D01*
X106340353Y-101861726D01*
X106340353Y-101282717D01*
X106291795Y-101278035D01*
X106257566Y-101270791D01*
X106242822Y-101251312D01*
X106238554Y-101224795D01*
X106233872Y-101176236D01*
X105864129Y-101176236D01*
X105859447Y-101224795D01*
G36*
X105470684Y-101284559D02*
G01*
X105466295Y-101392883D01*
X105410265Y-101397520D01*
X105373537Y-101402748D01*
X105357823Y-101416030D01*
X105354268Y-101446222D01*
X105354236Y-101453549D01*
X105351863Y-101488000D01*
X105338639Y-101502130D01*
X105305408Y-101504937D01*
X105301942Y-101504942D01*
X105266881Y-101507289D01*
X105252501Y-101520244D01*
X105249652Y-101552678D01*
X105249647Y-101555637D01*
X105240467Y-101599829D01*
X105212071Y-101621563D01*
X105188661Y-101624471D01*
X105183750Y-101610332D01*
X105179659Y-101571115D01*
X105176682Y-101511618D01*
X105175111Y-101436641D01*
X105174942Y-101400353D01*
X105174942Y-101176236D01*
X105025530Y-101176236D01*
X105025530Y-101968118D01*
X105174942Y-101968118D01*
X105174942Y-101744000D01*
X105226289Y-101744000D01*
X105261389Y-101741102D01*
X105276824Y-101726583D01*
X105282318Y-101695442D01*
X105289312Y-101661891D01*
X105308108Y-101646045D01*
X105339295Y-101639412D01*
X105375418Y-101630608D01*
X105392223Y-101611239D01*
X105399059Y-101579648D01*
X105408869Y-101542546D01*
X105427062Y-101528245D01*
X105436412Y-101527353D01*
X105448014Y-101528955D01*
X105456285Y-101536741D01*
X105461918Y-101555182D01*
X105465601Y-101588748D01*
X105468025Y-101641909D01*
X105469879Y-101719136D01*
X105470429Y-101747736D01*
X105474564Y-101968118D01*
X105608236Y-101968118D01*
X105608236Y-101176236D01*
X105475074Y-101176236D01*
X105470684Y-101284559D01*
G37*
X105470684Y-101284559D02*
X105466295Y-101392883D01*
X105410265Y-101397520D01*
X105373537Y-101402748D01*
X105357823Y-101416030D01*
X105354268Y-101446222D01*
X105354236Y-101453549D01*
X105351863Y-101488000D01*
X105338639Y-101502130D01*
X105305408Y-101504937D01*
X105301942Y-101504942D01*
X105266881Y-101507289D01*
X105252501Y-101520244D01*
X105249652Y-101552678D01*
X105249647Y-101555637D01*
X105240467Y-101599829D01*
X105212071Y-101621563D01*
X105188661Y-101624471D01*
X105183750Y-101610332D01*
X105179659Y-101571115D01*
X105176682Y-101511618D01*
X105175111Y-101436641D01*
X105174942Y-101400353D01*
X105174942Y-101176236D01*
X105025530Y-101176236D01*
X105025530Y-101968118D01*
X105174942Y-101968118D01*
X105174942Y-101744000D01*
X105226289Y-101744000D01*
X105261389Y-101741102D01*
X105276824Y-101726583D01*
X105282318Y-101695442D01*
X105289312Y-101661891D01*
X105308108Y-101646045D01*
X105339295Y-101639412D01*
X105375418Y-101630608D01*
X105392223Y-101611239D01*
X105399059Y-101579648D01*
X105408869Y-101542546D01*
X105427062Y-101528245D01*
X105436412Y-101527353D01*
X105448014Y-101528955D01*
X105456285Y-101536741D01*
X105461918Y-101555182D01*
X105465601Y-101588748D01*
X105468025Y-101641909D01*
X105469879Y-101719136D01*
X105470429Y-101747736D01*
X105474564Y-101968118D01*
X105608236Y-101968118D01*
X105608236Y-101176236D01*
X105475074Y-101176236D01*
X105470684Y-101284559D01*
G36*
X104293412Y-101294966D02*
G01*
X104513795Y-101299101D01*
X104734177Y-101303236D01*
X104738580Y-101403421D01*
X104742982Y-101503606D01*
X104525000Y-101512412D01*
X104515812Y-101639412D01*
X104743013Y-101639412D01*
X104734177Y-101841118D01*
X104513795Y-101845253D01*
X104293412Y-101849388D01*
X104293412Y-101968118D01*
X104891059Y-101968118D01*
X104891059Y-101176236D01*
X104293412Y-101176236D01*
X104293412Y-101294966D01*
G37*
X104293412Y-101294966D02*
X104513795Y-101299101D01*
X104734177Y-101303236D01*
X104738580Y-101403421D01*
X104742982Y-101503606D01*
X104525000Y-101512412D01*
X104515812Y-101639412D01*
X104743013Y-101639412D01*
X104734177Y-101841118D01*
X104513795Y-101845253D01*
X104293412Y-101849388D01*
X104293412Y-101968118D01*
X104891059Y-101968118D01*
X104891059Y-101176236D01*
X104293412Y-101176236D01*
X104293412Y-101294966D01*
G36*
X103678035Y-101224795D02*
G01*
X103671042Y-101258346D01*
X103652246Y-101274191D01*
X103621059Y-101280824D01*
X103568765Y-101288295D01*
X103568765Y-101856059D01*
X103621059Y-101863530D01*
X103656946Y-101872146D01*
X103672884Y-101890459D01*
X103678035Y-101919559D01*
X103682717Y-101968118D01*
X104158942Y-101968118D01*
X104158942Y-101909300D01*
X104156942Y-101871118D01*
X104146159Y-101853391D01*
X104119417Y-101846738D01*
X104110383Y-101845800D01*
X104061824Y-101841118D01*
X104061824Y-101641763D01*
X103902509Y-101641763D01*
X103902476Y-101717100D01*
X103901555Y-101777321D01*
X103899813Y-101817046D01*
X103898027Y-101830115D01*
X103882106Y-101842130D01*
X103843896Y-101846539D01*
X103804269Y-101845604D01*
X103718177Y-101841118D01*
X103718177Y-101303236D01*
X103897471Y-101303236D01*
X103901582Y-101556687D01*
X103902509Y-101641763D01*
X104061824Y-101641763D01*
X104061824Y-101303236D01*
X104110383Y-101298554D01*
X104141746Y-101293107D01*
X104155522Y-101278718D01*
X104158886Y-101246002D01*
X104158942Y-101235054D01*
X104158942Y-101176236D01*
X103682717Y-101176236D01*
X103678035Y-101224795D01*
G37*
X103678035Y-101224795D02*
X103671042Y-101258346D01*
X103652246Y-101274191D01*
X103621059Y-101280824D01*
X103568765Y-101288295D01*
X103568765Y-101856059D01*
X103621059Y-101863530D01*
X103656946Y-101872146D01*
X103672884Y-101890459D01*
X103678035Y-101919559D01*
X103682717Y-101968118D01*
X104158942Y-101968118D01*
X104158942Y-101909300D01*
X104156942Y-101871118D01*
X104146159Y-101853391D01*
X104119417Y-101846738D01*
X104110383Y-101845800D01*
X104061824Y-101841118D01*
X104061824Y-101641763D01*
X103902509Y-101641763D01*
X103902476Y-101717100D01*
X103901555Y-101777321D01*
X103899813Y-101817046D01*
X103898027Y-101830115D01*
X103882106Y-101842130D01*
X103843896Y-101846539D01*
X103804269Y-101845604D01*
X103718177Y-101841118D01*
X103718177Y-101303236D01*
X103897471Y-101303236D01*
X103901582Y-101556687D01*
X103902509Y-101641763D01*
X104061824Y-101641763D01*
X104061824Y-101303236D01*
X104110383Y-101298554D01*
X104141746Y-101293107D01*
X104155522Y-101278718D01*
X104158886Y-101246002D01*
X104158942Y-101235054D01*
X104158942Y-101176236D01*
X103682717Y-101176236D01*
X103678035Y-101224795D01*
G36*
X102216589Y-101228530D02*
G01*
X102214276Y-101263579D01*
X102201226Y-101277953D01*
X102168275Y-101280817D01*
X102164295Y-101280824D01*
X102112000Y-101280824D01*
X102112000Y-101517989D01*
X102160559Y-101522671D01*
X102194210Y-101529409D01*
X102207268Y-101546848D01*
X102209118Y-101572177D01*
X102205334Y-101603604D01*
X102187806Y-101617347D01*
X102160559Y-101621682D01*
X102112000Y-101626364D01*
X102112000Y-101863530D01*
X102163348Y-101863530D01*
X102198448Y-101866429D01*
X102213882Y-101880947D01*
X102219377Y-101912089D01*
X102224059Y-101960648D01*
X102709647Y-101968858D01*
X102709647Y-101908723D01*
X102708100Y-101870305D01*
X102698444Y-101853172D01*
X102680830Y-101850080D01*
X102440706Y-101850080D01*
X102354795Y-101845599D01*
X102268883Y-101841118D01*
X102268883Y-101646883D01*
X102354795Y-101642402D01*
X102440706Y-101637921D01*
X102440706Y-101850080D01*
X102680830Y-101850080D01*
X102673161Y-101848734D01*
X102657016Y-101848589D01*
X102604385Y-101848589D01*
X102608458Y-101575912D01*
X102609517Y-101504942D01*
X102440706Y-101504942D01*
X102260047Y-101504942D01*
X102268883Y-101303236D01*
X102354795Y-101298755D01*
X102440706Y-101294274D01*
X102440706Y-101504942D01*
X102609517Y-101504942D01*
X102612530Y-101303236D01*
X102661089Y-101298554D01*
X102692452Y-101293107D01*
X102706228Y-101278718D01*
X102709592Y-101246002D01*
X102709647Y-101235054D01*
X102709647Y-101176236D01*
X102216589Y-101176236D01*
X102216589Y-101228530D01*
G37*
X102216589Y-101228530D02*
X102214276Y-101263579D01*
X102201226Y-101277953D01*
X102168275Y-101280817D01*
X102164295Y-101280824D01*
X102112000Y-101280824D01*
X102112000Y-101517989D01*
X102160559Y-101522671D01*
X102194210Y-101529409D01*
X102207268Y-101546848D01*
X102209118Y-101572177D01*
X102205334Y-101603604D01*
X102187806Y-101617347D01*
X102160559Y-101621682D01*
X102112000Y-101626364D01*
X102112000Y-101863530D01*
X102163348Y-101863530D01*
X102198448Y-101866429D01*
X102213882Y-101880947D01*
X102219377Y-101912089D01*
X102224059Y-101960648D01*
X102709647Y-101968858D01*
X102709647Y-101908723D01*
X102708100Y-101870305D01*
X102698444Y-101853172D01*
X102680830Y-101850080D01*
X102440706Y-101850080D01*
X102354795Y-101845599D01*
X102268883Y-101841118D01*
X102268883Y-101646883D01*
X102354795Y-101642402D01*
X102440706Y-101637921D01*
X102440706Y-101850080D01*
X102680830Y-101850080D01*
X102673161Y-101848734D01*
X102657016Y-101848589D01*
X102604385Y-101848589D01*
X102608458Y-101575912D01*
X102609517Y-101504942D01*
X102440706Y-101504942D01*
X102260047Y-101504942D01*
X102268883Y-101303236D01*
X102354795Y-101298755D01*
X102440706Y-101294274D01*
X102440706Y-101504942D01*
X102609517Y-101504942D01*
X102612530Y-101303236D01*
X102661089Y-101298554D01*
X102692452Y-101293107D01*
X102706228Y-101278718D01*
X102709592Y-101246002D01*
X102709647Y-101235054D01*
X102709647Y-101176236D01*
X102216589Y-101176236D01*
X102216589Y-101228530D01*
G36*
X101825037Y-101284559D02*
G01*
X101820647Y-101392883D01*
X101772970Y-101397499D01*
X101739062Y-101404961D01*
X101724573Y-101425144D01*
X101720676Y-101449793D01*
X101711505Y-101485773D01*
X101689503Y-101500908D01*
X101682442Y-101502245D01*
X101659955Y-101501620D01*
X101650552Y-101485802D01*
X101648824Y-101453687D01*
X101646600Y-101418168D01*
X101634180Y-101403418D01*
X101602941Y-101400365D01*
X101598128Y-101400353D01*
X101565365Y-101397159D01*
X101544915Y-101383897D01*
X101533982Y-101355051D01*
X101529765Y-101305102D01*
X101529295Y-101264661D01*
X101529295Y-101176236D01*
X101394824Y-101176236D01*
X101394824Y-101413401D01*
X101443383Y-101418083D01*
X101477652Y-101425366D01*
X101492400Y-101444821D01*
X101496558Y-101470443D01*
X101504019Y-101504350D01*
X101524203Y-101518839D01*
X101548852Y-101522737D01*
X101596530Y-101527353D01*
X101604000Y-101744000D01*
X101611471Y-101960648D01*
X101682442Y-101965201D01*
X101753412Y-101969755D01*
X101753412Y-101762748D01*
X101754078Y-101672292D01*
X101756976Y-101607480D01*
X101763457Y-101564087D01*
X101774874Y-101537888D01*
X101792578Y-101524659D01*
X101817921Y-101520175D01*
X101831106Y-101519883D01*
X101859266Y-101516635D01*
X101870813Y-101500904D01*
X101872942Y-101467589D01*
X101875255Y-101432540D01*
X101888304Y-101418166D01*
X101921255Y-101415301D01*
X101925236Y-101415295D01*
X101977530Y-101415295D01*
X101977530Y-101176236D01*
X101829427Y-101176236D01*
X101825037Y-101284559D01*
G37*
X101825037Y-101284559D02*
X101820647Y-101392883D01*
X101772970Y-101397499D01*
X101739062Y-101404961D01*
X101724573Y-101425144D01*
X101720676Y-101449793D01*
X101711505Y-101485773D01*
X101689503Y-101500908D01*
X101682442Y-101502245D01*
X101659955Y-101501620D01*
X101650552Y-101485802D01*
X101648824Y-101453687D01*
X101646600Y-101418168D01*
X101634180Y-101403418D01*
X101602941Y-101400365D01*
X101598128Y-101400353D01*
X101565365Y-101397159D01*
X101544915Y-101383897D01*
X101533982Y-101355051D01*
X101529765Y-101305102D01*
X101529295Y-101264661D01*
X101529295Y-101176236D01*
X101394824Y-101176236D01*
X101394824Y-101413401D01*
X101443383Y-101418083D01*
X101477652Y-101425366D01*
X101492400Y-101444821D01*
X101496558Y-101470443D01*
X101504019Y-101504350D01*
X101524203Y-101518839D01*
X101548852Y-101522737D01*
X101596530Y-101527353D01*
X101604000Y-101744000D01*
X101611471Y-101960648D01*
X101682442Y-101965201D01*
X101753412Y-101969755D01*
X101753412Y-101762748D01*
X101754078Y-101672292D01*
X101756976Y-101607480D01*
X101763457Y-101564087D01*
X101774874Y-101537888D01*
X101792578Y-101524659D01*
X101817921Y-101520175D01*
X101831106Y-101519883D01*
X101859266Y-101516635D01*
X101870813Y-101500904D01*
X101872942Y-101467589D01*
X101875255Y-101432540D01*
X101888304Y-101418166D01*
X101921255Y-101415301D01*
X101925236Y-101415295D01*
X101977530Y-101415295D01*
X101977530Y-101176236D01*
X101829427Y-101176236D01*
X101825037Y-101284559D01*
D11*
%TO.C,J2*%
X117015000Y-110315000D02*
X117015000Y-107940000D01*
X117015000Y-114315000D02*
X117015000Y-111685000D01*
X117015000Y-108315000D02*
X117015000Y-107940000D01*
X119135000Y-118060000D02*
X119135000Y-117685000D01*
X119135000Y-117685000D02*
X120365000Y-117685000D01*
X117015000Y-118060000D02*
X117015000Y-115685000D01*
X119135000Y-112315000D02*
X119135000Y-109685000D01*
X119135000Y-116315000D02*
X119135000Y-113685000D01*
X117015000Y-107940000D02*
X119135000Y-107940000D01*
X117015000Y-118060000D02*
X119135000Y-118060000D01*
D12*
X118408333Y-118512380D02*
X118408333Y-119226666D01*
X118455952Y-119369523D01*
X118551190Y-119464761D01*
X118694047Y-119512380D01*
X118789285Y-119512380D01*
X117979761Y-118607619D02*
X117932142Y-118560000D01*
X117836904Y-118512380D01*
X117598809Y-118512380D01*
X117503571Y-118560000D01*
X117455952Y-118607619D01*
X117408333Y-118702857D01*
X117408333Y-118798095D01*
X117455952Y-118940952D01*
X118027380Y-119512380D01*
X117408333Y-119512380D01*
%TD*%
M02*
