%TF.GenerationSoftware,KiCad,Pcbnew,(5.1.6-0-10_14)*%
%TF.CreationDate,2021-01-13T21:17:16+08:00*%
%TF.ProjectId,Zeeuss,5a656575-7373-42e6-9b69-6361645f7063,rev?*%
%TF.SameCoordinates,Original*%
%TF.FileFunction,Soldermask,Top*%
%TF.FilePolarity,Negative*%
%FSLAX46Y46*%
G04 Gerber Fmt 4.6, Leading zero omitted, Abs format (unit mm)*
G04 Created by KiCad (PCBNEW (5.1.6-0-10_14)) date 2021-01-13 21:17:16*
%MOMM*%
%LPD*%
G01*
G04 APERTURE LIST*
%ADD10R,2.390000X3.100000*%
%ADD11R,2.510000X3.400000*%
%ADD12R,1.800000X1.000000*%
%ADD13R,2.800000X2.300000*%
G04 APERTURE END LIST*
%TO.C,REF\u002A\u002A*%
G36*
G01*
X119775000Y-111550000D02*
X118725000Y-111550000D01*
G75*
G02*
X118450000Y-111275000I0J275000D01*
G01*
X118450000Y-110725000D01*
G75*
G02*
X118725000Y-110450000I275000J0D01*
G01*
X119775000Y-110450000D01*
G75*
G02*
X120050000Y-110725000I0J-275000D01*
G01*
X120050000Y-111275000D01*
G75*
G02*
X119775000Y-111550000I-275000J0D01*
G01*
G37*
%TD*%
%TO.C,REF\u002A\u002A*%
G36*
G01*
X119775000Y-117550000D02*
X118725000Y-117550000D01*
G75*
G02*
X118450000Y-117275000I0J275000D01*
G01*
X118450000Y-116725000D01*
G75*
G02*
X118725000Y-116450000I275000J0D01*
G01*
X119775000Y-116450000D01*
G75*
G02*
X120050000Y-116725000I0J-275000D01*
G01*
X120050000Y-117275000D01*
G75*
G02*
X119775000Y-117550000I-275000J0D01*
G01*
G37*
%TD*%
%TO.C,REF\u002A\u002A*%
G36*
G01*
X119775000Y-116050000D02*
X118725000Y-116050000D01*
G75*
G02*
X118450000Y-115775000I0J275000D01*
G01*
X118450000Y-115225000D01*
G75*
G02*
X118725000Y-114950000I275000J0D01*
G01*
X119775000Y-114950000D01*
G75*
G02*
X120050000Y-115225000I0J-275000D01*
G01*
X120050000Y-115775000D01*
G75*
G02*
X119775000Y-116050000I-275000J0D01*
G01*
G37*
%TD*%
%TO.C,REF\u002A\u002A*%
G36*
G01*
X119775000Y-114550000D02*
X118725000Y-114550000D01*
G75*
G02*
X118450000Y-114275000I0J275000D01*
G01*
X118450000Y-113725000D01*
G75*
G02*
X118725000Y-113450000I275000J0D01*
G01*
X119775000Y-113450000D01*
G75*
G02*
X120050000Y-113725000I0J-275000D01*
G01*
X120050000Y-114275000D01*
G75*
G02*
X119775000Y-114550000I-275000J0D01*
G01*
G37*
%TD*%
%TO.C,REF\u002A\u002A*%
G36*
G01*
X119775000Y-113050000D02*
X118725000Y-113050000D01*
G75*
G02*
X118450000Y-112775000I0J275000D01*
G01*
X118450000Y-112225000D01*
G75*
G02*
X118725000Y-111950000I275000J0D01*
G01*
X119775000Y-111950000D01*
G75*
G02*
X120050000Y-112225000I0J-275000D01*
G01*
X120050000Y-112775000D01*
G75*
G02*
X119775000Y-113050000I-275000J0D01*
G01*
G37*
%TD*%
%TO.C,C12*%
G36*
G01*
X117062500Y-109350000D02*
X116537500Y-109350000D01*
G75*
G02*
X116275000Y-109087500I0J262500D01*
G01*
X116275000Y-108462500D01*
G75*
G02*
X116537500Y-108200000I262500J0D01*
G01*
X117062500Y-108200000D01*
G75*
G02*
X117325000Y-108462500I0J-262500D01*
G01*
X117325000Y-109087500D01*
G75*
G02*
X117062500Y-109350000I-262500J0D01*
G01*
G37*
G36*
G01*
X117062500Y-111100000D02*
X116537500Y-111100000D01*
G75*
G02*
X116275000Y-110837500I0J262500D01*
G01*
X116275000Y-110212500D01*
G75*
G02*
X116537500Y-109950000I262500J0D01*
G01*
X117062500Y-109950000D01*
G75*
G02*
X117325000Y-110212500I0J-262500D01*
G01*
X117325000Y-110837500D01*
G75*
G02*
X117062500Y-111100000I-262500J0D01*
G01*
G37*
%TD*%
%TO.C,C11*%
G36*
G01*
X113675000Y-111479170D02*
X113675000Y-112004170D01*
G75*
G02*
X113412500Y-112266670I-262500J0D01*
G01*
X112787500Y-112266670D01*
G75*
G02*
X112525000Y-112004170I0J262500D01*
G01*
X112525000Y-111479170D01*
G75*
G02*
X112787500Y-111216670I262500J0D01*
G01*
X113412500Y-111216670D01*
G75*
G02*
X113675000Y-111479170I0J-262500D01*
G01*
G37*
G36*
G01*
X115425000Y-111479170D02*
X115425000Y-112004170D01*
G75*
G02*
X115162500Y-112266670I-262500J0D01*
G01*
X114537500Y-112266670D01*
G75*
G02*
X114275000Y-112004170I0J262500D01*
G01*
X114275000Y-111479170D01*
G75*
G02*
X114537500Y-111216670I262500J0D01*
G01*
X115162500Y-111216670D01*
G75*
G02*
X115425000Y-111479170I0J-262500D01*
G01*
G37*
%TD*%
%TO.C,C10*%
G36*
G01*
X115137500Y-114750000D02*
X115662500Y-114750000D01*
G75*
G02*
X115925000Y-115012500I0J-262500D01*
G01*
X115925000Y-115637500D01*
G75*
G02*
X115662500Y-115900000I-262500J0D01*
G01*
X115137500Y-115900000D01*
G75*
G02*
X114875000Y-115637500I0J262500D01*
G01*
X114875000Y-115012500D01*
G75*
G02*
X115137500Y-114750000I262500J0D01*
G01*
G37*
G36*
G01*
X115137500Y-113000000D02*
X115662500Y-113000000D01*
G75*
G02*
X115925000Y-113262500I0J-262500D01*
G01*
X115925000Y-113887500D01*
G75*
G02*
X115662500Y-114150000I-262500J0D01*
G01*
X115137500Y-114150000D01*
G75*
G02*
X114875000Y-113887500I0J262500D01*
G01*
X114875000Y-113262500D01*
G75*
G02*
X115137500Y-113000000I262500J0D01*
G01*
G37*
%TD*%
%TO.C,C5*%
G36*
G01*
X113675000Y-109787500D02*
X113675000Y-110312500D01*
G75*
G02*
X113412500Y-110575000I-262500J0D01*
G01*
X112787500Y-110575000D01*
G75*
G02*
X112525000Y-110312500I0J262500D01*
G01*
X112525000Y-109787500D01*
G75*
G02*
X112787500Y-109525000I262500J0D01*
G01*
X113412500Y-109525000D01*
G75*
G02*
X113675000Y-109787500I0J-262500D01*
G01*
G37*
G36*
G01*
X115425000Y-109787500D02*
X115425000Y-110312500D01*
G75*
G02*
X115162500Y-110575000I-262500J0D01*
G01*
X114537500Y-110575000D01*
G75*
G02*
X114275000Y-110312500I0J262500D01*
G01*
X114275000Y-109787500D01*
G75*
G02*
X114537500Y-109525000I262500J0D01*
G01*
X115162500Y-109525000D01*
G75*
G02*
X115425000Y-109787500I0J-262500D01*
G01*
G37*
%TD*%
%TO.C,C2*%
G36*
G01*
X116887500Y-114750000D02*
X117412500Y-114750000D01*
G75*
G02*
X117675000Y-115012500I0J-262500D01*
G01*
X117675000Y-115637500D01*
G75*
G02*
X117412500Y-115900000I-262500J0D01*
G01*
X116887500Y-115900000D01*
G75*
G02*
X116625000Y-115637500I0J262500D01*
G01*
X116625000Y-115012500D01*
G75*
G02*
X116887500Y-114750000I262500J0D01*
G01*
G37*
G36*
G01*
X116887500Y-113000000D02*
X117412500Y-113000000D01*
G75*
G02*
X117675000Y-113262500I0J-262500D01*
G01*
X117675000Y-113887500D01*
G75*
G02*
X117412500Y-114150000I-262500J0D01*
G01*
X116887500Y-114150000D01*
G75*
G02*
X116625000Y-113887500I0J262500D01*
G01*
X116625000Y-113262500D01*
G75*
G02*
X116887500Y-113000000I262500J0D01*
G01*
G37*
%TD*%
%TO.C,C1*%
G36*
G01*
X118225000Y-107204166D02*
X118225000Y-106679166D01*
G75*
G02*
X118487500Y-106416666I262500J0D01*
G01*
X119112500Y-106416666D01*
G75*
G02*
X119375000Y-106679166I0J-262500D01*
G01*
X119375000Y-107204166D01*
G75*
G02*
X119112500Y-107466666I-262500J0D01*
G01*
X118487500Y-107466666D01*
G75*
G02*
X118225000Y-107204166I0J262500D01*
G01*
G37*
G36*
G01*
X116475000Y-107204166D02*
X116475000Y-106679166D01*
G75*
G02*
X116737500Y-106416666I262500J0D01*
G01*
X117362500Y-106416666D01*
G75*
G02*
X117625000Y-106679166I0J-262500D01*
G01*
X117625000Y-107204166D01*
G75*
G02*
X117362500Y-107466666I-262500J0D01*
G01*
X116737500Y-107466666D01*
G75*
G02*
X116475000Y-107204166I0J262500D01*
G01*
G37*
%TD*%
D10*
%TO.C,U2*%
X107250000Y-115300000D03*
G36*
G01*
X108700000Y-113570000D02*
X108700000Y-113220000D01*
G75*
G02*
X108875000Y-113045000I175000J0D01*
G01*
X110575000Y-113045000D01*
G75*
G02*
X110750000Y-113220000I0J-175000D01*
G01*
X110750000Y-113570000D01*
G75*
G02*
X110575000Y-113745000I-175000J0D01*
G01*
X108875000Y-113745000D01*
G75*
G02*
X108700000Y-113570000I0J175000D01*
G01*
G37*
G36*
G01*
X108700000Y-114840000D02*
X108700000Y-114490000D01*
G75*
G02*
X108875000Y-114315000I175000J0D01*
G01*
X110575000Y-114315000D01*
G75*
G02*
X110750000Y-114490000I0J-175000D01*
G01*
X110750000Y-114840000D01*
G75*
G02*
X110575000Y-115015000I-175000J0D01*
G01*
X108875000Y-115015000D01*
G75*
G02*
X108700000Y-114840000I0J175000D01*
G01*
G37*
G36*
G01*
X108700000Y-116110000D02*
X108700000Y-115760000D01*
G75*
G02*
X108875000Y-115585000I175000J0D01*
G01*
X110575000Y-115585000D01*
G75*
G02*
X110750000Y-115760000I0J-175000D01*
G01*
X110750000Y-116110000D01*
G75*
G02*
X110575000Y-116285000I-175000J0D01*
G01*
X108875000Y-116285000D01*
G75*
G02*
X108700000Y-116110000I0J175000D01*
G01*
G37*
G36*
G01*
X108700000Y-117380000D02*
X108700000Y-117030000D01*
G75*
G02*
X108875000Y-116855000I175000J0D01*
G01*
X110575000Y-116855000D01*
G75*
G02*
X110750000Y-117030000I0J-175000D01*
G01*
X110750000Y-117380000D01*
G75*
G02*
X110575000Y-117555000I-175000J0D01*
G01*
X108875000Y-117555000D01*
G75*
G02*
X108700000Y-117380000I0J175000D01*
G01*
G37*
G36*
G01*
X103750000Y-117380000D02*
X103750000Y-117030000D01*
G75*
G02*
X103925000Y-116855000I175000J0D01*
G01*
X105625000Y-116855000D01*
G75*
G02*
X105800000Y-117030000I0J-175000D01*
G01*
X105800000Y-117380000D01*
G75*
G02*
X105625000Y-117555000I-175000J0D01*
G01*
X103925000Y-117555000D01*
G75*
G02*
X103750000Y-117380000I0J175000D01*
G01*
G37*
G36*
G01*
X103750000Y-116110000D02*
X103750000Y-115760000D01*
G75*
G02*
X103925000Y-115585000I175000J0D01*
G01*
X105625000Y-115585000D01*
G75*
G02*
X105800000Y-115760000I0J-175000D01*
G01*
X105800000Y-116110000D01*
G75*
G02*
X105625000Y-116285000I-175000J0D01*
G01*
X103925000Y-116285000D01*
G75*
G02*
X103750000Y-116110000I0J175000D01*
G01*
G37*
G36*
G01*
X103750000Y-114840000D02*
X103750000Y-114490000D01*
G75*
G02*
X103925000Y-114315000I175000J0D01*
G01*
X105625000Y-114315000D01*
G75*
G02*
X105800000Y-114490000I0J-175000D01*
G01*
X105800000Y-114840000D01*
G75*
G02*
X105625000Y-115015000I-175000J0D01*
G01*
X103925000Y-115015000D01*
G75*
G02*
X103750000Y-114840000I0J175000D01*
G01*
G37*
G36*
G01*
X103750000Y-113570000D02*
X103750000Y-113220000D01*
G75*
G02*
X103925000Y-113045000I175000J0D01*
G01*
X105625000Y-113045000D01*
G75*
G02*
X105800000Y-113220000I0J-175000D01*
G01*
X105800000Y-113570000D01*
G75*
G02*
X105625000Y-113745000I-175000J0D01*
G01*
X103925000Y-113745000D01*
G75*
G02*
X103750000Y-113570000I0J175000D01*
G01*
G37*
%TD*%
D11*
%TO.C,U1*%
X112100000Y-102800000D03*
G36*
G01*
X110650000Y-104530000D02*
X110650000Y-104880000D01*
G75*
G02*
X110475000Y-105055000I-175000J0D01*
G01*
X108775000Y-105055000D01*
G75*
G02*
X108600000Y-104880000I0J175000D01*
G01*
X108600000Y-104530000D01*
G75*
G02*
X108775000Y-104355000I175000J0D01*
G01*
X110475000Y-104355000D01*
G75*
G02*
X110650000Y-104530000I0J-175000D01*
G01*
G37*
G36*
G01*
X110650000Y-103260000D02*
X110650000Y-103610000D01*
G75*
G02*
X110475000Y-103785000I-175000J0D01*
G01*
X108775000Y-103785000D01*
G75*
G02*
X108600000Y-103610000I0J175000D01*
G01*
X108600000Y-103260000D01*
G75*
G02*
X108775000Y-103085000I175000J0D01*
G01*
X110475000Y-103085000D01*
G75*
G02*
X110650000Y-103260000I0J-175000D01*
G01*
G37*
G36*
G01*
X110650000Y-101990000D02*
X110650000Y-102340000D01*
G75*
G02*
X110475000Y-102515000I-175000J0D01*
G01*
X108775000Y-102515000D01*
G75*
G02*
X108600000Y-102340000I0J175000D01*
G01*
X108600000Y-101990000D01*
G75*
G02*
X108775000Y-101815000I175000J0D01*
G01*
X110475000Y-101815000D01*
G75*
G02*
X110650000Y-101990000I0J-175000D01*
G01*
G37*
G36*
G01*
X110650000Y-100720000D02*
X110650000Y-101070000D01*
G75*
G02*
X110475000Y-101245000I-175000J0D01*
G01*
X108775000Y-101245000D01*
G75*
G02*
X108600000Y-101070000I0J175000D01*
G01*
X108600000Y-100720000D01*
G75*
G02*
X108775000Y-100545000I175000J0D01*
G01*
X110475000Y-100545000D01*
G75*
G02*
X110650000Y-100720000I0J-175000D01*
G01*
G37*
G36*
G01*
X115600000Y-100720000D02*
X115600000Y-101070000D01*
G75*
G02*
X115425000Y-101245000I-175000J0D01*
G01*
X113725000Y-101245000D01*
G75*
G02*
X113550000Y-101070000I0J175000D01*
G01*
X113550000Y-100720000D01*
G75*
G02*
X113725000Y-100545000I175000J0D01*
G01*
X115425000Y-100545000D01*
G75*
G02*
X115600000Y-100720000I0J-175000D01*
G01*
G37*
G36*
G01*
X115600000Y-101990000D02*
X115600000Y-102340000D01*
G75*
G02*
X115425000Y-102515000I-175000J0D01*
G01*
X113725000Y-102515000D01*
G75*
G02*
X113550000Y-102340000I0J175000D01*
G01*
X113550000Y-101990000D01*
G75*
G02*
X113725000Y-101815000I175000J0D01*
G01*
X115425000Y-101815000D01*
G75*
G02*
X115600000Y-101990000I0J-175000D01*
G01*
G37*
G36*
G01*
X115600000Y-103260000D02*
X115600000Y-103610000D01*
G75*
G02*
X115425000Y-103785000I-175000J0D01*
G01*
X113725000Y-103785000D01*
G75*
G02*
X113550000Y-103610000I0J175000D01*
G01*
X113550000Y-103260000D01*
G75*
G02*
X113725000Y-103085000I175000J0D01*
G01*
X115425000Y-103085000D01*
G75*
G02*
X115600000Y-103260000I0J-175000D01*
G01*
G37*
G36*
G01*
X115600000Y-104530000D02*
X115600000Y-104880000D01*
G75*
G02*
X115425000Y-105055000I-175000J0D01*
G01*
X113725000Y-105055000D01*
G75*
G02*
X113550000Y-104880000I0J175000D01*
G01*
X113550000Y-104530000D01*
G75*
G02*
X113725000Y-104355000I175000J0D01*
G01*
X115425000Y-104355000D01*
G75*
G02*
X115600000Y-104530000I0J-175000D01*
G01*
G37*
%TD*%
D12*
%TO.C,SW1*%
X112750000Y-116950000D03*
X112750000Y-113550000D03*
%TD*%
%TO.C,R10*%
G36*
G01*
X116487500Y-102350000D02*
X117012500Y-102350000D01*
G75*
G02*
X117275000Y-102612500I0J-262500D01*
G01*
X117275000Y-103237500D01*
G75*
G02*
X117012500Y-103500000I-262500J0D01*
G01*
X116487500Y-103500000D01*
G75*
G02*
X116225000Y-103237500I0J262500D01*
G01*
X116225000Y-102612500D01*
G75*
G02*
X116487500Y-102350000I262500J0D01*
G01*
G37*
G36*
G01*
X116487500Y-100600000D02*
X117012500Y-100600000D01*
G75*
G02*
X117275000Y-100862500I0J-262500D01*
G01*
X117275000Y-101487500D01*
G75*
G02*
X117012500Y-101750000I-262500J0D01*
G01*
X116487500Y-101750000D01*
G75*
G02*
X116225000Y-101487500I0J262500D01*
G01*
X116225000Y-100862500D01*
G75*
G02*
X116487500Y-100600000I262500J0D01*
G01*
G37*
%TD*%
%TO.C,R9*%
G36*
G01*
X118225000Y-105512500D02*
X118225000Y-104987500D01*
G75*
G02*
X118487500Y-104725000I262500J0D01*
G01*
X119112500Y-104725000D01*
G75*
G02*
X119375000Y-104987500I0J-262500D01*
G01*
X119375000Y-105512500D01*
G75*
G02*
X119112500Y-105775000I-262500J0D01*
G01*
X118487500Y-105775000D01*
G75*
G02*
X118225000Y-105512500I0J262500D01*
G01*
G37*
G36*
G01*
X116475000Y-105512500D02*
X116475000Y-104987500D01*
G75*
G02*
X116737500Y-104725000I262500J0D01*
G01*
X117362500Y-104725000D01*
G75*
G02*
X117625000Y-104987500I0J-262500D01*
G01*
X117625000Y-105512500D01*
G75*
G02*
X117362500Y-105775000I-262500J0D01*
G01*
X116737500Y-105775000D01*
G75*
G02*
X116475000Y-105512500I0J262500D01*
G01*
G37*
%TD*%
%TO.C,R5*%
G36*
G01*
X102337500Y-109650000D02*
X102862500Y-109650000D01*
G75*
G02*
X103125000Y-109912500I0J-262500D01*
G01*
X103125000Y-110537500D01*
G75*
G02*
X102862500Y-110800000I-262500J0D01*
G01*
X102337500Y-110800000D01*
G75*
G02*
X102075000Y-110537500I0J262500D01*
G01*
X102075000Y-109912500D01*
G75*
G02*
X102337500Y-109650000I262500J0D01*
G01*
G37*
G36*
G01*
X102337500Y-107900000D02*
X102862500Y-107900000D01*
G75*
G02*
X103125000Y-108162500I0J-262500D01*
G01*
X103125000Y-108787500D01*
G75*
G02*
X102862500Y-109050000I-262500J0D01*
G01*
X102337500Y-109050000D01*
G75*
G02*
X102075000Y-108787500I0J262500D01*
G01*
X102075000Y-108162500D01*
G75*
G02*
X102337500Y-107900000I262500J0D01*
G01*
G37*
%TD*%
%TO.C,R3*%
G36*
G01*
X110775000Y-111962500D02*
X110775000Y-111437500D01*
G75*
G02*
X111037500Y-111175000I262500J0D01*
G01*
X111662500Y-111175000D01*
G75*
G02*
X111925000Y-111437500I0J-262500D01*
G01*
X111925000Y-111962500D01*
G75*
G02*
X111662500Y-112225000I-262500J0D01*
G01*
X111037500Y-112225000D01*
G75*
G02*
X110775000Y-111962500I0J262500D01*
G01*
G37*
G36*
G01*
X109025000Y-111962500D02*
X109025000Y-111437500D01*
G75*
G02*
X109287500Y-111175000I262500J0D01*
G01*
X109912500Y-111175000D01*
G75*
G02*
X110175000Y-111437500I0J-262500D01*
G01*
X110175000Y-111962500D01*
G75*
G02*
X109912500Y-112225000I-262500J0D01*
G01*
X109287500Y-112225000D01*
G75*
G02*
X109025000Y-111962500I0J262500D01*
G01*
G37*
%TD*%
%TO.C,R1*%
G36*
G01*
X106262500Y-110575000D02*
X105737500Y-110575000D01*
G75*
G02*
X105475000Y-110312500I0J262500D01*
G01*
X105475000Y-109687500D01*
G75*
G02*
X105737500Y-109425000I262500J0D01*
G01*
X106262500Y-109425000D01*
G75*
G02*
X106525000Y-109687500I0J-262500D01*
G01*
X106525000Y-110312500D01*
G75*
G02*
X106262500Y-110575000I-262500J0D01*
G01*
G37*
G36*
G01*
X106262500Y-112325000D02*
X105737500Y-112325000D01*
G75*
G02*
X105475000Y-112062500I0J262500D01*
G01*
X105475000Y-111437500D01*
G75*
G02*
X105737500Y-111175000I262500J0D01*
G01*
X106262500Y-111175000D01*
G75*
G02*
X106525000Y-111437500I0J-262500D01*
G01*
X106525000Y-112062500D01*
G75*
G02*
X106262500Y-112325000I-262500J0D01*
G01*
G37*
%TD*%
D13*
%TO.C,L2*%
X101650000Y-103850000D03*
X106750000Y-103850000D03*
%TD*%
%TO.C,D4*%
G36*
G01*
X101372500Y-116468749D02*
X101372500Y-117031249D01*
G75*
G02*
X101128750Y-117274999I-243750J0D01*
G01*
X100641250Y-117274999D01*
G75*
G02*
X100397500Y-117031249I0J243750D01*
G01*
X100397500Y-116468749D01*
G75*
G02*
X100641250Y-116224999I243750J0D01*
G01*
X101128750Y-116224999D01*
G75*
G02*
X101372500Y-116468749I0J-243750D01*
G01*
G37*
G36*
G01*
X102947500Y-116468749D02*
X102947500Y-117031249D01*
G75*
G02*
X102703750Y-117274999I-243750J0D01*
G01*
X102216250Y-117274999D01*
G75*
G02*
X101972500Y-117031249I0J243750D01*
G01*
X101972500Y-116468749D01*
G75*
G02*
X102216250Y-116224999I243750J0D01*
G01*
X102703750Y-116224999D01*
G75*
G02*
X102947500Y-116468749I0J-243750D01*
G01*
G37*
%TD*%
%TO.C,D3*%
G36*
G01*
X101372500Y-114885416D02*
X101372500Y-115447916D01*
G75*
G02*
X101128750Y-115691666I-243750J0D01*
G01*
X100641250Y-115691666D01*
G75*
G02*
X100397500Y-115447916I0J243750D01*
G01*
X100397500Y-114885416D01*
G75*
G02*
X100641250Y-114641666I243750J0D01*
G01*
X101128750Y-114641666D01*
G75*
G02*
X101372500Y-114885416I0J-243750D01*
G01*
G37*
G36*
G01*
X102947500Y-114885416D02*
X102947500Y-115447916D01*
G75*
G02*
X102703750Y-115691666I-243750J0D01*
G01*
X102216250Y-115691666D01*
G75*
G02*
X101972500Y-115447916I0J243750D01*
G01*
X101972500Y-114885416D01*
G75*
G02*
X102216250Y-114641666I243750J0D01*
G01*
X102703750Y-114641666D01*
G75*
G02*
X102947500Y-114885416I0J-243750D01*
G01*
G37*
%TD*%
%TO.C,D2*%
G36*
G01*
X102012500Y-113864583D02*
X102012500Y-113302083D01*
G75*
G02*
X102256250Y-113058333I243750J0D01*
G01*
X102743750Y-113058333D01*
G75*
G02*
X102987500Y-113302083I0J-243750D01*
G01*
X102987500Y-113864583D01*
G75*
G02*
X102743750Y-114108333I-243750J0D01*
G01*
X102256250Y-114108333D01*
G75*
G02*
X102012500Y-113864583I0J243750D01*
G01*
G37*
G36*
G01*
X100437500Y-113864583D02*
X100437500Y-113302083D01*
G75*
G02*
X100681250Y-113058333I243750J0D01*
G01*
X101168750Y-113058333D01*
G75*
G02*
X101412500Y-113302083I0J-243750D01*
G01*
X101412500Y-113864583D01*
G75*
G02*
X101168750Y-114108333I-243750J0D01*
G01*
X100681250Y-114108333D01*
G75*
G02*
X100437500Y-113864583I0J243750D01*
G01*
G37*
%TD*%
%TO.C,D1*%
G36*
G01*
X102012500Y-112281250D02*
X102012500Y-111718750D01*
G75*
G02*
X102256250Y-111475000I243750J0D01*
G01*
X102743750Y-111475000D01*
G75*
G02*
X102987500Y-111718750I0J-243750D01*
G01*
X102987500Y-112281250D01*
G75*
G02*
X102743750Y-112525000I-243750J0D01*
G01*
X102256250Y-112525000D01*
G75*
G02*
X102012500Y-112281250I0J243750D01*
G01*
G37*
G36*
G01*
X100437500Y-112281250D02*
X100437500Y-111718750D01*
G75*
G02*
X100681250Y-111475000I243750J0D01*
G01*
X101168750Y-111475000D01*
G75*
G02*
X101412500Y-111718750I0J-243750D01*
G01*
X101412500Y-112281250D01*
G75*
G02*
X101168750Y-112525000I-243750J0D01*
G01*
X100681250Y-112525000D01*
G75*
G02*
X100437500Y-112281250I0J243750D01*
G01*
G37*
%TD*%
%TO.C,C23*%
G36*
G01*
X118237500Y-102350000D02*
X118762500Y-102350000D01*
G75*
G02*
X119025000Y-102612500I0J-262500D01*
G01*
X119025000Y-103237500D01*
G75*
G02*
X118762500Y-103500000I-262500J0D01*
G01*
X118237500Y-103500000D01*
G75*
G02*
X117975000Y-103237500I0J262500D01*
G01*
X117975000Y-102612500D01*
G75*
G02*
X118237500Y-102350000I262500J0D01*
G01*
G37*
G36*
G01*
X118237500Y-100600000D02*
X118762500Y-100600000D01*
G75*
G02*
X119025000Y-100862500I0J-262500D01*
G01*
X119025000Y-101487500D01*
G75*
G02*
X118762500Y-101750000I-262500J0D01*
G01*
X118237500Y-101750000D01*
G75*
G02*
X117975000Y-101487500I0J262500D01*
G01*
X117975000Y-100862500D01*
G75*
G02*
X118237500Y-100600000I262500J0D01*
G01*
G37*
%TD*%
%TO.C,C22*%
G36*
G01*
X107050000Y-108612500D02*
X107050000Y-108087500D01*
G75*
G02*
X107312500Y-107825000I262500J0D01*
G01*
X107937500Y-107825000D01*
G75*
G02*
X108200000Y-108087500I0J-262500D01*
G01*
X108200000Y-108612500D01*
G75*
G02*
X107937500Y-108875000I-262500J0D01*
G01*
X107312500Y-108875000D01*
G75*
G02*
X107050000Y-108612500I0J262500D01*
G01*
G37*
G36*
G01*
X105300000Y-108612500D02*
X105300000Y-108087500D01*
G75*
G02*
X105562500Y-107825000I262500J0D01*
G01*
X106187500Y-107825000D01*
G75*
G02*
X106450000Y-108087500I0J-262500D01*
G01*
X106450000Y-108612500D01*
G75*
G02*
X106187500Y-108875000I-262500J0D01*
G01*
X105562500Y-108875000D01*
G75*
G02*
X105300000Y-108612500I0J262500D01*
G01*
G37*
%TD*%
%TO.C,C17*%
G36*
G01*
X100637500Y-109625000D02*
X101162500Y-109625000D01*
G75*
G02*
X101425000Y-109887500I0J-262500D01*
G01*
X101425000Y-110512500D01*
G75*
G02*
X101162500Y-110775000I-262500J0D01*
G01*
X100637500Y-110775000D01*
G75*
G02*
X100375000Y-110512500I0J262500D01*
G01*
X100375000Y-109887500D01*
G75*
G02*
X100637500Y-109625000I262500J0D01*
G01*
G37*
G36*
G01*
X100637500Y-107875000D02*
X101162500Y-107875000D01*
G75*
G02*
X101425000Y-108137500I0J-262500D01*
G01*
X101425000Y-108762500D01*
G75*
G02*
X101162500Y-109025000I-262500J0D01*
G01*
X100637500Y-109025000D01*
G75*
G02*
X100375000Y-108762500I0J262500D01*
G01*
X100375000Y-108137500D01*
G75*
G02*
X100637500Y-107875000I262500J0D01*
G01*
G37*
%TD*%
%TO.C,C15*%
G36*
G01*
X110800000Y-110312500D02*
X110800000Y-109787500D01*
G75*
G02*
X111062500Y-109525000I262500J0D01*
G01*
X111687500Y-109525000D01*
G75*
G02*
X111950000Y-109787500I0J-262500D01*
G01*
X111950000Y-110312500D01*
G75*
G02*
X111687500Y-110575000I-262500J0D01*
G01*
X111062500Y-110575000D01*
G75*
G02*
X110800000Y-110312500I0J262500D01*
G01*
G37*
G36*
G01*
X109050000Y-110312500D02*
X109050000Y-109787500D01*
G75*
G02*
X109312500Y-109525000I262500J0D01*
G01*
X109937500Y-109525000D01*
G75*
G02*
X110200000Y-109787500I0J-262500D01*
G01*
X110200000Y-110312500D01*
G75*
G02*
X109937500Y-110575000I-262500J0D01*
G01*
X109312500Y-110575000D01*
G75*
G02*
X109050000Y-110312500I0J262500D01*
G01*
G37*
%TD*%
%TO.C,C9*%
G36*
G01*
X114175000Y-108662500D02*
X114175000Y-108137500D01*
G75*
G02*
X114437500Y-107875000I262500J0D01*
G01*
X115062500Y-107875000D01*
G75*
G02*
X115325000Y-108137500I0J-262500D01*
G01*
X115325000Y-108662500D01*
G75*
G02*
X115062500Y-108925000I-262500J0D01*
G01*
X114437500Y-108925000D01*
G75*
G02*
X114175000Y-108662500I0J262500D01*
G01*
G37*
G36*
G01*
X112425000Y-108662500D02*
X112425000Y-108137500D01*
G75*
G02*
X112687500Y-107875000I262500J0D01*
G01*
X113312500Y-107875000D01*
G75*
G02*
X113575000Y-108137500I0J-262500D01*
G01*
X113575000Y-108662500D01*
G75*
G02*
X113312500Y-108925000I-262500J0D01*
G01*
X112687500Y-108925000D01*
G75*
G02*
X112425000Y-108662500I0J262500D01*
G01*
G37*
%TD*%
%TO.C,C8*%
G36*
G01*
X104562500Y-110575000D02*
X104037500Y-110575000D01*
G75*
G02*
X103775000Y-110312500I0J262500D01*
G01*
X103775000Y-109687500D01*
G75*
G02*
X104037500Y-109425000I262500J0D01*
G01*
X104562500Y-109425000D01*
G75*
G02*
X104825000Y-109687500I0J-262500D01*
G01*
X104825000Y-110312500D01*
G75*
G02*
X104562500Y-110575000I-262500J0D01*
G01*
G37*
G36*
G01*
X104562500Y-112325000D02*
X104037500Y-112325000D01*
G75*
G02*
X103775000Y-112062500I0J262500D01*
G01*
X103775000Y-111437500D01*
G75*
G02*
X104037500Y-111175000I262500J0D01*
G01*
X104562500Y-111175000D01*
G75*
G02*
X104825000Y-111437500I0J-262500D01*
G01*
X104825000Y-112062500D01*
G75*
G02*
X104562500Y-112325000I-262500J0D01*
G01*
G37*
%TD*%
%TO.C,C7*%
G36*
G01*
X110075000Y-108150000D02*
X110075000Y-108675000D01*
G75*
G02*
X109812500Y-108937500I-262500J0D01*
G01*
X109187500Y-108937500D01*
G75*
G02*
X108925000Y-108675000I0J262500D01*
G01*
X108925000Y-108150000D01*
G75*
G02*
X109187500Y-107887500I262500J0D01*
G01*
X109812500Y-107887500D01*
G75*
G02*
X110075000Y-108150000I0J-262500D01*
G01*
G37*
G36*
G01*
X111825000Y-108150000D02*
X111825000Y-108675000D01*
G75*
G02*
X111562500Y-108937500I-262500J0D01*
G01*
X110937500Y-108937500D01*
G75*
G02*
X110675000Y-108675000I0J262500D01*
G01*
X110675000Y-108150000D01*
G75*
G02*
X110937500Y-107887500I262500J0D01*
G01*
X111562500Y-107887500D01*
G75*
G02*
X111825000Y-108150000I0J-262500D01*
G01*
G37*
%TD*%
%TO.C,C6*%
G36*
G01*
X107437500Y-111175000D02*
X107962500Y-111175000D01*
G75*
G02*
X108225000Y-111437500I0J-262500D01*
G01*
X108225000Y-112062500D01*
G75*
G02*
X107962500Y-112325000I-262500J0D01*
G01*
X107437500Y-112325000D01*
G75*
G02*
X107175000Y-112062500I0J262500D01*
G01*
X107175000Y-111437500D01*
G75*
G02*
X107437500Y-111175000I262500J0D01*
G01*
G37*
G36*
G01*
X107437500Y-109425000D02*
X107962500Y-109425000D01*
G75*
G02*
X108225000Y-109687500I0J-262500D01*
G01*
X108225000Y-110312500D01*
G75*
G02*
X107962500Y-110575000I-262500J0D01*
G01*
X107437500Y-110575000D01*
G75*
G02*
X107175000Y-110312500I0J262500D01*
G01*
X107175000Y-109687500D01*
G75*
G02*
X107437500Y-109425000I262500J0D01*
G01*
G37*
%TD*%
%TO.C,C4*%
G36*
G01*
X114150000Y-106862500D02*
X114150000Y-106337500D01*
G75*
G02*
X114412500Y-106075000I262500J0D01*
G01*
X115037500Y-106075000D01*
G75*
G02*
X115300000Y-106337500I0J-262500D01*
G01*
X115300000Y-106862500D01*
G75*
G02*
X115037500Y-107125000I-262500J0D01*
G01*
X114412500Y-107125000D01*
G75*
G02*
X114150000Y-106862500I0J262500D01*
G01*
G37*
G36*
G01*
X112400000Y-106862500D02*
X112400000Y-106337500D01*
G75*
G02*
X112662500Y-106075000I262500J0D01*
G01*
X113287500Y-106075000D01*
G75*
G02*
X113550000Y-106337500I0J-262500D01*
G01*
X113550000Y-106862500D01*
G75*
G02*
X113287500Y-107125000I-262500J0D01*
G01*
X112662500Y-107125000D01*
G75*
G02*
X112400000Y-106862500I0J262500D01*
G01*
G37*
%TD*%
%TO.C,C3*%
G36*
G01*
X110075000Y-106362500D02*
X110075000Y-106887500D01*
G75*
G02*
X109812500Y-107150000I-262500J0D01*
G01*
X109187500Y-107150000D01*
G75*
G02*
X108925000Y-106887500I0J262500D01*
G01*
X108925000Y-106362500D01*
G75*
G02*
X109187500Y-106100000I262500J0D01*
G01*
X109812500Y-106100000D01*
G75*
G02*
X110075000Y-106362500I0J-262500D01*
G01*
G37*
G36*
G01*
X111825000Y-106362500D02*
X111825000Y-106887500D01*
G75*
G02*
X111562500Y-107150000I-262500J0D01*
G01*
X110937500Y-107150000D01*
G75*
G02*
X110675000Y-106887500I0J262500D01*
G01*
X110675000Y-106362500D01*
G75*
G02*
X110937500Y-106100000I262500J0D01*
G01*
X111562500Y-106100000D01*
G75*
G02*
X111825000Y-106362500I0J-262500D01*
G01*
G37*
%TD*%
M02*
