%TF.GenerationSoftware,KiCad,Pcbnew,(5.1.6-0-10_14)*%
%TF.CreationDate,2020-10-30T22:45:03+08:00*%
%TF.ProjectId,Zeeuss,5a656575-7373-42e6-9b69-6361645f7063,rev?*%
%TF.SameCoordinates,Original*%
%TF.FileFunction,Copper,L2,Bot*%
%TF.FilePolarity,Positive*%
%FSLAX46Y46*%
G04 Gerber Fmt 4.6, Leading zero omitted, Abs format (unit mm)*
G04 Created by KiCad (PCBNEW (5.1.6-0-10_14)) date 2020-10-30 22:45:03*
%MOMM*%
%LPD*%
G01*
G04 APERTURE LIST*
%TA.AperFunction,SMDPad,CuDef*%
%ADD10R,2.350000X0.850000*%
%TD*%
%TA.AperFunction,ViaPad*%
%ADD11C,0.800000*%
%TD*%
%TA.AperFunction,Conductor*%
%ADD12C,0.350000*%
%TD*%
G04 APERTURE END LIST*
D10*
%TO.P,J2,5*%
%TO.N,+BATT*%
X118775000Y-107400000D03*
%TO.P,J2,3*%
%TO.N,+3V3*%
X118775000Y-111400000D03*
%TO.P,J2,1*%
%TO.N,Earth*%
X118775000Y-115400000D03*
%TO.P,J2,4*%
%TO.N,+5V*%
X118775000Y-109400000D03*
%TO.P,J2,2*%
%TO.N,VBUS*%
X118775000Y-113400000D03*
%TD*%
D11*
%TO.N,Net-(L2-Pad1)*%
X106800000Y-103850000D03*
%TO.N,Earth*%
X100900000Y-110200000D03*
X104300000Y-110000000D03*
X113725000Y-115550000D03*
X107250000Y-115300000D03*
X112100000Y-102800000D03*
X118800000Y-115400000D03*
%TO.N,+3V3*%
X117050000Y-112016664D03*
%TO.N,+5V*%
X113000000Y-110200000D03*
%TO.N,VBUS*%
X106000000Y-111750000D03*
%TO.N,Net-(C15-Pad1)*%
X109725000Y-115935000D03*
X102600000Y-110225000D03*
%TO.N,+BATT*%
X101650000Y-103850000D03*
%TO.N,Net-(L2-Pad1)*%
X109725000Y-114665000D03*
%TD*%
D12*
%TO.N,Earth*%
X100900000Y-110200000D02*
X100900000Y-109600000D01*
X100900000Y-109600000D02*
X101600000Y-108900000D01*
X103200000Y-108900000D02*
X104300000Y-110000000D01*
X101600000Y-108900000D02*
X103200000Y-108900000D01*
X108600000Y-117050000D02*
X112400000Y-117050000D01*
X107250000Y-115700000D02*
X108600000Y-117050000D01*
X107250000Y-115300000D02*
X107250000Y-115700000D01*
X113725000Y-115725000D02*
X112400000Y-117050000D01*
X113725000Y-115550000D02*
X113725000Y-115725000D01*
X106702998Y-102800000D02*
X112100000Y-102800000D01*
X104300000Y-105202998D02*
X106702998Y-102800000D01*
X104300000Y-110000000D02*
X104300000Y-105202998D01*
X118775000Y-115400000D02*
X118775000Y-116825000D01*
X118775000Y-116825000D02*
X118650000Y-116950000D01*
X115125000Y-116950000D02*
X113725000Y-115550000D01*
X118650000Y-116950000D02*
X115125000Y-116950000D01*
%TO.N,+3V3*%
X117666664Y-111400000D02*
X117050000Y-112016664D01*
X118775000Y-111400000D02*
X117666664Y-111400000D01*
%TO.N,+5V*%
X118775000Y-109400000D02*
X113900000Y-109400000D01*
X113100000Y-110200000D02*
X113000000Y-110200000D01*
X113900000Y-109400000D02*
X113100000Y-110200000D01*
%TO.N,VBUS*%
X106000000Y-111750000D02*
X113350000Y-111750000D01*
X115000000Y-113400000D02*
X118775000Y-113400000D01*
X113350000Y-111750000D02*
X115000000Y-113400000D01*
%TO.N,Net-(C15-Pad1)*%
X102600000Y-110274833D02*
X102600000Y-110225000D01*
X105350000Y-113750000D02*
X102600000Y-110274833D01*
X107040010Y-113750000D02*
X105350000Y-113750000D01*
X109725000Y-115935000D02*
X107040010Y-113750000D01*
%TO.N,+BATT*%
X116250000Y-101150000D02*
X118800000Y-103600000D01*
X104000000Y-101250000D02*
X116250000Y-101150000D01*
X101650000Y-103850000D02*
X104000000Y-101250000D01*
X118800000Y-107375000D02*
X118775000Y-107400000D01*
X118800000Y-103600000D02*
X118800000Y-107375000D01*
%TO.N,Net-(L2-Pad1)*%
X105224999Y-112122001D02*
X105802998Y-112700000D01*
X105224999Y-105425001D02*
X105224999Y-112122001D01*
X106800000Y-103850000D02*
X105224999Y-105425001D01*
X107760000Y-112700000D02*
X109725000Y-114665000D01*
X105802998Y-112700000D02*
X107760000Y-112700000D01*
%TD*%
M02*
