%TF.GenerationSoftware,KiCad,Pcbnew,(5.1.6-0-10_14)*%
%TF.CreationDate,2020-10-30T22:45:03+08:00*%
%TF.ProjectId,Zeeuss,5a656575-7373-42e6-9b69-6361645f7063,rev?*%
%TF.SameCoordinates,Original*%
%TF.FileFunction,Soldermask,Top*%
%TF.FilePolarity,Negative*%
%FSLAX46Y46*%
G04 Gerber Fmt 4.6, Leading zero omitted, Abs format (unit mm)*
G04 Created by KiCad (PCBNEW (5.1.6-0-10_14)) date 2020-10-30 22:45:03*
%MOMM*%
%LPD*%
G01*
G04 APERTURE LIST*
%ADD10R,2.390000X3.100000*%
%ADD11R,2.510000X3.400000*%
%ADD12R,1.000000X1.800000*%
%ADD13R,2.800000X2.300000*%
G04 APERTURE END LIST*
%TO.C,C12*%
G36*
G01*
X118225000Y-108895832D02*
X118225000Y-108370832D01*
G75*
G02*
X118487500Y-108108332I262500J0D01*
G01*
X119112500Y-108108332D01*
G75*
G02*
X119375000Y-108370832I0J-262500D01*
G01*
X119375000Y-108895832D01*
G75*
G02*
X119112500Y-109158332I-262500J0D01*
G01*
X118487500Y-109158332D01*
G75*
G02*
X118225000Y-108895832I0J262500D01*
G01*
G37*
G36*
G01*
X116475000Y-108895832D02*
X116475000Y-108370832D01*
G75*
G02*
X116737500Y-108108332I262500J0D01*
G01*
X117362500Y-108108332D01*
G75*
G02*
X117625000Y-108370832I0J-262500D01*
G01*
X117625000Y-108895832D01*
G75*
G02*
X117362500Y-109158332I-262500J0D01*
G01*
X116737500Y-109158332D01*
G75*
G02*
X116475000Y-108895832I0J262500D01*
G01*
G37*
%TD*%
%TO.C,C11*%
G36*
G01*
X118225000Y-113970830D02*
X118225000Y-113445830D01*
G75*
G02*
X118487500Y-113183330I262500J0D01*
G01*
X119112500Y-113183330D01*
G75*
G02*
X119375000Y-113445830I0J-262500D01*
G01*
X119375000Y-113970830D01*
G75*
G02*
X119112500Y-114233330I-262500J0D01*
G01*
X118487500Y-114233330D01*
G75*
G02*
X118225000Y-113970830I0J262500D01*
G01*
G37*
G36*
G01*
X116475000Y-113970830D02*
X116475000Y-113445830D01*
G75*
G02*
X116737500Y-113183330I262500J0D01*
G01*
X117362500Y-113183330D01*
G75*
G02*
X117625000Y-113445830I0J-262500D01*
G01*
X117625000Y-113970830D01*
G75*
G02*
X117362500Y-114233330I-262500J0D01*
G01*
X116737500Y-114233330D01*
G75*
G02*
X116475000Y-113970830I0J262500D01*
G01*
G37*
%TD*%
%TO.C,C10*%
G36*
G01*
X118225000Y-112279164D02*
X118225000Y-111754164D01*
G75*
G02*
X118487500Y-111491664I262500J0D01*
G01*
X119112500Y-111491664D01*
G75*
G02*
X119375000Y-111754164I0J-262500D01*
G01*
X119375000Y-112279164D01*
G75*
G02*
X119112500Y-112541664I-262500J0D01*
G01*
X118487500Y-112541664D01*
G75*
G02*
X118225000Y-112279164I0J262500D01*
G01*
G37*
G36*
G01*
X116475000Y-112279164D02*
X116475000Y-111754164D01*
G75*
G02*
X116737500Y-111491664I262500J0D01*
G01*
X117362500Y-111491664D01*
G75*
G02*
X117625000Y-111754164I0J-262500D01*
G01*
X117625000Y-112279164D01*
G75*
G02*
X117362500Y-112541664I-262500J0D01*
G01*
X116737500Y-112541664D01*
G75*
G02*
X116475000Y-112279164I0J262500D01*
G01*
G37*
%TD*%
%TO.C,C5*%
G36*
G01*
X118225000Y-115662500D02*
X118225000Y-115137500D01*
G75*
G02*
X118487500Y-114875000I262500J0D01*
G01*
X119112500Y-114875000D01*
G75*
G02*
X119375000Y-115137500I0J-262500D01*
G01*
X119375000Y-115662500D01*
G75*
G02*
X119112500Y-115925000I-262500J0D01*
G01*
X118487500Y-115925000D01*
G75*
G02*
X118225000Y-115662500I0J262500D01*
G01*
G37*
G36*
G01*
X116475000Y-115662500D02*
X116475000Y-115137500D01*
G75*
G02*
X116737500Y-114875000I262500J0D01*
G01*
X117362500Y-114875000D01*
G75*
G02*
X117625000Y-115137500I0J-262500D01*
G01*
X117625000Y-115662500D01*
G75*
G02*
X117362500Y-115925000I-262500J0D01*
G01*
X116737500Y-115925000D01*
G75*
G02*
X116475000Y-115662500I0J262500D01*
G01*
G37*
%TD*%
%TO.C,C2*%
G36*
G01*
X118225000Y-110587498D02*
X118225000Y-110062498D01*
G75*
G02*
X118487500Y-109799998I262500J0D01*
G01*
X119112500Y-109799998D01*
G75*
G02*
X119375000Y-110062498I0J-262500D01*
G01*
X119375000Y-110587498D01*
G75*
G02*
X119112500Y-110849998I-262500J0D01*
G01*
X118487500Y-110849998D01*
G75*
G02*
X118225000Y-110587498I0J262500D01*
G01*
G37*
G36*
G01*
X116475000Y-110587498D02*
X116475000Y-110062498D01*
G75*
G02*
X116737500Y-109799998I262500J0D01*
G01*
X117362500Y-109799998D01*
G75*
G02*
X117625000Y-110062498I0J-262500D01*
G01*
X117625000Y-110587498D01*
G75*
G02*
X117362500Y-110849998I-262500J0D01*
G01*
X116737500Y-110849998D01*
G75*
G02*
X116475000Y-110587498I0J262500D01*
G01*
G37*
%TD*%
%TO.C,C1*%
G36*
G01*
X118225000Y-107204166D02*
X118225000Y-106679166D01*
G75*
G02*
X118487500Y-106416666I262500J0D01*
G01*
X119112500Y-106416666D01*
G75*
G02*
X119375000Y-106679166I0J-262500D01*
G01*
X119375000Y-107204166D01*
G75*
G02*
X119112500Y-107466666I-262500J0D01*
G01*
X118487500Y-107466666D01*
G75*
G02*
X118225000Y-107204166I0J262500D01*
G01*
G37*
G36*
G01*
X116475000Y-107204166D02*
X116475000Y-106679166D01*
G75*
G02*
X116737500Y-106416666I262500J0D01*
G01*
X117362500Y-106416666D01*
G75*
G02*
X117625000Y-106679166I0J-262500D01*
G01*
X117625000Y-107204166D01*
G75*
G02*
X117362500Y-107466666I-262500J0D01*
G01*
X116737500Y-107466666D01*
G75*
G02*
X116475000Y-107204166I0J262500D01*
G01*
G37*
%TD*%
D10*
%TO.C,U2*%
X107250000Y-115300000D03*
G36*
G01*
X108700000Y-113570000D02*
X108700000Y-113220000D01*
G75*
G02*
X108875000Y-113045000I175000J0D01*
G01*
X110575000Y-113045000D01*
G75*
G02*
X110750000Y-113220000I0J-175000D01*
G01*
X110750000Y-113570000D01*
G75*
G02*
X110575000Y-113745000I-175000J0D01*
G01*
X108875000Y-113745000D01*
G75*
G02*
X108700000Y-113570000I0J175000D01*
G01*
G37*
G36*
G01*
X108700000Y-114840000D02*
X108700000Y-114490000D01*
G75*
G02*
X108875000Y-114315000I175000J0D01*
G01*
X110575000Y-114315000D01*
G75*
G02*
X110750000Y-114490000I0J-175000D01*
G01*
X110750000Y-114840000D01*
G75*
G02*
X110575000Y-115015000I-175000J0D01*
G01*
X108875000Y-115015000D01*
G75*
G02*
X108700000Y-114840000I0J175000D01*
G01*
G37*
G36*
G01*
X108700000Y-116110000D02*
X108700000Y-115760000D01*
G75*
G02*
X108875000Y-115585000I175000J0D01*
G01*
X110575000Y-115585000D01*
G75*
G02*
X110750000Y-115760000I0J-175000D01*
G01*
X110750000Y-116110000D01*
G75*
G02*
X110575000Y-116285000I-175000J0D01*
G01*
X108875000Y-116285000D01*
G75*
G02*
X108700000Y-116110000I0J175000D01*
G01*
G37*
G36*
G01*
X108700000Y-117380000D02*
X108700000Y-117030000D01*
G75*
G02*
X108875000Y-116855000I175000J0D01*
G01*
X110575000Y-116855000D01*
G75*
G02*
X110750000Y-117030000I0J-175000D01*
G01*
X110750000Y-117380000D01*
G75*
G02*
X110575000Y-117555000I-175000J0D01*
G01*
X108875000Y-117555000D01*
G75*
G02*
X108700000Y-117380000I0J175000D01*
G01*
G37*
G36*
G01*
X103750000Y-117380000D02*
X103750000Y-117030000D01*
G75*
G02*
X103925000Y-116855000I175000J0D01*
G01*
X105625000Y-116855000D01*
G75*
G02*
X105800000Y-117030000I0J-175000D01*
G01*
X105800000Y-117380000D01*
G75*
G02*
X105625000Y-117555000I-175000J0D01*
G01*
X103925000Y-117555000D01*
G75*
G02*
X103750000Y-117380000I0J175000D01*
G01*
G37*
G36*
G01*
X103750000Y-116110000D02*
X103750000Y-115760000D01*
G75*
G02*
X103925000Y-115585000I175000J0D01*
G01*
X105625000Y-115585000D01*
G75*
G02*
X105800000Y-115760000I0J-175000D01*
G01*
X105800000Y-116110000D01*
G75*
G02*
X105625000Y-116285000I-175000J0D01*
G01*
X103925000Y-116285000D01*
G75*
G02*
X103750000Y-116110000I0J175000D01*
G01*
G37*
G36*
G01*
X103750000Y-114840000D02*
X103750000Y-114490000D01*
G75*
G02*
X103925000Y-114315000I175000J0D01*
G01*
X105625000Y-114315000D01*
G75*
G02*
X105800000Y-114490000I0J-175000D01*
G01*
X105800000Y-114840000D01*
G75*
G02*
X105625000Y-115015000I-175000J0D01*
G01*
X103925000Y-115015000D01*
G75*
G02*
X103750000Y-114840000I0J175000D01*
G01*
G37*
G36*
G01*
X103750000Y-113570000D02*
X103750000Y-113220000D01*
G75*
G02*
X103925000Y-113045000I175000J0D01*
G01*
X105625000Y-113045000D01*
G75*
G02*
X105800000Y-113220000I0J-175000D01*
G01*
X105800000Y-113570000D01*
G75*
G02*
X105625000Y-113745000I-175000J0D01*
G01*
X103925000Y-113745000D01*
G75*
G02*
X103750000Y-113570000I0J175000D01*
G01*
G37*
%TD*%
D11*
%TO.C,U1*%
X112100000Y-102800000D03*
G36*
G01*
X110650000Y-104530000D02*
X110650000Y-104880000D01*
G75*
G02*
X110475000Y-105055000I-175000J0D01*
G01*
X108775000Y-105055000D01*
G75*
G02*
X108600000Y-104880000I0J175000D01*
G01*
X108600000Y-104530000D01*
G75*
G02*
X108775000Y-104355000I175000J0D01*
G01*
X110475000Y-104355000D01*
G75*
G02*
X110650000Y-104530000I0J-175000D01*
G01*
G37*
G36*
G01*
X110650000Y-103260000D02*
X110650000Y-103610000D01*
G75*
G02*
X110475000Y-103785000I-175000J0D01*
G01*
X108775000Y-103785000D01*
G75*
G02*
X108600000Y-103610000I0J175000D01*
G01*
X108600000Y-103260000D01*
G75*
G02*
X108775000Y-103085000I175000J0D01*
G01*
X110475000Y-103085000D01*
G75*
G02*
X110650000Y-103260000I0J-175000D01*
G01*
G37*
G36*
G01*
X110650000Y-101990000D02*
X110650000Y-102340000D01*
G75*
G02*
X110475000Y-102515000I-175000J0D01*
G01*
X108775000Y-102515000D01*
G75*
G02*
X108600000Y-102340000I0J175000D01*
G01*
X108600000Y-101990000D01*
G75*
G02*
X108775000Y-101815000I175000J0D01*
G01*
X110475000Y-101815000D01*
G75*
G02*
X110650000Y-101990000I0J-175000D01*
G01*
G37*
G36*
G01*
X110650000Y-100720000D02*
X110650000Y-101070000D01*
G75*
G02*
X110475000Y-101245000I-175000J0D01*
G01*
X108775000Y-101245000D01*
G75*
G02*
X108600000Y-101070000I0J175000D01*
G01*
X108600000Y-100720000D01*
G75*
G02*
X108775000Y-100545000I175000J0D01*
G01*
X110475000Y-100545000D01*
G75*
G02*
X110650000Y-100720000I0J-175000D01*
G01*
G37*
G36*
G01*
X115600000Y-100720000D02*
X115600000Y-101070000D01*
G75*
G02*
X115425000Y-101245000I-175000J0D01*
G01*
X113725000Y-101245000D01*
G75*
G02*
X113550000Y-101070000I0J175000D01*
G01*
X113550000Y-100720000D01*
G75*
G02*
X113725000Y-100545000I175000J0D01*
G01*
X115425000Y-100545000D01*
G75*
G02*
X115600000Y-100720000I0J-175000D01*
G01*
G37*
G36*
G01*
X115600000Y-101990000D02*
X115600000Y-102340000D01*
G75*
G02*
X115425000Y-102515000I-175000J0D01*
G01*
X113725000Y-102515000D01*
G75*
G02*
X113550000Y-102340000I0J175000D01*
G01*
X113550000Y-101990000D01*
G75*
G02*
X113725000Y-101815000I175000J0D01*
G01*
X115425000Y-101815000D01*
G75*
G02*
X115600000Y-101990000I0J-175000D01*
G01*
G37*
G36*
G01*
X115600000Y-103260000D02*
X115600000Y-103610000D01*
G75*
G02*
X115425000Y-103785000I-175000J0D01*
G01*
X113725000Y-103785000D01*
G75*
G02*
X113550000Y-103610000I0J175000D01*
G01*
X113550000Y-103260000D01*
G75*
G02*
X113725000Y-103085000I175000J0D01*
G01*
X115425000Y-103085000D01*
G75*
G02*
X115600000Y-103260000I0J-175000D01*
G01*
G37*
G36*
G01*
X115600000Y-104530000D02*
X115600000Y-104880000D01*
G75*
G02*
X115425000Y-105055000I-175000J0D01*
G01*
X113725000Y-105055000D01*
G75*
G02*
X113550000Y-104880000I0J175000D01*
G01*
X113550000Y-104530000D01*
G75*
G02*
X113725000Y-104355000I175000J0D01*
G01*
X115425000Y-104355000D01*
G75*
G02*
X115600000Y-104530000I0J-175000D01*
G01*
G37*
%TD*%
D12*
%TO.C,SW1*%
X111850000Y-113000000D03*
X115250000Y-113000000D03*
%TD*%
%TO.C,R10*%
G36*
G01*
X116487500Y-102350000D02*
X117012500Y-102350000D01*
G75*
G02*
X117275000Y-102612500I0J-262500D01*
G01*
X117275000Y-103237500D01*
G75*
G02*
X117012500Y-103500000I-262500J0D01*
G01*
X116487500Y-103500000D01*
G75*
G02*
X116225000Y-103237500I0J262500D01*
G01*
X116225000Y-102612500D01*
G75*
G02*
X116487500Y-102350000I262500J0D01*
G01*
G37*
G36*
G01*
X116487500Y-100600000D02*
X117012500Y-100600000D01*
G75*
G02*
X117275000Y-100862500I0J-262500D01*
G01*
X117275000Y-101487500D01*
G75*
G02*
X117012500Y-101750000I-262500J0D01*
G01*
X116487500Y-101750000D01*
G75*
G02*
X116225000Y-101487500I0J262500D01*
G01*
X116225000Y-100862500D01*
G75*
G02*
X116487500Y-100600000I262500J0D01*
G01*
G37*
%TD*%
%TO.C,R9*%
G36*
G01*
X118225000Y-105512500D02*
X118225000Y-104987500D01*
G75*
G02*
X118487500Y-104725000I262500J0D01*
G01*
X119112500Y-104725000D01*
G75*
G02*
X119375000Y-104987500I0J-262500D01*
G01*
X119375000Y-105512500D01*
G75*
G02*
X119112500Y-105775000I-262500J0D01*
G01*
X118487500Y-105775000D01*
G75*
G02*
X118225000Y-105512500I0J262500D01*
G01*
G37*
G36*
G01*
X116475000Y-105512500D02*
X116475000Y-104987500D01*
G75*
G02*
X116737500Y-104725000I262500J0D01*
G01*
X117362500Y-104725000D01*
G75*
G02*
X117625000Y-104987500I0J-262500D01*
G01*
X117625000Y-105512500D01*
G75*
G02*
X117362500Y-105775000I-262500J0D01*
G01*
X116737500Y-105775000D01*
G75*
G02*
X116475000Y-105512500I0J262500D01*
G01*
G37*
%TD*%
%TO.C,R5*%
G36*
G01*
X102337500Y-109650000D02*
X102862500Y-109650000D01*
G75*
G02*
X103125000Y-109912500I0J-262500D01*
G01*
X103125000Y-110537500D01*
G75*
G02*
X102862500Y-110800000I-262500J0D01*
G01*
X102337500Y-110800000D01*
G75*
G02*
X102075000Y-110537500I0J262500D01*
G01*
X102075000Y-109912500D01*
G75*
G02*
X102337500Y-109650000I262500J0D01*
G01*
G37*
G36*
G01*
X102337500Y-107900000D02*
X102862500Y-107900000D01*
G75*
G02*
X103125000Y-108162500I0J-262500D01*
G01*
X103125000Y-108787500D01*
G75*
G02*
X102862500Y-109050000I-262500J0D01*
G01*
X102337500Y-109050000D01*
G75*
G02*
X102075000Y-108787500I0J262500D01*
G01*
X102075000Y-108162500D01*
G75*
G02*
X102337500Y-107900000I262500J0D01*
G01*
G37*
%TD*%
%TO.C,R3*%
G36*
G01*
X113125000Y-117462500D02*
X113125000Y-116937500D01*
G75*
G02*
X113387500Y-116675000I262500J0D01*
G01*
X114012500Y-116675000D01*
G75*
G02*
X114275000Y-116937500I0J-262500D01*
G01*
X114275000Y-117462500D01*
G75*
G02*
X114012500Y-117725000I-262500J0D01*
G01*
X113387500Y-117725000D01*
G75*
G02*
X113125000Y-117462500I0J262500D01*
G01*
G37*
G36*
G01*
X111375000Y-117462500D02*
X111375000Y-116937500D01*
G75*
G02*
X111637500Y-116675000I262500J0D01*
G01*
X112262500Y-116675000D01*
G75*
G02*
X112525000Y-116937500I0J-262500D01*
G01*
X112525000Y-117462500D01*
G75*
G02*
X112262500Y-117725000I-262500J0D01*
G01*
X111637500Y-117725000D01*
G75*
G02*
X111375000Y-117462500I0J262500D01*
G01*
G37*
%TD*%
%TO.C,R1*%
G36*
G01*
X106262500Y-110575000D02*
X105737500Y-110575000D01*
G75*
G02*
X105475000Y-110312500I0J262500D01*
G01*
X105475000Y-109687500D01*
G75*
G02*
X105737500Y-109425000I262500J0D01*
G01*
X106262500Y-109425000D01*
G75*
G02*
X106525000Y-109687500I0J-262500D01*
G01*
X106525000Y-110312500D01*
G75*
G02*
X106262500Y-110575000I-262500J0D01*
G01*
G37*
G36*
G01*
X106262500Y-112325000D02*
X105737500Y-112325000D01*
G75*
G02*
X105475000Y-112062500I0J262500D01*
G01*
X105475000Y-111437500D01*
G75*
G02*
X105737500Y-111175000I262500J0D01*
G01*
X106262500Y-111175000D01*
G75*
G02*
X106525000Y-111437500I0J-262500D01*
G01*
X106525000Y-112062500D01*
G75*
G02*
X106262500Y-112325000I-262500J0D01*
G01*
G37*
%TD*%
D13*
%TO.C,L2*%
X101650000Y-103850000D03*
X106750000Y-103850000D03*
%TD*%
%TO.C,D4*%
G36*
G01*
X101372500Y-116468749D02*
X101372500Y-117031249D01*
G75*
G02*
X101128750Y-117274999I-243750J0D01*
G01*
X100641250Y-117274999D01*
G75*
G02*
X100397500Y-117031249I0J243750D01*
G01*
X100397500Y-116468749D01*
G75*
G02*
X100641250Y-116224999I243750J0D01*
G01*
X101128750Y-116224999D01*
G75*
G02*
X101372500Y-116468749I0J-243750D01*
G01*
G37*
G36*
G01*
X102947500Y-116468749D02*
X102947500Y-117031249D01*
G75*
G02*
X102703750Y-117274999I-243750J0D01*
G01*
X102216250Y-117274999D01*
G75*
G02*
X101972500Y-117031249I0J243750D01*
G01*
X101972500Y-116468749D01*
G75*
G02*
X102216250Y-116224999I243750J0D01*
G01*
X102703750Y-116224999D01*
G75*
G02*
X102947500Y-116468749I0J-243750D01*
G01*
G37*
%TD*%
%TO.C,D3*%
G36*
G01*
X101372500Y-114885416D02*
X101372500Y-115447916D01*
G75*
G02*
X101128750Y-115691666I-243750J0D01*
G01*
X100641250Y-115691666D01*
G75*
G02*
X100397500Y-115447916I0J243750D01*
G01*
X100397500Y-114885416D01*
G75*
G02*
X100641250Y-114641666I243750J0D01*
G01*
X101128750Y-114641666D01*
G75*
G02*
X101372500Y-114885416I0J-243750D01*
G01*
G37*
G36*
G01*
X102947500Y-114885416D02*
X102947500Y-115447916D01*
G75*
G02*
X102703750Y-115691666I-243750J0D01*
G01*
X102216250Y-115691666D01*
G75*
G02*
X101972500Y-115447916I0J243750D01*
G01*
X101972500Y-114885416D01*
G75*
G02*
X102216250Y-114641666I243750J0D01*
G01*
X102703750Y-114641666D01*
G75*
G02*
X102947500Y-114885416I0J-243750D01*
G01*
G37*
%TD*%
%TO.C,D2*%
G36*
G01*
X102012500Y-113864583D02*
X102012500Y-113302083D01*
G75*
G02*
X102256250Y-113058333I243750J0D01*
G01*
X102743750Y-113058333D01*
G75*
G02*
X102987500Y-113302083I0J-243750D01*
G01*
X102987500Y-113864583D01*
G75*
G02*
X102743750Y-114108333I-243750J0D01*
G01*
X102256250Y-114108333D01*
G75*
G02*
X102012500Y-113864583I0J243750D01*
G01*
G37*
G36*
G01*
X100437500Y-113864583D02*
X100437500Y-113302083D01*
G75*
G02*
X100681250Y-113058333I243750J0D01*
G01*
X101168750Y-113058333D01*
G75*
G02*
X101412500Y-113302083I0J-243750D01*
G01*
X101412500Y-113864583D01*
G75*
G02*
X101168750Y-114108333I-243750J0D01*
G01*
X100681250Y-114108333D01*
G75*
G02*
X100437500Y-113864583I0J243750D01*
G01*
G37*
%TD*%
%TO.C,D1*%
G36*
G01*
X102012500Y-112281250D02*
X102012500Y-111718750D01*
G75*
G02*
X102256250Y-111475000I243750J0D01*
G01*
X102743750Y-111475000D01*
G75*
G02*
X102987500Y-111718750I0J-243750D01*
G01*
X102987500Y-112281250D01*
G75*
G02*
X102743750Y-112525000I-243750J0D01*
G01*
X102256250Y-112525000D01*
G75*
G02*
X102012500Y-112281250I0J243750D01*
G01*
G37*
G36*
G01*
X100437500Y-112281250D02*
X100437500Y-111718750D01*
G75*
G02*
X100681250Y-111475000I243750J0D01*
G01*
X101168750Y-111475000D01*
G75*
G02*
X101412500Y-111718750I0J-243750D01*
G01*
X101412500Y-112281250D01*
G75*
G02*
X101168750Y-112525000I-243750J0D01*
G01*
X100681250Y-112525000D01*
G75*
G02*
X100437500Y-112281250I0J243750D01*
G01*
G37*
%TD*%
%TO.C,C23*%
G36*
G01*
X118237500Y-102350000D02*
X118762500Y-102350000D01*
G75*
G02*
X119025000Y-102612500I0J-262500D01*
G01*
X119025000Y-103237500D01*
G75*
G02*
X118762500Y-103500000I-262500J0D01*
G01*
X118237500Y-103500000D01*
G75*
G02*
X117975000Y-103237500I0J262500D01*
G01*
X117975000Y-102612500D01*
G75*
G02*
X118237500Y-102350000I262500J0D01*
G01*
G37*
G36*
G01*
X118237500Y-100600000D02*
X118762500Y-100600000D01*
G75*
G02*
X119025000Y-100862500I0J-262500D01*
G01*
X119025000Y-101487500D01*
G75*
G02*
X118762500Y-101750000I-262500J0D01*
G01*
X118237500Y-101750000D01*
G75*
G02*
X117975000Y-101487500I0J262500D01*
G01*
X117975000Y-100862500D01*
G75*
G02*
X118237500Y-100600000I262500J0D01*
G01*
G37*
%TD*%
%TO.C,C22*%
G36*
G01*
X110075000Y-109937500D02*
X110075000Y-110462500D01*
G75*
G02*
X109812500Y-110725000I-262500J0D01*
G01*
X109187500Y-110725000D01*
G75*
G02*
X108925000Y-110462500I0J262500D01*
G01*
X108925000Y-109937500D01*
G75*
G02*
X109187500Y-109675000I262500J0D01*
G01*
X109812500Y-109675000D01*
G75*
G02*
X110075000Y-109937500I0J-262500D01*
G01*
G37*
G36*
G01*
X111825000Y-109937500D02*
X111825000Y-110462500D01*
G75*
G02*
X111562500Y-110725000I-262500J0D01*
G01*
X110937500Y-110725000D01*
G75*
G02*
X110675000Y-110462500I0J262500D01*
G01*
X110675000Y-109937500D01*
G75*
G02*
X110937500Y-109675000I262500J0D01*
G01*
X111562500Y-109675000D01*
G75*
G02*
X111825000Y-109937500I0J-262500D01*
G01*
G37*
%TD*%
%TO.C,C17*%
G36*
G01*
X100637500Y-109625000D02*
X101162500Y-109625000D01*
G75*
G02*
X101425000Y-109887500I0J-262500D01*
G01*
X101425000Y-110512500D01*
G75*
G02*
X101162500Y-110775000I-262500J0D01*
G01*
X100637500Y-110775000D01*
G75*
G02*
X100375000Y-110512500I0J262500D01*
G01*
X100375000Y-109887500D01*
G75*
G02*
X100637500Y-109625000I262500J0D01*
G01*
G37*
G36*
G01*
X100637500Y-107875000D02*
X101162500Y-107875000D01*
G75*
G02*
X101425000Y-108137500I0J-262500D01*
G01*
X101425000Y-108762500D01*
G75*
G02*
X101162500Y-109025000I-262500J0D01*
G01*
X100637500Y-109025000D01*
G75*
G02*
X100375000Y-108762500I0J262500D01*
G01*
X100375000Y-108137500D01*
G75*
G02*
X100637500Y-107875000I262500J0D01*
G01*
G37*
%TD*%
%TO.C,C15*%
G36*
G01*
X113150000Y-115812500D02*
X113150000Y-115287500D01*
G75*
G02*
X113412500Y-115025000I262500J0D01*
G01*
X114037500Y-115025000D01*
G75*
G02*
X114300000Y-115287500I0J-262500D01*
G01*
X114300000Y-115812500D01*
G75*
G02*
X114037500Y-116075000I-262500J0D01*
G01*
X113412500Y-116075000D01*
G75*
G02*
X113150000Y-115812500I0J262500D01*
G01*
G37*
G36*
G01*
X111400000Y-115812500D02*
X111400000Y-115287500D01*
G75*
G02*
X111662500Y-115025000I262500J0D01*
G01*
X112287500Y-115025000D01*
G75*
G02*
X112550000Y-115287500I0J-262500D01*
G01*
X112550000Y-115812500D01*
G75*
G02*
X112287500Y-116075000I-262500J0D01*
G01*
X111662500Y-116075000D01*
G75*
G02*
X111400000Y-115812500I0J262500D01*
G01*
G37*
%TD*%
%TO.C,C9*%
G36*
G01*
X114175000Y-110462500D02*
X114175000Y-109937500D01*
G75*
G02*
X114437500Y-109675000I262500J0D01*
G01*
X115062500Y-109675000D01*
G75*
G02*
X115325000Y-109937500I0J-262500D01*
G01*
X115325000Y-110462500D01*
G75*
G02*
X115062500Y-110725000I-262500J0D01*
G01*
X114437500Y-110725000D01*
G75*
G02*
X114175000Y-110462500I0J262500D01*
G01*
G37*
G36*
G01*
X112425000Y-110462500D02*
X112425000Y-109937500D01*
G75*
G02*
X112687500Y-109675000I262500J0D01*
G01*
X113312500Y-109675000D01*
G75*
G02*
X113575000Y-109937500I0J-262500D01*
G01*
X113575000Y-110462500D01*
G75*
G02*
X113312500Y-110725000I-262500J0D01*
G01*
X112687500Y-110725000D01*
G75*
G02*
X112425000Y-110462500I0J262500D01*
G01*
G37*
%TD*%
%TO.C,C8*%
G36*
G01*
X104562500Y-110575000D02*
X104037500Y-110575000D01*
G75*
G02*
X103775000Y-110312500I0J262500D01*
G01*
X103775000Y-109687500D01*
G75*
G02*
X104037500Y-109425000I262500J0D01*
G01*
X104562500Y-109425000D01*
G75*
G02*
X104825000Y-109687500I0J-262500D01*
G01*
X104825000Y-110312500D01*
G75*
G02*
X104562500Y-110575000I-262500J0D01*
G01*
G37*
G36*
G01*
X104562500Y-112325000D02*
X104037500Y-112325000D01*
G75*
G02*
X103775000Y-112062500I0J262500D01*
G01*
X103775000Y-111437500D01*
G75*
G02*
X104037500Y-111175000I262500J0D01*
G01*
X104562500Y-111175000D01*
G75*
G02*
X104825000Y-111437500I0J-262500D01*
G01*
X104825000Y-112062500D01*
G75*
G02*
X104562500Y-112325000I-262500J0D01*
G01*
G37*
%TD*%
%TO.C,C7*%
G36*
G01*
X110075000Y-108150000D02*
X110075000Y-108675000D01*
G75*
G02*
X109812500Y-108937500I-262500J0D01*
G01*
X109187500Y-108937500D01*
G75*
G02*
X108925000Y-108675000I0J262500D01*
G01*
X108925000Y-108150000D01*
G75*
G02*
X109187500Y-107887500I262500J0D01*
G01*
X109812500Y-107887500D01*
G75*
G02*
X110075000Y-108150000I0J-262500D01*
G01*
G37*
G36*
G01*
X111825000Y-108150000D02*
X111825000Y-108675000D01*
G75*
G02*
X111562500Y-108937500I-262500J0D01*
G01*
X110937500Y-108937500D01*
G75*
G02*
X110675000Y-108675000I0J262500D01*
G01*
X110675000Y-108150000D01*
G75*
G02*
X110937500Y-107887500I262500J0D01*
G01*
X111562500Y-107887500D01*
G75*
G02*
X111825000Y-108150000I0J-262500D01*
G01*
G37*
%TD*%
%TO.C,C6*%
G36*
G01*
X107437500Y-111175000D02*
X107962500Y-111175000D01*
G75*
G02*
X108225000Y-111437500I0J-262500D01*
G01*
X108225000Y-112062500D01*
G75*
G02*
X107962500Y-112325000I-262500J0D01*
G01*
X107437500Y-112325000D01*
G75*
G02*
X107175000Y-112062500I0J262500D01*
G01*
X107175000Y-111437500D01*
G75*
G02*
X107437500Y-111175000I262500J0D01*
G01*
G37*
G36*
G01*
X107437500Y-109425000D02*
X107962500Y-109425000D01*
G75*
G02*
X108225000Y-109687500I0J-262500D01*
G01*
X108225000Y-110312500D01*
G75*
G02*
X107962500Y-110575000I-262500J0D01*
G01*
X107437500Y-110575000D01*
G75*
G02*
X107175000Y-110312500I0J262500D01*
G01*
X107175000Y-109687500D01*
G75*
G02*
X107437500Y-109425000I262500J0D01*
G01*
G37*
%TD*%
%TO.C,C4*%
G36*
G01*
X114175000Y-108675000D02*
X114175000Y-108150000D01*
G75*
G02*
X114437500Y-107887500I262500J0D01*
G01*
X115062500Y-107887500D01*
G75*
G02*
X115325000Y-108150000I0J-262500D01*
G01*
X115325000Y-108675000D01*
G75*
G02*
X115062500Y-108937500I-262500J0D01*
G01*
X114437500Y-108937500D01*
G75*
G02*
X114175000Y-108675000I0J262500D01*
G01*
G37*
G36*
G01*
X112425000Y-108675000D02*
X112425000Y-108150000D01*
G75*
G02*
X112687500Y-107887500I262500J0D01*
G01*
X113312500Y-107887500D01*
G75*
G02*
X113575000Y-108150000I0J-262500D01*
G01*
X113575000Y-108675000D01*
G75*
G02*
X113312500Y-108937500I-262500J0D01*
G01*
X112687500Y-108937500D01*
G75*
G02*
X112425000Y-108675000I0J262500D01*
G01*
G37*
%TD*%
%TO.C,C3*%
G36*
G01*
X110075000Y-106362500D02*
X110075000Y-106887500D01*
G75*
G02*
X109812500Y-107150000I-262500J0D01*
G01*
X109187500Y-107150000D01*
G75*
G02*
X108925000Y-106887500I0J262500D01*
G01*
X108925000Y-106362500D01*
G75*
G02*
X109187500Y-106100000I262500J0D01*
G01*
X109812500Y-106100000D01*
G75*
G02*
X110075000Y-106362500I0J-262500D01*
G01*
G37*
G36*
G01*
X111825000Y-106362500D02*
X111825000Y-106887500D01*
G75*
G02*
X111562500Y-107150000I-262500J0D01*
G01*
X110937500Y-107150000D01*
G75*
G02*
X110675000Y-106887500I0J262500D01*
G01*
X110675000Y-106362500D01*
G75*
G02*
X110937500Y-106100000I262500J0D01*
G01*
X111562500Y-106100000D01*
G75*
G02*
X111825000Y-106362500I0J-262500D01*
G01*
G37*
%TD*%
M02*
